<svg id="Layer_1" data-name="Layer 1" xmlns="http://www.w3.org/2000/svg" viewBox="0 0 1976.7 900.9"><defs><style>.cls-1,.cls-5{fill:#fcee21;}.cls-2{fill:#333;}.cls-3,.cls-5{opacity:0.99;}.cls-4,.cls-6{fill:#ed1c24;}.cls-5,.cls-6,.cls-7{stroke:#333;}.cls-5,.cls-6{stroke-linejoin:round;stroke-width:9px;}.cls-6,.cls-7{stroke-linecap:round;}.cls-7{fill:#fff;stroke-miterlimit:10;stroke-width:16px;}</style></defs><rect class="cls-1" width="1976.7" height="900.9"/><g id="Head_in_Circle" data-name="Head in Circle"><path class="cls-1" d="M500.65,854.19A402.63,402.63,0,0,1,344,80.77,402.63,402.63,0,0,1,657.33,822.56,400.12,400.12,0,0,1,500.65,854.19Z"/><path class="cls-2" d="M500.65,57.14A394.63,394.63,0,0,1,654.21,815.19,394.63,394.63,0,0,1,347.09,88.14a392,392,0,0,1,153.56-31m0-16c-226.72,0-410.52,183.8-410.52,410.52s183.8,410.53,410.52,410.53,410.53-183.8,410.53-410.53S727.38,41.14,500.65,41.14Z"/><g id="Head"><g class="cls-3"><path class="cls-4" d="M307.62,629.56c-39.07,0-74.11-13.19-81.52-30.69-1.6-3.78,2-5.73,3.13-6.38,17.42-9.58,28.21-21.25,30.88-33.25-89.38-11.69-103.28-109.59-103.23-110.58a4.51,4.51,0,0,1,4.5-4.29,4.61,4.61,0,0,1,1.78.37,73.24,73.24,0,0,0,29.17,6.06c17.39,0,31.73-6.13,39.1-10-40-32.51-54.85-71.06-60.27-98.18-6.14-30.72-2-54.18-1.19-56.66a4.58,4.58,0,0,1,4.29-3.11,4.52,4.52,0,0,1,3.33,1.47c28.42,31.24,78.22,34.61,98.31,34.61,1.8,0,3.42,0,4.84-.06-10.5-24.9-14.17-50-10.9-74.82a144.36,144.36,0,0,1,21.84-58.89c11.09-17.42,27.07-33.9,32.87-33.9a4.7,4.7,0,0,1,4.71,4.06c5.16,36.46,52.63,80.77,74.23,99.25-3.66-20.9.51-42.44,12-59.74s28.49-27.93,46.68-29.07h.28a4.49,4.49,0,0,1,3.37,1.52,5.05,5.05,0,0,1,1,4.37c-1.64,13.61-2.38,48,24.89,78.48l1-.4c9.91-4.1,33.1-13.7,49.18-13.7,7.22,0,12.48,2,15.62,5.88a4.51,4.51,0,0,1-3.35,7.32c-.16,0-16.49.76-26,11.17-5.05,5.51-7.38,12.9-7,22a4.49,4.49,0,0,1-4.39,4.72l-1.74,0c-2,0-4.5-.06-7.4-.12-4.11-.09-9.23-.21-15-.21-78.76,0-137.95,23.14-175.93,68.77-80.84,97.1,0,212.81,26.53,250.83,4.1,5.86,6.8,9.73,8,12.19a4.5,4.5,0,0,1-3,6.42A180.4,180.4,0,0,1,307.62,629.56Z"/><path class="cls-2" d="M324.55,155.72c.15,0,.24.06.26.19,7,49.53,86.55,110.93,86.55,110.93-16.62-47.14,13.24-94.26,51.05-96.63h0c.31,0-8.86,46.18,28,85.15h0c1.15,0,32.42-14.89,51.36-14.89,5.33,0,9.68,1.18,12.11,4.2,0,0-39.07,1.36-37.31,37.86l-1.64,0c-4.76,0-12.52-.33-22.43-.33-42.85,0-125.83,6-179.39,70.39-94.65,113.69,25,250.16,34,267.94a176.85,176.85,0,0,1-39.57,4.5c-39.5,0-71.24-13.45-77.37-27.95-.15-.33,33.32-15.48,34.95-41.83-89.82-8.46-103.91-106.4-103.82-106.41h0a77.36,77.36,0,0,0,31,6.43,88.88,88.88,0,0,0,47-14c-83.6-63.49-65.46-154-65.11-154h0c29.28,32.18,79.15,36.08,101.64,36.08,7.21,0,11.61-.4,11.61-.4-45.67-97.76,32-167.27,37-167.27m0-9c-2.07,0-5.93,0-16.84,10.95a154.26,154.26,0,0,0-42.33,85.76c-3.11,23.52-.17,47.33,8.74,71-20.52-.21-66.78-4.1-93.2-33.13a9,9,0,0,0-15.21,3.22c-.89,2.63-5.3,27.3,1,59a168.83,168.83,0,0,0,19.76,52.2,177.68,177.68,0,0,0,36.69,44,79.3,79.3,0,0,1-30.87,6.59,68.7,68.7,0,0,1-27.39-5.69,8.94,8.94,0,0,0-3.56-.74c-.31,0-.61,0-.92.05a9,9,0,0,0-8.08,9c0,2.52,4.19,28.25,19.54,54.74,19,32.79,47.32,53.11,82.3,59.23-3.89,9.12-13.23,18-27.16,25.67l-1,.58A9,9,0,0,0,222,600.62c8.2,19.38,44.23,33.44,85.66,33.44a185.4,185.4,0,0,0,41.6-4.73,9,9,0,0,0,6-12.84c-1.39-2.75-4.17-6.72-8.37-12.73-26.07-37.33-105.4-150.92-26.76-245.38,37.08-44.56,95.11-67.15,172.47-67.15,5.75,0,10.84.12,14.93.21,2.93.06,5.45.12,7.5.12l1.84,0a9,9,0,0,0,8.79-9.43c-.38-7.92,1.49-14,5.73-18.68,8.22-9,22.8-9.75,22.94-9.76A9,9,0,0,0,561,239c-4-5-10.47-7.56-19.12-7.56-15.92,0-37.83,8.66-48.86,13.21a95.56,95.56,0,0,1-21.7-72.55,9.52,9.52,0,0,0-2.12-7.9,9,9,0,0,0-6.74-3l-.56,0c-19.62,1.22-37.9,12.55-50.16,31.08a86.23,86.23,0,0,0-13.91,51.24c-23.16-20.85-59.7-58.07-64.06-88.9a9.17,9.17,0,0,0-9.17-7.93Z"/></g><path id="Beak" class="cls-5" d="M545.4,295.51c7.84-3.6,56.16-31.94,93.39-19.9l-68,168.58L681.2,503.52c-17.7,31.05-44.31,36.23-49.43,37.81L560.28,452Z"/><g id="Head-2" data-name="Head" class="cls-3"><path class="cls-2" d="M362.33,739.5c-3.46-16.21,33.16-49.74,12.6-78.46-23.74-33.16-157.2-172.54-61.31-309,59-83.92,186.4-74.54,202.7-69.67,0,0,30.64,6,31.57,17.76C551.94,351.65,560.28,452,560.28,452s48.66,69.84,78.15,87.14c-41.58,105-34.22,158.4-59,184.43C547,757.73,364.13,748,362.33,739.5Z"/></g><g id="Noise"><line class="cls-6" x1="821.56" y1="335.71" x2="698.46" y2="389.88"/><path class="cls-4" d="M698.46,394.38a4.5,4.5,0,0,1-2.3-8.37l116.49-69.19a22.05,22.05,0,0,1,4.67-2.05A21,21,0,1,1,829.47,355L699.76,394.19A4.55,4.55,0,0,1,698.46,394.38Z"/><path class="cls-2" d="M823.4,318.37a16.53,16.53,0,0,1,4.77,32.36L698.46,389.88,815,320.69a17.3,17.3,0,0,1,3.67-1.61,16.53,16.53,0,0,1,4.78-.71m0-9a25.66,25.66,0,0,0-7.38,1.09,26.4,26.4,0,0,0-5.62,2.47l0,0-116.5,69.19a9,9,0,0,0,4.59,16.74,8.74,8.74,0,0,0,2.61-.39l129.71-39.14a25.54,25.54,0,0,0-7.37-50Z"/><line class="cls-6" x1="790.38" y1="460.72" x2="704.35" y2="455.46"/><path class="cls-4" d="M793.51,482.12a21.14,21.14,0,0,1-5.24-.66l-85-21.63a4.5,4.5,0,0,1,.54-8.83l87-11.12a22,22,0,0,1,2.68-.17,21.31,21.31,0,0,1,5.24.65,21.21,21.21,0,0,1-5.21,41.76Z"/><path class="cls-2" d="M793.49,444.21a16.71,16.71,0,1,1-4.11,32.89l-85-21.64,87-11.12a18.39,18.39,0,0,1,2.11-.13m0-9a26.64,26.64,0,0,0-3.22.2l-87.06,11.13a9,9,0,0,0-1.08,17.65l85,21.63a25.68,25.68,0,0,0,31.25-18.57A25.7,25.7,0,0,0,799.84,436a25.93,25.93,0,0,0-6.35-.79Z"/><line class="cls-6" x1="714.01" y1="258.87" x2="669.28" y2="332.54"/><path class="cls-4" d="M669.28,337a4.49,4.49,0,0,1-4.22-6.07l30.71-82.19a21.5,21.5,0,0,1,4.11-6.78,21.2,21.2,0,0,1,30-1.55,21.2,21.2,0,0,1,1.55,29.95l-58.76,65.16A4.5,4.5,0,0,1,669.28,337Z"/><path class="cls-2" d="M715.64,239.49A16.71,16.71,0,0,1,728,267.38l-58.76,65.16L700,250.35a17,17,0,0,1,3.25-5.34,16.63,16.63,0,0,1,12.41-5.52m0-9a25.79,25.79,0,0,0-19.1,8.49,26.4,26.4,0,0,0-5,8.19l-30.71,82.22A9,9,0,0,0,676,338.57l58.76-65.16a25.71,25.71,0,0,0-19.08-42.92Z"/></g></g></g><g id="Text"><path class="cls-2" d="M1208,239.47h-59.78c-3.92,0-7.27,3.91-7.27,7.26v54.76c0,3.35,3.07,7,6.43,7h49.45v31.85h-49.17c-3.64,0-6.71,3.36-6.71,7.55v66.49h-31.85V246.45c0-3.91-1.68-7-5.87-7h-19V210.13H1208Z"/><path class="cls-2" d="M1354.7,319.09c0,87.73-11.17,100.3-60.07,100.3-48.05,0-59.51-14.53-59.51-100.3v-109H1267V319.65c0,62.3,7.83,67.61,27.66,67.61,20.4,0,27.94-4.19,27.94-67.61V210.13h32.13Z"/><path class="cls-2" d="M1500.33,414.36h-31.85L1416,293.11a1.5,1.5,0,0,0-1.12-.84,1,1,0,0,0-1.12,1.12v121h-31.85v-204h31.85l52.53,122.65a1.85,1.85,0,0,0,1.39,1.12,1.25,1.25,0,0,0,.84-1.12V210.41h31.85Z"/><path class="cls-2" d="M1644.57,414.64h-34.65l-44.7-77.39c-1.12-2.23-3.07-3.35-4.19-3.35s-2,.84-2,2.51v78.23H1527.5V210.41h31.57v79.34c0,2.24,1.12,2.8,2.52,2.8a5,5,0,0,0,4.47-2.52l43.86-79.62h34.65L1592,307.08a11,11,0,0,0-1.4,5.59,12.93,12.93,0,0,0,1.4,5.86Z"/><path class="cls-2" d="M1791.31,242.54c0,77.39-8.66,96.11-44.14,99.46v72.36h-31.85V341.72c-34.92-3.63-43.58-23.75-43.58-99.18V210.13h31.85v32.69c0,62.58,7.82,67.61,27.65,67.61,20.4,0,27.94-4.19,27.94-67.61V210.13h32.13Z"/><path class="cls-2" d="M1390.37,55.87H1372.3c-2.22,0-3.06,2.08-3.06,3.47v83.39H1353.4V59.2c0-1.94-.83-3.33-2.64-3.33h-18.48V41.14h58.09Z"/><path class="cls-2" d="M1470.34,142.73H1454.5v-34c0-1.67-.56-2.78-2.51-2.78h-18.2a2.85,2.85,0,0,0-2.5,2.78v34h-17.1V41.28h17.1V87.83a2.48,2.48,0,0,0,2.22,2.64H1452c1.53,0,2.51-.83,2.51-2.91V41.28h15.84Z"/><path class="cls-2" d="M1543.22,142.73h-49.06V41.14h49.06V55.59h-29.74A3.87,3.87,0,0,0,1510,59.2V86.58a3.49,3.49,0,0,0,3.19,3.48h24.46V105.9h-24.32a3.49,3.49,0,0,0-3.33,3.75v13.76a3.19,3.19,0,0,0,3.19,3.48h30Z"/><path class="cls-2" d="M1114.18,626.45c-3.35,53.08-17.6,62.3-58.39,62.3-49.44,0-59.5-15.09-59.5-106.71,0-81,10.06-106.44,60.06-106.44,41.63,0,54.2,10.06,57.83,58.95h-32.41c0-24.59-8.66-27.1-26-27.1-19.55,0-27.65,3.35-27.65,74.59,0,69,8.38,74.58,27.65,74.58,19,0,25.7-5.58,25.7-30.17Z"/><path class="cls-2" d="M1254.21,683.72h-31.85V615.28c0-3.35-1.12-5.59-5-5.59h-36.59c-2.52,0-5,2.8-5,5.59v68.44h-34.36V479.79h34.36v93.59c0,2.79,2,5.3,4.47,5.3h37.15c3.08,0,5-1.67,5-5.86v-93h31.85Z"/><path class="cls-2" d="M1299.82,512.75a18.44,18.44,0,1,1,0-36.87,18.44,18.44,0,1,1,0,36.87Zm15.92,171h-31.85V524.49h31.85Z"/><path class="cls-2" d="M1463.59,626.45c-3.35,53.08-17.6,62.3-58.39,62.3-49.44,0-59.5-15.09-59.5-106.71,0-81,10.06-106.44,60.06-106.44,41.63,0,54.2,10.06,57.83,58.95h-32.41c0-24.59-8.66-27.1-26-27.1-19.55,0-27.65,3.35-27.65,74.59,0,69,8.38,74.58,27.65,74.58,19,0,25.71-5.58,25.71-30.17Z"/><path class="cls-2" d="M1607.81,684h-34.64l-44.7-77.38c-1.11-2.24-3.07-3.36-4.19-3.36s-2,.84-2,2.52V684h-31.57V479.79h31.57v79.34c0,2.23,1.11,2.79,2.51,2.79a5,5,0,0,0,4.47-2.51l43.86-79.62h34.64l-52.52,96.66a11,11,0,0,0-1.4,5.59,12.93,12.93,0,0,0,1.4,5.86Z"/><path class="cls-2" d="M1733.59,683.72H1635V479.51h98.61v29.06h-59.78c-3.63,0-7,3.91-7,7.26v55c0,3.35,2.79,7,6.42,7h49.17v31.85h-48.89c-3.91,0-6.7,3.35-6.7,7.54v27.66c0,3.07,1.67,7,6.42,7h60.34Z"/><path class="cls-2" d="M1879.21,683.72h-31.85l-52.52-121.24a1.5,1.5,0,0,0-1.11-.84,1,1,0,0,0-1.12,1.12v121h-31.85V479.79h31.85l52.52,122.64a1.83,1.83,0,0,0,1.39,1.11,1.23,1.23,0,0,0,.84-1.11V479.79h31.85Z"/><path class="cls-2" d="M1117,772.68h-29.75a3.89,3.89,0,0,0-3.61,3.62v27.24a3.6,3.6,0,0,0,3.2,3.47h24.6v15.85h-24.46a3.57,3.57,0,0,0-3.34,3.75v33.07h-15.84V776.16c0-1.95-.84-3.48-2.92-3.48h-9.45V758.09H1117Z"/><path class="cls-2" d="M1170.38,862.19c-24.6,0-29.6-7.51-29.6-53.09,0-40.31,5-53,29.88-53,26.13,0,29.6,8.06,29.6,53C1200.26,856.07,1195.4,862.19,1170.38,862.19Zm0-90.2c-10,0-13.76,1.67-13.76,37.11,0,34.32,3.62,37.1,13.76,37.1,10.43,0,13.9-2.36,13.9-37.1C1184.28,772.55,1181.78,772,1170.38,772Z"/><path class="cls-2" d="M1253.69,862.19c-24.6,0-29.6-7.51-29.6-53.09,0-40.31,5-53,29.88-53,26.12,0,29.6,8.06,29.6,53C1283.57,856.07,1278.7,862.19,1253.69,862.19Zm0-90.2c-10,0-13.76,1.67-13.76,37.11,0,34.32,3.61,37.1,13.76,37.1,10.42,0,13.9-2.36,13.9-37.1C1267.59,772.55,1265.08,772,1253.69,772Z"/><path class="cls-2" d="M1335.88,859.68h-28.49V758.23h28.49c17.24,0,29.74,6.81,29.74,51C1365.62,848,1354.23,859.68,1335.88,859.68Zm-4.17-86.86H1325a1.58,1.58,0,0,0-1.81,1.67v68.79a1.35,1.35,0,0,0,1.39,1.53h7.09c15.15,0,18.07-13.06,18.07-35.58C1349.78,783.8,1348.25,772.82,1331.71,772.82Z"/><path class="cls-2" d="M1490.22,772.82h-18.07c-2.22,0-3.06,2.09-3.06,3.48v83.38h-15.84V776.16c0-1.95-.83-3.34-2.64-3.34h-18.48V758.09h58.09Z"/><path class="cls-2" d="M1572.28,859.68h-17l-19.87-38.21a1.51,1.51,0,0,0-1.53-1.12h-3.06a1.25,1.25,0,0,0-1.25,1.25v38.08H1514V758.23h28.36c21.95,0,29.88,8.48,29.88,31.55,0,18.76-6.4,27.24-20.85,29.74Zm-34-86.86h-6.54c-1.39,0-2.08.42-2.08,1.67v29.19a1.49,1.49,0,0,0,1.53,1.66h7.09c15.14,0,18.2-4.17,18.2-15.56C1556.43,777.83,1554.76,772.82,1538.23,772.82Z"/><path class="cls-2" d="M1655.58,812.29c0,43.64-5.56,49.9-29.88,49.9-23.9,0-29.6-7.23-29.6-49.9v-54.2h15.84v54.48c0,31,3.89,33.63,13.76,33.63,10.15,0,13.9-2.08,13.9-33.63V758.09h16Z"/><path class="cls-2" d="M1738.05,831.19c-1.66,26.41-8.75,31-29,31-24.6,0-29.6-7.51-29.6-53.09,0-40.31,5-53,29.88-53,20.7,0,27,5,28.76,29.32h-16.12c0-12.23-4.31-13.48-12.92-13.48-9.73,0-13.76,1.67-13.76,37.11,0,34.32,4.17,37.1,13.76,37.1s12.78-2.78,12.78-15Z"/><path class="cls-2" d="M1820.11,859.82h-17.23l-22.24-38.49a2.8,2.8,0,0,0-2.09-1.67c-.55,0-1,.42-1,1.25v38.91h-15.7V758.23h15.7V797.7c0,1.11.56,1.39,1.25,1.39a2.52,2.52,0,0,0,2.23-1.25l21.82-39.61h17.23L1794,806.32a5.51,5.51,0,0,0-.69,2.78A6.51,6.51,0,0,0,1794,812Z"/><g id="Lines"><line class="cls-7" x1="1294.91" y1="92" x2="996.29" y2="92"/><line class="cls-7" x1="1596.1" y1="91.93" x2="1879.21" y2="91.93"/><line class="cls-7" x1="1879.21" y1="809.17" x2="1845.17" y2="809.17"/><line class="cls-7" x1="1029.87" y1="810.03" x2="995.83" y2="810.03"/></g></g></svg>