<svg id="Layer_1" data-name="Layer 1" xmlns="http://www.w3.org/2000/svg" viewBox="0 0 1056.97 1056.97"><defs><style>.cls-1,.cls-5{fill:#fcee21;}.cls-2{fill:#333;}.cls-3,.cls-5{opacity:0.99;}.cls-4,.cls-6{fill:#ed1c24;}.cls-5,.cls-6{stroke:#333;stroke-linejoin:round;stroke-width:9px;}.cls-6{stroke-linecap:round;}</style></defs><g id="Head_in_Circle" data-name="Head in Circle"><path class="cls-1" d="M527.48,1048A520.63,520.63,0,0,1,324.89,47.89a520.62,520.62,0,0,1,405.18,959.18A517.16,517.16,0,0,1,527.48,1048Z" transform="translate(1.01 1.01)"/><path class="cls-2" d="M527.48,15A512.63,512.63,0,0,1,727,999.7,512.62,512.62,0,0,1,328,55.26,509.27,509.27,0,0,1,527.48,15m0-16C235.61-1-1,235.61-1,527.48S235.61,1056,527.48,1056,1056,819.35,1056,527.48,819.35-1,527.48-1Z" transform="translate(1.01 1.01)"/><g id="Head"><g class="cls-3"><path class="cls-4" d="M279,755.2c-49.8,0-94.4-16.64-103.75-38.72-1.6-3.79,1.94-5.74,3.46-6.57,23.42-12.88,37.68-28.74,40.67-45-58.66-7.21-91.59-44-109-74.09-18.86-32.56-24.25-65.19-24.16-67.09a4.49,4.49,0,0,1,4.5-4.29,4.44,4.44,0,0,1,1.78.37,95.48,95.48,0,0,0,38.06,7.91c24.08,0,43.67-9,52.66-14C131,471.79,111.58,421.84,104.58,386.8c-7.74-38.69-2.58-69.28-1.58-72.28a4.6,4.6,0,0,1,4.3-3.12,4.54,4.54,0,0,1,3.33,1.47c36.94,40.6,101.48,45,127.52,45,3.18,0,5.93-.07,8.15-.15-14-32.41-18.93-65.13-14.67-97.38C235.1,234,244.49,208.7,259.55,185c15.18-23.84,35-43,41.23-43a4.76,4.76,0,0,1,4.78,4.11c6.93,49,72.44,108.7,98.81,131-5.81-27.69-.71-56.58,14.5-79.56,14.54-22,36.09-35.41,59.1-36.85h.28a4.53,4.53,0,0,1,3.37,1.52c1.37,1.54,1.18,3.11,1,4.62-2.15,17.79-3.12,63,33,102.73l2.08-.86c12.68-5.25,42.37-17.54,62.81-17.54,8.89,0,15.31,2.38,19.1,7.08a4.5,4.5,0,0,1-3.35,7.32c-.21,0-21.74,1-34.41,14.79-6.74,7.35-9.87,17.19-9.29,29.23a4.49,4.49,0,0,1-4.39,4.72c-.67,0-1.41,0-2.21,0-2.56,0-5.78-.07-9.5-.15-5.3-.12-11.9-.26-19.37-.26-101.8,0-178.33,29.94-227.49,89-104.69,125.77-.23,275.33,34.1,324.48,5.23,7.5,8.69,12.45,10.26,15.54a4.51,4.51,0,0,1-3,6.42A231.71,231.71,0,0,1,279,755.2Z" transform="translate(1.01 1.01)"/><path class="cls-2" d="M300.78,146.5a.29.29,0,0,1,.33.24c9,63.77,111.42,142.81,111.42,142.81-21.4-60.69,17-121.35,65.72-124.4h0c.4,0-11.4,59.45,36.08,109.62h0c1.49,0,41.74-19.16,66.12-19.16,6.86,0,12.46,1.51,15.59,5.4,0,0-50.3,1.75-48,48.74-.64,0-1.35,0-2.11,0-6.13,0-16.13-.41-28.87-.41-55.17,0-162,7.77-231,90.61-121.84,146.36,32.21,322,43.8,344.92A227,227,0,0,1,279,750.7c-50.85,0-91.71-17.31-99.6-36-.19-.44,42.89-19.94,45-53.86C108.75,650,90.61,523.9,90.72,523.89h0a99.76,99.76,0,0,0,39.84,8.28c35.05,0,60.56-18,60.56-18C83.5,432.39,106.85,315.9,107.3,315.9h0c37.69,41.43,101.9,46.46,130.85,46.46,9.28,0,14.94-.52,14.94-.52C194.3,236,294.27,146.5,300.78,146.5m0-9c-2.13,0-6.57,0-19.85,13.34a189.33,189.33,0,0,0-25.17,31.79c-15.42,24.21-25,50.16-28.59,77.12-4.1,31,.09,62.44,12.46,93.6h-1.48c-25.44,0-88.46-4.24-124.19-43.52a9,9,0,0,0-15.22,3.25c-1.11,3.29-6.62,34.36,1.43,74.6a214.94,214.94,0,0,0,25.13,66.4,226.87,226.87,0,0,0,49.77,58.69c-9.9,4.68-25.8,10.39-44.51,10.39a91.11,91.11,0,0,1-36.28-7.54,8.94,8.94,0,0,0-3.56-.74c-.31,0-.62,0-.93.05a9,9,0,0,0-8.08,9c0,2.7,5.5,35.84,24.82,69.18,11.64,20.08,26.1,36.61,43,49.11,18.66,13.83,40.25,22.69,64.26,26.39C209.36,682,196.46,695,176.52,706l-1.29.71a9.07,9.07,0,0,0-4.14,11.55c4.93,11.66,18.71,22.28,38.79,29.9,19.67,7.46,44.21,11.57,69.1,11.57a236,236,0,0,0,53-6,9,9,0,0,0,6-12.83c-1.71-3.38-5.24-8.43-10.58-16.08-33.84-48.46-136.82-195.9-34.33-319,48.26-58,123.63-87.36,224-87.36,7.42,0,14,.14,19.27.26,3.75.08,7,.15,9.6.15.83,0,1.61,0,2.31,0a9,9,0,0,0,8.79-9.43c-.53-11,2.13-19.48,8.14-26,11.3-12.28,31-13.3,31.21-13.3a9,9,0,0,0,6.7-14.64c-4.68-5.82-12.28-8.76-22.6-8.76-20.86,0-50.27,12-63.65,17.52-32.72-37.8-31.79-80-29.76-96.81a9.55,9.55,0,0,0-2.09-8.14,9,9,0,0,0-6.74-3l-.56,0c-24.44,1.53-47.24,15.69-62.58,38.86a107.45,107.45,0,0,0-16.7,45.11,111,111,0,0,0-.41,25.5c-29.54-26-82-77.57-88-120.16a9.24,9.24,0,0,0-9.24-8Z" transform="translate(1.01 1.01)"/></g><path id="Beak" class="cls-5" d="M585.08,326.46c10.1-4.64,72.3-41.12,120.23-25.62l-87.54,217,142.14,76.38c-22.79,40-57,46.63-63.64,48.68l-92-115.06Z" transform="translate(1.01 1.01)"/><g id="Head-2" data-name="Head" class="cls-3"><path class="cls-2" d="M349.41,898c-4.45-20.88,42.69-64,16.22-101C335.07,754.33,163.26,574.9,286.7,399.23c75.91-108,240-96,261-89.68,0,0,39.45,7.67,40.64,22.86,5.21,66.32,16,195.45,16,195.45S666.89,617.77,704.85,640C651.33,775.26,660.8,844,629,877.47,587.09,921.5,351.73,908.92,349.41,898Z" transform="translate(1.01 1.01)"/></g><g id="Noise"><line class="cls-6" x1="941.61" y1="379.22" x2="783.13" y2="448.95"/><path class="cls-4" d="M782.12,452.44a4.5,4.5,0,0,1-2.3-8.37l150-89.06a27,27,0,0,1,5.72-2.52,25.78,25.78,0,0,1,14.9,49.36l-167,50.4A4.5,4.5,0,0,1,782.12,452.44Z" transform="translate(1.01 1.01)"/><path class="cls-2" d="M943,355.89a21.28,21.28,0,0,1,6.14,41.66l-167,50.39,150-89.07a22.74,22.74,0,0,1,4.72-2.07,21.23,21.23,0,0,1,6.16-.91m0-9a30.31,30.31,0,0,0-8.76,1.29,31.48,31.48,0,0,0-6.67,2.93l0,0-150,89.07a9,9,0,0,0,7.19,16.35l167-50.4A30.28,30.28,0,0,0,943,346.89Z" transform="translate(1.01 1.01)"/><line class="cls-6" x1="901.47" y1="540.15" x2="790.72" y2="533.38"/><path class="cls-4" d="M904.49,565.4a25.85,25.85,0,0,1-6.42-.81L788.6,536.74a4.5,4.5,0,0,1,.54-8.83l112-14.32a27.76,27.76,0,0,1,3.28-.2,26,26,0,0,1,0,52Z" transform="translate(1.01 1.01)"/><path class="cls-2" d="M904.46,517.89a21.51,21.51,0,1,1-5.28,42.34L789.71,532.38l112-14.32a22.15,22.15,0,0,1,2.71-.17m0-9a30.49,30.49,0,0,0-3.82.24L788.57,523.45a9,9,0,0,0-1.08,17.65L897,569a30.5,30.5,0,1,0,7.5-60.06Z" transform="translate(1.01 1.01)"/><line class="cls-6" x1="803.15" y1="280.29" x2="745.56" y2="375.14"/><path class="cls-4" d="M744.56,378.63a4.49,4.49,0,0,1-4.22-6.07l39.53-105.81a26.67,26.67,0,0,1,5-8.32,26,26,0,0,1,38.62,34.83L747.9,377.15A4.5,4.5,0,0,1,744.56,378.63Z" transform="translate(1.01 1.01)"/><path class="cls-2" d="M804.24,254.34a21.51,21.51,0,0,1,16,35.91l-75.64,83.88,39.53-105.81a21.77,21.77,0,0,1,4.17-6.87,21.46,21.46,0,0,1,16-7.11m0-9a30.56,30.56,0,0,0-22.66,10.08,30.94,30.94,0,0,0-5.91,9.73L736.13,371a9,9,0,0,0,15.11,9.18l75.65-83.88a30.51,30.51,0,0,0-22.65-50.94Z" transform="translate(1.01 1.01)"/></g></g></g></svg>