<svg id="Layer_1" data-name="Layer 1" xmlns="http://www.w3.org/2000/svg" viewBox="0 0 4019.5 896.26"><defs><style>.cls-1,.cls-5{fill:#fcee21;}.cls-2,.cls-7{fill:#333;}.cls-3,.cls-5{opacity:0.99;}.cls-4,.cls-6{fill:#ed1c24;}.cls-5,.cls-6,.cls-7{stroke:#333;}.cls-5,.cls-6{stroke-linejoin:round;stroke-width:9px;}.cls-6,.cls-7{stroke-linecap:round;}.cls-7{stroke-miterlimit:10;stroke-width:16px;}</style></defs><rect class="cls-1" width="4019.5" height="896.26"/><g id="Head_in_Circle" data-name="Head in Circle"><path class="cls-1" d="M583,850.65A402.63,402.63,0,0,1,426.36,77.23,402.63,402.63,0,0,1,739.72,819,400,400,0,0,1,583,850.65Z"/><path class="cls-2" d="M583,53.6A394.63,394.63,0,0,1,736.6,811.65a394.63,394.63,0,0,1-307.12-727A392,392,0,0,1,583,53.6m0-16c-226.73,0-410.52,183.8-410.52,410.53S356.31,858.65,583,858.65s410.52-183.8,410.52-410.52S809.77,37.6,583,37.6Z"/><g id="Head"><g class="cls-3"><path class="cls-4" d="M390,626c-39.07,0-74.11-13.2-81.52-30.7-1.6-3.78,2-5.73,3.12-6.37,17.43-9.58,28.21-21.25,30.88-33.26C253.12,544,239.22,446.12,239.27,445.13a4.49,4.49,0,0,1,4.5-4.29,4.44,4.44,0,0,1,1.78.37,73.2,73.2,0,0,0,29.17,6.06,85.25,85.25,0,0,0,39.11-10c-40-32.52-54.86-71.08-60.28-98.19-6.15-30.73-2-54.19-1.19-56.67a4.56,4.56,0,0,1,4.28-3.11,4.49,4.49,0,0,1,3.33,1.48c28.43,31.24,78.23,34.61,98.32,34.61,1.8,0,3.42,0,4.83-.06-10.5-24.9-14.16-50-10.89-74.82a144.21,144.21,0,0,1,21.84-58.89c11.09-17.43,27.07-33.9,32.87-33.9a4.69,4.69,0,0,1,4.71,4.05c5.16,36.47,52.63,80.78,74.23,99.25-3.66-20.89.5-42.44,11.95-59.73s28.49-27.94,46.69-29.08h.28a4.53,4.53,0,0,1,3.37,1.51,5.08,5.08,0,0,1,1,4.38c-1.64,13.6-2.39,48,24.89,78.48l1-.4c9.91-4.1,33.1-13.71,49.18-13.71,7.22,0,12.48,2,15.61,5.88a4.5,4.5,0,0,1-3.35,7.32c-.15,0-16.48.76-26,11.18-5,5.5-7.38,12.89-6.94,22a4.49,4.49,0,0,1-4.39,4.71c-.53,0-1.11,0-1.74,0-2,0-4.51,0-7.41-.12-4.11-.09-9.22-.2-15-.2C496.19,283.2,437,306.33,399,352c-80.83,97.1,0,212.81,26.54,250.84,4.09,5.85,6.79,9.72,8,12.19a4.49,4.49,0,0,1-3,6.42A181,181,0,0,1,390,626Z"/><path class="cls-2" d="M406.94,152.19c.15,0,.24.06.25.18,7,49.54,86.55,110.93,86.55,110.93C477.13,216.17,507,169,544.8,166.68h0c.31,0-8.86,46.17,28,85.14h0c1.16,0,32.43-14.88,51.37-14.88,5.33,0,9.68,1.17,12.11,4.2,0,0-39.07,1.35-37.31,37.86h-1.64c-4.76,0-12.53-.32-22.43-.32-42.86,0-125.83,6-179.39,70.38-94.65,113.7,25,250.16,34,267.94A176.3,176.3,0,0,1,390,621.53c-39.51,0-71.24-13.45-77.38-27.95-.14-.34,33.33-15.49,35-41.83-89.82-8.46-103.91-106.4-103.83-106.41h0a77.61,77.61,0,0,0,31,6.43,88.88,88.88,0,0,0,47-14c-83.6-63.49-65.46-154-65.12-154h0c29.27,32.17,79.15,36.08,101.64,36.08,7.21,0,11.61-.4,11.61-.4-45.67-97.76,32-167.27,37-167.27m0-9c-2.07,0-5.93,0-16.84,10.95a154.27,154.27,0,0,0-42.33,85.75c-3.11,23.53-.17,47.34,8.73,71-20.51-.2-66.77-4.1-93.19-33.12A9,9,0,0,0,248.09,281c-.88,2.63-5.29,27.29,1,59a169,169,0,0,0,19.77,52.2,177.11,177.11,0,0,0,36.69,44.05,79.3,79.3,0,0,1-30.87,6.59,68.87,68.87,0,0,1-27.39-5.69,9,9,0,0,0-3.57-.74c-.3,0-.61,0-.92.05a9,9,0,0,0-8.08,9c0,2.52,4.21,28.26,19.55,54.74,19,32.79,47.31,53.11,82.3,59.23-3.89,9.12-13.23,18-27.16,25.66l-1,.58a9,9,0,0,0-4.06,11.5c8.2,19.37,44.22,33.44,85.66,33.44a185.32,185.32,0,0,0,41.59-4.74,9,9,0,0,0,6-12.84c-1.39-2.74-4.17-6.72-8.37-12.73-26.07-37.33-105.4-150.92-26.77-245.38C439.56,310.29,497.59,287.7,575,287.7c5.75,0,10.84.11,14.93.2,2.92.07,5.45.12,7.5.12.66,0,1.28,0,1.84,0a9,9,0,0,0,8.79-9.43c-.39-7.92,1.49-14,5.73-18.67,8.22-9,22.79-9.76,22.94-9.76a9,9,0,0,0,6.66-14.64c-4-5-10.47-7.55-19.12-7.55-15.93,0-37.83,8.66-48.87,13.2-23.93-28.48-23.22-59.91-21.7-72.54a9.45,9.45,0,0,0-2.12-7.9,9,9,0,0,0-6.73-3h-.57c-19.61,1.23-37.89,12.56-50.15,31.08A86.19,86.19,0,0,0,480.17,240c-23.16-20.84-59.7-58.07-64.06-88.9a9.17,9.17,0,0,0-9.17-7.92Z"/></g><path id="Beak" class="cls-5" d="M627.79,292c7.84-3.61,56.16-31.94,93.39-19.9l-68,168.57L763.59,500c-17.71,31-44.31,36.22-49.43,37.81l-71.49-89.38Z"/><g id="Head-2" data-name="Head" class="cls-3"><path class="cls-2" d="M444.72,736c-3.46-16.22,33.16-49.74,12.59-78.47C433.58,624.34,300.12,485,396,348.5c59-83.92,186.4-74.53,202.7-69.66,0,0,30.65,6,31.58,17.76,4.05,51.52,12.39,151.82,12.39,151.82s48.66,69.84,78.15,87.14C679.24,640.6,686.6,694,661.86,720,629.35,754.2,446.52,744.43,444.72,736Z"/></g><g id="Noise"><line class="cls-6" x1="903.95" y1="332.18" x2="780.84" y2="386.34"/><path class="cls-4" d="M780.84,390.85a4.5,4.5,0,0,1-2.29-8.37L895,313.29a21.48,21.48,0,0,1,4.66-2.05,21,21,0,0,1,12.16,40.26L782.14,390.65A4.51,4.51,0,0,1,780.84,390.85Z"/><path class="cls-2" d="M905.79,314.83a16.54,16.54,0,0,1,4.77,32.37L780.84,386.34l116.5-69.18a17.48,17.48,0,0,1,3.66-1.62,16.6,16.6,0,0,1,4.79-.71m0-9a25.44,25.44,0,0,0-7.39,1.1,26,26,0,0,0-5.61,2.46l0,0L776.25,378.61A9,9,0,0,0,783.44,395l129.72-39.15a25.54,25.54,0,0,0-7.37-50Z"/><line class="cls-6" x1="872.77" y1="457.19" x2="786.74" y2="451.93"/><path class="cls-4" d="M875.9,478.59a21.62,21.62,0,0,1-5.24-.66l-85-21.64a4.5,4.5,0,0,1,.54-8.82l87-11.12a20.09,20.09,0,0,1,2.68-.17,21.21,21.21,0,0,1,0,42.41Z"/><path class="cls-2" d="M875.88,440.68a16.71,16.71,0,1,1-4.11,32.89l-85-21.64,87-11.12a16.38,16.38,0,0,1,2.11-.13m0-9a26.51,26.51,0,0,0-3.22.2L785.6,443a9,9,0,0,0-1.08,17.65l85,21.64a25.7,25.7,0,1,0,6.33-50.61Z"/><line class="cls-6" x1="796.4" y1="255.33" x2="751.66" y2="329.01"/><path class="cls-4" d="M751.66,333.51a4.5,4.5,0,0,1-4.21-6.08l30.7-82.19a21.94,21.94,0,0,1,4.12-6.78,21.21,21.21,0,0,1,30-1.54,21.21,21.21,0,0,1,1.55,29.94L755,332A4.5,4.5,0,0,1,751.66,333.51Z"/><path class="cls-2" d="M798,236a16.7,16.7,0,0,1,12.4,27.89L751.66,329l30.71-82.19a17.08,17.08,0,0,1,3.24-5.34A16.66,16.66,0,0,1,798,236m0-9a25.75,25.75,0,0,0-19.09,8.49,26.1,26.1,0,0,0-5,8.19l-30.72,82.22A9,9,0,0,0,758.35,335l58.76-65.16A25.7,25.7,0,0,0,798,227Z"/></g></g></g><path class="cls-2" d="M1267.8,312h-99c-6.47,0-12,6.47-12,12v90.64c0,5.55,5.08,11.56,10.64,11.56h81.85V479h-81.39c-6,0-11.1,5.54-11.1,12.48V601.51H1104.1V323.59c0-6.48-2.77-11.56-9.71-11.56h-31.45V263.47H1267.8Z"/><path class="cls-2" d="M1510.7,443.82c0,145.2-18.5,166-99.43,166-79.54,0-98.5-24.05-98.5-166V263.47h52.72V444.74c0,103.13,13,111.91,45.78,111.91,33.76,0,46.25-6.93,46.25-111.91V263.47h53.18Z"/><path class="cls-2" d="M1751.74,601.51H1699l-86.93-200.7a2.49,2.49,0,0,0-1.86-1.38,1.68,1.68,0,0,0-1.84,1.84V601.51h-52.72V263.93h52.72l86.94,203a3,3,0,0,0,2.31,1.85,2.06,2.06,0,0,0,1.38-1.85v-203h52.72Z"/><path class="cls-2" d="M1990.47,602h-57.34l-74-128.09c-1.85-3.7-5.09-5.55-6.93-5.55s-3.24,1.39-3.24,4.16V602h-52.26v-338H1849V395.26c0,3.7,1.85,4.63,4.16,4.63,2.78,0,6-1.39,7.4-4.16l72.6-131.8h57.34l-86.93,160a18.27,18.27,0,0,0-2.32,9.25,21.44,21.44,0,0,0,2.32,9.71Z"/><path class="cls-2" d="M2233.37,317.11c0,128.1-14.34,159.08-73.07,164.63V601.51h-52.72V481.28c-57.8-6-72.14-39.31-72.14-164.17V263.47h52.72v54.1c0,103.59,13,111.91,45.78,111.91,33.76,0,46.25-6.93,46.25-111.91v-54.1h53.18Z"/><path class="cls-2" d="M1144.66,58.33h-25.42c-3.13,0-4.3,2.93-4.3,4.88V180.5h-22.28V63c0-2.74-1.18-4.69-3.72-4.69h-26V37.6h81.72Z"/><path class="cls-2" d="M1257.14,180.5h-22.28V132.61c0-2.35-.78-3.91-3.52-3.91h-25.61c-1.76,0-3.52,2-3.52,3.91V180.5h-24V37.8h24v65.49c0,1.95,1.37,3.71,3.13,3.71h26c2.15,0,3.52-1.17,3.52-4.1V37.8h22.28Z"/><path class="cls-2" d="M1359.66,180.5h-69V37.6h69V57.93h-41.83c-2.54,0-4.89,2.74-4.89,5.09v38.51c0,2.34,2,4.88,4.5,4.88h34.4V128.7h-34.21c-2.74,0-4.69,2.35-4.69,5.28v19.35c0,2.15,1.17,4.89,4.5,4.89h42.22Z"/><path class="cls-2" d="M2580.73,509.94c-5.55,87.85-29.13,103.11-96.63,103.11-81.85,0-98.49-25-98.49-176.63,0-134.09,16.64-176.17,99.41-176.17,68.89,0,89.7,16.65,95.71,97.57H2527.1c0-40.69-14.34-44.86-43-44.86-32.37,0-45.78,5.55-45.78,123.46,0,114.21,13.87,123.46,45.78,123.46,31.44,0,42.53-9.25,42.53-49.94Z"/><path class="cls-2" d="M2812.51,604.73h-52.72V491.44c0-5.55-1.84-9.24-8.32-9.24H2690.9c-4.16,0-8.32,4.62-8.32,9.24V604.73H2625.7V267.19h56.88v154.9c0,4.62,3.23,8.78,7.39,8.78h61.5c5.09,0,8.32-2.77,8.32-9.71v-154h52.72Z"/><path class="cls-2" d="M2888,321.75a30.52,30.52,0,0,1,0-61c16.65,0,31,13.41,31,30.51S2905.1,321.75,2888,321.75Zm26.36,283h-52.71V341.17h52.71Z"/><path class="cls-2" d="M3159.07,509.94c-5.55,87.85-29.13,103.11-96.64,103.11-81.84,0-98.49-25-98.49-176.63,0-134.09,16.65-176.17,99.42-176.17,68.89,0,89.7,16.65,95.71,97.57h-53.64c0-40.69-14.33-44.86-43-44.86-32.37,0-45.77,5.55-45.77,123.46,0,114.21,13.87,123.46,45.77,123.46,31.44,0,42.54-9.25,42.54-49.94Z"/><path class="cls-2" d="M3397.78,605.19h-57.34l-74-128.08c-1.84-3.7-5.08-5.55-6.93-5.55s-3.24,1.39-3.24,4.16V605.19H3204v-338h52.25V398.51c0,3.69,1.85,4.62,4.16,4.62,2.78,0,6-1.39,7.4-4.16l72.59-131.78h57.34l-86.93,160a18.25,18.25,0,0,0-2.31,9.25,21.44,21.44,0,0,0,2.31,9.71Z"/><path class="cls-2" d="M3606,604.73H3442.75v-338H3606v48.09H3507c-6,0-11.56,6.47-11.56,12v91.08c0,5.55,4.63,11.56,10.64,11.56h81.37V482.2h-80.91c-6.47,0-11.1,5.54-11.1,12.48v45.78c0,5.08,2.78,11.56,10.64,11.56H3606Z"/><path class="cls-2" d="M3847,604.73h-52.71l-86.93-200.67a2.45,2.45,0,0,0-1.85-1.39,1.7,1.7,0,0,0-1.85,1.85V604.73h-52.71V267.19h52.71l86.93,203a3.06,3.06,0,0,0,2.31,1.85,2.06,2.06,0,0,0,1.39-1.85v-203H3847Z"/><path class="cls-2" d="M2857.94,732.76h-41.83a5.47,5.47,0,0,0-5.09,5.08v38.32c0,2.34,2.15,4.88,4.5,4.88h34.6v22.29h-34.41c-2.54,0-4.69,2.35-4.69,5.28v46.52h-22.28V737.65c0-2.74-1.18-4.89-4.11-4.89h-13.29V712.23h86.6Z"/><path class="cls-2" d="M2933.09,858.65c-34.6,0-41.64-10.55-41.64-74.67,0-56.69,7-74.48,42-74.48,36.75,0,41.64,11.33,41.64,74.48C2975.12,850.05,2968.28,858.65,2933.09,858.65Zm0-126.87c-14.08,0-19.35,2.35-19.35,52.2,0,48.28,5.08,52.19,19.35,52.19,14.66,0,19.55-3.32,19.55-52.19C2952.64,732.56,2949.12,731.78,2933.09,731.78Z"/><path class="cls-2" d="M3050.27,858.65c-34.6,0-41.64-10.55-41.64-74.67,0-56.69,7-74.48,42-74.48,36.75,0,41.63,11.33,41.63,74.48C3092.29,850.05,3085.45,858.65,3050.27,858.65Zm0-126.87c-14.08,0-19.36,2.35-19.36,52.2,0,48.28,5.09,52.19,19.36,52.19,14.66,0,19.54-3.32,19.54-52.19C3069.81,732.56,3066.3,731.78,3050.27,731.78Z"/><path class="cls-2" d="M3165.88,855.13h-40.07V712.43h40.07c24.24,0,41.83,9.58,41.83,71.74C3207.71,838.71,3191.68,855.13,3165.88,855.13ZM3160,733h-9.39c-1.56,0-2.54.78-2.54,2.34v96.77a1.9,1.9,0,0,0,2,2.14h10c21.3,0,25.41-18.37,25.41-50C3185.43,748.4,3183.28,733,3160,733Z"/><path class="cls-2" d="M3383,733h-25.41c-3.13,0-4.31,2.93-4.31,4.88V855.13H3331V737.65c0-2.74-1.17-4.69-3.71-4.69h-26V712.23H3383Z"/><path class="cls-2" d="M3498.39,855.13h-23.85l-28-53.75a2.11,2.11,0,0,0-2.14-1.57h-4.3a1.76,1.76,0,0,0-1.77,1.76v53.56h-21.89V712.43h39.88c30.89,0,42,11.92,42,44.37,0,26.4-9,38.32-29.32,41.84ZM3450.49,733h-9.18c-2,0-2.94.58-2.94,2.34v41.05a2.11,2.11,0,0,0,2.16,2.35h10c21.31,0,25.61-5.87,25.61-21.9C3476.1,740,3473.76,733,3450.49,733Z"/><path class="cls-2" d="M3615.57,788.47c0,61.38-7.82,70.18-42,70.18-33.63,0-41.64-10.16-41.64-70.18V712.23h22.29v76.63c0,43.6,5.47,47.31,19.35,47.31,14.27,0,19.55-2.93,19.55-47.31V712.23h22.48Z"/><path class="cls-2" d="M3731.57,815.06c-2.35,37.14-12.31,43.59-40.86,43.59-34.6,0-41.63-10.55-41.63-74.67,0-56.69,7-74.48,42-74.48,29.13,0,37.93,7,40.47,41.24h-22.68c0-17.2-6.06-19-18.18-19-13.68,0-19.35,2.35-19.35,52.2,0,48.28,5.87,52.19,19.35,52.19,13.3,0,18-3.91,18-21.11Z"/><path class="cls-2" d="M3847,855.33h-24.24l-31.28-54.15a3.94,3.94,0,0,0-2.93-2.35c-.78,0-1.37.59-1.37,1.76v54.74h-22.09V712.43h22.09V768c0,1.56.78,1.95,1.76,1.95a3.54,3.54,0,0,0,3.13-1.76l30.69-55.71H3847l-36.75,67.64a7.7,7.7,0,0,0-1,3.91,9,9,0,0,0,1,4.1Z"/><line class="cls-7" x1="1411.74" y1="109.05" x2="3846.99" y2="109.05"/><line class="cls-7" x1="2719.1" y1="785.44" x2="1062.94" y2="785.44"/></svg>