<svg id="Layer_1" data-name="Layer 1" xmlns="http://www.w3.org/2000/svg" viewBox="0 0 101.79 59.37"><defs><style>.cls-1{fill:#fce502;}.cls-2{fill:#050505;}.cls-3{fill:#b1b1b1;}.cls-4{fill:#545454;}.cls-5{fill:#ddd;}.cls-6{fill:#fcda01;}.cls-7{fill:#fa1011;}.cls-8{fill:#dc9f04;}.cls-9{fill:#ededeb;}.cls-10{fill:#8b8d8b;}.cls-11{fill:#cecdca;}.cls-12{fill:#8bdddc;}.cls-13{fill:#99fdfd;}.cls-14{fill:#acdcdd;}.cls-15{fill:#fdfdfd;}.cls-16{fill:#c2fdfd;}.cls-17{fill:#fcee21;}.cls-18{fill:#333;}.cls-19,.cls-21{opacity:0.99;}.cls-20{fill:#ed1c24;}.cls-21{isolation:isolate;}.cls-22{fill:#231f20;}</style></defs><path class="cls-1" d="M78,1h.48c-.08.42.35.52.5.79a31.07,31.07,0,0,1,1.43,5C81,8.91,81.69,11,82.26,13.1c.16.59.44,1.31-.29,1.81H62.46c-.54.28-.27.78-.27,1.16,0,4.17,0,8.33-.06,12.49a26.74,26.74,0,0,0-5.34-.75,4.41,4.41,0,0,1-.1-1.29c.49-2.25.38-4.59,1-6.83.29-.16.53-.5,1-.23s.68.37,1,0-.06-.73-.25-1.06A11.85,11.85,0,0,1,58,16.28l-.16-.66,0-.94a1.53,1.53,0,0,0,.17-1.63l0-.28c0-.55.76-1,.29-1.63a17.93,17.93,0,0,1-3.89-6.52c-.25-.88-.63-1.21-1.49-1H13.28c-.78-.19-1.22.06-1.48.88A13.11,13.11,0,0,1,9.87,8.06l-2.3,3.15c0,1.3.2,1.5,1.33,1.22a16.9,16.9,0,0,1,1.42,5.84c.1.73.29,1.19,1,1.44a92.14,92.14,0,0,1-.18,10.77l-.47,0-1.57-16-.34,0A15.43,15.43,0,0,0,9,19.08c.31,3.32.76,6.63,1,10-1.68-.2-3.23.48-4.85.72,0-.47,0-.95,0-1.43L5,1.72l.1-.38.22-.11h0c.72,0,1.43,0,2.15,0H76.64C77.09,1.19,77.6,1.4,78,1Zm.07,1.12V1.89H5.73v.23Z"/><path class="cls-2" d="M80.64,58.55a.35.35,0,0,0-.28-.33c-.36-.11-.68-.31-1-.39a6.07,6.07,0,0,1-2.48-1.72,7.67,7.67,0,0,1-.68-.79,8.62,8.62,0,0,1-1.54-3.69,22.91,22.91,0,0,1,.73-4.6c.31-.72-.3-.26-.53-.25a8.65,8.65,0,0,1,14.7-1.45l0,.3.23.45c.3,1,1.41,1.86.68,3.1-.73-.71-.61-1.92-1.46-2.58-.19.2-.09.34,0,.47a8.14,8.14,0,0,1,.8,5.5c0,.3-.47.77.2,1l-.24.54c-.1,0-.25-.13-.27-.1s0,.33.05.5a7.86,7.86,0,0,1-2.46,2.7c-.21.15-1,.48-2.66,1.2l-.39.18h-.48c-.24-.32-.48-.23-.72,0h-.48c-.24-.24-.48-.33-.72,0Zm7.17-13.4.22.25a.44.44,0,0,0,.27.46c0,.19.1.37.34.38a.11.11,0,0,0,.08-.08c0-.25-.15-.34-.37-.35a.44.44,0,0,0-.26-.47l-.24-.23a.38.38,0,0,0-.49-.23c0-.73-.58-.78-1.13-.8a2.28,2.28,0,0,0,1.12.81A.4.4,0,0,0,87.81,45.15Zm-2.48,8.43c.33,0,.47-.24.64-.45s.43-.74.09-.92-.6.2-.7.57a2.22,2.22,0,0,1-.14.32c-.88.35-1.09-.4-1.17-.89a1.2,1.2,0,0,1,.79-1.27c.46-.14,1.17-.3,1.07.66a.22.22,0,0,0,.29.26c.24-.06.21-.3.25-.48.39,0,.56-.22.65-.56.43-1.76-1.23-4.16-3.11-4.5-.14-.77-.77-.39-1.19-.5-.16-.22-.33-.22-.48,0a2.61,2.61,0,0,0-1.76.46c-2.07,1.07-3.29,4-2.4,6a5.21,5.21,0,0,0,1.65,2c.36.27.48.05.59-.24l.9.36a2.06,2.06,0,0,0,2.52,0Zm0-9.94a5.66,5.66,0,0,0-5.63-.1A9.75,9.75,0,0,1,85.3,43.64Zm.44.15.08,0v-.06Z"/><path class="cls-2" d="M32.36,52.55a7.68,7.68,0,0,1-6.18,5.78c-.09,0-.16.15-.23.22H22.83c0-.18-.15-.25-.31-.3a8,8,0,0,1-5.88-7.14c.09-.69.49-1.41-.15-2a7.22,7.22,0,0,1,1-2.89l.3-.52,0-.29,1.47-1.58,1-.68c.26-.11.56-.16.72-.43a.15.15,0,0,0,.16-.14A21.72,21.72,0,0,1,25,41.84l2.42.42,1.21.45c1.56,1,3.09,2,3.86,3.86-.54-.06-.82.15-.74.72-.42-.24-.35-.91-.91-1l-.26-.46a.53.53,0,0,0-.47-.49l-.28-.2a.23.23,0,0,0-.24-.25l-.22-.25a.39.39,0,0,0-.5-.22c0-.16-.09-.23-.24-.25-1.43-1.41-4.56-1.77-6.69-.69.86-.12,1.48-.25,2.1-.31,1.65-.16,3.07.58,4.58,1,0,.16.1.22.24.24a.45.45,0,0,0,.43.29l.29.19a.23.23,0,0,0,.24.24l.2.27a.6.6,0,0,0,.45.5c.1.15.19.3.29.44A10.36,10.36,0,0,1,32,52.56c-.12.08-.3.15-.08.32l.06-.33Zm-9.29-5.87c-.66-.22-2.47.92-2.39,1.54,0,.1.25.17.39.25a5.3,5.3,0,0,0-.47,3c-.76,1.53.91,2,1.37,2.92.22.46.66.06,1-.1a5.7,5.7,0,0,0,2.75.2c.27.07.31.63.78.3,1.63-1.13,3-2.25,2.64-4.65-.33-2-.86-3.16-2.73-3.69a2.93,2.93,0,0,0-2.87.22Z"/><path class="cls-3" d="M17.45,46.17a7.22,7.22,0,0,0-1,2.89,2.22,2.22,0,0,0-.42,1.47q-6.23,0-12.46.08A5.2,5.2,0,0,1,1,50.16V46.08l.48-.25c.51.48,1.14.23,1.71.24C7.94,46.12,12.7,46.14,17.45,46.17Z"/><path class="cls-4" d="M5.3,1.24l0-.24H78c-.4.4-.91.19-1.36.19H7.45C6.73,1.2,6,1.23,5.3,1.24Z"/><path class="cls-4" d="M100.79,50.64a1.78,1.78,0,0,1-1.64.74c-2.42,0-4.85,0-7.27,0-.28,0-.69.08-.81-.07-.48-.59-.54-.14-.55.21a3.92,3.92,0,0,1-.55,2c-.67-.19-.25-.66-.2-1a8.14,8.14,0,0,0-.8-5.5c-.07-.13-.17-.27,0-.47.85.66.73,1.87,1.46,2.58.57.31-.22,1.47,1,1.44,2.79-.07,5.58,0,8.38-.07.4.06.5-.64,1-.39Z"/><path class="cls-4" d="M1,50.16a5.2,5.2,0,0,0,2.61.45q6.23-.06,12.46-.08c.27.12.26.37.3.61-.31.39-.74.22-1.11.22-4.21,0-8.42,0-12.63,0A1.71,1.71,0,0,1,1,50.64Z"/><path class="cls-5" d="M100.79,50.16c-.48-.25-.58.45-1,.39,0-.95,0-1.9,0-2.86,0-1.34-.29-1.61-1.6-1.61H89.77l-.23-.45c2.93,0,5.87,0,8.81-.05.59,0,1.18.67,1.76,0a.53.53,0,0,0,.68,0Z"/><path class="cls-4" d="M78.72,1c0,.29.39.45.26.79-.15-.27-.58-.37-.5-.79Z"/><path class="cls-4" d="M82.8,58.55c.24-.23.48-.32.72,0Z"/><path class="cls-4" d="M81.6,58.55c.24-.33.48-.24.72,0Z"/><path class="cls-6" d="M5.08,29.77c1.62-.24,3.17-.92,4.85-.72l.45,3.36c0,.66-.18,1-.93.91a2.38,2.38,0,0,0-1.16,0c-.54.23-.2.42.13.54a1.65,1.65,0,0,0,1.87,1.42q23.49,0,47,0c.28,0,.63.14.87-.15l-.33-1.28c.1-.35,0-.52-.39-.55a2.33,2.33,0,0,1-1.27-.18,32.75,32.75,0,0,1,.63-5.31,26.74,26.74,0,0,1,5.34.75c0,3.67.13,7.34,0,11l-.68,0c-.38-.34-.84-.19-1.26-.19H7.81c-.43,0-.89-.15-1.27.19l-1.45,0Z"/><path class="cls-4" d="M62.1,39.58c.16-3.67.08-7.34,0-11,0-4.16,0-8.32.06-12.49,0-.38-.27-.88.27-1.16.19.28.49.23.76.23l18.65,0c.38.18.95-.29,1.19.35a3.81,3.81,0,0,0-1.54-.12H64.68c-2.38,0-2.38,0-2.22,2.45a.24.24,0,0,0,0,.23c0,3.28,0,6.56,0,9.84a.24.24,0,0,0,0,.23v.73a.24.24,0,0,0,0,.23v5.28q0,7.58-.05,15.16a2.59,2.59,0,0,1-.47-2,10.47,10.47,0,0,0,.2-2.88v-.75c0-.67,0-1.33.05-2s-.19-1.18-1-1.07a5.73,5.73,0,0,1-.83,0c-.39,0-.86-.23-1.06.35l-1.14,0c-.23-.65-.49-.56-.78,0l-1.13,0c-.24-.64-.5-.55-.78,0l-1.14,0c-.24-.63-.5-.55-.78,0l-1.14,0c-.24-.63-.5-.55-.78,0l-1.14,0c-.24-.63-.5-.55-.78,0l-1.14,0c-.24-.63-.5-.55-.78,0l-1.14,0c-.24-.63-.5-.55-.78,0l-1.14,0c-.24-.63-.5-.54-.78,0H43c-.34-.61-.69-.55-1,0l-1.13,0c-.25-.63-.51-.53-.78,0l-1.14,0c-.25-.63-.51-.55-.78,0H37c-.25-.62-.51-.53-.78,0l-1.14,0c-.25-.62-.51-.54-.78,0l-1.14,0c-.25-.62-.51-.54-.78,0l-1.14,0c-.25-.61-.51-.54-.78,0l-1.17.09.06,0,0-.06c-.25-.58-.52-.53-.8,0l-.91.05a.28.28,0,0,0-.2,0c-.26-.57-.53-.5-.82,0H25.52c-.28-.55-.55-.52-.8,0H23.58c-.25-.62-.51-.52-.79,0l-1.13,0c-.25-.62-.51-.53-.78,0l-1.14,0c-.25-.62-.51-.53-.78,0H17.82c-.25-.61-.51-.51-.78,0H15.9c-.25-.62-.52-.5-.78,0H14c-.25-.63-.51-.52-.78,0H12.06c-.25-.63-.51-.53-.78,0l-1.14,0c-.24-.63-.51-.53-.78,0l-1.13,0c-.26-.64-.52-.53-.79,0H6.3c-.35-.79-1-.23-1.52-.35.18-.4.18-.41.68-.41H18.74q21.14,0,42.25,0c.38,0,1,.35,1.19-.36l-.1-.23Z"/><ellipse class="cls-6" cx="41.9" cy="2" rx="51.15" ry="0.16"/><path class="cls-7" d="M18.86,3.63H20A32.64,32.64,0,0,1,17.53,11c1,.33,1.4,0,1.71-.86a33.5,33.5,0,0,0,1.9-6.51h1.17a41.25,41.25,0,0,1-2.1,7.45h1.43l0,0-.06,1.07c-.52.54-1,.68-1.43-.11.08-.52,0-.89-.68-.89s-.67.54-.65,1c-.55.55-1,.57-1.43-.17.23-1.19-.83-.65-1.27-.93l0,0A28.14,28.14,0,0,0,18.86,3.63Z"/><path class="cls-7" d="M16.61,3.64h1.18a31.86,31.86,0,0,1-3,7.45h1.33l0,0v1.1c-.55.52-1.05.6-1.46-.16.13-.54.06-.85-.64-.86-1,0-.66.61-.7,1.1l-.07.29-.18.06-.49,0a.91.91,0,0,1-.64-.55c.35-1.11-.92-.64-1.16-1.19a21.4,21.4,0,0,0,3.61-7.2h1.14A26.49,26.49,0,0,1,12.08,11c.69.16,1.23.17,1.57-.42A23.33,23.33,0,0,0,16.61,3.64Z"/><path class="cls-4" d="M11.92,12a.91.91,0,0,0,.64.55.44.44,0,0,0-.06.16l0,0c-.74.7-.25,1.57-.33,2.36a16.73,16.73,0,0,0,0,4.58c0,4.42-.21,8.84.06,13.26l-.48.33-.44,0c-.1-.93.26-1.88-.21-2.78a92.14,92.14,0,0,0,.18-10.77q0-3.12,0-6.24c0-.37,0-.72-.41-.91A.85.85,0,0,0,11.92,12Z"/><path class="cls-7" d="M7.57,11.21l2.3-3.15A13.11,13.11,0,0,0,11.8,4.52c.26-.82.7-1.07,1.48-.88a26,26,0,0,1-3.72,7.12h0L9.43,11l.19.06c1.15-.11,1,.71,1,1.39a1.16,1.16,0,0,1-1.44-.22C9.43,10.65,8.32,11.21,7.57,11.21Z"/><path class="cls-7" d="M53,3.64c.86-.23,1.24.1,1.49,1a17.93,17.93,0,0,0,3.89,6.52c-.75,0-1.81-.32-1.51,1.13l-.23.2a1.26,1.26,0,0,1-1.2-.23c.06-.51-.18-1.21.74-1.17s.2-.46.11-.59A18.09,18.09,0,0,1,53,3.64Z"/><path class="cls-7" d="M27.91,3.63h1.18c-.2,2-.36,4-.58,6-.17,1.5-.21,1.49,1.28,1.4h0l0,1.06c-.48.54-1,.6-1.45,0,.33-1.38-.82-.84-1.39-1.06A44.63,44.63,0,0,0,27.91,3.63Z"/><path class="cls-7" d="M43.89,3.63h1.16c.1.67.19,1.34.31,2,.34,1.89,1.18,3.62,1.7,5.45-.66.08-1.47,0-1.16,1.09a.87.87,0,0,1-1.45,0l0-1.08v0A2.37,2.37,0,0,0,45.76,11,28.93,28.93,0,0,1,43.89,3.63Z"/><path class="cls-7" d="M41.57,3.63h1.18a34.56,34.56,0,0,0,1.66,7.46v0c-.54.21-1.56-.12-1.23,1.08a.84.84,0,0,1-1.43,0l0-1.1,0,0c1,.18,1.43,0,1-1.19A28.9,28.9,0,0,1,41.57,3.63Z"/><path class="cls-7" d="M23.38,3.63h1.17A30.28,30.28,0,0,1,23.23,9.9c-.4,1.25.08,1.34,1.05,1.19l0,0,0,.23,0,.83c-.47.53-1,.63-1.45,0,.33-1.18-.64-.91-1.21-1.09l0,0C22.26,8.6,23.19,6.2,23.38,3.63Z"/><path class="cls-5" d="M10.38,32.41l-.45-3.36c-.2-3.34-.65-6.65-1-10a15.43,15.43,0,0,1-.24-4.6l.34,0q.78,8,1.57,16L11,33.31C10.38,33.29,10.75,32.6,10.38,32.41Z"/><path class="cls-8" d="M9.15,12.24a1.16,1.16,0,0,0,1.44.22l.34.1c.38.19.41.54.4.91q0,3.12,0,6.24c-.68-.25-.87-.71-1-1.44a17.12,17.12,0,0,0-1.41-5.84Z"/><path class="cls-4" d="M5.08,29.77q0,4.92,0,9.83a.78.78,0,0,0,0,.22H4.88c0-3.15,0-6.31,0-9.46,0-8.74,0-17.48,0-26.21,0-.8-.71-1.68.16-2.43L5,28.34C5,28.82,5.07,29.3,5.08,29.77Z"/><path class="cls-7" d="M39.29,3.64h1.17a36.15,36.15,0,0,0,1.31,7.44l0,0a2.68,2.68,0,0,1-1.46,0A64.15,64.15,0,0,1,39.29,3.64Z"/><path class="cls-9" d="M29.79,11.07c-1.49.09-1.45.1-1.28-1.4.22-2,.38-4,.58-6h1.13C30.08,6.11,29.93,8.59,29.79,11.07Z"/><path class="cls-9" d="M49.64,3.63h1.11A19.12,19.12,0,0,0,54,11.07h0l-1.14,0-.27,0C51.29,8.72,49.94,6.38,49.64,3.63Z"/><path class="cls-9" d="M31.35,3.63h1.12c0,2.48,0,4.95,0,7.43H31l0,0Z"/><path class="cls-9" d="M47.06,11.08c-.52-1.83-1.36-3.56-1.7-5.45-.12-.66-.21-1.33-.31-2h1.09a27.81,27.81,0,0,0,2.36,7.44H47Z"/><path class="cls-7" d="M48.5,11.07a27.81,27.81,0,0,1-2.36-7.44h1.18a21.79,21.79,0,0,0,2.53,7.3,2.13,2.13,0,0,1-1.36.13Z"/><path class="cls-9" d="M23.38,3.63c-.19,2.57-1.12,5-1.74,7.45H20.21a41.25,41.25,0,0,0,2.1-7.45Z"/><path class="cls-9" d="M24.28,11.09c-1,.15-1.45.06-1.05-1.19a30.28,30.28,0,0,0,1.32-6.27h1.12A48.52,48.52,0,0,1,24.28,11.09Z"/><path class="cls-7" d="M24.28,11.09a48.52,48.52,0,0,0,1.39-7.46h1.19c-.31,2-.65,4-.92,6-.07.47-.56.89-.21,1.42H24.26Z"/><path class="cls-9" d="M39.29,3.64a64.15,64.15,0,0,0,1,7.43h-.7c-.17-.25-.44-.22-.7-.24-.26-2.4-.74-4.77-.77-7.2Z"/><path class="cls-7" d="M49.64,3.63c.3,2.75,1.65,5.09,3,7.44H51.08c.08-.53-.31-.88-.51-1.29a19.26,19.26,0,0,1-2.11-6.15Z"/><path class="cls-9" d="M48.46,3.63a19.26,19.26,0,0,0,2.11,6.15c.2.41.59.76.51,1.29a.34.34,0,0,0-.22,0h-.65l-.36-.18a21.79,21.79,0,0,1-2.53-7.3Z"/><path class="cls-7" d="M34.67,3.63h1.18l.42,7.45a1.89,1.89,0,0,1-1.22,0C34.7,8.61,34.88,6.11,34.67,3.63Z"/><path class="cls-9" d="M21.14,3.63a33.5,33.5,0,0,1-1.9,6.51c-.31.83-.72,1.19-1.71.86A32.64,32.64,0,0,0,20,3.63Z"/><path class="cls-9" d="M36.27,11.08l-.42-7.45H37c.1,2.5.39,5,.71,7.44H36.25Z"/><path class="cls-9" d="M44.41,11.08a34.56,34.56,0,0,1-1.66-7.46h1.14A28.93,28.93,0,0,0,45.76,11,2.37,2.37,0,0,1,44.41,11.08Z"/><path class="cls-9" d="M53,3.64a18.09,18.09,0,0,0,3.29,6.84c.09.13.79.56-.11.59-.24-.31-.59-.21-.91-.24a16.24,16.24,0,0,1-3.35-7.19Z"/><path class="cls-7" d="M37.69,11.07c-.32-2.47-.61-4.94-.71-7.44h1.18c0,2.43.51,4.8.77,7.2C38.61,11.39,38.13,11.1,37.69,11.07Z"/><path class="cls-9" d="M25.73,11.07c-.35-.53.14-1,.21-1.42.27-2,.61-4,.92-6h1.05a44.63,44.63,0,0,1-1,7.45v0h-1.2Z"/><path class="cls-9" d="M16.61,3.64a23.33,23.33,0,0,1-3,7c-.34.59-.88.58-1.57.42a26.49,26.49,0,0,0,3.43-7.4Z"/><path class="cls-9" d="M34.67,3.63c.21,2.48,0,5,.38,7.45l0,0H33.62l0-7.44Z"/><path class="cls-9" d="M41.77,11.08a36.15,36.15,0,0,1-1.31-7.44h1.11a28.9,28.9,0,0,0,1.22,6.26C43.2,11.09,42.78,11.26,41.77,11.08Z"/><path class="cls-7" d="M51.92,3.64a16.24,16.24,0,0,0,3.35,7.19c-.33.57-.83.27-1.27.24a19.12,19.12,0,0,1-3.25-7.43Z"/><path class="cls-7" d="M33.58,3.63c0,2.48,0,5,0,7.44h0a1.59,1.59,0,0,1-1.21,0h0c0-2.48,0-4.95,0-7.43Z"/><path class="cls-9" d="M16.12,11.08H14.79a31.86,31.86,0,0,0,3-7.45h1.07A28.14,28.14,0,0,1,16.12,11.08Z"/><path class="cls-9" d="M9.56,10.76a26,26,0,0,0,3.72-7.12h1.09a21.4,21.4,0,0,1-3.61,7.2Z"/><path class="cls-7" d="M31.35,3.63c-.12,2.48-.23,5-.35,7.45a1.71,1.71,0,0,1-1.22,0h0c.14-2.48.29-5,.43-7.44Z"/><path class="cls-5" d="M56.79,27.82a32.75,32.75,0,0,0-.63,5.31l-.74.21A33.34,33.34,0,0,0,56.13,28c.35-2.82.59-5.66.88-8.49l.12-.26.09-.06a1.06,1.06,0,0,0-.06-.19l0-.48c.29-.38.15-.82.16-1.24l0-.43a.88.88,0,0,0,0-1.2l0-.29.23-.66h.3l0,.94v.75l-.23,3.33c-.57,2.24-.46,4.58-1,6.83A4.41,4.41,0,0,0,56.79,27.82Z"/><path class="cls-10" d="M81.87,15.12l-18.65,0c-.27,0-.57,0-.76-.23H82A.51.51,0,0,0,81.87,15.12Z"/><path class="cls-8" d="M57.64,19.7c.07-1.11.15-2.22.23-3.33a1.19,1.19,0,0,1,.15-.09,11.85,11.85,0,0,0,1.29,2.13c.19.33.59.64.25,1.06s-.67.19-1,0S57.93,19.54,57.64,19.7Z"/><path class="cls-6" d="M57.6,14.68l-.23.66c-.33-.52-.63-1.07-1-1.56s-.38-1,.28-1.31l.23-.2c.38.24.67.69,1.22.5l0,.28C57.28,13.41,57.73,14.13,57.6,14.68Z"/><path class="cls-5" d="M9.15,12.24l-.24.19c-1.14.28-1.36.08-1.34-1.22C8.32,11.21,9.43,10.65,9.15,12.24Z"/><path class="cls-5" d="M58.09,12.77c-.55.19-.84-.26-1.22-.5-.3-1.45.76-1.08,1.51-1.13C58.85,11.78,58.13,12.22,58.09,12.77Z"/><path class="cls-6" d="M11,33.31l-.36-2.81.47,0c.47.9.11,1.85.21,2.78Z"/><path class="cls-11" d="M57.6,14.68c.13-.55-.32-1.27.47-1.63a1.53,1.53,0,0,1-.17,1.63Z"/><path class="cls-11" d="M58,16.28a1.19,1.19,0,0,0-.15.09c0-.25,0-.5,0-.75Z"/><path class="cls-4" d="M5.11,1.34l.22-.11Z"/><path class="cls-1" d="M62.45,27.86c0-3.28,0-6.56,0-9.84,0,0,.07-.05.07-.07s-.05-.1-.07-.16c-.16-2.45-.16-2.45,2.22-2.45H81.52a3.81,3.81,0,0,1,1.54.12c.6.23,1,.34.82,1.31a4.89,4.89,0,0,0,.76,2.63,60.39,60.39,0,0,1,3.12,8.14,4.5,4.5,0,0,0,2.76,3c2.15.93,4.06,2.32,6.3,3.06a6.29,6.29,0,0,1,1.34.9l-.06.26c-1.63-.61-3-1.93-4.89-1.85a17.9,17.9,0,0,0-5.23.53c-2.36.8-4.16,2.41-6.2,3.68a7,7,0,0,1-3.06,1.25c0-3.24,0-6.48,0-9.71l.45.4a.66.66,0,0,0,.76.42c.32.62-.18,1-.44,1.46-.15.24-.18.4.11.57s.23-.18.36-.25c.61-.35.41-1.59,1.33-1.45s.78,1.1,1.17,1.67c.15.23.3.37.56.17a.32.32,0,0,0,0-.51,4.16,4.16,0,0,1-.73-1.36c1.35-.19,2.74.27,4.06-.27l.26-.26c.25-.09.19-.27.12-.45l-.25-.48-.68-1.45c.23-.54-.28-.81-.43-1.21.26-.37-.27-.43-.27-.69.12-.07.12-.16.07-.29-.74-2-1.4-4-2.25-5.92-.34-.76-.32-1.85-1.39-2.18A1.45,1.45,0,0,0,80,15.78c-.3.05-.73-.39-.9.13s.54.33.63.68A1.93,1.93,0,0,0,79.47,18a2.25,2.25,0,0,1-.57,1.75c-.49-1,.16-2.24-.63-3.18a1.72,1.72,0,0,0-1.43-.46c-4,0-8,0-12,0-.3,0-.72-.19-.92.3a2.83,2.83,0,0,0,1.54.16c4.23.07,8.46-.12,12.69.1,0,.6,0,1.2,0,1.79q0,10.21,0,20.43a2.9,2.9,0,0,0-.91-.23c-3.08.38-5.69-1-8.4-2.11-1.67-.67-3.23-1.71-5.13-1.73a3.15,3.15,0,0,1-.19-1.52q0-7.47,0-14.95c0-.39.12-.83-.5-1.15V34.33h-.65V33.6a3.23,3.23,0,0,0,0-2.37V30q.3-.22,0-.45v-.5s.07-.05.07-.07-.05-.1-.07-.16v-.73s.08-.05.08-.07Zm5.3,3.35c-.56-.92-1.53-1-2.51-.22-.26.2-.19.45-.08.69a1.6,1.6,0,0,0,2.67,0C67.87,31.49,67.94,31.33,67.75,31.21Zm9.78-1.44c.24,0,.28-.22.32-.41S78,29.15,78,29c0-3.78,0-7.57,0-11.35,0-.37-.07-.72-.5-.84H65.16c-.37,0-.82-.16-1.09.28-.27.2-.2.5-.2.76V28.72c0,.27-.07.56.19.77.22.42.62.29,1,.29Z"/><path class="cls-5" d="M99.1,39.85l-.19.18-.28-.09c.15-1.47-.38-3,.3-4.42.58.09.59.56.65,1C99.15,37.59,99.41,38.76,99.1,39.85Z"/><path class="cls-4" d="M100.11,45.59c-.58.66-1.17,0-1.76,0-2.94.06-5.88,0-8.81.05l0-.3c1.63,0,3.26.05,4.89,0a14,14,0,0,0,3.77-.16.69.69,0,0,0,.2,0,.16.16,0,0,0,.16,0l0,0a.23.23,0,0,0,.32.1C99.29,45.41,99.78,45.13,100.11,45.59Z"/><path class="cls-8" d="M98.38,45.14a.69.69,0,0,1-.2,0c0-1.22,0-2.44-.07-3.66V34.8l.06-.26c.27.07.23.29.24.49.06,1.64-.36,3.3.23,4.91l.28.09c.45.46-.5.35-.29.72C98.06,42.19,98.51,43.68,98.38,45.14Z"/><path class="cls-4" d="M98.63,39.94c-.59-1.61-.17-3.27-.23-4.91l.53.49C98.25,37,98.78,38.47,98.63,39.94Z"/><path class="cls-3" d="M98.38,45.14c.13-1.46-.32-3,.24-4.39a17.29,17.29,0,0,1-.08,4.43A.16.16,0,0,1,98.38,45.14Z"/><path class="cls-10" d="M99.1,39.85c.31-1.09.05-2.26.48-3.34,0,.8,0,1.59,0,2.39C99.59,39.29,99.61,39.72,99.1,39.85Z"/><path class="cls-3" d="M98.89,45.33a.23.23,0,0,1-.32-.1Z"/><path class="cls-4" d="M31.71,47.29c-.08-.57.2-.78.74-.72a4.2,4.2,0,0,1,.94,2.76c0,.92.38,1.08,1.23,1.08q12.92-.06,25.82,0a2.32,2.32,0,0,0,2-.82,6.09,6.09,0,0,0,1.65.17c3,0,6-.06,9,.05.8,0,1-.32,1.06-.85a6.54,6.54,0,0,1,.74-2.18c.23,0,.84-.47.53.25a10.85,10.85,0,0,0-.73,4.6H32.7l-.13-.12c.13-1.5.17-3-.87-4.24Z"/><path class="cls-4" d="M32,52.56a10.36,10.36,0,0,0-1.23-6.22l.08-.07c.56.11.49.78.91,1v0A10.46,10.46,0,0,1,32.21,51c0,.26,0,.49.36.48l.13.12-.34.92H32Z"/><path class="cls-3" d="M4.88,39.82H6.73l55.35,0,.1.23q-28,0-56,0C5.76,40.06,5.24,40.3,4.88,39.82Z"/><path class="cls-5" d="M17.45,46.17c-4.75,0-9.51-.05-14.26-.1-.57,0-1.2.24-1.71-.24l0-.25h.83l15.42.06Z"/><path class="cls-4" d="M17.75,45.65,2.33,45.59H1.5c.62-.47,1.34-.14,2-.24.45-.07.94.18,1.34-.21h.2a5.5,5.5,0,0,0,2.42.15H11.8l5.5,0,.49.1Z"/><path class="cls-10" d="M5.05,45.14h-.2l-.07-4.27c.51.12,1.17-.44,1.52.35-1,0-1.32.46-1.17,1.48A14.44,14.44,0,0,1,5.05,45.14Z"/><path class="cls-6" d="M74.82,46.78A6.54,6.54,0,0,0,74.08,49c0,.53-.26.88-1.06.85-3-.11-6-.06-9-.05a6.09,6.09,0,0,1-1.65-.17l0-.1q0-7.58.05-15.16h.65c0,3.93,0,7.86,0,11.79,0,.42-.26,1,.47,1.16l.09-.07a1.4,1.4,0,0,0-.09-.17V45.36a8.4,8.4,0,0,0,0-4.31V39.36c.49-1.35.12-2.75.21-4.12l0-.42c1.9,0,3.46,1.06,5.13,1.73,2.71,1.09,5.32,2.49,8.4,2.11a2.9,2.9,0,0,1,.91.23v2.16a1.26,1.26,0,0,0-.42,1.29c.26-.25.72-.13.68-.6.46-1.08.1-2.22.23-3.33a7,7,0,0,0,3.06-1.25c2-1.27,3.84-2.88,6.2-3.68A17.9,17.9,0,0,1,93.21,33c1.91-.08,3.26,1.24,4.89,1.85v.27a.4.4,0,0,0,0,.68v2.68a4.91,4.91,0,0,0,0,3.08c0,1.22,0,2.44.07,3.66a14,14,0,0,1-3.77.16c-1.63.05-3.26,0-4.89,0A8.65,8.65,0,0,0,74.82,46.78Zm1-3.38-.24.24-.24.24-.23.25-.29.45c-.12.12-.23.23,0,.39l.18-.29c.08-.15.17-.3.25-.46l.24-.24.24-.23.24-.25.24-.23.47-.27c.12-.1.26-.19.07-.36l-.2.26-.44.27Zm18-1.39c-.33.22-.15.45,0,.67,1,.38,2,.67,2.85-.25,0-.35-.15-.63-.56-.6A6.26,6.26,0,0,0,93.84,42ZM64.12,47.72c-.1-.11-.26-.26-.34-.12s.15.17.25.23c3,.42,6,.06,9,.2v-.32Z"/><path class="cls-3" d="M89.77,46.08h8.44c1.31,0,1.58.27,1.6,1.61,0,1,0,1.91,0,2.86-2.8,0-5.59,0-8.38.07-1.2,0-.41-1.13-1-1.44C91.18,47.94,90.07,47.1,89.77,46.08Z"/><path class="cls-4" d="M84,46.32c1.88.34,3.54,2.74,3.11,4.5-.09.34-.26.57-.65.56-.3-.63.36-1.43-.34-2-.22-.17-.53-.26-.43-.64s.16-.62-.28-.74v.07a1.85,1.85,0,0,0-1.92-1c-.43-.3-.93-.14-1.39-.22a2.06,2.06,0,0,0-2.4,1.46h0c-.27-.15-.31.07-.39.23s0,.67-.23.92A1.61,1.61,0,0,0,79,51.6a.62.62,0,0,1,.23.82c.08.25,0,.66.5.35v-.05c-.34.75.67.75.71,1.3-.11.29-.23.51-.59.24a5.21,5.21,0,0,1-1.65-2c-.89-2,.33-4.93,2.4-6,.69.25,1.32.27,1.76-.46.15-.22.32-.22.48,0C82.93,46.6,83.55,46.26,84,46.32Z"/><path class="cls-5" d="M86.11,49.38c.7.57,0,1.37.34,2,0,.18,0,.42-.25.48a.22.22,0,0,1-.29-.26c.1-1-.61-.8-1.07-.66a1.2,1.2,0,0,0-.79,1.27c.08.49.29,1.24,1.17.89l.11.48-1.51.82-1.06-.16c.17-.52,1.15-.06,1-.83,0-.31-.33-.77-.58-.82-.52-.1-1.11-.29-1.59.28s-.08,1,.22,1.37l-.55.14L80.4,54c0-.55-1.05-.55-.71-1.3.75.64,1.22.48,1.41-.5a4.83,4.83,0,0,1,.22-.64,2.19,2.19,0,0,0,2.42,0c.7-.4.21-1.15.49-1.67C85,50.28,85.74,50.44,86.11,49.38Z"/><path class="cls-4" d="M85.3,43.64a9.75,9.75,0,0,0-5.63-.1A5.66,5.66,0,0,1,85.3,43.64Z"/><path class="cls-4" d="M81.3,54.38l.55-.14h.91l1.06.16A2.06,2.06,0,0,1,81.3,54.38Z"/><path class="cls-4" d="M85.33,53.58l-.11-.48a2.22,2.22,0,0,0,.14-.32c.1-.37.35-.77.7-.57s.15.63-.09.92S85.66,53.6,85.33,53.58Z"/><path class="cls-10" d="M82.32,45.82c-.44.73-1.07.71-1.76.46A2.61,2.61,0,0,1,82.32,45.82Z"/><path class="cls-4" d="M87.35,44.89a2.28,2.28,0,0,1-1.12-.81c.55,0,1.08.07,1.13.8Z"/><path class="cls-10" d="M84,46.32c-.44-.06-1.06.28-1.19-.5C83.22,45.93,83.85,45.55,84,46.32Z"/><path class="cls-4" d="M88.35,45.81c.22,0,.38.1.37.35a.11.11,0,0,1-.08.08c-.24,0-.3-.19-.34-.38Z"/><path class="cls-4" d="M89.73,54.07c.07.21,0,.33-.22.4,0-.17-.21-.33-.05-.5S89.63,54,89.73,54.07Z"/><path class="cls-4" d="M88.09,45.34a.44.44,0,0,1,.26.47l0,0A.44.44,0,0,1,88,45.4Z"/><path class="cls-4" d="M87.81,45.15a.4.4,0,0,1-.46-.26h0a.38.38,0,0,1,.49.23Z"/><path class="cls-4" d="M88,45.4l-.22-.25,0,0,.24.23Z"/><polygon class="cls-4" points="85.74 43.79 85.82 43.77 85.81 43.83 85.74 43.79"/><path class="cls-9" d="M62.4,49.49l0,.1a2.32,2.32,0,0,1-2,.82q-12.91-.06-25.82,0c-.85,0-1.19-.16-1.23-1.08a4.2,4.2,0,0,0-.94-2.76c-.77-1.81-2.3-2.85-3.86-3.86.15-.51.66-.85.71-1.42l1.17-.09c.26.27.52.31.78,0l1.14,0c.26.25.51.33.78,0l1.14,0c.26.26.51.33.78,0l1.14,0c.26.26.51.32.78,0h1.14a.89.89,0,0,0,.78,0l1.14,0a.86.86,0,0,0,.78,0l1.13,0a1.17,1.17,0,0,0,1,0h.89a.86.86,0,0,0,.78,0l1.14,0a.89.89,0,0,0,.78,0l1.14,0a.93.93,0,0,0,.78,0l1.14,0a.89.89,0,0,0,.78,0l1.14,0a.89.89,0,0,0,.78,0l1.14,0a.89.89,0,0,0,.78,0l1.14,0a.89.89,0,0,0,.78,0l1.13,0a.93.93,0,0,0,.78,0l1.14,0a7.75,7.75,0,0,0,2.2.08c-.46-.39-.91-.12-1.14-.43a5.73,5.73,0,0,0,.83,0c.84-.11,1.1.28,1,1.07s0,1.33-.05,2c-.22.09-.7-.36-.66.29,0,.42.16.72.67.46a10.47,10.47,0,0,1-.2,2.88A2.59,2.59,0,0,0,62.4,49.49ZM43.94,45.6c-.87,0-.79.44-.59,1.08a1.39,1.39,0,0,0,.58-1.08l.06-.1Zm9.59,0c-.87,0-.76.46-.6,1.09a1.39,1.39,0,0,0,.6-1.09l.06-.1Zm-7.67,0c-.87,0-.79.45-.6,1.08a1.35,1.35,0,0,0,.59-1.08l.24-.24a1.61,1.61,0,0,0,.59-1.3s-.25-.12-.3-.07c-.52.36-.19.91-.28,1.37Zm5.75,0c-.86,0-.79.44-.56,1.15a1.81,1.81,0,0,0,.56-1.15l.06-.1Zm-1.91,0c-1,0-.67.67-.7,1.32a2.07,2.07,0,0,0,.69-1.32l.24-.24a1.68,1.68,0,0,0,.59-1.3s-.25-.12-.3-.07c-.52.36-.19.91-.28,1.37Zm-9.6-3.35c-.83,0-.81.43-.59,1.07a1,1,0,0,0,.59-1.08l.06-.09Zm7.68,3.35c-1,0-.67.67-.7,1.54.37-.69.68-1,.69-1.54l.06-.1Zm9.59,0c-.85,0-.85,0-.49,1a1.37,1.37,0,0,0,.49-1l.06-.1Zm-1-1.67c-1,0-.67.66-.69,1.31a2,2,0,0,0,.69-1.32l.06-.09ZM36.26,42.25c-.19,0-.38-.11-.57-.15-.46-.1-1.08-.29-1.2.31-.08.41.62.56,1,.68.68.24.7-.4.81-.85l.06-.09Zm-.74,3.36c.08.33-.09.72.27,1.2.19-.63.68-.9.7-1.45l.24-.25c.13-.35.57-.66.35-1s-.54,0-.82.09a2,2,0,0,0-.38-.2c-.75,1-1.64.76-2.71,0C33.68,45.34,34.73,45.26,35.52,45.61Zm25.09,1.22c.18-.41.68-.64.6-1.15,0-.08-.45-.19-.52-.12C60.32,45.92,60.54,46.38,60.61,46.83Zm-7.78-3.3c.4-.33.77-.59.6-1.11a.33.33,0,0,0-.3-.12C52.59,42.58,52.89,43.05,52.83,43.53Zm-7.73.13c.44-.5.84-.73.66-1.24a.33.33,0,0,0-.29-.12C44.9,42.53,45.22,43,45.1,43.66Zm5.8,0c.4-.44.79-.68.61-1.18,0-.08-.31-.15-.39-.1C50.73,42.61,50.94,43,50.9,43.61Zm-7.64.08c.32-.56.71-.83.52-1.32,0,0-.25-.09-.32,0C43,42.64,43.26,43.06,43.26,43.69Zm15.37,3.38c.29-.62.73-.87.48-1.36a.34.34,0,0,0-.31,0C58.41,46,58.6,46.41,58.63,47.07ZM47.15,43.3c.43-.2.71-.43.51-.9a.32.32,0,0,0-.3-.09C46.87,42.54,47.06,42.91,47.15,43.3ZM50,48.38c.37-.3.65-.56.45-1a.51.51,0,0,0-.4-.14C49.81,47.57,49.92,47.93,50,48.38Zm3.86,0c.35-.3.64-.55.43-1a.55.55,0,0,0-.41-.14A1.13,1.13,0,0,0,53.9,48.37Zm1-1.55c.18-.36.64-.59.44-1.09,0-.06-.24-.11-.31-.06C54.55,46,54.78,46.4,54.86,46.82Zm2.82,1.62c.36-.35.67-.58.52-1,0-.1-.33-.22-.39-.18C57.42,47.53,57.65,47.92,57.68,48.44Zm-.91,1.61c.35-.3.64-.55.44-1a.51.51,0,0,0-.4-.14C56.53,49.24,56.64,49.61,56.77,50.05ZM40.38,45.36c.32-.55.69-.82.52-1.31a.33.33,0,0,0-.31,0C40.15,44.31,40.39,44.73,40.38,45.36Zm1.91,0c.34-.54.69-.82.53-1.31,0,0-.24-.1-.31-.06C42.07,44.3,42.31,44.73,42.29,45.36Zm.07,3c.38-.36.62-.61.46-1a.33.33,0,0,0-.31,0C42.11,47.59,42.26,48,42.36,48.41Zm3.84.05c.34-.39.57-.64.5-1a.34.34,0,0,0-.3-.1C45.91,47.57,46.11,47.94,46.2,48.46Zm-11.55-.08c.44-.29.59-.58.52-1,0-.05-.23-.12-.31-.09C34.43,47.55,34.6,47.92,34.65,48.38Zm1.94,0c.39-.35.62-.62.48-1a.36.36,0,0,0-.31-.06C36.35,47.58,36.51,47.94,36.59,48.41Zm2,0c.3-.29.53-.55.47-.93a.25.25,0,0,0-.4-.11C38.31,47.62,38.38,48,38.56,48.39Zm5.7,0c.41-.32.6-.59.5-1a.36.36,0,0,0-.31-.07C44,47.57,44.2,47.93,44.26,48.39ZM39.44,46.7c.44-.29.62-.57.53-1,0-.05-.23-.12-.31-.08C39.23,45.87,39.41,46.24,39.44,46.7Zm-1.86-.06a.78.78,0,0,0,.48-.86c0-.15-.27-.21-.39-.1C37.36,46,37.41,46.28,37.58,46.64ZM48.14,45a.78.78,0,0,0,.48-.87c0-.14-.27-.21-.4-.09C47.91,44.28,48,44.61,48.14,45ZM33.33,43.7c0-.06,0-.15-.09-.18s-.13,0-.2,0,.06.15.11.18S33.27,43.72,33.33,43.7Z"/><path class="cls-9" d="M5.05,45.14a14.44,14.44,0,0,0,.08-2.45c-.15-1,.18-1.46,1.17-1.48H7.44a.8.8,0,0,0,.79,0l1.13,0a.78.78,0,0,0,.78,0l1.14,0a.75.75,0,0,0,.78,0H13.2c.26.26.52.36.78,0h1.14a1,1,0,0,0,.78,0H17a.46.46,0,0,0,.78,0H19l.26.15.11.28.16-.24.25-.17,1.14,0,.25.13,0,.68h0l-.24.24c-.63,0-.82.28-.65.86l-1,.68c-.64-1.1-1.29,0-1.94,0-.46,0-.06.55,0,.86s0,.39,0,.58l-5.5,0,.24-.67c.09-.24.34-.5,0-.7-.14-.07-.33-.18-.44-.13-.39.16-.1.45-.1.69a3.82,3.82,0,0,1-.14.81H9.89c.07-.22.16-.43.23-.65s.31-.42.05-.62a.69.69,0,0,0-.54-.16c-.44.12-.07.42-.09.64a5.49,5.49,0,0,1-.15.79H8c.08-.22.15-.45.23-.67s.34-.5,0-.7c-.14-.07-.33-.18-.44-.13-.39.16-.1.45-.1.7a3.84,3.84,0,0,1-.14.8A5.5,5.5,0,0,1,5.05,45.14Zm2.43-2.45a3.59,3.59,0,0,0,.67,0c.26,0,.73.19.7-.34,0-.37-.38-.33-.65-.35a1.68,1.68,0,0,0-.59,0c-.48.12-1.34-.36-1.36.37S7.1,42.59,7.48,42.69Zm5.85,1.13a1.12,1.12,0,0,0,.42,1C14.15,44.06,14.15,44.06,13.33,43.82Zm1.9-.1c0,.49.08.83.37,1.08C16.09,44.12,16.09,44.12,15.23,43.72Zm-8.82.59c.07-.28-.11-.36-.32-.37s-.51,0-.42.37c0,.17.18.41.31.44C6.28,44.82,6.31,44.5,6.41,44.31Zm4.33-.8-.08-.2c-.06,0-.17,0-.19.08s0,.13.07.2Zm1.77-.87c.16,0,.21-.11.21-.23s0-.14-.07-.22a1.78,1.78,0,0,0-.21.27S12.49,42.58,12.51,42.64Z"/><path class="cls-5" d="M25.71,54.5A5.7,5.7,0,0,1,23,54.3c-.22-.54-1.09-.52-1.08-1.26h0c1,.28,1.27-.37,1.42-1.16.69-.09,1.5.26,2-.55h.14l.15.1-.1-.15c.09-.3-.24-.61,0-.9h.23l.27.18s.05-.06.07-.09l-.32-.12c.22-.25.55-.44.48-.86.41.73,1.08.74,1.79.63l-.36.68a1.31,1.31,0,0,0-1.55,1.34c0,.9.75,1.07,1.55.85C27.23,53.82,26.33,54,25.71,54.5Zm-1.13-.42c.44-.19,1.27.15,1.26-.66a1,1,0,0,0-1.12-.93c-.86,0-1.26.43-1.29,1S24.14,53.93,24.58,54.08Z"/><path class="cls-4" d="M25.71,54.5c.62-.52,1.52-.68,1.92-1.48l0,0a3.33,3.33,0,0,0,.93-1.75,2.4,2.4,0,0,0-.7-2.56h0c.24-.32.08-.44-.24-.48l0,0c-.54-1.16-1.37-1.58-2.9-1.47h-.44l-.75-.12a2.93,2.93,0,0,1,2.87-.22c1.87.53,2.4,1.68,2.73,3.69.4,2.4-1,3.52-2.64,4.65C26,55.13,26,54.57,25.71,54.5Z"/><path class="cls-11" d="M25.27,51.34c-.49.81-1.3.46-2,.55-.14-.14-.34-.25-.39-.42-.24-.77-.92-.69-1.36-.5-.63.27-.11.81,0,1.21s.36.52.32.87h0c-.88-.15-.73-1.14-1.28-1.56a5.3,5.3,0,0,1,.47-3c.22.13.48-.58.68,0a1.2,1.2,0,0,0-.23.41c-.08.41-.64.95,0,1.2.45.17,1.12.24,1.35-.53,0-.17.24-.29.37-.44,0,.49.35.57.76.49C23.59,51.05,23.79,51.32,25.27,51.34Z"/><path class="cls-9" d="M23.58,41.22h1.14l.25.12v.51a21.72,21.72,0,0,0-3.82.69V42h0c.25-.14.24-.4.27-.64l.24-.15,1.13,0A.8.8,0,0,0,23.58,41.22Z"/><path class="cls-4" d="M28.58,44.17c-1.51-.44-2.93-1.18-4.58-1-.62.06-1.24.19-2.1.31,2.13-1.08,5.26-.72,6.69.69Z"/><path class="cls-5" d="M17.3,45.26c0-.19,0-.39,0-.58s-.42-.87,0-.86c.65,0,1.3-1.14,1.94,0l-1.47,1.58Z"/><path class="cls-4" d="M20.6,51.48c.55.42.4,1.41,1.28,1.56,0,.74.86.72,1.08,1.26-.33.16-.77.56-1,.1C21.51,53.43,19.84,53,20.6,51.48Z"/><path class="cls-4" d="M21.75,48.51c-.2-.62-.46.09-.68,0s-.37-.15-.39-.25c-.08-.62,1.73-1.76,2.39-1.53-.14.66-1.25.49-1.18,1.35C21.93,48.22,22,48.41,21.75,48.51Z"/><path class="cls-11" d="M25,41.84v-.51l.55-.14h1.09a1,1,0,0,0,.82,0,.28.28,0,0,1,.2,0,1.61,1.61,0,0,0-.25,1Z"/><path class="cls-5" d="M27.38,42.26a1.61,1.61,0,0,1,.25-1l.91-.05a.9.9,0,0,0,.8,0l0,.06-.06,0c-.05.57-.56.91-.71,1.42Z"/><path class="cls-11" d="M21.89,48c-.07-.86,1-.69,1.18-1.35h.46l.75.12c-.16.47-1,.26-1,1l-.51.25A1.48,1.48,0,0,0,21.89,48Z"/><path class="cls-10" d="M16.37,51.14c0-.24,0-.49-.3-.61a2.22,2.22,0,0,1,.42-1.47c.64.64.24,1.36.15,2Z"/><path class="cls-11" d="M20.26,43.1c-.17-.58,0-.89.65-.86l.07.43C20.82,42.94,20.52,43,20.26,43.1Z"/><path class="cls-4" d="M30.43,45.9a.6.6,0,0,1-.45-.5l.09-.08a.53.53,0,0,1,.47.49Z"/><path class="cls-4" d="M29.25,44.7a.45.45,0,0,1-.43-.29h0a.39.39,0,0,1,.5.22Z"/><path class="cls-4" d="M30.54,45.81l.26.46-.08.07c-.1-.14-.19-.29-.29-.44Z"/><path class="cls-4" d="M31.93,52.55l-.06.33c-.22-.17,0-.24.08-.32Z"/><path class="cls-5" d="M21,42.67l-.07-.43.24-.24v.53A.15.15,0,0,1,21,42.67Z"/><path class="cls-4" d="M29.54,44.89l-.29-.19.08-.08a2.75,2.75,0,0,1,.22.26Z"/><path class="cls-4" d="M28.59,44.15c.15,0,.24.09.24.25h0c-.14,0-.24-.08-.24-.24Z"/><path class="cls-4" d="M29.79,45.12l.28.2L30,45.4l-.2-.27Z"/><path class="cls-4" d="M29.78,45.13a.23.23,0,0,1-.24-.24h0q.22,0,.24.24Z"/><path class="cls-8" d="M57.82,33.86l.33,1.28c-.24.29-.59.15-.87.15q-23.51,0-47,0A1.65,1.65,0,0,1,8.42,33.9a5.87,5.87,0,0,1,.59,0Z"/><path class="cls-11" d="M57.82,33.86H9a5.87,5.87,0,0,0-.59,0c-.33-.12-.67-.31-.13-.54a2.38,2.38,0,0,1,1.16,0c.75.11,1-.25.93-.91.37.19,0,.88.62.9l.32-.05.44,0c.36,0,.72.05,1.08.05H53.17c.64,0,1.27,0,1.91-.05l.34,0,.74-.21a2.33,2.33,0,0,0,1.27.18C57.8,33.34,57.92,33.51,57.82,33.86Z"/><path class="cls-8" d="M62.08,39.85l-55.35,0H5.05a.78.78,0,0,1,0-.22l1.45,0,13.78,0,41.1,0,.68,0Z"/><path class="cls-1" d="M61.42,39.56l-41.1,0-13.78,0c.38-.34.84-.19,1.27-.19H60.16C60.58,39.37,61,39.22,61.42,39.56Z"/><path class="cls-10" d="M60.31,40.85c.23.31.68,0,1.14.43a7.75,7.75,0,0,1-2.2-.08C59.45,40.62,59.92,40.85,60.31,40.85Z"/><path class="cls-11" d="M62.13,44.66c-.51.26-.64,0-.67-.46,0-.65.44-.2.66-.29Z"/><path class="cls-6" d="M62.46,31.23a3.23,3.23,0,0,1,0,2.37Z"/><path class="cls-10" d="M43,41.2a1.17,1.17,0,0,1-1,0C42.32,40.65,42.67,40.59,43,41.2Z"/><path class="cls-10" d="M14,41.22c-.26.35-.52.25-.78,0C13.47,40.7,13.73,40.59,14,41.22Z"/><path class="cls-10" d="M35.09,41.22c-.27.31-.52.24-.78,0C34.58,40.68,34.84,40.6,35.09,41.22Z"/><path class="cls-10" d="M33.17,41.22c-.27.31-.52.23-.78,0C32.66,40.68,32.92,40.6,33.17,41.22Z"/><path class="cls-10" d="M31.25,41.22c-.26.29-.52.25-.78,0C30.74,40.68,31,40.61,31.25,41.22Z"/><path class="cls-10" d="M37,41.22c-.27.3-.52.24-.78,0C36.5,40.69,36.76,40.6,37,41.22Z"/><path class="cls-10" d="M17.82,41.21a.46.46,0,0,1-.78,0C17.31,40.7,17.57,40.6,17.82,41.21Z"/><path class="cls-10" d="M44.68,41.23a.86.86,0,0,1-.78,0C44.18,40.69,44.44,40.6,44.68,41.23Z"/><path class="cls-10" d="M46.6,41.23a.89.89,0,0,1-.78,0C46.1,40.68,46.36,40.6,46.6,41.23Z"/><path class="cls-10" d="M48.52,41.23a.93.93,0,0,1-.78,0C48,40.68,48.28,40.6,48.52,41.23Z"/><path class="cls-10" d="M50.44,41.23a.89.89,0,0,1-.78,0C49.94,40.68,50.2,40.6,50.44,41.23Z"/><path class="cls-10" d="M27.43,41.2a1,1,0,0,1-.82,0C26.9,40.7,27.17,40.63,27.43,41.2Z"/><path class="cls-10" d="M25.52,41.19l-.55.14-.25-.12C25,40.67,25.24,40.64,25.52,41.19Z"/><path class="cls-10" d="M52.36,41.23a.89.89,0,0,1-.78,0C51.86,40.68,52.12,40.6,52.36,41.23Z"/><path class="cls-10" d="M54.28,41.23a.89.89,0,0,1-.78,0C53.78,40.68,54,40.6,54.28,41.23Z"/><path class="cls-10" d="M29.34,41.21a.9.9,0,0,1-.8,0C28.82,40.68,29.09,40.63,29.34,41.21Z"/><path class="cls-10" d="M56.2,41.23a.89.89,0,0,1-.78,0C55.7,40.68,56,40.59,56.2,41.23Z"/><path class="cls-10" d="M40.85,41.22a.86.86,0,0,1-.78,0C40.34,40.69,40.6,40.59,40.85,41.22Z"/><path class="cls-10" d="M58.11,41.24a.93.93,0,0,1-.78,0C57.62,40.68,57.88,40.59,58.11,41.24Z"/><path class="cls-10" d="M38.93,41.23a.89.89,0,0,1-.78,0C38.42,40.68,38.68,40.6,38.93,41.23Z"/><path class="cls-10" d="M19.74,41.22a2.2,2.2,0,0,0-.25.17l-.27,0L19,41.2C19.23,40.69,19.49,40.6,19.74,41.22Z"/><path class="cls-10" d="M15.9,41.21a1,1,0,0,1-.78,0C15.38,40.71,15.65,40.59,15.9,41.21Z"/><path class="cls-10" d="M23.58,41.22a.8.8,0,0,1-.79,0C23.07,40.7,23.33,40.6,23.58,41.22Z"/><path class="cls-10" d="M12.06,41.22a.75.75,0,0,1-.78,0C11.55,40.69,11.81,40.59,12.06,41.22Z"/><path class="cls-10" d="M10.14,41.22a.78.78,0,0,1-.78,0C9.63,40.69,9.9,40.59,10.14,41.22Z"/><path class="cls-10" d="M8.23,41.22a.8.8,0,0,1-.79,0C7.71,40.69,8,40.58,8.23,41.22Z"/><path class="cls-10" d="M21.66,41.22l-.24.15-.29,0-.25-.13C21.15,40.69,21.41,40.6,21.66,41.22Z"/><path class="cls-6" d="M62.46,29.55q.3.22,0,.45Z"/><path class="cls-6" d="M62.45,27.86l.08.16s-.05.05-.08.07A.24.24,0,0,1,62.45,27.86Z"/><path class="cls-6" d="M62.46,28.82c0,.06.06.11.07.16s0,.05-.07.07A.24.24,0,0,1,62.46,28.82Z"/><path class="cls-6" d="M62.46,17.79c0,.06.06.11.07.16s-.05.05-.07.07A.24.24,0,0,1,62.46,17.79Z"/><path class="cls-10" d="M55.08,33.3c-.64,0-1.27.05-1.91.05H12.84c-.36,0-.72,0-1.08-.05l.48-.33a3.47,3.47,0,0,0,.7.14H32c.67,0,.92-.29.9-.95,0-1.11,0-2.23,0-3.35,0-.8,0-1.6,0-2.4V23.3a24.24,24.24,0,0,0,0-3.81l0-1.69c0-1.36,0-2.72,0-4.07,0-.72-.25-1-1-1-2.15,0-4.31,0-6.46,0l-2.62,0H16.61c-1-.14-2.13.27-3.14-.26a1,1,0,0,0,1.17-.5c.41.76.91.68,1.46.16.5.52.92.49,1.27-.17.4.74.88.72,1.43.17.5.53.95.48,1.33-.14.42.79.91.65,1.43.11.42.51.84.47,1.27,0,.49.61,1,.51,1.45,0,.6.61,1,.42,1.28-.31.2.85.73.84,1.38.54a1,1,0,0,0,1.35-.22c.49.58,1,.52,1.45,0,.41.53.83.48,1.26,0a.84.84,0,0,0,1.42,0,.68.68,0,0,0,1.18,0,.83.83,0,0,0,1.43,0,.75.75,0,0,0,1.27,0c.39.51.89.44,1.42.3a2.45,2.45,0,0,0,0,.27l-4.12.09c-.4.52-.14,1.09-.15,1.65a.23.23,0,0,0,0,.2v.48a30.35,30.35,0,0,0,0,4.37l0,.43v.26c0,3.95,0,7.9,0,11.85,0,.73.19,1.1,1,1.09q9.39,0,18.79,0c.69,0,1-.23,1-1,0-1.12,0-2.23,0-3.35V19.92l0-.42a4.85,4.85,0,0,0,0-1.7c0-1.31,0-2.62.07-3.93,0-.82-.25-1.14-1.09-1.13-2.27,0-4.53,0-6.8,0H40.57c-.5-.12-1.08.21-1.51-.27.49,0,1.06.22,1.39-.38.42.58.86.5,1.31,0a.84.84,0,0,0,1.43,0,.73.73,0,0,0,1.26,0,.87.87,0,0,0,1.45,0c.47.56.89.32,1.31-.06.53.68,1,.59,1.44-.1.36.61.78.66,1.28.16.5.59,1,.48,1.45-.05.45.52.88.49,1.27-.07.5.61,1,.77,1.44,0a.91.91,0,0,0,1,.49.18.18,0,0,1-.09.13c-.47.42-.28,1-.28,1.47,0,6.19,0,12.39-.06,18.58,0,.31,0,.45.34.47A.33.33,0,0,1,55.08,33.3Z"/><path class="cls-5" d="M20.13,12c-.38.62-.83.67-1.33.14,0-.49-.21-1,.65-1S20.21,11.5,20.13,12Z"/><path class="cls-9" d="M17.37,12c-.35.66-.77.69-1.27.17v-1.1C16.54,11.34,17.6,10.8,17.37,12Z"/><path class="cls-9" d="M22.83,12.15c-.43.45-.85.49-1.27,0l.06-1.07C22.19,11.24,23.16,11,22.83,12.15Z"/><path class="cls-12" d="M13.47,12.5c1,.53,2.1.12,3.14.26.91.63,1.81,1.27,2.73,1.9,2,1.36,4,2.73,6,4.08.28.19.6.58.93.31s-.1-.54-.19-.82c-.24-.76-.43-1.53-.63-2.29-.05-.22-.28-.45-.06-.66s.53,0,.76.1A28.07,28.07,0,0,1,30.55,18c.64.48,1.68.46,1.9,1.47-.78.46-1.6-.07-2.36.08s-1.38-.52-2,.16a5.1,5.1,0,0,0-1.27-.17,16.72,16.72,0,0,1-4.24-.06,4.49,4.49,0,0,1-.88-.35Q18,16.71,14.38,14.23c-.65-.44-1.47-.67-1.85-1.46l0,0a.5.5,0,0,0,.55-.14l.18-.06.25,0Z"/><path class="cls-5" d="M9.56,10.76l1.2.07c.24.55,1.51.08,1.16,1.19a.85.85,0,0,1-1,.54l-.33-.1c0-.68.18-1.5-1-1.39,0-.1,0-.2,0-.3Z"/><path class="cls-5" d="M14.64,12a1,1,0,0,1-1.17.5h0l-.18-.27c0-.49-.26-1.12.7-1.1C14.7,11.15,14.77,11.46,14.64,12Z"/><path class="cls-10" d="M13.05,12.59a.5.5,0,0,1-.55.14.44.44,0,0,1,.06-.16Z"/><path class="cls-10" d="M13.3,12.24l.18.27-.25,0C13.25,12.43,13.28,12.34,13.3,12.24Z"/><path class="cls-13" d="M32.88,28.82c0,1.12,0,2.24,0,3.35,0,.66-.23.95-.9.95H12.94a3.47,3.47,0,0,1-.7-.14c-.27-4.42-.06-8.84-.06-13.26a7.42,7.42,0,0,0,1.62-.12,24,24,0,0,0,4.72-.12,1.46,1.46,0,0,1,.95.24L27,24.81Z"/><path class="cls-14" d="M19.47,19.71a1.46,1.46,0,0,0-.95-.24.81.81,0,0,0-.41-.68L12.2,15.13c.08-.79-.41-1.66.33-2.36.38.79,1.2,1,1.85,1.46q3.64,2.48,7.33,4.89a4.49,4.49,0,0,0,.88.35v.23A8.84,8.84,0,0,0,19.47,19.71Z"/><path class="cls-12" d="M12.2,15.13l5.91,3.66a.81.81,0,0,1,.41.68,24,24,0,0,1-4.72.12,7.42,7.42,0,0,1-1.62.12A16.73,16.73,0,0,1,12.2,15.13Z"/><path class="cls-9" d="M9.57,10.77c0,.1,0,.2,0,.3L9.43,11Z"/><path class="cls-8" d="M55,12.64a.18.18,0,0,0,.09-.13l.37-.27a1.26,1.26,0,0,0,1.2.23c-.66.32-.75.72-.28,1.31s.68,1,1,1.56a2.89,2.89,0,0,1,0,.29l0,1.2,0,.43a1.9,1.9,0,0,0-.16,1.24l0,.48,0,.25-.12.26a2.85,2.85,0,0,1-1.92-.25C55.05,17,55,14.84,55,12.64Z"/><path class="cls-5" d="M55.44,12.24l-.37.27a.91.91,0,0,1-1-.49l-.07-1h0c.44,0,.94.33,1.27-.24.32,0,.67-.07.91.24C55.26,11,55.5,11.73,55.44,12.24Z"/><path class="cls-5" d="M28.29,12.14a1,1,0,0,1-1.35.22l0-1.3v0C27.47,11.3,28.62,10.76,28.29,12.14Z"/><path class="cls-9" d="M31,12.14c-.43.46-.85.51-1.26,0,0-.35,0-.7,0-1.06a1.71,1.71,0,0,0,1.22,0l0,0Z"/><path class="cls-5" d="M47.21,12.11c-.42.38-.84.62-1.31.06-.31-1.09.5-1,1.16-1.09l0,0A1.3,1.3,0,0,1,47.21,12.11Z"/><path class="cls-9" d="M44.45,12.14a.73.73,0,0,1-1.26,0c-.33-1.2.69-.87,1.23-1.08Z"/><path class="cls-5" d="M41.76,12.16c-.45.46-.89.54-1.31,0,0-.35-.07-.71-.11-1.06h0a2.68,2.68,0,0,0,1.46,0Z"/><path class="cls-15" d="M25.56,11.82c-.27.73-.68.92-1.28.31,0-.27,0-.55,0-.83l1.21,0Z"/><path class="cls-10" d="M25.51,11.33l-1.21,0,0-.23h1.47l0,0Z"/><path class="cls-7" d="M54,11.06l.07,1c-.46.8-.94.64-1.44,0,0-.23,0-.47,0-.7l.22-.24Z"/><path class="cls-10" d="M52.88,11.11l-.22.24-1.26,0-.54-.21a.34.34,0,0,1,.22,0h1.53Z"/><path class="cls-7" d="M31,12.14l0-1.08h1.45v1.11A.84.84,0,0,1,31,12.14Z"/><path class="cls-7" d="M47.21,12.11a1.3,1.3,0,0,0-.17-1h1.45l.21.23c0,.24,0,.48-.05.72C48.21,12.7,47.74,12.79,47.21,12.11Z"/><path class="cls-10" d="M48.7,11.29l-.21-.23a2.13,2.13,0,0,0,1.36-.13l.36.18-.3.19Z"/><path class="cls-5" d="M37.74,12.71a2.45,2.45,0,0,1,0-.27c0-.46,0-.92,0-1.38h0c.44,0,.92.32,1.24-.24.26,0,.53,0,.7.24-.9.11-.47.92-.72,1.37-.24.11-.56,0-.73.31Z"/><path class="cls-7" d="M38.91,12.44c.25-.45-.18-1.26.72-1.37h.71c0,.35.08.71.11,1.06-.33.6-.9.36-1.39.38A.39.39,0,0,0,38.91,12.44Z"/><path class="cls-7" d="M49.91,11.3l.3-.19h.65l.54.21,0,.8c-.47.53-1,.64-1.45.05C49.92,11.88,49.91,11.59,49.91,11.3Z"/><path class="cls-9" d="M36.3,12.14a.75.75,0,0,1-1.27,0c0-.36,0-.73,0-1.09l0,0a1.89,1.89,0,0,0,1.22,0l0,0Z"/><path class="cls-7" d="M36.3,12.14l0-1.08h1.46c0,.46,0,.92,0,1.38C37.19,12.58,36.69,12.65,36.3,12.14Z"/><path class="cls-7" d="M25.51,11.33l.2-.28h1.2l0,1.3c-.65.3-1.18.31-1.38-.54C25.54,11.66,25.53,11.5,25.51,11.33Z"/><path class="cls-7" d="M35.07,11.06c0,.36,0,.73,0,1.09a.83.83,0,0,1-1.43,0l0-1.07h1.44Z"/><path class="cls-9" d="M33.63,11.06l0,1.07a.68.68,0,0,1-1.18,0V11.06A1.59,1.59,0,0,0,33.63,11.06Z"/><path class="cls-1" d="M55.09,19.24a2.85,2.85,0,0,0,1.92.25c-.29,2.83-.53,5.67-.88,8.49a33.34,33.34,0,0,1-.71,5.36l-.34,0a.33.33,0,0,0-.1-.14l.08,0s.07,0,.06-.07a.46.46,0,0,0-.07-.16v-1.2a.29.29,0,0,0,0-.48V26.89a.77.77,0,0,0,0-.94V22.57a.27.27,0,0,0,0-.46V20.17s.07,0,.06-.06a1.66,1.66,0,0,0-.06-.16Z"/><path class="cls-11" d="M57.2,18.5a1.9,1.9,0,0,1,.16-1.24C57.35,17.68,57.49,18.12,57.2,18.5Z"/><path class="cls-11" d="M57.38,16.83l0-1.2A.88.88,0,0,1,57.38,16.83Z"/><path class="cls-11" d="M57.13,19.23l0-.25a1.06,1.06,0,0,1,.06.19Z"/><path class="cls-8" d="M63.62,45.36c0,.56,0,1.12,0,1.68a1,1,0,0,0,0,.24c-.73-.15-.47-.74-.47-1.16,0-3.93,0-7.86,0-11.79V17.2c.62.32.5.76.5,1.15q0,7.47,0,14.95a3.15,3.15,0,0,0,.19,1.52l0,.42c-.48,1.35-.12,2.75-.21,4.12v6Z"/><path class="cls-13" d="M81.6,16.62C82.67,17,82.65,18,83,18.8c.85,1.93,1.51,3.94,2.25,5.92.05.13.05.22-.07.29a9.08,9.08,0,0,0-3.49-2.18l-.14-.64a17.73,17.73,0,0,0-.16-4.88Z"/><path class="cls-8" d="M78.72,38.41c-.13,1.11.23,2.25-.23,3.33-.08-.23-.17-.46-.26-.69V38.89q0-10.22,0-20.43c0-.59,0-1.19,0-1.79a.47.47,0,0,1,.09-.12c.79.94.14,2.17.63,3.18a1.5,1.5,0,0,1,0,.22,21.32,21.32,0,0,0,0,6.23l-.08.48c-.29.66,0,1.36-.14,2Z"/><path class="cls-5" d="M81.6,16.62c-.08.23-.15.46-.22.69v4.85c-.39,0-.9-.11-.94.44s-.33,1.21.41,1.57c-.08.66-.15,1.31-.23,2-.85.27-.9-.46-1.17-.92v-.48c0-1.26,0-2.52,0-3.78,0-.74.17-1.13,1-1h0a.35.35,0,0,0,.48.21c.14-.06.05-.19,0-.29,0-.7,0-1.41,0-2.1.11-.94-.26-1.29-1.17-1.16-.09-.35-.79-.19-.63-.68s.6-.08.9-.13A1.45,1.45,0,0,1,81.6,16.62Z"/><path class="cls-13" d="M86.68,29.29l-.26.26-4.16,0a4.24,4.24,0,0,1-.72-1.42A1,1,0,0,0,81.39,27v-.87C83.39,26.79,85,28.15,86.68,29.29Z"/><path class="cls-16" d="M86.68,29.29c-1.71-1.14-3.29-2.5-5.29-3.12,0-.56,0-1.11,0-1.66a11.36,11.36,0,0,1,2.71,1.63,2.42,2.42,0,0,0,1.78.77c.23.48.45,1,.68,1.45-.28.35,0,.41.25.48C86.87,29,86.93,29.2,86.68,29.29Z"/><path class="cls-8" d="M78.18,16.67c-4.23-.22-8.46,0-12.69-.1A2.83,2.83,0,0,1,64,16.41c.2-.49.62-.3.92-.3,4,0,8,0,12,0a1.72,1.72,0,0,1,1.43.46A.47.47,0,0,0,78.18,16.67Z"/><path class="cls-4" d="M64.06,29.49c-.26-.21-.19-.5-.19-.77V17.88c0-.26-.07-.56.2-.76a1.84,1.84,0,0,0,.22.17c0,.48,0,1,.07,1.44,0,3.52,0,7-.08,10.57Z"/><path class="cls-11" d="M81.54,28.11a4.24,4.24,0,0,0,.72,1.42c0,.1.06.19.1.29a4.16,4.16,0,0,0,.73,1.36.32.32,0,0,1,0,.51c-.26.2-.41.06-.56-.17-.39-.57-.39-1.56-1.17-1.67S80.59,31,80,31.3c-.13.07,0,.47-.36.25s-.26-.33-.11-.57c.26-.45.76-.84.44-1.46.14-.38.93-.31.67-1l-.21-.49Z"/><path class="cls-13" d="M85.87,26.91a2.42,2.42,0,0,1-1.78-.77,11.36,11.36,0,0,0-2.71-1.63l0-.4.32-.35c1.35.45,2.47,1.37,3.77,1.94C85.59,26.1,86.1,26.37,85.87,26.91Z"/><path class="cls-13" d="M79.72,16.59c.91-.13,1.28.22,1.17,1.16-.07.69,0,1.4,0,2.1l-.46.08h0c-1-.35-.6-1.32-.94-2A1.93,1.93,0,0,1,79.72,16.59Z"/><path class="cls-16" d="M85.44,25.7c-1.3-.57-2.42-1.49-3.77-1.94,0-.31,0-.62,0-.93A9.08,9.08,0,0,1,85.17,25C85.17,25.27,85.7,25.33,85.44,25.7Z"/><path class="cls-8" d="M77.51,16.85c.43.12.5.47.5.84,0,3.78,0,7.57,0,11.35,0,.11-.09.21-.14.32l-.09-.06c0-1.55.07-3.1.07-4.65,0-.41.18-.89-.29-1.2V22.19a8.74,8.74,0,0,0,0-5h0Z"/><path class="cls-2" d="M64.06,29.49l.22-.19c.09.06.18.19.27.19,4.32,0,8.65.13,13-.06v.34H65C64.68,29.78,64.28,29.91,64.06,29.49Z"/><path class="cls-2" d="M77.51,16.85l0,.3h-1.7l-4.31,0H66.24c-.64,0-1.3-.29-1.89.17l-.06,0a1.84,1.84,0,0,1-.22-.17c.27-.44.72-.28,1.09-.28Z"/><path class="cls-3" d="M79.47,18c.34.64,0,1.61.94,2-.81-.11-1,.28-1,1,0,1.26,0,2.52,0,3.78-.48-.93-.1-1.93-.24-2.89-.09-.63.29-1.34-.28-1.9a1.5,1.5,0,0,0,0-.22A2.25,2.25,0,0,0,79.47,18Z"/><path class="cls-4" d="M65.16,31.68c-.11-.24-.18-.49.08-.69l2.51.22c.19.12.12.28.08.43Z"/><path class="cls-5" d="M65.16,31.68l2.67,0A1.6,1.6,0,0,1,65.16,31.68Z"/><path class="cls-3" d="M80.62,28.55c.26.66-.53.59-.67,1a.66.66,0,0,1-.76-.42c.11-.41-.14-.89.25-1.24C79.71,28.3,80,28.79,80.62,28.55Z"/><path class="cls-10" d="M79.44,27.86c-.39.35-.14.83-.25,1.24l-.45-.4c.1-.68-.15-1.38.14-2,.3,0,.33.35.53.5Z"/><path class="cls-11" d="M67.75,31.21,65.24,31C66.22,30.2,67.19,30.29,67.75,31.21Z"/><path class="cls-2" d="M82.36,29.82c0-.1-.07-.19-.1-.29l4.16,0C85.1,30.09,83.71,29.63,82.36,29.82Z"/><path class="cls-13" d="M86.8,28.84c-.25-.07-.53-.13-.25-.48Z"/><path class="cls-8" d="M77.53,29.77v-.34h0l.25-.12.09.06C77.81,29.55,77.77,29.74,77.53,29.77Z"/><path class="cls-1" d="M98.11,41.51a4.91,4.91,0,0,1,0-3.08Z"/><path class="cls-1" d="M98.11,35.75a.4.4,0,0,1,0-.68C98.1,35.3,98.11,35.53,98.11,35.75Z"/><path class="cls-2" d="M32.57,51.51c-.34,0-.39-.22-.36-.48a10.46,10.46,0,0,0-.51-3.76C32.74,48.53,32.7,50,32.57,51.51Z"/><path class="cls-5" d="M11.31,45.29a3.82,3.82,0,0,0,.14-.81c0-.24-.29-.53.1-.69.11,0,.3.06.44.13.39.2.14.46,0,.7l-.24.67Z"/><path class="cls-5" d="M7.47,45.29a3.84,3.84,0,0,0,.14-.8c0-.25-.29-.54.1-.7.11,0,.3.06.44.13.39.2.14.46,0,.7s-.15.45-.23.67Z"/><path class="cls-5" d="M9.39,45.29a5.49,5.49,0,0,0,.15-.79c0-.22-.35-.52.09-.64a.69.69,0,0,1,.54.16c.26.2,0,.41-.05.62s-.16.43-.23.65Z"/><path class="cls-8" d="M64.12,47.71H73V48c-3-.14-6,.22-9-.2Z"/><path class="cls-1" d="M96.68,42.43c-.87.92-1.86.63-2.85.25a.25.25,0,0,0,.14-.16l2.35-.07Z"/><path class="cls-11" d="M96.68,42.43l-.36,0c-.7-.85-1.64-.43-2.5-.45h0a6.26,6.26,0,0,1,2.28-.18C96.53,41.8,96.65,42.08,96.68,42.43Z"/><path class="cls-1" d="M63.62,45.36V41.05A8.4,8.4,0,0,1,63.62,45.36Z"/><path class="cls-1" d="M63.62,39.36c.09-1.37-.27-2.77.21-4.12C63.74,36.61,64.11,38,63.62,39.36Z"/><path class="cls-1" d="M78.23,41.05c.09.23.18.46.26.69,0,.47-.42.35-.68.6A1.26,1.26,0,0,1,78.23,41.05Z"/><path class="cls-11" d="M94,42.52a.25.25,0,0,1-.14.16c-.14-.22-.32-.45,0-.67h0C93.8,42.19,93.72,42.4,94,42.52Z"/><path class="cls-8" d="M74.93,44.69l-.18.28c-.18-.16-.07-.27,0-.39Z"/><path class="cls-8" d="M64,47.83c-.1-.06-.36,0-.25-.23s.24,0,.34.12Z"/><path class="cls-8" d="M75.18,44.23l-.25.45-.13-.1.29-.45Z"/><path class="cls-8" d="M76.61,43l-.47.27a.94.94,0,0,0-.1-.1l.44-.27Z"/><path class="cls-8" d="M76.48,42.9l.2-.26c.19.17,0,.26-.07.36Z"/><path class="cls-8" d="M75.42,44l-.24.23-.09-.09a2.73,2.73,0,0,1,.23-.25Z"/><path class="cls-8" d="M75.32,43.88l.24-.24.1.11-.24.23Z"/><path class="cls-8" d="M75.9,43.5l-.24.25-.1-.11.24-.24Z"/><path class="cls-8" d="M76.14,43.27l-.24.23-.1-.1.24-.23A.94.94,0,0,1,76.14,43.27Z"/><path class="cls-1" d="M63.61,47.28a1,1,0,0,1,0-.24,1.4,1.4,0,0,1,.09.17Z"/><path class="cls-5" d="M79,51.6a1.61,1.61,0,0,1,.12-2.19c-.16.37-.21.74.34.71s.92.24,1.29-.23a1.38,1.38,0,0,0,.12-1.78.48.48,0,0,1,.48-.34,1.32,1.32,0,0,0,1.9.74A.93.93,0,0,0,83.49,47a1.85,1.85,0,0,1,1.92,1c-.89-.16-1.48.09-1.46,1.12-.56.48-1.49-.42-1.92.51h-.11c-.12-.11-.24-.17-.37,0s-.1.4.06.58v.1c-.1.07-.32,0-.28.22,0,.06.18.09.28.13v.1c-.09.26-.32.3-.54.36C80.32,51.13,79.4,50.21,79,51.6Z"/><path class="cls-2" d="M79,51.6c.44-1.39,1.36-.47,2.1-.45l.26.43a4.83,4.83,0,0,0-.22.64c-.19,1-.66,1.14-1.41.5v.05c0-.31-.3-.27-.5-.35A.62.62,0,0,0,79,51.6Z"/><path class="cls-2" d="M83.49,47a.93.93,0,0,1-.28,1.49,1.32,1.32,0,0,1-1.9-.74c-.12-.64.69-.51.79-1C82.56,46.88,83.06,46.72,83.49,47Z"/><path class="cls-2" d="M80.83,48.11a1.38,1.38,0,0,1-.12,1.78c-.37.47-.86.2-1.29.23s-.5-.34-.34-.71.14-.61.23-.92c.19,0,.38,0,.39-.23h0C80.08,48.22,80.38,47.66,80.83,48.11Z"/><path class="cls-2" d="M84,49.19c0-1,.57-1.28,1.46-1.12V48c-.18.34,0,.56.28.73-.1.38.21.47.43.64-.37,1.06-1.09.9-1.88.53Z"/><path class="cls-11" d="M80.83,48.11c-.45-.45-.75.11-1.13.15a2.06,2.06,0,0,1,2.4-1.46c-.1.46-.91.33-.79,1A.48.48,0,0,0,80.83,48.11Z"/><path class="cls-5" d="M85.68,48.74c-.28-.17-.46-.39-.28-.73C85.84,48.12,85.66,48.47,85.68,48.74Z"/><path class="cls-5" d="M79.19,52.42c.2.08.47,0,.5.35C79.23,53.08,79.27,52.67,79.19,52.42Z"/><path class="cls-11" d="M79.7,48.26c0,.27-.2.25-.39.23C79.39,48.33,79.43,48.11,79.7,48.26Z"/><path class="cls-3" d="M84,49.19l.28.72c-.28.52.21,1.27-.49,1.67a2.19,2.19,0,0,1-2.42,0l-.26-.43c.22-.06.45-.1.54-.35a2.47,2.47,0,0,0,.65.49.82.82,0,0,0,1.17-.46c.24-.58-.12-.91-.57-1.11a2.24,2.24,0,0,0-.82,0C82.46,48.77,83.39,49.67,84,49.19Z"/><path class="cls-2" d="M82.76,54.24h-.91c-.3-.42-.73-.76-.22-1.37s1.07-.38,1.59-.28c.25,0,.53.51.58.82C83.91,54.18,82.93,53.72,82.76,54.24Z"/><path class="cls-5" d="M36.73,45.11l-.24.25a1.68,1.68,0,0,0-1,.25c-.79-.35-1.84-.27-2.35-1.67,1.07.79,2,1,2.71,0a2,2,0,0,1,.38.2C36.24,44.57,36.29,44.94,36.73,45.11Z"/><path class="cls-11" d="M36.26,42.24c-.11.45-.13,1.09-.81.85-.34-.12-1-.27-1-.68.12-.6.74-.41,1.2-.31.19,0,.38.1.57.15Z"/><path class="cls-11" d="M35.52,45.61a1.68,1.68,0,0,1,1-.25c0,.55-.51.82-.7,1.45C35.43,46.33,35.6,45.94,35.52,45.61Z"/><path class="cls-11" d="M36.73,45.11c-.44-.17-.49-.54-.47-.94.28-.1.62-.44.82-.09S36.86,44.76,36.73,45.11Z"/><path class="cls-11" d="M60.61,46.83c-.07-.45-.29-.91.08-1.27.07-.07.5,0,.52.12C61.29,46.19,60.79,46.42,60.61,46.83Z"/><path class="cls-11" d="M52.83,43.53c.06-.48-.24-1,.3-1.23a.33.33,0,0,1,.3.12C53.6,42.94,53.23,43.2,52.83,43.53Z"/><path class="cls-11" d="M45.1,43.66c.12-.65-.2-1.13.37-1.36a.33.33,0,0,1,.29.12C45.94,42.93,45.54,43.16,45.1,43.66Z"/><path class="cls-11" d="M50.9,43.61c0-.59-.17-1,.22-1.28.08,0,.37,0,.39.1C51.69,42.93,51.3,43.17,50.9,43.61Z"/><path class="cls-11" d="M56.41,43.92a2,2,0,0,1-.69,1.32c0-.65-.33-1.34.69-1.31Z"/><path class="cls-11" d="M49.94,45.36c.09-.46-.24-1,.28-1.37.05-.05.3,0,.3.07a1.68,1.68,0,0,1-.59,1.3Z"/><path class="cls-11" d="M57.37,45.6a1.37,1.37,0,0,1-.49,1c-.36-1-.36-1,.49-1Z"/><path class="cls-11" d="M47.77,45.6c0,.5-.32.85-.69,1.54,0-.87-.33-1.57.7-1.54Z"/><path class="cls-11" d="M40.1,42.24a1,1,0,0,1-.59,1.08c-.22-.64-.24-1.09.59-1.07Z"/><path class="cls-11" d="M43.26,43.69c0-.63-.23-1,.2-1.37.07,0,.3,0,.32,0C44,42.86,43.58,43.13,43.26,43.69Z"/><path class="cls-11" d="M58.63,47.07c0-.66-.22-1.06.17-1.39a.34.34,0,0,1,.31,0C59.36,46.2,58.92,46.45,58.63,47.07Z"/><path class="cls-11" d="M47.15,43.3c-.09-.39-.28-.76.21-1a.32.32,0,0,1,.3.09C47.86,42.87,47.58,43.1,47.15,43.3Z"/><path class="cls-11" d="M50,48.38c-.12-.45-.23-.81.05-1.14a.51.51,0,0,1,.4.14C50.69,47.82,50.41,48.08,50,48.38Z"/><path class="cls-11" d="M49.69,45.6A2.07,2.07,0,0,1,49,46.92c0-.65-.33-1.34.7-1.32Z"/><path class="cls-11" d="M53.9,48.37a1.13,1.13,0,0,1,0-1.14.55.55,0,0,1,.41.14C54.54,47.82,54.25,48.07,53.9,48.37Z"/><path class="cls-11" d="M54.86,46.82c-.08-.42-.31-.84.13-1.15.07-.05.29,0,.31.06C55.5,46.23,55,46.46,54.86,46.82Z"/><path class="cls-11" d="M57.68,48.44c0-.52-.26-.91.13-1.21.06,0,.35.08.39.18C58.35,47.86,58,48.09,57.68,48.44Z"/><path class="cls-11" d="M56.77,50.05c-.13-.44-.24-.81,0-1.14a.51.51,0,0,1,.4.14C57.41,49.5,57.12,49.75,56.77,50.05Z"/><path class="cls-11" d="M40.38,45.36c0-.63-.23-1,.21-1.36a.33.33,0,0,1,.31,0C41.07,44.54,40.7,44.81,40.38,45.36Z"/><path class="cls-11" d="M42.29,45.36c0-.63-.22-1.06.22-1.37.07,0,.3,0,.31.06C43,44.54,42.63,44.82,42.29,45.36Z"/><path class="cls-11" d="M46.1,45.36c.09-.46-.24-1,.28-1.37,0-.05.29,0,.3.07a1.61,1.61,0,0,1-.59,1.3Z"/><path class="cls-11" d="M42.36,48.41c-.1-.46-.25-.82.15-1.06a.33.33,0,0,1,.31,0C43,47.8,42.74,48.05,42.36,48.41Z"/><path class="cls-11" d="M46.2,48.46c-.09-.52-.29-.89.2-1.13a.34.34,0,0,1,.3.1C46.77,47.82,46.54,48.07,46.2,48.46Z"/><path class="cls-11" d="M51.61,45.6a1.81,1.81,0,0,1-.56,1.15c-.23-.71-.3-1.17.56-1.15Z"/><path class="cls-11" d="M34.65,48.38c0-.46-.22-.83.21-1.05.08,0,.3,0,.31.09C35.24,47.8,35.09,48.09,34.65,48.38Z"/><path class="cls-11" d="M36.59,48.41c-.08-.47-.24-.83.17-1.07a.36.36,0,0,1,.31.06C37.21,47.79,37,48.06,36.59,48.41Z"/><path class="cls-11" d="M45.85,45.6a1.35,1.35,0,0,1-.59,1.08c-.19-.63-.27-1.1.6-1.08Z"/><path class="cls-11" d="M53.53,45.6a1.39,1.39,0,0,1-.6,1.09c-.16-.63-.27-1.11.6-1.09Z"/><path class="cls-11" d="M38.56,48.39c-.18-.44-.25-.77.07-1a.25.25,0,0,1,.4.11C39.09,47.84,38.86,48.1,38.56,48.39Z"/><path class="cls-11" d="M44.26,48.39c-.06-.46-.22-.82.19-1a.36.36,0,0,1,.31.07C44.86,47.8,44.67,48.07,44.26,48.39Z"/><path class="cls-11" d="M39.44,46.7c0-.46-.21-.83.22-1,.08,0,.3,0,.31.08C40.06,46.13,39.88,46.41,39.44,46.7Z"/><path class="cls-11" d="M37.58,46.64c-.17-.36-.22-.69.09-1,.12-.11.37,0,.39.1A.78.78,0,0,1,37.58,46.64Z"/><path class="cls-11" d="M43.93,45.6a1.39,1.39,0,0,1-.58,1.08c-.2-.64-.28-1.1.59-1.08Z"/><path class="cls-11" d="M48.14,45c-.16-.36-.23-.69.08-1,.13-.12.38,0,.4.09A.78.78,0,0,1,48.14,45Z"/><path class="cls-11" d="M33.33,43.7c-.06,0-.14.07-.18,0s-.07-.12-.11-.18.15-.07.2,0S33.3,43.64,33.33,43.7Z"/><path class="cls-11" d="M40.1,42.25l.06-.1-.06.09Z"/><path class="cls-11" d="M56.41,43.93l.06-.1-.06.09Z"/><path class="cls-11" d="M47.78,45.6l0-.1-.06.1Z"/><path class="cls-11" d="M46.09,45.36l-.24.24h0l.24-.24Z"/><path class="cls-11" d="M57.37,45.6l.06-.1-.06.1Z"/><path class="cls-11" d="M53.53,45.6l.06-.1-.06.1Z"/><path class="cls-11" d="M51.61,45.6l.06-.1-.06.1Z"/><path class="cls-11" d="M36.26,42.25l.06-.1-.06.09Z"/><path class="cls-11" d="M49.93,45.36l-.24.24h0l.24-.24Z"/><path class="cls-11" d="M43.94,45.6l.05-.1-.06.1Z"/><path class="cls-6" d="M7.48,42.69c-.38-.1-1.24.27-1.23-.35s.88-.25,1.36-.37a1.68,1.68,0,0,1,.59,0c.27,0,.64,0,.65.35,0,.53-.44.29-.7.34A3.59,3.59,0,0,1,7.48,42.69Z"/><path class="cls-5" d="M13.33,43.82c.82.24.82.24.42,1A1.12,1.12,0,0,1,13.33,43.82Z"/><path class="cls-5" d="M15.23,43.72c.86.4.86.4.37,1.08C15.31,44.55,15.28,44.21,15.23,43.72Z"/><path class="cls-5" d="M6.41,44.31c-.1.19-.13.51-.43.44-.13,0-.27-.27-.31-.44-.09-.35.18-.38.42-.37S6.48,44,6.41,44.31Z"/><path class="cls-5" d="M10.74,43.51l-.2.08c0-.07-.09-.15-.07-.2s.13,0,.19-.08A1.67,1.67,0,0,1,10.74,43.51Z"/><path class="cls-5" d="M12.51,42.64c0-.06-.09-.14-.07-.18a1.78,1.78,0,0,1,.21-.27c0,.08.08.15.07.22S12.67,42.64,12.51,42.64Z"/><path class="cls-11" d="M21.13,41.33l.29,0c0,.24,0,.5-.27.64Z"/><path class="cls-5" d="M19.22,41.35l.27,0-.16.24Z"/><path class="cls-2" d="M28,50.15c-.71.11-1.38.1-1.79-.63a2.14,2.14,0,0,0-.1-.22c-.24-.38,0-.71.15-1,.46-.69.91,0,1.37,0l0,0c-.18.29,0,.4.24.48h0C27.76,49.22,28.21,49.65,28,50.15Z"/><path class="cls-2" d="M27.63,53c-.8.22-1.57,0-1.55-.85a1.31,1.31,0,0,1,1.55-1.34c.58.24.43.65.25,1.06s-.56.68-.27,1.16Z"/><path class="cls-2" d="M21.86,53.05c0-.35-.24-.58-.32-.87s-.64-.94,0-1.21c.44-.19,1.12-.27,1.36.5.05.17.25.28.39.42C23.13,52.68,22.88,53.33,21.86,53.05Z"/><path class="cls-2" d="M24.58,54.08c-.44-.15-1.18.06-1.15-.56s.43-1.05,1.29-1a1,1,0,0,1,1.12.93C25.85,54.23,25,53.89,24.58,54.08Z"/><path class="cls-9" d="M25.27,51.34c-1.48,0-1.68-.29-1.23-1.7a.49.49,0,0,0,0-.12l.23-.32h.22c0,.65.67.45,1,.72h0v.47c-.25.29.08.6,0,.9l-.05.05h-.14Z"/><path class="cls-11" d="M27.61,53.05c-.29-.48.1-.79.27-1.16s.33-.82-.25-1.06l.36-.68c.22-.5-.23-.93-.15-1.41a2.4,2.4,0,0,1,.7,2.56A3.33,3.33,0,0,1,27.61,53.05Z"/><path class="cls-11" d="M25.47,50.4v-.47a.76.76,0,0,0,.64-.63l.1.22c.07.42-.26.61-.48.86l0,0Z"/><path class="cls-11" d="M25.72,50.38l.32.12s-.06.09-.07.09l-.27-.18Z"/><path class="cls-11" d="M25.46,51.3l.1.15-.15-.1Z"/><path class="cls-2" d="M23.33,47.75c0-.69.79-.48,1-1h.44c.22.54,1.37,0,1.18,1A1.39,1.39,0,0,1,23.33,47.75Z"/><path class="cls-11" d="M25.9,47.84c.19-1-1-.5-1.18-1,1.53-.11,2.36.31,2.9,1.47-.46,0-.91-.7-1.37,0Z"/><path class="cls-11" d="M27.84,48.73c-.24-.08-.42-.19-.24-.48C27.92,48.29,28.08,48.41,27.84,48.73Z"/><path class="cls-2" d="M21.89,48a1.48,1.48,0,0,1,.93,0l.46,1.15c-.13.15-.33.27-.37.44-.23.77-.9.7-1.35.53-.68-.25-.12-.79,0-1.2a1.2,1.2,0,0,1,.23-.41C22,48.41,21.93,48.22,21.89,48Z"/><path class="cls-5" d="M23.28,49.15,22.82,48l.51-.25a1.39,1.39,0,0,0,2.57.09l.35.42c-.17.33-.39.66-.15,1a.76.76,0,0,1-.64.63h0c.07-.75-.09-1.21-1-.72h-.22a3.71,3.71,0,0,0-.23.32.49.49,0,0,1,0,.12C23.63,49.72,23.33,49.64,23.28,49.15Z"/><path class="cls-13" d="M54.18,28.81c0,1.12,0,2.23,0,3.35,0,.74-.33,1-1,1q-9.39,0-18.79,0c-.82,0-1-.36-1-1.09,0-3.95,0-7.9,0-11.85,0,0,.07-.05.06-.08a1.27,1.27,0,0,0-.06-.18c0-.14,0-.28,0-.43a12.84,12.84,0,0,0,1.95.12c1.56-.11,3.12.2,4.67-.15.26,0,.53,0,.71.22a22.7,22.7,0,0,0,2.56,1.91c2.64,1.74,5.23,3.55,7.89,5.28C52.24,27.52,53,28.53,54.18,28.81Z"/><path class="cls-16" d="M54.18,28.81c-1.21-.28-1.94-1.29-2.91-1.93-2.66-1.73-5.25-3.54-7.89-5.28a22.7,22.7,0,0,1-2.56-1.91c.7-.25,1.48.06,2.17-.26l1.19.28a39.85,39.85,0,0,0,5,3.15c.6.33.77.11.81-.48a9.62,9.62,0,0,0-.49-2.67c.24-.31.55-.17.86-.2,1.17-.09,2.34.34,3.49,0l.36,0,0,.42c-.12.1-.12.2,0,.29C54.19,23.08,54.18,25.94,54.18,28.81Z"/><path class="cls-16" d="M19.47,19.71a8.84,8.84,0,0,1,3.12,0,8.32,8.32,0,0,1,1.76,1,18.23,18.23,0,0,0,3.28,2.13c.31.19.67.38,1,.14a.76.76,0,0,0,.15-.89c-.27-.78,0-1.7-.69-2.36.61-.68,1.32,0,2-.16s1.58.38,2.36-.08l.37,0a24.24,24.24,0,0,1,0,3.81c-.9-.33-1.42-.25-.93.87a10.07,10.07,0,0,0,.93,2.25c0,.8,0,1.6,0,2.4l-5.85-4Z"/><path class="cls-14" d="M54.16,19.5l-.36,0a2,2,0,0,0-.45-.54c-2-1.25-4.08-2.51-6.17-3.67-.61-.34-.59.17-.48.64a11.64,11.64,0,0,1,.83,3.55h-.46a.83.83,0,0,0-.42-.68c-2.18-1.39-4.14-3.08-6.36-4.41a6.38,6.38,0,0,1-2.11-1.62c.17-.29.49-.2.73-.31a.39.39,0,0,1,.15.06c.43.48,1,.15,1.51.27a9,9,0,0,0,1.91,1.34c.56.21,1.14,1,1.64.59.66-.51-.06-1.28-.17-1.93h2.38a12.89,12.89,0,0,0,2.55,1.64,45.44,45.44,0,0,0,5.27,3.39A4.85,4.85,0,0,1,54.16,19.5Z"/><path class="cls-14" d="M32.82,19.49l-.37,0c-.22-1-1.26-1-1.9-1.47a28.07,28.07,0,0,0-4.39-2.61c-.23-.11-.5-.35-.76-.1s0,.44.06.66c.2.76.39,1.53.63,2.29.09.28.52.56.19.82s-.65-.12-.93-.31c-2-1.35-4-2.72-6-4.08-.92-.63-1.82-1.27-2.73-1.9h2.85c.25.65.95.77,1.43,1.15s1.36,1.15,1.94.83,0-1.29,0-2l2.62,0c0,.27.25.38.41.55.82.86,2,1.12,2.92,1.83a20.35,20.35,0,0,0,4.08,2.64Z"/><path class="cls-12" d="M38.18,12.75a6.38,6.38,0,0,0,2.11,1.62c2.22,1.33,4.18,3,6.36,4.41a.83.83,0,0,1,.42.68c-.2.27-.45.16-.72.15a6.08,6.08,0,0,0-2.17.1L43,19.43c-.41-1.25-1.73-1.4-2.61-2.05-2.18-1.63-4.5-3.07-6.76-4.58l4.12-.09Z"/><path class="cls-12" d="M54.15,17.8a45.44,45.44,0,0,1-5.27-3.39,12.89,12.89,0,0,1-2.55-1.64c2.27,0,4.53,0,6.8,0,.84,0,1.13.31,1.09,1.13C54.16,15.18,54.17,16.49,54.15,17.8Z"/><path class="cls-12" d="M32.86,17.8a20.35,20.35,0,0,1-4.08-2.64c-.92-.71-2.1-1-2.92-1.83-.16-.17-.38-.28-.41-.55,2.15,0,4.31,0,6.46,0,.74,0,1,.26,1,1C32.86,15.08,32.87,16.44,32.86,17.8Z"/><path class="cls-14" d="M33.62,12.8c2.26,1.51,4.58,2.95,6.76,4.58.88.65,2.2.8,2.61,2.05-.69.32-1.47,0-2.17.26-.18-.26-.45-.22-.71-.22-1.59-1.11-3.16-2.25-4.78-3.33-.58-.39-1.08-1-1.85-1,0-.16,0-.32,0-.48l.05-.06c0-.05,0-.1-.05-.14C33.48,13.89,33.22,13.32,33.62,12.8Z"/><path class="cls-12" d="M33.48,15.13c.77,0,1.27.62,1.85,1,1.62,1.08,3.19,2.22,4.78,3.33-1.55.35-3.11,0-4.67.15a12.84,12.84,0,0,1-1.95-.12A30.35,30.35,0,0,1,33.48,15.13Z"/><path class="cls-4" d="M55.05,26.89c0,1.44,0,2.88,0,4.32v.48c0,.4,0,.8,0,1.2v.23l-.08,0c-.29,0-.34-.16-.34-.47,0-6.19,0-12.39.06-18.58,0-.49-.19-1,.28-1.47,0,2.2.07,4.4.11,6.6,0,.24,0,.48,0,.71a.22.22,0,0,0,0,.22v6.72Z"/><path class="cls-12" d="M22.83,12.76c0,.69.7,1.59,0,2s-1.38-.39-1.94-.83-1.18-.5-1.43-1.15Z"/><path class="cls-12" d="M44,12.77c.11.65.83,1.42.17,1.93-.5.4-1.08-.38-1.64-.59a9,9,0,0,1-1.91-1.34Z"/><path class="cls-13" d="M32.87,26.42a10.07,10.07,0,0,1-.93-2.25c-.49-1.12,0-1.2.93-.87Z"/><path class="cls-15" d="M51.38,12.12l0-.8,1.26,0c0,.23,0,.47,0,.7C52.26,12.61,51.83,12.64,51.38,12.12Z"/><path class="cls-9" d="M49.91,11.3c0,.29,0,.58,0,.87-.5.5-.92.45-1.28-.16,0-.24,0-.48.05-.72Z"/><path class="cls-12" d="M54.19,20.21c-.12-.09-.12-.19,0-.29Z"/><path class="cls-12" d="M33.47,14.45s0,.09.05.14l-.05.06A.23.23,0,0,1,33.47,14.45Z"/><path class="cls-12" d="M33.45,19.93a1.27,1.27,0,0,1,.06.18s0,.06-.06.08Z"/><path class="cls-13" d="M28.1,19.7c.66.66.42,1.58.69,2.36a.76.76,0,0,1-.15.89c-.34.24-.7.05-1-.14a18.23,18.23,0,0,1-3.28-2.13,8.32,8.32,0,0,0-1.76-1v-.23a16.72,16.72,0,0,0,4.24.06A5.1,5.1,0,0,1,28.1,19.7Z"/><path class="cls-8" d="M55.05,26.89V26A.77.77,0,0,1,55.05,26.89Z"/><path class="cls-8" d="M55.05,22.57v-.46A.27.27,0,0,1,55.05,22.57Z"/><path class="cls-8" d="M55.06,31.69v-.48A.29.29,0,0,1,55.06,31.69Z"/><path class="cls-8" d="M55.05,20.17a.22.22,0,0,1,0-.22,1.66,1.66,0,0,1,.06.16S55.07,20.15,55.05,20.17Z"/><path class="cls-8" d="M55.06,33.12v-.23a.46.46,0,0,1,.07.16S55.08,33.09,55.06,33.12Z"/><path class="cls-10" d="M81.68,22.83c0,.31,0,.62,0,.93l-.32.35-.51.07c-.73-.37-.43-1-.4-1.58s.55-.45.94-.44a.41.41,0,0,1,.16,0Z"/><path class="cls-14" d="M81.54,22.19a.41.41,0,0,0-.16,0V17.31A17.73,17.73,0,0,1,81.54,22.19Z"/><path class="cls-10" d="M78.92,20c.57.56.19,1.27.28,1.9.14,1-.24,2,.24,2.89,0,.16,0,.32,0,.48-.56.12.23.92-.49,1A21.32,21.32,0,0,1,78.92,20Z"/><path class="cls-3" d="M79,26.18c.72,0-.07-.84.49-1,.27.46.32,1.19,1.17.92.29.16.08.34,0,.52-.41.17-1.18-.54-1.23.5-.2-.15-.23-.46-.53-.5C78.91,26.5,78.93,26.34,79,26.18Z"/><path class="cls-11" d="M80.64,26.66c.06-.18.27-.36,0-.52.08-.66.15-1.31.23-2l.5-.06,0,.4c0,.55,0,1.1,0,1.66V27l-.77,0Z"/><path class="cls-3" d="M80.4,19.93l.46-.08c.07.1.16.23,0,.29A.35.35,0,0,1,80.4,19.93Z"/><path class="cls-10" d="M80.62,27l.77,0a1,1,0,0,1,.15,1.07l-1.13-.05C80.41,27.7,80.32,27.32,80.62,27Z"/><path class="cls-13" d="M77.51,29.42h0c-4.33.19-8.66.07-13,.06-.09,0-.18-.13-.27-.19,0-3.53,0-7,.08-10.57a63,63,0,0,1,6.38,3.91C73,24,75.23,25.47,77.48,26.89Z"/><path class="cls-16" d="M77.48,26.89C75.23,25.47,73,24,70.74,22.64a63,63,0,0,0-6.38-3.91c0-.48,0-1-.07-1.44l.06,0,.44,0c.42.84,1.35.92,2,1.36,2.33,1.52,4.7,3,7.06,4.44.26.15.57.45.86.22s.16-.61.11-.91a4.12,4.12,0,0,0-.24-.67c-.11-.26-.31-.52,0-.77a.69.69,0,0,1,.79,0c.71.35,1.41.71,2.11,1.07l.07.09v1.26Z"/><path class="cls-5" d="M80.62,27c-.3.31-.21.69-.21,1l.21.49c-.67.24-.91-.25-1.18-.69l0-.7c0-1,.82-.33,1.23-.5Z"/><path class="cls-4" d="M77.48,26.89l.06-3.44c.47.31.29.79.29,1.2,0,1.55,0,3.1-.07,4.65l-.25.12Z"/><path class="cls-4" d="M77.52,17.15a8.74,8.74,0,0,1,0,5l-.07-.09V20.2l0-2.9A.38.38,0,0,0,77.52,17.15Z"/><path class="cls-12" d="M77,17.14h.48a.38.38,0,0,1-.09.15A.34.34,0,0,1,77,17.14Z"/><path class="cls-13" d="M77.47,21.12v1c-.7-.36-1.4-.72-2.11-1.07a.69.69,0,0,0-.79,0c-.27.25-.07.51,0,.77a4.12,4.12,0,0,1,.24.67c.05.3.16.7-.11.91s-.6-.07-.86-.22c-2.36-1.47-4.73-2.92-7.06-4.44-.68-.44-1.61-.52-2-1.36.48-.12,1,.13,1.45-.21h.49c.08.13.16.12.24,0h.47a.84.84,0,0,0,.46.65c1.47.88,2.92,1.79,4.39,2.67.29.17.58.63.92.36S73,20.23,73,19.9s-.44-.69-.12-1,.68,0,1,.17C75.06,19.74,76.26,20.44,77.47,21.12Z"/><path class="cls-16" d="M77.47,21.12c-1.21-.68-2.41-1.38-3.64-2.05-.29-.15-.63-.51-1-.17s.12.65.12,1,.65.57.23.91-.63-.19-.92-.36c-1.47-.88-2.92-1.79-4.39-2.67a.84.84,0,0,1-.46-.65h.74a7.81,7.81,0,0,1,1.67.68c.92.72,1.28.41,1.2-.67h.48c.43.34,1,.11,1.42.23a40.86,40.86,0,0,0,4.52,2.85Z"/><path class="cls-13" d="M77.47,20.2A40.86,40.86,0,0,1,73,17.35c1-.16,2,.18,2.89-.2H77a.34.34,0,0,0,.39.16Z"/><path class="cls-12" d="M71.05,17.13c.08,1.08-.28,1.39-1.2.67a7.81,7.81,0,0,0-1.67-.68Z"/><path class="cls-12" d="M75.84,17.15c-.94.38-1.94,0-2.89.2-.47-.12-1,.11-1.42-.23Z"/><path class="cls-12" d="M66.24,17.14c-.44.34-1,.09-1.45.21l-.44,0C64.94,16.85,65.6,17.13,66.24,17.14Z"/><path class="cls-12" d="M67,17.13c-.08.13-.16.14-.24,0Z"/><path class="cls-6" d="M94,42.52c-.25-.12-.17-.33-.15-.52.86,0,1.8-.4,2.5.45Z"/><path class="cls-9" d="M82,49.7a2.24,2.24,0,0,1,.82,0c.45.2.81.53.57,1.11a.82.82,0,0,1-1.17.46,2.47,2.47,0,0,1-.65-.49v-.56c.1-.18.2-.37.31-.55Z"/><path class="cls-3" d="M81.92,49.69c-.11.18-.21.37-.31.55-.16-.18-.25-.36-.06-.58S81.8,49.58,81.92,49.69Z"/><path class="cls-3" d="M81.61,50.34v.35c-.1,0-.27-.07-.28-.13C81.29,50.35,81.51,50.41,81.61,50.34Z"/><path class="cls-11" d="M24.5,49.2c.87-.49,1,0,1,.72C25.17,49.65,24.51,49.85,24.5,49.2Z"/><path class="cls-11" d="M24.05,49.52a3.71,3.71,0,0,1,.23-.32A3.71,3.71,0,0,0,24.05,49.52Z"/><path class="cls-12" d="M47.53,19.46a11.64,11.64,0,0,0-.83-3.55c-.11-.47-.13-1,.48-.64,2.09,1.16,4.13,2.42,6.17,3.67a2,2,0,0,1,.45.54c-1.15.37-2.32-.06-3.49,0-.31,0-.62-.11-.86.2C48.86,19.26,48.1,20,47.53,19.46Z"/><path class="cls-13" d="M47.53,19.46c.57.57,1.33-.2,1.92.25a9.62,9.62,0,0,1,.49,2.67c0,.59-.21.81-.81.48a39.85,39.85,0,0,1-5-3.15,6.08,6.08,0,0,1,2.17-.1c.27,0,.52.12.72-.15Z"/><g id="Head_in_Circle" data-name="Head in Circle"><path class="cls-17" d="M70.79,42.88a5.1,5.1,0,1,1,2-.4A5.2,5.2,0,0,1,70.79,42.88Z"/><path class="cls-18" d="M70.79,32.75a5,5,0,1,1-2,.4h0a5,5,0,0,1,2-.4m0-.15A5.18,5.18,0,1,0,76,37.78,5.18,5.18,0,0,0,70.79,32.6Z"/><g id="Head"><g class="cls-19"><path class="cls-20" d="M68.36,40c-.49,0-.93-.16-1-.38a.07.07,0,0,1,0-.07.7.7,0,0,0,.4-.44,1.44,1.44,0,0,1-1.07-.72,2,2,0,0,1-.23-.66,0,0,0,0,1,0,0h0a1,1,0,0,0,.37.08,1.09,1.09,0,0,0,.52-.14,2.13,2.13,0,0,1-.77-1.24,1.83,1.83,0,0,1,0-.71.05.05,0,0,1,0,0h0a1.74,1.74,0,0,0,1.25.44H68a1.78,1.78,0,0,1-.15-1,1.86,1.86,0,0,1,.28-.74c.15-.23.34-.42.4-.42s.05,0,.05,0c.07.48.71,1.06,1,1.28a1,1,0,0,1,.14-.78.78.78,0,0,1,.58-.36h0s0,0,0,0a0,0,0,0,1,0,0,1.27,1.27,0,0,0,.33,1h0a1.92,1.92,0,0,1,.61-.17.22.22,0,0,1,.19.07s0,0,0,.06h0a.56.56,0,0,0-.34.14.36.36,0,0,0-.09.29s0,0,0,0h-.31a2.74,2.74,0,0,0-2.23.88c-1,1.23,0,2.69.34,3.18l.1.15a0,0,0,0,1,0,.06h0A2.22,2.22,0,0,1,68.36,40Z"/><path class="cls-18" d="M68.57,34h0c.09.63,1.1,1.4,1.1,1.4a.89.89,0,0,1,.64-1.22h0a1.37,1.37,0,0,0,.35,1.08h0a2.35,2.35,0,0,1,.65-.19.23.23,0,0,1,.16,0s-.5,0-.47.48h-.31a2.84,2.84,0,0,0-2.26.89c-1.2,1.43.31,3.15.43,3.38a2.12,2.12,0,0,1-.5.05c-.5,0-.9-.16-1-.35,0,0,.42-.19.44-.53-1.13-.1-1.31-1.34-1.31-1.34h0a1.09,1.09,0,0,0,.39.08,1.16,1.16,0,0,0,.6-.17,2.06,2.06,0,0,1-.83-1.95h0a1.79,1.79,0,0,0,1.29.46h.14A1.74,1.74,0,0,1,68.57,34m0-.09s-.06,0-.19.13a1.54,1.54,0,0,0-.25.32,1.9,1.9,0,0,0-.28.75,1.84,1.84,0,0,0,.12.92h0a1.7,1.7,0,0,1-1.22-.43.08.08,0,0,0-.12,0s0,0,0,0a2,2,0,0,0,.26,1.39,2.06,2.06,0,0,0,.49.57,1,1,0,0,1-.44.1.84.84,0,0,1-.35-.07h0a.11.11,0,0,0-.08.09,2.05,2.05,0,0,0,.25.68,1.4,1.4,0,0,0,.42.48,1.36,1.36,0,0,0,.63.26.73.73,0,0,1-.37.37h0a.09.09,0,0,0,0,.12.63.63,0,0,0,.38.29,2,2,0,0,0,.68.11,2.31,2.31,0,0,0,.52-.06.08.08,0,0,0,.06-.1v0l-.11-.16c-.33-.47-1.34-1.92-.33-3.13a2.72,2.72,0,0,1,2.19-.85H71a.08.08,0,0,0,.08-.09h0a.37.37,0,0,1,.08-.26.51.51,0,0,1,.31-.13.08.08,0,0,0,.08-.09.09.09,0,0,0,0,0,.29.29,0,0,0-.23-.09,1.81,1.81,0,0,0-.62.18,1.24,1.24,0,0,1-.29-1,.11.11,0,0,0,0-.08.09.09,0,0,0-.07,0h0a.79.79,0,0,0-.62.38,1,1,0,0,0-.16.44,2.09,2.09,0,0,0,0,.25A2.54,2.54,0,0,1,68.66,34a.09.09,0,0,0-.09-.08Z"/></g><g class="cls-21"><path id="Beak" class="cls-17" d="M71.36,35.81a1.76,1.76,0,0,1,1.18-.26l-.86,2.13,1.39.75a1,1,0,0,1-.62.48l-.9-1.13Z"/><path class="cls-18" d="M72.45,39h0l-.9-1.13s0,0,0,0l-.19-2s0,0,0,0l0,0a1.74,1.74,0,0,1,1.17-.23l0,0v0l-.85,2.09,1.36.73s0,0,0,0a0,0,0,0,1,0,0,1,1,0,0,1-.63.5h0Zm-.86-1.19.87,1.1a.94.94,0,0,0,.55-.41l-1.35-.73a0,0,0,0,1,0,0l.84-2.09a1.83,1.83,0,0,0-1.06.24h0Z"/></g><g id="Head-2" class="cls-19"><path class="cls-18" d="M69.05,41.41c0-.21.42-.63.16-1s-2-2.18-.78-3.9A2.79,2.79,0,0,1,71,35.64s.39.08.4.22c0,.65.16,1.92.16,1.92a5.35,5.35,0,0,0,1,1.1c-.52,1.33-.43,2-.74,2.33S69.07,41.52,69.05,41.41Z"/></g><g id="Noise"><path class="cls-18" d="M73.29,37s0,0,0,0a0,0,0,0,1,0,0l1.56-.69s0,0,0,0a0,0,0,0,1,0,.05L73.31,37Z"/><path class="cls-20" d="M73.29,37a0,0,0,0,1,0,0s0,0,0,0l1.47-.87.05,0a.26.26,0,0,1,.32.17.25.25,0,0,1-.17.31L73.3,37Z"/><path class="cls-18" d="M74.87,36.09a.22.22,0,0,1,.21.21.2.2,0,0,1-.15.2l-1.64.5,1.47-.88,0,0h.06m0-.08h-.09l-.06,0h0l-1.47.87a.08.08,0,0,0,0,.12.08.08,0,0,0,.1,0L75,36.59a.3.3,0,0,0,.2-.37.29.29,0,0,0-.28-.21Z"/><path class="cls-18" d="M74.45,37.93h0l-1.09-.06a0,0,0,0,1,0-.09l1.08.07s0,0,0,0A0,0,0,0,1,74.45,37.93Z"/><path class="cls-20" d="M74.49,38.15h-.06l-1.08-.27a.06.06,0,0,1,0-.06s0,0,0,0l1.1-.14h0a.25.25,0,0,1,.25.25.26.26,0,0,1-.25.26Z"/><path class="cls-18" d="M74.49,37.68a.21.21,0,0,1,.21.21.21.21,0,0,1-.21.21h0l-1.08-.28,1.1-.14h0m0-.09h0l-1.1.14a.08.08,0,0,0-.07.1.09.09,0,0,0,.06.07l1.08.27a.29.29,0,0,0,.36-.21.31.31,0,0,0-.22-.37Z"/><path class="cls-18" d="M72.92,36.32h0a0,0,0,0,1,0-.06l.57-.93a0,0,0,1,1,.07,0L73,36.3Z"/><path class="cls-20" d="M72.92,36.32a0,0,0,0,1,0,0h0l.39-1a.22.22,0,0,1,0-.08.25.25,0,0,1,.36,0,.26.26,0,0,1,0,.36L73,36.3S72.93,36.32,72.92,36.32Z"/><path class="cls-18" d="M73.51,35.1a.21.21,0,0,1,.21.21.2.2,0,0,1-.06.14l-.74.82.39-1a.16.16,0,0,1,0-.07.2.2,0,0,1,.16-.07m0-.09a.29.29,0,0,0-.22.1.24.24,0,0,0-.06.09l-.39,1a.1.1,0,0,0,0,.12.1.1,0,0,0,.1,0l.74-.82a.3.3,0,0,0,0-.42.32.32,0,0,0-.2-.08Z"/></g></g></g><g id="Text"><path class="cls-18" d="M68,6.14h-.75a.1.1,0,0,0-.09.09v.69a.08.08,0,0,0,.08.09h.62v.4h-.62a.09.09,0,0,0-.08.1v.84h-.41V6.23c0-.05,0-.09-.07-.09h-.24V5.77H68Z"/><path class="cls-18" d="M69.89,7.15c0,1.1-.14,1.26-.76,1.26s-.75-.18-.75-1.26V5.77h.41V7.15c0,.79.09.86.34.86s.36-.06.36-.86V5.77h.4Z"/><path class="cls-18" d="M71.73,8.35h-.4l-.66-1.53h0s0,0,0,0h0V8.35h-.4V5.77h.4l.66,1.55,0,0V5.77h.4Z"/><path class="cls-18" d="M73.55,8.35h-.44l-.56-1,0,0a0,0,0,0,0,0,0v1h-.4V5.77h.4v1a0,0,0,0,0,0,0,.06.06,0,0,0,.06,0l.55-1h.44L72.89,7a.11.11,0,0,0,0,.07.19.19,0,0,0,0,.08Z"/><path class="cls-18" d="M75.4,6.18c0,1-.11,1.21-.56,1.25v.92h-.4V7.43c-.44,0-.55-.3-.55-1.25V5.77h.41v.41c0,.79.09.86.34.86S75,7,75,6.18V5.77h.4Z"/><path class="cls-18" d="M70.34,3.82h-.23s0,0,0,.05v1h-.2v-1s0-.05,0-.05h-.23V3.64h.73Z"/><path class="cls-18" d="M71.35,4.92h-.2V4.49a0,0,0,0,0,0,0h-.23a0,0,0,0,0,0,0v.43h-.22V3.64h.22v.59a0,0,0,0,0,0,0h.23s0,0,0,0V3.64h.2Z"/><path class="cls-18" d="M72.27,4.92h-.62V3.64h.62v.18H71.9a0,0,0,0,0-.05.05v.34a.07.07,0,0,0,0,0h.31v.2h-.31a0,0,0,0,0,0,0h0v.18a0,0,0,0,0,0,0h.38Z"/><path class="cls-18" d="M66.86,11c0,.67-.22.79-.74.79s-.75-.19-.75-1.35.13-1.34.76-1.34.68.13.73.74h-.41c0-.31-.11-.34-.33-.34s-.35,0-.35.94.11.94.35.94.32-.07.32-.38Z"/><path class="cls-18" d="M68.62,11.75h-.4v-.87s0-.07-.06-.07H67.7a.08.08,0,0,0-.07.07v.87H67.2V9.17h.43v1.18a.07.07,0,0,0,.06.07h.47s.06,0,.06-.07V9.17h.4Z"/><path class="cls-18" d="M69.2,9.59A.23.23,0,0,1,69,9.36a.24.24,0,0,1,.23-.24h0a.24.24,0,0,1,.24.23.23.23,0,0,1-.23.24Zm.2,2.16H69v-2h.4Z"/><path class="cls-18" d="M71.27,11c0,.67-.23.79-.74.79s-.75-.19-.75-1.35.13-1.34.76-1.34.68.13.73.74h-.41c0-.31-.11-.34-.33-.34s-.35,0-.35.94.11.94.35.94.32-.07.32-.38Z"/><path class="cls-18" d="M73.09,11.75h-.44l-.56-1s0,0-.06,0,0,0,0,0v1h-.4V9.17H72v1s0,0,0,0l.06,0,.55-1h.44l-.67,1.22a.09.09,0,0,0,0,.07.22.22,0,0,0,0,.08Z"/><path class="cls-18" d="M74.67,11.75H73.43V9.17h1.24v.37h-.75a.1.1,0,0,0-.09.09v.69a.1.1,0,0,0,.08.09h.62v.4h-.61a.09.09,0,0,0-.09.1v.35a.08.08,0,0,0,.08.09h.76Z"/><path class="cls-18" d="M76.51,11.75h-.4l-.66-1.53h0v1.53H75V9.17h.4l.66,1.55,0,0V9.17h.4Z"/><path class="cls-18" d="M66.89,12.87h-.37a0,0,0,0,0,0,.05v.34a0,0,0,0,0,0,0h.31v.2h-.31s0,0,0,.05V14h-.2V12.91s0,0,0,0h-.12v-.18h.77Z"/><path class="cls-18" d="M67.57,14c-.31,0-.38-.1-.38-.67s.07-.67.38-.67.37.1.37.67S67.88,14,67.57,14Zm0-1.14c-.13,0-.18,0-.18.47s0,.47.18.47.17,0,.17-.47,0-.47-.17-.47Z"/><path class="cls-18" d="M68.62,14c-.31,0-.38-.1-.38-.67s.07-.67.38-.67.37.1.37.67S68.93,14,68.62,14Zm0-1.14c-.13,0-.18,0-.18.47s0,.47.18.47.17,0,.17-.47,0-.47-.17-.47Z"/><path class="cls-18" d="M69.65,14H69.3V12.69h.35c.22,0,.38.08.38.64S69.89,14,69.65,14Zm-.05-1.1h-.08l0,0h0v.87l0,0h.09c.19,0,.23-.17.23-.45S69.81,12.87,69.6,12.87Z"/><path class="cls-18" d="M71.6,12.87h-.23s0,0,0,.05V14h-.2V12.91a0,0,0,0,0,0,0h-.23v-.18h.73Z"/><path class="cls-18" d="M72.64,14h-.22l-.25-.48,0,0h0V14h-.2V12.69h.36c.28,0,.38.1.38.4s-.08.34-.27.37Zm-.43-1.1h-.08s0,0,0,0v.37l0,0h.09c.19,0,.23,0,.23-.19s0-.22-.23-.22Z"/><path class="cls-18" d="M73.69,13.37c0,.55-.07.63-.38.63s-.37-.09-.37-.63v-.68h.2v.68c0,.39,0,.43.17.43s.18,0,.18-.43v-.68h.2Z"/><path class="cls-18" d="M74.73,13.61c0,.33-.11.39-.37.39s-.37-.1-.37-.67.06-.67.38-.67.34.06.36.37h-.2c0-.15-.06-.17-.17-.17s-.17,0-.17.47,0,.47.17.47.17,0,.17-.19Z"/><path class="cls-18" d="M75.77,14h-.22l-.28-.49,0,0s0,0,0,0V14H75V12.69h.2v.5h0l.28-.5h.22l-.33.6a.06.06,0,0,0,0,0,.08.08,0,0,0,0,0Z"/><g id="Lines"><path class="cls-18" d="M69.14,4.38H65.37a.1.1,0,0,1,0-.2h3.77a.1.1,0,0,1,0,.2Z"/><path class="cls-18" d="M76.51,4.38H72.94a.1.1,0,0,1-.1-.1.09.09,0,0,1,.1-.1h3.57a.09.09,0,0,1,.1.1A.1.1,0,0,1,76.51,4.38Z"/><path class="cls-18" d="M76.51,13.43h-.43a.1.1,0,0,1,0-.2h.43a.1.1,0,1,1,0,.2Z"/><path class="cls-18" d="M65.79,13.44h-.43a.1.1,0,0,1-.1-.1.11.11,0,0,1,.1-.1h.43a.1.1,0,0,1,.1.1A.09.09,0,0,1,65.79,13.44Z"/></g></g><path class="cls-22" d="M78.48,1l.5.79L82.26,13.1l.19.58v.45l-.2.53-.27.25-.1.21,1.19.35.83.6,0,1.22,3,7.52,1.29,3.72,1.22,1.4,5.32,2.8,2.21,1,1.26.86.77,1,.57.51.1,3.21-.69.79-.29.55.11,1.16-.16,3.49,2.11.43.11,5-.87.64-8.6.1-.69-.54-.25,1.73-.87,1.9-1.56,2-1.84,1.17-1.72.75-3.83,0-2.7-1.29-1.88-2-1-2-.38-1.47H32.7L32,53.78l-1.69,2.47L28,57.78l-1.93.56-3.32,0-3-1.47-1.88-2.1-1.26-3.68L2.46,51.4,1,50.64V46.08l.5-.5L2,45.35H4.25L4.84,45l-.06-4.16.1-1L5,1.72l.49-.49,73-.23m0-1h0L5.49.23a1,1,0,0,0-.7.3L4.3,1a1,1,0,0,0-.29.7L3.88,39.77l-.1,1v.11l.05,3.48H2a1,1,0,0,0-.39.08l-.53.23a.87.87,0,0,0-.32.22l-.49.5a1,1,0,0,0-.29.7v4.56a1,1,0,0,0,.54.88L2,52.28a.93.93,0,0,0,.46.12h0l13.45-.27,1,3a1.33,1.33,0,0,0,.2.35L19,57.55a.93.93,0,0,0,.3.23l3,1.48a1,1,0,0,0,.45.1h0l3.33,0a.84.84,0,0,0,.27,0l1.93-.56a.84.84,0,0,0,.27-.13l2.28-1.53a1,1,0,0,0,.27-.27l1.68-2.47a1,1,0,0,0,.12-.23l.52-1.48H73.84l.19.72a1.18,1.18,0,0,0,.07.2l1,2a.81.81,0,0,0,.17.24l1.88,2a.86.86,0,0,0,.29.21l2.7,1.29a1.18,1.18,0,0,0,.42.1l3.83,0h0a1.06,1.06,0,0,0,.4-.08l1.72-.76.14-.07,1.84-1.17a1.26,1.26,0,0,0,.24-.22l1.57-2a1.13,1.13,0,0,0,.12-.21l.87-1.9a1.38,1.38,0,0,0,.08-.27l0-.34,8.51-.1a1,1,0,0,0,.59-.2l.86-.64a1,1,0,0,0,.41-.82l-.11-5a1,1,0,0,0-.8-1l-1.27-.26.12-2.64v-.13l-.08-.86.09-.19.62-.7a1,1,0,0,0,.24-.69L100.5,36a1,1,0,0,0-.33-.71l-.5-.45-.73-.92a.88.88,0,0,0-.22-.21l-1.25-.86a.61.61,0,0,0-.18-.09l-2.17-.93L90,29.13,89,28l-1.23-3.54-3-7.37,0-1a1,1,0,0,0-.42-.84l-.82-.6a1,1,0,0,0-.29-.14l0,0a1,1,0,0,0,.06-.34V13.7a1,1,0,0,0,0-.33l-.19-.58L79.94,1.51a1.23,1.23,0,0,0-.12-.26l-.5-.79A1,1,0,0,0,78.48,0Z"/></svg>