<svg xmlns="http://www.w3.org/2000/svg" viewBox="0 0 1128.63 722.68"><defs><style>.cls-1{fill:#333;}.cls-2{fill:#e6e6e6;stroke:#333;stroke-linecap:round;stroke-linejoin:round;stroke-width:16px;}</style></defs><g id="Layer_2" data-name="Layer 2"><g id="Layer_1-2" data-name="Layer 1"><g id="Columns"><g id="Center_Column" data-name="Center Column"><g id="Desserts"><path class="cls-1" d="M53.15,110.64H22.85V21.53a3.55,3.55,0,0,0-3.71-3.86H9.63V2.08l43.52.15c18.56.15,31.78,7.42,31.78,54.5C84.93,98.17,72.75,110.64,53.15,110.64ZM48.69,17.82H41.86a2,2,0,0,0-2.23,2.23V92.67c0,1.49.75,2.08,1.93,2.08h7.13c16.19,0,19.46-14,19.46-38C68.15,29.55,66.37,17.82,48.69,17.82Z"/><path class="cls-1" d="M152.5,110.64H100.08V2.08H152.5V17.52H120.72A4.13,4.13,0,0,0,117,21.39V50.64a3.73,3.73,0,0,0,3.41,3.72h26.14V71.29h-26a3.72,3.72,0,0,0-3.56,4V90c0,1.63.89,3.71,3.41,3.71H152.5Z"/><path class="cls-1" d="M230,84.65c0,17.68-9.35,28.67-32.67,28.67-25.1,0-31.78-7-31.78-32.68h17.52c0,12.18,1.34,16.19,14.26,16.19,11.88,0,14.41-4.45,14.41-12.47,0-5.5-.75-8.77-11.44-16.19l-9.95-7c-12.48-8.77-24.8-15.15-24.8-33.72C165.57,11.73,173.44,0,197.8,0,223,0,229,6.68,229,30.74H211.76c0-13.36-5-14.4-14.41-14.4-10.54,0-13.81,4.16-13.81,11.28,0,5.05,1.48,8.47,15.15,17.38L210,52.42c9.66,6.39,18.57,14.71,19.76,26.14C229.88,80.64,230,82.72,230,84.65Z"/><path class="cls-1" d="M307.25,84.65c0,17.68-9.36,28.67-32.67,28.67-25.1,0-31.79-7-31.79-32.68h17.53c0,12.18,1.33,16.19,14.26,16.19,11.88,0,14.4-4.45,14.4-12.47,0-5.5-.74-8.77-11.43-16.19l-9.95-7C255.12,52.42,242.79,46,242.79,27.47,242.79,11.73,250.66,0,275,0c25.25,0,31.19,6.68,31.19,30.74H289c0-13.36-5.05-14.4-14.4-14.4-10.55,0-13.82,4.16-13.82,11.28,0,5.05,1.49,8.47,15.15,17.38l11.29,7.42c9.65,6.39,18.56,14.71,19.75,26.14C307.1,80.64,307.25,82.72,307.25,84.65Z"/><path class="cls-1" d="M374.08,110.64H321.65V2.08h52.43V17.52H342.3a4.13,4.13,0,0,0-3.72,3.87V50.64A3.73,3.73,0,0,0,342,54.36h26.14V71.29h-26a3.73,3.73,0,0,0-3.57,4V90c0,1.63.89,3.71,3.42,3.71h32.08Z"/><path class="cls-1" d="M452.19,110.64H434.07L412.84,69.8a1.62,1.62,0,0,0-1.64-1.19h-3.26A1.33,1.33,0,0,0,406.6,70v40.69H390V2.23h30.29c23.47,0,31.93,9.06,31.93,33.71,0,20.05-6.83,29.11-22.27,31.78ZM415.81,17.82h-7c-1.49,0-2.23.45-2.23,1.78V50.79a1.59,1.59,0,0,0,1.63,1.78h7.58c16.19,0,19.45-4.45,19.45-16.63C435.26,23.17,433.48,17.82,415.81,17.82Z"/><path class="cls-1" d="M524.82,17.82H505.51c-2.38,0-3.27,2.23-3.27,3.71v89.11H485.31V21.39c0-2.08-.89-3.57-2.82-3.57H462.74V2.08h62.08Z"/><path class="cls-1" d="M598.92,84.65c0,17.68-9.35,28.67-32.67,28.67-25.1,0-31.78-7-31.78-32.68H552c0,12.18,1.34,16.19,14.26,16.19,11.88,0,14.4-4.45,14.4-12.47,0-5.5-.74-8.77-11.43-16.19l-10-7c-12.48-8.77-24.8-15.15-24.8-33.72C534.47,11.73,542.34,0,566.69,0c25.25,0,31.19,6.68,31.19,30.74H580.65c0-13.36-5-14.4-14.4-14.4-10.55,0-13.81,4.16-13.81,11.28,0,5.05,1.48,8.47,15.15,17.38l11.28,7.42c9.66,6.39,18.57,14.71,19.76,26.14C598.77,80.64,598.92,82.72,598.92,84.65Z"/><path class="cls-1" d="M91.09,322.46a15.37,15.37,0,0,1-10.41,3.63h-8.4V298.24h8.4a15.37,15.37,0,0,1,10.41,3.63,14.43,14.43,0,0,1,0,20.59Zm-3-18.29a10.61,10.61,0,0,0-7.42-2.58H76.2V322.7h4.48a10.61,10.61,0,0,0,7.42-2.58,10.49,10.49,0,0,0,3.31-7.95A10.59,10.59,0,0,0,88.1,304.17Z"/><path class="cls-1" d="M120.87,317.41H106.1c.2,3.8,2.62,6.1,6.17,6.1a10.6,10.6,0,0,0,6.34-2.22l1.61,2.22c-.24.2-2.7,3-8.43,3s-9.61-3.95-9.61-10a9.51,9.51,0,0,1,9.73-9.92,8.75,8.75,0,0,1,9.08,9.16A16.88,16.88,0,0,1,120.87,317.41Zm-3.55-2.58a5.54,5.54,0,0,0-5.53-5.49,5.64,5.64,0,0,0-5.65,5.49Z"/><path class="cls-1" d="M146.13,317.41H131.36c.2,3.8,2.62,6.1,6.17,6.1a10.6,10.6,0,0,0,6.34-2.22l1.62,2.22c-.25.2-2.71,3-8.44,3s-9.61-3.95-9.61-10a9.51,9.51,0,0,1,9.73-9.92,8.75,8.75,0,0,1,9.08,9.16A16.88,16.88,0,0,1,146.13,317.41Zm-3.55-2.58a5.54,5.54,0,0,0-5.53-5.49,5.64,5.64,0,0,0-5.65,5.49Z"/><path class="cls-1" d="M164.69,326.53a7.44,7.44,0,0,1-6.62-3.43l0,0V333.6h-3.87V306.92h3.71v3H158a8.14,8.14,0,0,1,6.82-3.39c5.65,0,9.24,4.23,9.24,9.92S170.38,326.53,164.69,326.53ZM164,309.7c-3.84,0-6.1,2.91-6.1,6.74s2.26,6.78,6.1,6.78,6.09-2.94,6.09-6.78S167.8,309.7,164,309.7Z"/><path class="cls-1" d="M203.59,301.11a7.79,7.79,0,0,0-2.18-.37c-2.54,0-2.94,1.9-2.94,4.08V307H203v3.11h-4.56v16h-3.84v-16h-2.74V307h2.74V305c0-2.5.48-4.11,1.29-5.12a5.81,5.81,0,0,1,4.6-2.1,9.69,9.69,0,0,1,3.31.44Z"/><path class="cls-1" d="M219.33,310.47h-.16a5.15,5.15,0,0,0-2.1-.4,4,4,0,0,0-3.15,1.61,8.54,8.54,0,0,0-1.17,4.84v9.57h-3.87V306.92h3.87l0,2.95h.12a5,5,0,0,1,4.72-3.31,5.46,5.46,0,0,1,2,.32Z"/><path class="cls-1" d="M228.41,303a2.38,2.38,0,1,1,2.5-2.38A2.38,2.38,0,0,1,228.41,303Zm1.93,23.09h-3.87V306.92h3.87Z"/><path class="cls-1" d="M257.14,317.41H242.37c.2,3.8,2.62,6.1,6.17,6.1a10.66,10.66,0,0,0,6.34-2.22l1.61,2.22c-.24.2-2.7,3-8.43,3s-9.61-3.95-9.61-10a9.51,9.51,0,0,1,9.73-9.92,8.75,8.75,0,0,1,9.08,9.16A16.88,16.88,0,0,1,257.14,317.41Zm-3.55-2.58a5.54,5.54,0,0,0-5.53-5.49,5.64,5.64,0,0,0-5.65,5.49Z"/><path class="cls-1" d="M283.57,326.09h-3.71V323h-.08a7.81,7.81,0,0,1-6.74,3.51c-5.69,0-9.33-4.36-9.33-10s3.64-9.92,9.25-9.92a7.76,7.76,0,0,1,6.7,3.35h.08V298.24h3.83Zm-9.81-16.39c-3.83,0-6.09,2.91-6.09,6.74s2.26,6.78,6.09,6.78,6.1-2.94,6.1-6.78S277.6,309.7,273.76,309.7Z"/><path class="cls-1" d="M319.85,326.09h-3.76l0-2.42a7.88,7.88,0,0,1-6.09,2.86c-3.55,0-6.62-2.22-6.62-5.93s3.07-5.65,7.51-5.85l5.12-.2v-.77c0-2.91-2-4.36-4.76-4.36a11.64,11.64,0,0,0-5.77,1.66l-1.17-2.59a14.82,14.82,0,0,1,7.18-1.93c3.19,0,5.05.88,6.34,2.18s2.06,2.94,2.06,6.21Zm-3.84-9.2-4.48.28c-3.11.16-4.36,1.49-4.36,3.31s1.42,3.31,4,3.31A6,6,0,0,0,316,321Z"/><path class="cls-1" d="M345.39,326.09h-3.88v-10.7c0-3.22-.56-5.65-4-5.65-3.59,0-4.93,3-4.93,6.7v9.65h-3.87V306.92h3.87l0,3h.13a6.45,6.45,0,0,1,5.85-3.39c5.45,0,6.86,3.59,6.86,8.19Z"/><path class="cls-1" d="M373,326.09h-3.71V323h-.08a7.81,7.81,0,0,1-6.74,3.51c-5.69,0-9.33-4.36-9.33-10s3.64-9.92,9.25-9.92a7.76,7.76,0,0,1,6.7,3.35h.08V298.24H373Zm-9.81-16.39c-3.83,0-6.09,2.91-6.09,6.74s2.26,6.78,6.09,6.78,6.1-2.94,6.1-6.78S367.06,309.7,363.22,309.7Z"/><path class="cls-1" d="M403.74,325.89a9.85,9.85,0,0,1-3.52.64,4.5,4.5,0,0,1-4.07-2c-.81-1.21-1-2.71-1-5.73v-8.76h-2.83V307h2.83v-5.73h3.87V307h4.61v3.11h-4.61v8.67a7.61,7.61,0,0,0,.49,3.52,2,2,0,0,0,2,1,4.65,4.65,0,0,0,2-.44Z"/><path class="cls-1" d="M419.35,326.53c-5.73,0-10.17-4-10.17-10a10.15,10.15,0,0,1,20.3,0C429.48,322.54,425,326.53,419.35,326.53Zm0-16.83c-3.87,0-6.25,3-6.25,6.74s2.38,6.78,6.25,6.78,6.22-3,6.22-6.78S423.19,309.7,419.35,309.7Z"/><path class="cls-1" d="M448.37,324.84a8.2,8.2,0,0,1-5.33,1.69,9.19,9.19,0,0,1-7.47-3.43l1.86-2.26a7.85,7.85,0,0,0,5.65,2.75c1.77,0,3.67-.65,3.67-2.75s-3-2.74-4.32-3.19a14.46,14.46,0,0,1-2.62-1,5,5,0,0,1-3-4.61c0-3.55,3.07-5.48,6.46-5.48a8.4,8.4,0,0,1,6.54,2.5l-1.62,2.38a7,7,0,0,0-4.84-2.06c-1.86,0-3.07.81-3.07,2.38s1.86,2.26,3.76,2.87c1.05.36,1.77.6,2.58.93a7.08,7.08,0,0,1,2.22,1.37,4.7,4.7,0,0,1,1.53,3.55A5.45,5.45,0,0,1,448.37,324.84Z"/><path class="cls-1" d="M468.58,324.84a8.18,8.18,0,0,1-5.33,1.69,9.17,9.17,0,0,1-7.46-3.43l1.85-2.26a7.88,7.88,0,0,0,5.66,2.75c1.77,0,3.67-.65,3.67-2.75s-3-2.74-4.32-3.19a14.18,14.18,0,0,1-2.62-1,4.94,4.94,0,0,1-3-4.61c0-3.55,3.07-5.48,6.46-5.48a8.37,8.37,0,0,1,6.53,2.5l-1.61,2.38a7,7,0,0,0-4.84-2.06c-1.86,0-3.07.81-3.07,2.38s1.86,2.26,3.75,2.87c1,.36,1.78.6,2.59.93a7.32,7.32,0,0,1,2.22,1.37,4.74,4.74,0,0,1,1.53,3.55A5.46,5.46,0,0,1,468.58,324.84Z"/><path class="cls-1" d="M495.66,317.41H480.89c.2,3.8,2.62,6.1,6.17,6.1a10.63,10.63,0,0,0,6.34-2.22l1.61,2.22c-.24.2-2.7,3-8.43,3s-9.61-3.95-9.61-10a9.51,9.51,0,0,1,9.73-9.92,8.75,8.75,0,0,1,9.08,9.16A16.88,16.88,0,0,1,495.66,317.41Zm-3.55-2.58a5.54,5.54,0,0,0-5.53-5.49,5.64,5.64,0,0,0-5.65,5.49Z"/><path class="cls-1" d="M522.09,326.09h-3.71V323h-.08a7.81,7.81,0,0,1-6.74,3.51c-5.69,0-9.33-4.36-9.33-10s3.64-9.92,9.24-9.92a7.77,7.77,0,0,1,6.71,3.35h.08V298.24h3.83Zm-9.81-16.39c-3.83,0-6.09,2.91-6.09,6.74s2.26,6.78,6.09,6.78,6.1-2.94,6.1-6.78S516.12,309.7,512.28,309.7Z"/><path class="cls-1" d="M545.57,303a2.38,2.38,0,1,1,2.5-2.38A2.37,2.37,0,0,1,545.57,303Zm1.94,23.09h-3.88V306.92h3.88Z"/><path class="cls-1" d="M573.58,326.09H569.7v-10.7c0-3.22-.56-5.65-4-5.65-3.59,0-4.93,3-4.93,6.7v9.65h-3.87V306.92h3.87l0,3h.13a6.45,6.45,0,0,1,5.85-3.39c5.45,0,6.86,3.59,6.86,8.19Z"/><path class="cls-1" d="M611.35,306.92l-9.24,22.52c-1.34,3.31-2.91,4.44-5.05,4.44a9.42,9.42,0,0,1-3.63-.69l.76-3.15a6,6,0,0,0,2,.45c.81,0,1.66.08,2.51-2.26l.92-2.54L592,306.88l4,0,5.69,14.89,5.65-14.93Z"/><path class="cls-1" d="M626.32,326.53c-5.73,0-10.17-4-10.17-10a10.15,10.15,0,0,1,20.3,0C636.45,322.54,632,326.53,626.32,326.53Zm0-16.83c-3.88,0-6.26,3-6.26,6.74s2.38,6.78,6.26,6.78,6.21-3,6.21-6.78S630.15,309.7,626.32,309.7Z"/><path class="cls-1" d="M660.7,326.09H657l-.05-2.74a6.67,6.67,0,0,1-5.93,3.18c-2.74,0-4.32-.92-5.33-2.22s-1.41-3.18-1.41-5.93v-11.5h3.84v11.34c0,2.62.56,5.08,4,5.08s4.76-2.9,4.76-6.13V306.88h3.88Z"/><path class="cls-1" d="M680.39,310.47h-.16a5.15,5.15,0,0,0-2.1-.4,4,4,0,0,0-3.15,1.61,8.54,8.54,0,0,0-1.17,4.84v9.57h-3.87V306.92h3.87l0,2.95h.12a5,5,0,0,1,4.72-3.31,5.39,5.39,0,0,1,2,.32Z"/><path class="cls-1" d="M715.38,323.63c-.57.56-2.55,2.9-7.67,2.9a10,10,0,0,1,.12-20c5.12,0,7.22,2.5,7.42,2.74l-1.37,2.82a7.57,7.57,0,0,0-5.73-2.34c-3.39,0-6.21,2.59-6.21,6.62s2.54,6.82,6.25,6.82A8,8,0,0,0,714,320.8Z"/><path class="cls-1" d="M739.26,326.09h-3.87V315.23c0-2.74-.44-5.49-4-5.49s-5,3-5,6.87v9.48H722.6V298.24h3.83V310h.08a6.54,6.54,0,0,1,5.89-3.39c5.53,0,6.86,3.55,6.86,8.11Z"/><path class="cls-1" d="M757.3,326.53c-5.73,0-10.17-4-10.17-10a10.15,10.15,0,0,1,20.3,0C767.43,322.54,763,326.53,757.3,326.53Zm0-16.83c-3.87,0-6.26,3-6.26,6.74s2.39,6.78,6.26,6.78,6.21-3,6.21-6.78S761.13,309.7,757.3,309.7Z"/><path class="cls-1" d="M777.48,303a2.38,2.38,0,1,1,2.5-2.38A2.38,2.38,0,0,1,777.48,303Zm1.93,23.09h-3.87V306.92h3.87Z"/><path class="cls-1" d="M804.88,323.63c-.57.56-2.55,2.9-7.67,2.9a10,10,0,0,1,.12-20c5.13,0,7.22,2.5,7.43,2.74l-1.38,2.82a7.57,7.57,0,0,0-5.73-2.34c-3.39,0-6.21,2.59-6.21,6.62s2.54,6.82,6.25,6.82a8,8,0,0,0,5.81-2.42Z"/><path class="cls-1" d="M829.29,317.41H814.52c.2,3.8,2.62,6.1,6.17,6.1a10.6,10.6,0,0,0,6.34-2.22l1.61,2.22c-.24.2-2.7,3-8.43,3s-9.61-3.95-9.61-10a9.51,9.51,0,0,1,9.73-9.92,8.75,8.75,0,0,1,9.08,9.16A16.88,16.88,0,0,1,829.29,317.41Zm-3.55-2.58a5.54,5.54,0,0,0-5.53-5.49,5.64,5.64,0,0,0-5.65,5.49Z"/><path class="cls-1" d="M858,326.53c-5.73,0-10.17-4-10.17-10a10.15,10.15,0,0,1,20.3,0C868.11,322.54,863.67,326.53,858,326.53Zm0-16.83c-3.88,0-6.26,3-6.26,6.74s2.38,6.78,6.26,6.78,6.21-3,6.21-6.78S861.81,309.7,858,309.7Z"/><path class="cls-1" d="M885.74,301.11a7.79,7.79,0,0,0-2.18-.37c-2.54,0-2.94,1.9-2.94,4.08V307h4.56v3.11h-4.56v16h-3.84v-16H874V307h2.74V305c0-2.5.49-4.11,1.29-5.12a5.81,5.81,0,0,1,4.6-2.1,9.69,9.69,0,0,1,3.31.44Z"/><path class="cls-1" d="M913.67,326.53a7.44,7.44,0,0,1-6.62-3.43l0,0V333.6h-3.88V306.92h3.71v3h.09a8.11,8.11,0,0,1,6.82-3.39c5.65,0,9.24,4.23,9.24,9.92S919.36,326.53,913.67,326.53Zm-.73-16.83c-3.84,0-6.1,2.91-6.1,6.74s2.26,6.78,6.1,6.78,6.09-2.94,6.09-6.78S916.77,309.7,912.94,309.7Z"/><path class="cls-1" d="M939.81,326.53c-5.73,0-10.17-4-10.17-10a10.15,10.15,0,0,1,20.3,0C949.94,322.54,945.5,326.53,939.81,326.53Zm0-16.83c-3.87,0-6.25,3-6.25,6.74s2.38,6.78,6.25,6.78,6.22-3,6.22-6.78S943.65,309.7,939.81,309.7Z"/><path class="cls-1" d="M984.93,306.92l-6.34,19.17H975l-5-14.33-5.09,14.33h-3.55L955,306.92h3.92l4.44,14.49,5-14.53h3.11l5.05,14.53L981,306.92Z"/><path class="cls-1" d="M1009.87,326.09h-3.72V323h-.08a7.79,7.79,0,0,1-6.74,3.51c-5.69,0-9.32-4.36-9.32-10s3.63-9.92,9.24-9.92a7.74,7.74,0,0,1,6.7,3.35h.08V298.24h3.84Zm-9.81-16.39c-3.84,0-6.1,2.91-6.1,6.74s2.26,6.78,6.1,6.78,6.09-2.94,6.09-6.78S1003.89,309.7,1000.06,309.7Z"/><path class="cls-1" d="M1036.7,317.41h-14.77c.2,3.8,2.62,6.1,6.17,6.1a10.63,10.63,0,0,0,6.34-2.22l1.61,2.22c-.24.2-2.7,3-8.43,3s-9.61-3.95-9.61-10a9.51,9.51,0,0,1,9.73-9.92,8.75,8.75,0,0,1,9.08,9.16A16.88,16.88,0,0,1,1036.7,317.41Zm-3.55-2.58a5.54,5.54,0,0,0-5.53-5.49,5.64,5.64,0,0,0-5.65,5.49Z"/><path class="cls-1" d="M1055,310.47h-.16a5.15,5.15,0,0,0-2.1-.4,4,4,0,0,0-3.15,1.61,8.54,8.54,0,0,0-1.17,4.84v9.57h-3.87V306.92h3.87l0,2.95h.12a5,5,0,0,1,4.72-3.31,5.46,5.46,0,0,1,2,.32Z"/><path class="cls-1" d="M1078.79,317.41H1064c.2,3.8,2.62,6.1,6.17,6.1a10.66,10.66,0,0,0,6.34-2.22l1.61,2.22c-.24.2-2.7,3-8.43,3s-9.61-3.95-9.61-10a9.51,9.51,0,0,1,9.73-9.92,8.75,8.75,0,0,1,9.08,9.16A16.88,16.88,0,0,1,1078.79,317.41Zm-3.55-2.58a5.54,5.54,0,0,0-5.53-5.49,5.64,5.64,0,0,0-5.65,5.49Z"/><path class="cls-1" d="M1105.22,326.09h-3.72V323h-.08a7.79,7.79,0,0,1-6.74,3.51c-5.69,0-9.32-4.36-9.32-10s3.63-9.92,9.24-9.92a7.74,7.74,0,0,1,6.7,3.35h.08V298.24h3.84Zm-9.81-16.39c-3.83,0-6.09,2.91-6.09,6.74s2.26,6.78,6.09,6.78,6.09-2.94,6.09-6.78S1099.24,309.7,1095.41,309.7Z"/><path class="cls-1" d="M82.82,373.26a8.18,8.18,0,0,1-5.33,1.7A9.22,9.22,0,0,1,70,371.53l1.86-2.26A7.87,7.87,0,0,0,77.53,372c1.78,0,3.67-.65,3.67-2.74s-3-2.75-4.32-3.19a15.18,15.18,0,0,1-2.62-1,5,5,0,0,1-3-4.6c0-3.55,3.07-5.49,6.46-5.49a8.4,8.4,0,0,1,6.54,2.5l-1.61,2.38a7,7,0,0,0-4.85-2.06c-1.85,0-3.06.81-3.06,2.39s1.85,2.26,3.75,2.86c1.05.36,1.77.61,2.58.93a7.27,7.27,0,0,1,2.22,1.37,4.74,4.74,0,0,1,1.54,3.55A5.46,5.46,0,0,1,82.82,373.26Z"/><path class="cls-1" d="M108.8,374.51h-3.75l0-2.74A6.7,6.7,0,0,1,99.08,375c-2.75,0-4.32-.93-5.33-2.22s-1.41-3.19-1.41-5.94V355.3h3.83v11.34c0,2.63.57,5.09,4,5.09s4.76-2.91,4.76-6.14V355.3h3.87Z"/><path class="cls-1" d="M136.61,370.48c0,4.23-.69,6.58-2.1,8.27s-3.79,3.67-8.56,3.67a14.73,14.73,0,0,1-8.55-2.86l1.81-2.71a12.14,12.14,0,0,0,6.86,2.43c2.87,0,4.48-1.13,5.25-2.1a8.63,8.63,0,0,0,1.45-5.37v-1h-.08a7.68,7.68,0,0,1-6.7,3.43c-4.92,0-9.24-3.55-9.24-9.65S121.07,355,126,355a7.65,7.65,0,0,1,6.7,3.39h.12l0-3h3.84Zm-9.81-12.39c-3.91,0-6.09,2.9-6.09,6.53s2.18,6.5,6.09,6.5,6.09-2.86,6.09-6.5S130.76,358.09,126.8,358.09Z"/><path class="cls-1" d="M160.78,374.51H157l0-2.42a7.88,7.88,0,0,1-6.09,2.87c-3.55,0-6.62-2.22-6.62-5.94s3.07-5.65,7.51-5.85l5.12-.2v-.77c0-2.9-2-4.36-4.76-4.36a11.83,11.83,0,0,0-5.77,1.66l-1.17-2.58a14.73,14.73,0,0,1,7.18-1.94c3.19,0,5.05.89,6.34,2.18s2.06,2.94,2.06,6.21Zm-3.84-9.2-4.48.28c-3.1.16-4.35,1.5-4.35,3.31s1.41,3.31,3.95,3.31a6,6,0,0,0,4.88-2.78Z"/><path class="cls-1" d="M180.11,358.89h-.17a5.09,5.09,0,0,0-2.09-.4,4,4,0,0,0-3.15,1.61,8.47,8.47,0,0,0-1.17,4.85v9.56h-3.88V355.34h3.88l0,3h.12a5,5,0,0,1,4.72-3.31,5.46,5.46,0,0,1,2,.32Z"/><path class="cls-1" d="M190,370.23l-3.71,9.93h-3.07l2.83-9.93Z"/><path class="cls-1" d="M227.52,372.05c-.56.57-2.54,2.91-7.67,2.91a10,10,0,0,1,.12-20c5.13,0,7.23,2.5,7.43,2.74L226,360.55a7.55,7.55,0,0,0-5.73-2.34c-3.39,0-6.22,2.58-6.22,6.62s2.54,6.82,6.26,6.82a8,8,0,0,0,5.81-2.42Z"/><path class="cls-1" d="M236.64,351.43a2.38,2.38,0,1,1,2.5-2.38A2.37,2.37,0,0,1,236.64,351.43Zm1.93,23.08H234.7V355.34h3.87Z"/><path class="cls-1" d="M264.64,374.51h-3.87V363.82c0-3.23-.57-5.65-4-5.65-3.59,0-4.92,3-4.92,6.7v9.64H248V355.34h3.87l0,3h.12a6.47,6.47,0,0,1,5.85-3.39c5.45,0,6.86,3.59,6.86,8.19Z"/><path class="cls-1" d="M290.39,374.51h-3.88V363.82c0-3.23-.56-5.65-4-5.65-3.59,0-4.92,3-4.92,6.7v9.64h-3.88V355.34h3.88l-.05,3h.13a6.45,6.45,0,0,1,5.85-3.39c5.45,0,6.86,3.59,6.86,8.19Z"/><path class="cls-1" d="M314.36,374.51H310.6l0-2.42a7.88,7.88,0,0,1-6.09,2.87c-3.55,0-6.62-2.22-6.62-5.94s3.07-5.65,7.51-5.85l5.12-.2v-.77c0-2.9-2-4.36-4.76-4.36A11.83,11.83,0,0,0,300,359.5l-1.17-2.58A14.7,14.7,0,0,1,306,355c3.19,0,5.05.89,6.34,2.18s2.06,2.94,2.06,6.21Zm-3.84-9.2-4.48.28c-3.1.16-4.36,1.5-4.36,3.31s1.42,3.31,4,3.31a6,6,0,0,0,4.88-2.78Z"/><path class="cls-1" d="M351,374.51h-3.83V363.33c0-2.22-.41-5.16-3.52-5.16s-4.6,2.94-4.6,6.37v10h-3.87V363.33c0-2.82-.69-5.16-3.47-5.16-3.07,0-4.6,2.94-4.6,6.37v10h-3.88V355.34h3.88l0,3h.12a6.31,6.31,0,0,1,5.53-3.39,5.53,5.53,0,0,1,5.69,3.79A6.65,6.65,0,0,1,344.5,355c5.13,0,6.5,3.75,6.5,7.91Z"/><path class="cls-1" d="M369,375c-5.73,0-10.17-4-10.17-10a10.15,10.15,0,0,1,20.3,0C379.08,371,374.64,375,369,375Zm0-16.83c-3.87,0-6.25,3-6.25,6.74s2.38,6.78,6.25,6.78,6.22-3,6.22-6.78S372.79,358.13,369,358.13Z"/><path class="cls-1" d="M403.7,374.51h-3.88V363.82c0-3.23-.56-5.65-4-5.65-3.59,0-4.93,3-4.93,6.7v9.64H387V355.34h3.87l0,3H391a6.48,6.48,0,0,1,5.86-3.39c5.45,0,6.86,3.59,6.86,8.19Z"/><path class="cls-1" d="M435.66,373.26a8.2,8.2,0,0,1-5.33,1.7,9.22,9.22,0,0,1-7.47-3.43l1.86-2.26a7.87,7.87,0,0,0,5.65,2.74c1.77,0,3.67-.65,3.67-2.74s-3-2.75-4.32-3.19a15.18,15.18,0,0,1-2.62-1,5,5,0,0,1-3-4.6c0-3.55,3.07-5.49,6.46-5.49a8.4,8.4,0,0,1,6.54,2.5l-1.62,2.38a7,7,0,0,0-4.84-2.06c-1.86,0-3.07.81-3.07,2.39s1.86,2.26,3.76,2.86c1.05.36,1.77.61,2.58.93a7.39,7.39,0,0,1,2.22,1.37,4.74,4.74,0,0,1,1.53,3.55A5.45,5.45,0,0,1,435.66,373.26Z"/><path class="cls-1" d="M461.64,374.51h-3.75l0-2.74a6.7,6.7,0,0,1-5.93,3.19c-2.75,0-4.32-.93-5.33-2.22s-1.41-3.19-1.41-5.94V355.3H449v11.34c0,2.63.56,5.09,4,5.09s4.76-2.91,4.76-6.14V355.3h3.87Z"/><path class="cls-1" d="M489.45,370.48c0,4.23-.69,6.58-2.1,8.27s-3.8,3.67-8.56,3.67a14.8,14.8,0,0,1-8.56-2.86l1.82-2.71a12.14,12.14,0,0,0,6.86,2.43c2.87,0,4.48-1.13,5.25-2.1a8.63,8.63,0,0,0,1.45-5.37v-1h-.08a7.68,7.68,0,0,1-6.7,3.43c-4.92,0-9.24-3.55-9.24-9.65s4.32-9.64,9.24-9.64a7.65,7.65,0,0,1,6.7,3.39h.12l0-3h3.84Zm-9.81-12.39c-3.92,0-6.1,2.9-6.1,6.53s2.18,6.5,6.1,6.5,6.09-2.86,6.09-6.5S483.59,358.09,479.64,358.09Z"/><path class="cls-1" d="M513.62,374.51h-3.76l0-2.42a7.88,7.88,0,0,1-6.09,2.87c-3.55,0-6.62-2.22-6.62-5.94s3.07-5.65,7.51-5.85l5.12-.2v-.77c0-2.9-2-4.36-4.76-4.36a11.75,11.75,0,0,0-5.77,1.66L498,356.92a14.7,14.7,0,0,1,7.18-1.94c3.19,0,5,.89,6.34,2.18s2.06,2.94,2.06,6.21Zm-3.84-9.2-4.48.28c-3.11.16-4.36,1.5-4.36,3.31s1.42,3.31,4,3.31a6,6,0,0,0,4.88-2.78Z"/><path class="cls-1" d="M532.94,358.89h-.16a5.11,5.11,0,0,0-2.1-.4,4,4,0,0,0-3.14,1.61,8.45,8.45,0,0,0-1.18,4.85v9.56h-3.87V355.34h3.87l0,3h.13a5,5,0,0,1,4.72-3.31,5.46,5.46,0,0,1,2,.32Z"/><path class="cls-1" d="M542.87,370.23l-3.71,9.93h-3.07l2.82-9.93Z"/><path class="cls-1" d="M573.17,375c-5.73,0-10.17-4-10.17-10a10.15,10.15,0,0,1,20.3,0C583.3,371,578.86,375,573.17,375Zm0-16.83c-3.87,0-6.25,3-6.25,6.74s2.38,6.78,6.25,6.78,6.22-3,6.22-6.78S577,358.13,573.17,358.13Z"/><path class="cls-1" d="M601.7,358.89h-.16a5.11,5.11,0,0,0-2.1-.4,4,4,0,0,0-3.14,1.61,8.47,8.47,0,0,0-1.17,4.85v9.56h-3.88V355.34h3.88l0,3h.12a5,5,0,0,1,4.72-3.31,5.46,5.46,0,0,1,2,.32Z"/><path class="cls-1" d="M639.19,370.48c0,4.23-.68,6.58-2.1,8.27s-3.79,3.67-8.55,3.67a14.8,14.8,0,0,1-8.56-2.86l1.82-2.71a12.11,12.11,0,0,0,6.86,2.43c2.86,0,4.48-1.13,5.25-2.1a8.69,8.69,0,0,0,1.45-5.37v-1h-.08a7.68,7.68,0,0,1-6.7,3.43c-4.93,0-9.24-3.55-9.24-9.65s4.31-9.64,9.24-9.64a7.65,7.65,0,0,1,6.7,3.39h.12l0-3h3.83Zm-9.8-12.39c-3.92,0-6.1,2.9-6.1,6.53s2.18,6.5,6.1,6.5,6.09-2.86,6.09-6.5S633.34,358.09,629.39,358.09Z"/><path class="cls-1" d="M652.51,374.51h-3.84V346.67h3.84Z"/><path class="cls-1" d="M676.84,374.51h-3.75l0-2.42A7.92,7.92,0,0,1,667,375c-3.55,0-6.62-2.22-6.62-5.94s3.07-5.65,7.51-5.85L673,363v-.77c0-2.9-2-4.36-4.77-4.36a11.83,11.83,0,0,0-5.77,1.66l-1.17-2.58a14.73,14.73,0,0,1,7.18-1.94c3.19,0,5,.89,6.34,2.18s2.06,2.94,2.06,6.21Zm-3.83-9.2-4.48.28c-3.11.16-4.36,1.5-4.36,3.31s1.41,3.31,4,3.31a6,6,0,0,0,4.89-2.78Z"/><path class="cls-1" d="M700.61,374.51H683.9v-2.38l11.22-13.64H684.46v-3.11H700v2.34l-11.18,13.6h11.75Z"/><path class="cls-1" d="M724.82,365.83H710.05c.2,3.8,2.62,6.1,6.17,6.1a10.66,10.66,0,0,0,6.34-2.22l1.61,2.22c-.24.2-2.7,3-8.43,3s-9.61-4-9.61-10a9.51,9.51,0,0,1,9.73-9.93,8.75,8.75,0,0,1,9.08,9.16A16.6,16.6,0,0,1,724.82,365.83Zm-3.55-2.58a5.54,5.54,0,0,0-5.53-5.49,5.64,5.64,0,0,0-5.65,5.49Z"/><path class="cls-1" d="M96.15,264.56H75.8V204.71a2.37,2.37,0,0,0-2.49-2.59H66.93V191.65l29.22.1c12.47.1,21.35,5,21.35,36.6C117.5,256.18,109.32,264.56,96.15,264.56Zm-3-62.34H88.57a1.36,1.36,0,0,0-1.49,1.5v48.77c0,1,.49,1.4,1.29,1.4h4.79c10.87,0,13.07-9.38,13.07-25.54C106.23,210.1,105,202.22,93.16,202.22Z"/><path class="cls-1" d="M146,266.36c-17.65,0-21.24-5.39-21.24-38.11,0-28.92,3.59-38,21.44-38,18.76,0,21.25,5.79,21.25,38C167.47,262,164,266.36,146,266.36Zm0-64.74c-7.18,0-9.87,1.2-9.87,26.63,0,24.64,2.59,26.64,9.87,26.64,7.49,0,10-1.7,10-26.64C156,202,154.2,201.62,146,201.62Z"/><path class="cls-1" d="M218.94,264.56H207.57l-18.76-43.29a.52.52,0,0,0-.39-.3.37.37,0,0,0-.4.4v43.19H176.65V191.75H188l18.75,43.79a.66.66,0,0,0,.5.4.45.45,0,0,0,.3-.4V191.75h11.37Z"/><path class="cls-1" d="M270.51,230.55c0,31.32-4,35.81-21.45,35.81-17.15,0-21.24-5.19-21.24-35.81v-38.9h11.37v39.1c0,22.24,2.79,24.14,9.87,24.14,7.28,0,10-1.5,10-24.14v-39.1h11.47Z"/><path class="cls-1" d="M319.08,202.22h-13a2.32,2.32,0,0,0-2.2,2.49v59.85H292.55V204.61c0-1.39-.6-2.39-1.9-2.39H277.39V191.65h41.69Z"/><path class="cls-1" d="M366.76,247.11c0,11.87-6.28,19.25-21.94,19.25-16.86,0-21.35-4.69-21.35-22h11.77c0,8.18.9,10.88,9.58,10.88,8,0,9.67-3,9.67-8.38,0-3.69-.5-5.89-7.68-10.87l-6.68-4.69c-8.38-5.89-16.66-10.18-16.66-22.65,0-10.57,5.29-18.45,21.65-18.45,16.95,0,20.94,4.49,20.94,20.65H354.49c0-9-3.39-9.68-9.67-9.68-7.09,0-9.28,2.8-9.28,7.58,0,3.4,1,5.69,10.17,11.67l7.58,5c6.49,4.29,12.47,9.88,13.27,17.56C366.66,244.41,366.76,245.81,366.76,247.11Z"/><path class="cls-1" d="M98.12,569.9H93.77l-2.87-7.26H79l-2.86,7.26H72L83.31,542h3.43Zm-8.31-10.53-4.88-12.51L80,559.37Z"/><path class="cls-1" d="M132.74,567.44c-.56.57-2.54,2.91-7.66,2.91a10,10,0,0,1,.12-20c5.12,0,7.22,2.5,7.42,2.74l-1.37,2.83a7.53,7.53,0,0,0-5.73-2.34c-3.39,0-6.22,2.58-6.22,6.62s2.55,6.82,6.26,6.82a8,8,0,0,0,5.81-2.42Z"/><path class="cls-1" d="M148.64,570.35c-5.73,0-10.17-4-10.17-10a10.15,10.15,0,0,1,20.3,0C158.77,566.35,154.33,570.35,148.64,570.35Zm0-16.83c-3.87,0-6.25,3-6.25,6.74s2.38,6.78,6.25,6.78,6.22-3,6.22-6.78S152.48,553.52,148.64,553.52Z"/><path class="cls-1" d="M177.66,568.65a8.2,8.2,0,0,1-5.33,1.7,9.19,9.19,0,0,1-7.47-3.43l1.86-2.26a7.87,7.87,0,0,0,5.65,2.74c1.77,0,3.67-.65,3.67-2.74s-3-2.75-4.32-3.19a15.18,15.18,0,0,1-2.62-1,5,5,0,0,1-3-4.6c0-3.55,3.07-5.49,6.46-5.49a8.4,8.4,0,0,1,6.54,2.5l-1.62,2.38a7,7,0,0,0-4.84-2.06c-1.86,0-3.07.81-3.07,2.39s1.86,2.26,3.76,2.86c1,.36,1.77.61,2.58.93a7.27,7.27,0,0,1,2.22,1.37,4.74,4.74,0,0,1,1.53,3.55A5.45,5.45,0,0,1,177.66,568.65Z"/><path class="cls-1" d="M215.11,569.9h-3.84V558.72c0-2.22-.4-5.16-3.51-5.16s-4.6,2.94-4.6,6.37v10h-3.87V558.72c0-2.82-.69-5.16-3.48-5.16-3.06,0-4.6,2.94-4.6,6.37v10h-3.87V550.73h3.87l0,3h.12a6.32,6.32,0,0,1,5.53-3.39,5.52,5.52,0,0,1,5.69,3.79,6.67,6.67,0,0,1,6.1-3.79c5.12,0,6.5,3.75,6.5,7.91Z"/><path class="cls-1" d="M226.28,546.82a2.38,2.38,0,1,1,2.5-2.38A2.38,2.38,0,0,1,226.28,546.82Zm1.94,23.08h-3.88V550.73h3.88Z"/><path class="cls-1" d="M253.68,567.44c-.56.57-2.54,2.91-7.67,2.91a10,10,0,0,1,.12-20c5.13,0,7.23,2.5,7.43,2.74l-1.37,2.83a7.55,7.55,0,0,0-5.73-2.34c-3.39,0-6.22,2.58-6.22,6.62s2.54,6.82,6.26,6.82a8,8,0,0,0,5.81-2.42Z"/><path class="cls-1" d="M282.33,544.92a8,8,0,0,0-2.18-.36c-2.54,0-2.95,1.89-2.95,4.07v2.14h4.56v3.11H277.2v16h-3.83v-16h-2.75v-3.11h2.75v-1.93c0-2.51.48-4.12,1.29-5.13a5.81,5.81,0,0,1,4.6-2.1,9.5,9.5,0,0,1,3.31.45Z"/><path class="cls-1" d="M298.07,554.28h-.17a5,5,0,0,0-2.09-.4,4,4,0,0,0-3.15,1.62,8.48,8.48,0,0,0-1.17,4.84v9.56h-3.88V550.73h3.88l0,2.95h.12a5,5,0,0,1,4.72-3.31,5.46,5.46,0,0,1,2,.32Z"/><path class="cls-1" d="M321.35,569.9H317.6l0-2.74a6.68,6.68,0,0,1-5.94,3.19c-2.74,0-4.32-.93-5.32-2.22s-1.42-3.19-1.42-5.94v-11.5h3.84V562c0,2.63.56,5.09,4,5.09s4.77-2.91,4.77-6.14V550.69h3.87Z"/><path class="cls-1" d="M332.69,546.82a2.38,2.38,0,1,1,2.5-2.38A2.38,2.38,0,0,1,332.69,546.82Zm1.93,23.08h-3.87V550.73h3.87Z"/><path class="cls-1" d="M353.35,569.7a9.7,9.7,0,0,1-3.51.65,4.51,4.51,0,0,1-4.08-2c-.81-1.21-1-2.7-1-5.73v-8.76H342v-3.11h2.82V545h3.88v5.73h4.6v3.11h-4.6v8.68a7.61,7.61,0,0,0,.48,3.51,2,2,0,0,0,2,1,4.64,4.64,0,0,0,2-.45Z"/><path class="cls-1" d="M377.24,550.73,368,573.25c-1.34,3.31-2.91,4.44-5.05,4.44a9.54,9.54,0,0,1-3.63-.68l.77-3.15a6.12,6.12,0,0,0,2,.44c.81,0,1.66.08,2.51-2.26l.92-2.54-7.66-18.81,4,0,5.69,14.89,5.65-14.93Z"/><path class="cls-1" d="M423.44,569.9h-3.83V558.72c0-2.22-.4-5.16-3.51-5.16s-4.6,2.94-4.6,6.37v10h-3.88V558.72c0-2.82-.68-5.16-3.47-5.16-3.07,0-4.6,2.94-4.6,6.37v10h-3.87V550.73h3.87l0,3h.12a6.32,6.32,0,0,1,5.53-3.39,5.53,5.53,0,0,1,5.69,3.79,6.65,6.65,0,0,1,6.1-3.79c5.12,0,6.49,3.75,6.49,7.91Z"/><path class="cls-1" d="M434.62,546.82a2.38,2.38,0,1,1,2.5-2.38A2.38,2.38,0,0,1,434.62,546.82Zm1.93,23.08h-3.87V550.73h3.87Z"/><path class="cls-1" d="M450,569.9h-3.83V542.06H450Z"/><path class="cls-1" d="M476.79,569.9h-4.52l-6.58-9.28-2.22,2.1v7.18h-3.84V542.06h3.84V558.4l7.83-7.67h4.52L468.31,558Z"/><path class="cls-1" d="M493.94,568.65a8.2,8.2,0,0,1-5.33,1.7,9.19,9.19,0,0,1-7.47-3.43l1.86-2.26a7.87,7.87,0,0,0,5.65,2.74c1.77,0,3.67-.65,3.67-2.74s-3-2.75-4.32-3.19a15.18,15.18,0,0,1-2.62-1,5,5,0,0,1-3-4.6c0-3.55,3.07-5.49,6.46-5.49a8.4,8.4,0,0,1,6.54,2.5l-1.62,2.38a7,7,0,0,0-4.84-2.06c-1.86,0-3.07.81-3.07,2.39s1.86,2.26,3.76,2.86c1.05.36,1.77.61,2.58.93a7.39,7.39,0,0,1,2.22,1.37,4.74,4.74,0,0,1,1.53,3.55A5.45,5.45,0,0,1,493.94,568.65Z"/><path class="cls-1" d="M520.49,569.9h-3.88V559.05c0-2.75-.44-5.49-4-5.49s-5,3-5,6.86v9.48h-3.83V542.06h3.83v11.7h.08a6.54,6.54,0,0,1,5.9-3.39c5.53,0,6.86,3.55,6.86,8.11Z"/><path class="cls-1" d="M544.54,569.9h-3.76l0-2.42a7.88,7.88,0,0,1-6.09,2.87c-3.55,0-6.62-2.22-6.62-5.94s3.07-5.65,7.51-5.85l5.12-.2v-.77c0-2.9-2-4.36-4.76-4.36a11.79,11.79,0,0,0-5.77,1.66L529,552.31a14.7,14.7,0,0,1,7.18-1.94c3.19,0,5.05.89,6.34,2.18s2.06,3,2.06,6.21Zm-3.84-9.2-4.48.28c-3.1.17-4.36,1.5-4.36,3.31s1.42,3.31,4,3.31a6,6,0,0,0,4.88-2.78Z"/><path class="cls-1" d="M570.77,569.9h-4.52l-6.58-9.28-2.22,2.1v7.18h-3.84V542.06h3.84V558.4l7.83-7.67h4.52L562.29,558Z"/><path class="cls-1" d="M593.36,561.23H578.59c.21,3.79,2.63,6.09,6.18,6.09a10.59,10.59,0,0,0,6.33-2.22l1.62,2.22c-.24.2-2.71,3-8.44,3s-9.6-4-9.6-10.05a9.51,9.51,0,0,1,9.72-9.93,8.76,8.76,0,0,1,9.09,9.16A15.64,15.64,0,0,1,593.36,561.23Zm-3.55-2.59a5.54,5.54,0,0,0-5.53-5.49,5.64,5.64,0,0,0-5.65,5.49Z"/><path class="cls-1" d="M622.5,569.7a9.7,9.7,0,0,1-3.51.65,4.51,4.51,0,0,1-4.08-2c-.81-1.21-1-2.7-1-5.73v-8.76h-2.82v-3.11h2.82V545h3.87v5.73h4.61v3.11h-4.61v8.68a7.59,7.59,0,0,0,.49,3.51,2,2,0,0,0,2,1,4.57,4.57,0,0,0,2-.45Z"/><path class="cls-1" d="M638.11,570.35c-5.73,0-10.17-4-10.17-10a10.15,10.15,0,0,1,20.3,0C648.24,566.35,643.8,570.35,638.11,570.35Zm0-16.83c-3.87,0-6.25,3-6.25,6.74s2.38,6.78,6.25,6.78,6.22-3,6.22-6.78S642,553.52,638.11,553.52Z"/><path class="cls-1" d="M666.89,570.35a7.44,7.44,0,0,1-6.62-3.43l0,0v10.53h-3.87V550.73h3.71v3h.08a8.14,8.14,0,0,1,6.83-3.39c5.65,0,9.24,4.24,9.24,9.93S672.58,570.35,666.89,570.35Zm-.73-16.83c-3.84,0-6.1,2.9-6.1,6.74s2.26,6.78,6.1,6.78,6.09-2.95,6.09-6.78S670,553.52,666.16,553.52Z"/><path class="cls-1" d="M694.85,570.35a7.44,7.44,0,0,1-6.62-3.43l0,0v10.53h-3.87V550.73H688v3h.08a8.11,8.11,0,0,1,6.82-3.39c5.65,0,9.24,4.24,9.24,9.93S700.54,570.35,694.85,570.35Zm-.73-16.83c-3.83,0-6.09,2.9-6.09,6.74s2.26,6.78,6.09,6.78,6.1-2.95,6.1-6.78S698,553.52,694.12,553.52Z"/><path class="cls-1" d="M729.51,561.23H714.74c.2,3.79,2.62,6.09,6.18,6.09a10.59,10.59,0,0,0,6.33-2.22l1.62,2.22c-.24.2-2.71,3-8.44,3s-9.6-4-9.6-10.05a9.51,9.51,0,0,1,9.72-9.93,8.75,8.75,0,0,1,9.08,9.16A16.91,16.91,0,0,1,729.51,561.23ZM726,558.64a5.54,5.54,0,0,0-5.53-5.49,5.64,5.64,0,0,0-5.65,5.49Z"/><path class="cls-1" d="M755.94,569.9h-3.71v-3.06h-.08a7.79,7.79,0,0,1-6.74,3.51c-5.69,0-9.32-4.36-9.32-10.05s3.63-9.93,9.24-9.93a7.74,7.74,0,0,1,6.7,3.35h.08V542.06h3.83Zm-9.8-16.38c-3.84,0-6.1,2.9-6.1,6.74s2.26,6.78,6.1,6.78,6.09-2.95,6.09-6.78S750,553.52,746.14,553.52Z"/><path class="cls-1" d="M805,550.73l-6.33,19.17h-3.55L790,555.58,785,569.9H781.4l-6.33-19.17H779l4.44,14.49,5.05-14.53h3.1l5,14.53,4.44-14.49Z"/><path class="cls-1" d="M814.05,546.82a2.38,2.38,0,1,1,2.5-2.38A2.38,2.38,0,0,1,814.05,546.82ZM816,569.9h-3.87V550.73H816Z"/><path class="cls-1" d="M834.71,569.7a9.63,9.63,0,0,1-3.51.65,4.51,4.51,0,0,1-4.08-2c-.81-1.21-1-2.7-1-5.73v-8.76h-2.82v-3.11h2.82V545H830v5.73h4.6v3.11H830v8.68a7.61,7.61,0,0,0,.48,3.51,2,2,0,0,0,2,1,4.64,4.64,0,0,0,2-.45Z"/><path class="cls-1" d="M858.72,569.9h-3.87V559.05c0-2.75-.45-5.49-4-5.49s-5,3-5,6.86v9.48h-3.84V542.06h3.84v11.7H846a6.52,6.52,0,0,1,5.89-3.39c5.53,0,6.86,3.55,6.86,8.11Z"/><path class="cls-1" d="M907.47,550.73l-6.34,19.17h-3.55l-5.05-14.32-5.08,14.32H883.9l-6.34-19.17h3.91l4.44,14.49L891,550.69h3.11l5,14.53,4.44-14.49Z"/><path class="cls-1" d="M931.31,569.9h-3.87V559.05c0-2.75-.45-5.49-4-5.49s-5,3-5,6.86v9.48h-3.84V542.06h3.84v11.7h.08a6.54,6.54,0,0,1,5.89-3.39c5.53,0,6.86,3.55,6.86,8.11Z"/><path class="cls-1" d="M942.57,546.82a2.38,2.38,0,1,1,2.5-2.38A2.38,2.38,0,0,1,942.57,546.82Zm1.94,23.08h-3.88V550.73h3.88Z"/><path class="cls-1" d="M964.6,570.35a7.46,7.46,0,0,1-6.62-3.43l0,0v10.53h-3.87V550.73h3.71v3h.08a8.14,8.14,0,0,1,6.82-3.39c5.65,0,9.25,4.24,9.25,9.93S970.29,570.35,964.6,570.35Zm-.72-16.83c-3.84,0-6.1,2.9-6.1,6.74S960,567,963.88,567s6.09-2.95,6.09-6.78S967.71,553.52,963.88,553.52Z"/><path class="cls-1" d="M992.57,570.35a7.44,7.44,0,0,1-6.62-3.43l0,0v10.53H982V550.73h3.72v3h.08a8.11,8.11,0,0,1,6.82-3.39c5.65,0,9.24,4.24,9.24,9.93S998.26,570.35,992.57,570.35Zm-.73-16.83c-3.83,0-6.09,2.9-6.09,6.74S988,567,991.84,567s6.09-2.95,6.09-6.78S995.67,553.52,991.84,553.52Z"/><path class="cls-1" d="M1027.23,561.23h-14.77c.2,3.79,2.62,6.09,6.17,6.09a10.63,10.63,0,0,0,6.34-2.22l1.61,2.22c-.24.2-2.7,3-8.43,3s-9.61-4-9.61-10.05a9.51,9.51,0,0,1,9.73-9.93,8.75,8.75,0,0,1,9.08,9.16A16.91,16.91,0,0,1,1027.23,561.23Zm-3.55-2.59a5.54,5.54,0,0,0-5.53-5.49,5.64,5.64,0,0,0-5.65,5.49Z"/><path class="cls-1" d="M1053.66,569.9H1050v-3.06h-.08a7.81,7.81,0,0,1-6.74,3.51c-5.69,0-9.33-4.36-9.33-10.05s3.64-9.93,9.25-9.93a7.76,7.76,0,0,1,6.7,3.35h.08V542.06h3.83Zm-9.81-16.38c-3.83,0-6.09,2.9-6.09,6.74s2.26,6.78,6.09,6.78,6.1-2.95,6.1-6.78S1047.69,553.52,1043.85,553.52Z"/><path class="cls-1" d="M90.66,615.86c-.57.57-2.54,2.91-7.67,2.91a10,10,0,0,1,.12-20c5.13,0,7.23,2.5,7.43,2.75l-1.38,2.82A7.57,7.57,0,0,0,83.43,602c-3.39,0-6.21,2.58-6.21,6.62s2.54,6.82,6.25,6.82A8,8,0,0,0,89.29,613Z"/><path class="cls-1" d="M108.13,602.71H108a5.11,5.11,0,0,0-2.1-.41,4,4,0,0,0-3.15,1.62,8.51,8.51,0,0,0-1.17,4.84v9.57H97.68V599.16h3.87l0,2.94h.12a5,5,0,0,1,4.72-3.31,5.31,5.31,0,0,1,2,.33Z"/><path class="cls-1" d="M131.9,609.65H117.13c.2,3.79,2.62,6.09,6.17,6.09a10.59,10.59,0,0,0,6.34-2.22l1.61,2.22c-.24.21-2.7,3-8.43,3s-9.61-4-9.61-10a9.51,9.51,0,0,1,9.73-9.93A8.75,8.75,0,0,1,132,608,16.91,16.91,0,0,1,131.9,609.65Zm-3.55-2.58a5.54,5.54,0,0,0-5.53-5.49,5.64,5.64,0,0,0-5.65,5.49Z"/><path class="cls-1" d="M154.66,618.33H150.9l0-2.43a7.88,7.88,0,0,1-6.09,2.87c-3.55,0-6.62-2.22-6.62-5.93s3.07-5.65,7.51-5.85l5.12-.21V606c0-2.91-2-4.36-4.76-4.36a11.77,11.77,0,0,0-5.77,1.65l-1.17-2.58a14.7,14.7,0,0,1,7.18-1.94c3.19,0,5.05.89,6.34,2.18s2.06,2.95,2.06,6.22Zm-3.84-9.21-4.48.29c-3.11.16-4.36,1.49-4.36,3.31s1.42,3.31,4,3.31a6,6,0,0,0,4.88-2.79Z"/><path class="cls-1" d="M191.3,618.33h-3.84V607.15c0-2.22-.4-5.17-3.51-5.17s-4.6,2.95-4.6,6.38v10h-3.87V607.15c0-2.83-.69-5.17-3.47-5.17-3.07,0-4.61,2.95-4.61,6.38v10h-3.87V599.16h3.87l0,3h.13a6.31,6.31,0,0,1,5.52-3.39,5.53,5.53,0,0,1,5.7,3.8,6.64,6.64,0,0,1,6.09-3.8c5.13,0,6.5,3.76,6.5,7.91Z"/><path class="cls-1" d="M207,614.05,203.24,624h-3.07l2.83-9.93Z"/><path class="cls-1" d="M244.44,615.86c-.56.57-2.54,2.91-7.67,2.91a10,10,0,0,1,.12-20c5.13,0,7.23,2.5,7.43,2.75L243,604.36a7.59,7.59,0,0,0-5.73-2.34c-3.39,0-6.22,2.58-6.22,6.62s2.54,6.82,6.26,6.82a8,8,0,0,0,5.81-2.42Z"/><path class="cls-1" d="M268.33,618.33h-3.88V607.47c0-2.75-.44-5.49-3.95-5.49s-5,3-5,6.86v9.49h-3.83V590.48h3.83v11.7h.08a6.56,6.56,0,0,1,5.9-3.39c5.53,0,6.86,3.55,6.86,8.11Z"/><path class="cls-1" d="M286.36,618.77c-5.73,0-10.17-4-10.17-10a10.15,10.15,0,0,1,20.3,0C296.49,614.77,292.05,618.77,286.36,618.77Zm0-16.83c-3.87,0-6.25,3-6.25,6.74s2.38,6.78,6.25,6.78,6.22-3,6.22-6.78S290.2,601.94,286.36,601.94Z"/><path class="cls-1" d="M320.5,615.86c-.56.57-2.54,2.91-7.66,2.91a10,10,0,0,1,.12-20c5.12,0,7.22,2.5,7.42,2.75L319,604.36a7.59,7.59,0,0,0-5.73-2.34c-3.39,0-6.22,2.58-6.22,6.62s2.55,6.82,6.26,6.82a8,8,0,0,0,5.81-2.42Z"/><path class="cls-1" d="M336.4,618.77c-5.73,0-10.17-4-10.17-10a10.15,10.15,0,0,1,20.3,0C346.53,614.77,342.09,618.77,336.4,618.77Zm0-16.83c-3.87,0-6.26,3-6.26,6.74s2.39,6.78,6.26,6.78,6.22-3,6.22-6.78S340.23,601.94,336.4,601.94Z"/><path class="cls-1" d="M358.51,618.33h-3.83V590.48h3.83Z"/><path class="cls-1" d="M382.85,618.33h-3.76l0-2.43a7.88,7.88,0,0,1-6.09,2.87c-3.55,0-6.62-2.22-6.62-5.93s3.07-5.65,7.51-5.85l5.12-.21V606c0-2.91-2-4.36-4.76-4.36a11.85,11.85,0,0,0-5.77,1.65l-1.17-2.58a14.7,14.7,0,0,1,7.18-1.94c3.19,0,5.05.89,6.34,2.18s2.06,2.95,2.06,6.22ZM379,609.12l-4.48.29c-3.1.16-4.35,1.49-4.35,3.31s1.41,3.31,3.95,3.31a6,6,0,0,0,4.88-2.79Z"/><path class="cls-1" d="M401.05,618.12a9.72,9.72,0,0,1-3.52.65,4.49,4.49,0,0,1-4.07-2c-.81-1.21-1-2.7-1-5.73V602.3h-2.83v-3.1h2.83v-5.74h3.87v5.74H401v3.1h-4.61V611a7.46,7.46,0,0,0,.49,3.51,2,2,0,0,0,2,1,4.65,4.65,0,0,0,2-.44Z"/><path class="cls-1" d="M425.18,609.65H410.41c.2,3.79,2.62,6.09,6.17,6.09a10.59,10.59,0,0,0,6.34-2.22l1.61,2.22c-.24.21-2.7,3-8.43,3s-9.61-4-9.61-10a9.51,9.51,0,0,1,9.73-9.93A8.75,8.75,0,0,1,425.3,608,16.91,16.91,0,0,1,425.18,609.65Zm-3.55-2.58a5.54,5.54,0,0,0-5.53-5.49,5.64,5.64,0,0,0-5.65,5.49Z"/><path class="cls-1" d="M455.93,617.08a8.2,8.2,0,0,1-5.33,1.69,9.19,9.19,0,0,1-7.47-3.43l1.86-2.26a7.83,7.83,0,0,0,5.65,2.74c1.77,0,3.67-.64,3.67-2.74s-3-2.75-4.32-3.19a13.71,13.71,0,0,1-2.62-1,4.93,4.93,0,0,1-3-4.6c0-3.55,3.07-5.49,6.46-5.49a8.4,8.4,0,0,1,6.54,2.5l-1.62,2.39a7,7,0,0,0-4.84-2.06c-1.86,0-3.07.8-3.07,2.38s1.86,2.26,3.76,2.86c1.05.37,1.77.61,2.58.93a7.42,7.42,0,0,1,2.22,1.38,4.7,4.7,0,0,1,1.53,3.55A5.47,5.47,0,0,1,455.93,617.08Z"/><path class="cls-1" d="M482,599.16l-9.24,22.52c-1.33,3.31-2.91,4.44-5,4.44a9.51,9.51,0,0,1-3.64-.69l.77-3.15a6,6,0,0,0,2,.45c.8,0,1.65.08,2.5-2.27l.93-2.54-7.67-18.8,4,0,5.69,14.89L478,599.12Z"/><path class="cls-1" d="M498.9,602.71h-.16a5.11,5.11,0,0,0-2.1-.41,4,4,0,0,0-3.15,1.62,8.51,8.51,0,0,0-1.17,4.84v9.57h-3.87V599.16h3.87l0,2.94h.12a5,5,0,0,1,4.72-3.31,5.25,5.25,0,0,1,2,.33Z"/><path class="cls-1" d="M522.18,618.33h-3.75l0-2.75a6.68,6.68,0,0,1-5.93,3.19c-2.75,0-4.32-.93-5.33-2.22s-1.41-3.19-1.41-5.93v-11.5h3.83v11.34c0,2.62.57,5.08,4,5.08s4.76-2.9,4.76-6.13V599.12h3.87Z"/><path class="cls-1" d="M542.12,618.77a7.44,7.44,0,0,1-6.62-3.43l0,0v10.53h-3.88V599.16h3.72v3h.08a8.11,8.11,0,0,1,6.82-3.39c5.65,0,9.24,4.24,9.24,9.93S547.81,618.77,542.12,618.77Zm-.73-16.83c-3.83,0-6.09,2.91-6.09,6.74s2.26,6.78,6.09,6.78,6.09-3,6.09-6.78S545.22,601.94,541.39,601.94Z"/><path class="cls-1" d="M566,614.05,562.25,624h-3.07l2.83-9.93Z"/><path class="cls-1" d="M602.28,618.33h-3.75l0-2.43a7.9,7.9,0,0,1-6.1,2.87c-3.55,0-6.61-2.22-6.61-5.93s3.06-5.65,7.5-5.85l5.13-.21V606c0-2.91-2-4.36-4.76-4.36a11.86,11.86,0,0,0-5.78,1.65l-1.17-2.58a14.78,14.78,0,0,1,7.19-1.94c3.19,0,5,.89,6.33,2.18s2.06,2.95,2.06,6.22Zm-3.83-9.21-4.48.29c-3.11.16-4.36,1.49-4.36,3.31S591,616,593.56,616a6,6,0,0,0,4.89-2.79Z"/><path class="cls-1" d="M627.83,618.33H624v-10.7c0-3.23-.56-5.65-4-5.65-3.6,0-4.93,3-4.93,6.7v9.65h-3.87V599.16H615l0,3h.12a6.49,6.49,0,0,1,5.85-3.39c5.45,0,6.87,3.59,6.87,8.2Z"/><path class="cls-1" d="M655.47,618.33h-3.72v-3.07h-.08a7.79,7.79,0,0,1-6.74,3.51c-5.69,0-9.32-4.36-9.32-10s3.63-9.93,9.24-9.93a7.74,7.74,0,0,1,6.7,3.35h.08V590.48h3.84Zm-9.81-16.39c-3.83,0-6.1,2.91-6.1,6.74s2.27,6.78,6.1,6.78,6.09-3,6.09-6.78S649.49,601.94,645.66,601.94Z"/><path class="cls-1" d="M687.79,617.08a8.18,8.18,0,0,1-5.33,1.69,9.19,9.19,0,0,1-7.47-3.43l1.86-2.26a7.83,7.83,0,0,0,5.65,2.74c1.78,0,3.67-.64,3.67-2.74s-3-2.75-4.32-3.19a13.71,13.71,0,0,1-2.62-1,4.93,4.93,0,0,1-3-4.6c0-3.55,3.07-5.49,6.46-5.49a8.4,8.4,0,0,1,6.54,2.5l-1.61,2.39a7,7,0,0,0-4.85-2.06c-1.85,0-3.06.8-3.06,2.38s1.85,2.26,3.75,2.86c1.05.37,1.77.61,2.58.93a7.29,7.29,0,0,1,2.22,1.38,4.7,4.7,0,0,1,1.53,3.55A5.47,5.47,0,0,1,687.79,617.08Z"/><path class="cls-1" d="M706.79,618.12a9.63,9.63,0,0,1-3.51.65,4.51,4.51,0,0,1-4.08-2c-.8-1.21-1-2.7-1-5.73V602.3h-2.83v-3.1h2.83v-5.74h3.87v5.74h4.6v3.1h-4.6V611a7.61,7.61,0,0,0,.48,3.51,2,2,0,0,0,2,1,4.73,4.73,0,0,0,2-.44Z"/><path class="cls-1" d="M728.83,618.33h-3.76l0-2.43a7.9,7.9,0,0,1-6.09,2.87c-3.55,0-6.62-2.22-6.62-5.93s3.07-5.65,7.51-5.85l5.12-.21V606c0-2.91-2-4.36-4.76-4.36a11.77,11.77,0,0,0-5.77,1.65l-1.17-2.58a14.7,14.7,0,0,1,7.18-1.94c3.19,0,5.05.89,6.34,2.18s2.06,2.95,2.06,6.22ZM725,609.12l-4.48.29c-3.11.16-4.36,1.49-4.36,3.31s1.41,3.31,4,3.31a6,6,0,0,0,4.88-2.79Z"/><path class="cls-1" d="M748.15,602.71H748a5.06,5.06,0,0,0-2.1-.41,4,4,0,0,0-3.14,1.62,8.4,8.4,0,0,0-1.18,4.84v9.57H737.7V599.16h3.87l0,2.94h.13a5,5,0,0,1,4.72-3.31,5.31,5.31,0,0,1,2,.33Z"/><path class="cls-1" d="M763.24,608.88h-9.76v-3.23h9.76Z"/><path class="cls-1" d="M781.77,617.08a8.2,8.2,0,0,1-5.33,1.69,9.19,9.19,0,0,1-7.47-3.43l1.86-2.26a7.83,7.83,0,0,0,5.65,2.74c1.78,0,3.67-.64,3.67-2.74s-3-2.75-4.32-3.19a13.71,13.71,0,0,1-2.62-1,4.93,4.93,0,0,1-3-4.6c0-3.55,3.07-5.49,6.46-5.49a8.4,8.4,0,0,1,6.54,2.5l-1.62,2.39a7,7,0,0,0-4.84-2.06c-1.86,0-3.07.8-3.07,2.38s1.86,2.26,3.76,2.86c1.05.37,1.77.61,2.58.93a7.29,7.29,0,0,1,2.22,1.38,4.7,4.7,0,0,1,1.53,3.55A5.47,5.47,0,0,1,781.77,617.08Z"/><path class="cls-1" d="M808.32,618.33h-3.88V607.47c0-2.75-.44-5.49-4-5.49s-5,3-5,6.86v9.49h-3.83V590.48h3.83v11.7h.08a6.56,6.56,0,0,1,5.9-3.39c5.53,0,6.86,3.55,6.86,8.11Z"/><path class="cls-1" d="M832.37,618.33h-3.76l0-2.43a7.88,7.88,0,0,1-6.09,2.87c-3.55,0-6.62-2.22-6.62-5.93s3.07-5.65,7.51-5.85l5.12-.21V606c0-2.91-2-4.36-4.76-4.36a11.85,11.85,0,0,0-5.77,1.65l-1.17-2.58a14.73,14.73,0,0,1,7.18-1.94c3.19,0,5,.89,6.34,2.18s2.06,2.95,2.06,6.22Zm-3.84-9.21-4.48.29c-3.1.16-4.35,1.49-4.35,3.31s1.41,3.31,3.95,3.31a6,6,0,0,0,4.88-2.79Z"/><path class="cls-1" d="M851.94,618.77a7.44,7.44,0,0,1-6.62-3.43l0,0v10.53H841.4V599.16h3.72v3h.08a8.11,8.11,0,0,1,6.82-3.39c5.65,0,9.24,4.24,9.24,9.93S857.63,618.77,851.94,618.77Zm-.73-16.83c-3.83,0-6.09,2.91-6.09,6.74s2.26,6.78,6.09,6.78,6.1-3,6.1-6.78S855.05,601.94,851.21,601.94Z"/><path class="cls-1" d="M886.6,609.65H871.83c.2,3.79,2.62,6.09,6.18,6.09a10.52,10.52,0,0,0,6.33-2.22l1.62,2.22c-.25.21-2.71,3-8.44,3s-9.6-4-9.6-10a9.51,9.51,0,0,1,9.72-9.93,8.75,8.75,0,0,1,9.08,9.16A16.91,16.91,0,0,1,886.6,609.65Zm-3.55-2.58a5.54,5.54,0,0,0-5.53-5.49,5.64,5.64,0,0,0-5.65,5.49Z"/><path class="cls-1" d="M913,618.33h-3.71v-3.07h-.08a7.8,7.8,0,0,1-6.74,3.51c-5.69,0-9.32-4.36-9.32-10s3.63-9.93,9.24-9.93a7.74,7.74,0,0,1,6.7,3.35h.08V590.48H913Zm-9.8-16.39c-3.84,0-6.1,2.91-6.1,6.74s2.26,6.78,6.1,6.78,6.09-3,6.09-6.78S907.06,601.94,903.23,601.94Z"/><path class="cls-1" d="M945.35,617.08a8.15,8.15,0,0,1-5.32,1.69,9.18,9.18,0,0,1-7.47-3.43l1.86-2.26a7.83,7.83,0,0,0,5.65,2.74c1.77,0,3.67-.64,3.67-2.74s-3-2.75-4.32-3.19a13.45,13.45,0,0,1-2.62-1,4.93,4.93,0,0,1-3-4.6c0-3.55,3.07-5.49,6.46-5.49a8.41,8.41,0,0,1,6.54,2.5l-1.62,2.39a7,7,0,0,0-4.84-2.06c-1.86,0-3.07.8-3.07,2.38s1.86,2.26,3.75,2.86c1,.37,1.78.61,2.59.93a7.55,7.55,0,0,1,2.22,1.38,4.74,4.74,0,0,1,1.53,3.55A5.47,5.47,0,0,1,945.35,617.08Z"/><path class="cls-1" d="M965.73,618.77a7.44,7.44,0,0,1-6.62-3.43l0,0v10.53H955.2V599.16h3.71v3H959a8.14,8.14,0,0,1,6.82-3.39c5.65,0,9.24,4.24,9.24,9.93S971.42,618.77,965.73,618.77ZM965,601.94c-3.83,0-6.09,2.91-6.09,6.74s2.26,6.78,6.09,6.78,6.1-3,6.1-6.78S968.84,601.94,965,601.94Z"/><path class="cls-1" d="M993.45,602.71h-.16a5.06,5.06,0,0,0-2.1-.41,4,4,0,0,0-3.15,1.62,8.51,8.51,0,0,0-1.17,4.84v9.57H983V599.16h3.87l0,2.94H987a5,5,0,0,1,4.73-3.31,5.22,5.22,0,0,1,2,.33Z"/><path class="cls-1" d="M1002.53,595.24a2.38,2.38,0,1,1,2.5-2.38A2.38,2.38,0,0,1,1002.53,595.24Zm1.94,23.09h-3.88V599.16h3.88Z"/><path class="cls-1" d="M1030.54,618.33h-3.88v-10.7c0-3.23-.56-5.65-4-5.65-3.6,0-4.93,3-4.93,6.7v9.65h-3.87V599.16h3.87l0,3h.12a6.5,6.5,0,0,1,5.86-3.39c5.44,0,6.86,3.59,6.86,8.2Z"/><path class="cls-1" d="M1057,618.33h-4.52l-6.58-9.29-2.22,2.1v7.19h-3.84V590.48h3.84v16.34l7.83-7.66H1056l-7.51,7.22Z"/><path class="cls-1" d="M1067.21,618.33h-3.83V590.48h3.83Z"/><path class="cls-1" d="M1094.05,609.65h-14.77c.2,3.79,2.62,6.09,6.18,6.09a10.52,10.52,0,0,0,6.33-2.22l1.62,2.22c-.25.21-2.71,3-8.44,3s-9.6-4-9.6-10a9.51,9.51,0,0,1,9.72-9.93,8.75,8.75,0,0,1,9.08,9.16A16.91,16.91,0,0,1,1094.05,609.65Zm-3.55-2.58a5.54,5.54,0,0,0-5.53-5.49,5.64,5.64,0,0,0-5.65,5.49Z"/><path class="cls-1" d="M1112.85,617.08a8.15,8.15,0,0,1-5.32,1.69,9.19,9.19,0,0,1-7.47-3.43l1.86-2.26a7.83,7.83,0,0,0,5.65,2.74c1.77,0,3.67-.64,3.67-2.74s-3-2.75-4.32-3.19a13.71,13.71,0,0,1-2.62-1,4.93,4.93,0,0,1-3-4.6c0-3.55,3.07-5.49,6.46-5.49a8.4,8.4,0,0,1,6.54,2.5l-1.62,2.39a7,7,0,0,0-4.84-2.06c-1.86,0-3.07.8-3.07,2.38s1.86,2.26,3.76,2.86c1,.37,1.77.61,2.58.93a7.42,7.42,0,0,1,2.22,1.38,4.74,4.74,0,0,1,1.53,3.55A5.44,5.44,0,0,1,1112.85,617.08Z"/><path class="cls-1" d="M1126,618.73a2.53,2.53,0,1,1,2.66-2.5A2.47,2.47,0,0,1,1126,618.73Z"/><path class="cls-1" d="M78.91,666.75H75V638.9h3.91Z"/><path class="cls-1" d="M105.22,666.75h-3.87v-10.7c0-3.22-.56-5.65-4-5.65s-4.92,3-4.92,6.7v9.65H88.56V647.58h3.87l0,3h.12a6.47,6.47,0,0,1,5.85-3.39c5.45,0,6.86,3.59,6.86,8.19Z"/><path class="cls-1" d="M143.12,666.75h-3.88V655.89c0-2.74-.44-5.49-4-5.49s-5,3-5,6.87v9.48h-3.83V638.9h3.83v11.71h.08a6.54,6.54,0,0,1,5.89-3.39c5.53,0,6.87,3.55,6.87,8.11Z"/><path class="cls-1" d="M161.15,667.19c-5.73,0-10.17-4-10.17-10a10.15,10.15,0,0,1,20.3,0C171.28,663.2,166.84,667.19,161.15,667.19Zm0-16.83c-3.87,0-6.26,3-6.26,6.74s2.39,6.78,6.26,6.78,6.22-3,6.22-6.78S165,650.36,161.15,650.36Z"/><path class="cls-1" d="M195.9,666.75H192v-10.7c0-3.22-.56-5.65-4-5.65-3.6,0-4.93,3-4.93,6.7v9.65h-3.87V647.58h3.87l0,3h.12a6.47,6.47,0,0,1,5.85-3.39c5.45,0,6.87,3.59,6.87,8.19Z"/><path class="cls-1" d="M213.85,667.19c-5.73,0-10.17-4-10.17-10a10.15,10.15,0,0,1,20.3,0C224,663.2,219.54,667.19,213.85,667.19Zm0-16.83c-3.87,0-6.25,3-6.25,6.74s2.38,6.78,6.25,6.78,6.22-3,6.22-6.78S217.68,650.36,213.85,650.36Z"/><path class="cls-1" d="M242.38,651.13h-.16a5.11,5.11,0,0,0-2.1-.4,4.05,4.05,0,0,0-3.15,1.61,8.54,8.54,0,0,0-1.17,4.84v9.57h-3.87V647.58h3.87l0,2.95h.12a5,5,0,0,1,4.72-3.31,5.39,5.39,0,0,1,2,.32Z"/><path class="cls-1" d="M270.18,667.19c-5.73,0-10.17-4-10.17-10a10.15,10.15,0,0,1,20.3,0C280.31,663.2,275.87,667.19,270.18,667.19Zm0-16.83c-3.87,0-6.25,3-6.25,6.74s2.38,6.78,6.25,6.78,6.22-3,6.22-6.78S274,650.36,270.18,650.36Z"/><path class="cls-1" d="M297.94,641.77a7.68,7.68,0,0,0-2.17-.37c-2.55,0-2.95,1.9-2.95,4.08v2.14h4.56v3.11h-4.56v16H289v-16h-2.75v-3.11H289v-1.94c0-2.5.48-4.11,1.29-5.12a5.79,5.79,0,0,1,4.6-2.1,9.69,9.69,0,0,1,3.31.44Z"/><path class="cls-1" d="M324.5,666.55a9.85,9.85,0,0,1-3.52.64,4.5,4.5,0,0,1-4.07-2c-.81-1.21-1-2.71-1-5.73v-8.76h-2.83v-3.11h2.83v-5.73h3.87v5.73h4.61v3.11h-4.61v8.67a7.48,7.48,0,0,0,.49,3.52,2,2,0,0,0,2,1,4.65,4.65,0,0,0,2-.44Z"/><path class="cls-1" d="M348.51,666.75h-3.88V655.89c0-2.74-.44-5.49-3.95-5.49s-5,3-5,6.87v9.48h-3.83V638.9h3.83v11.71h.08a6.54,6.54,0,0,1,5.9-3.39c5.53,0,6.86,3.55,6.86,8.11Z"/><path class="cls-1" d="M375.06,658.07H360.29c.2,3.8,2.62,6.1,6.17,6.1A10.66,10.66,0,0,0,372.8,662l1.61,2.22c-.24.2-2.7,3-8.43,3s-9.61-4-9.61-10.05a9.51,9.51,0,0,1,9.73-9.92,8.75,8.75,0,0,1,9.08,9.16A16.88,16.88,0,0,1,375.06,658.07Zm-3.55-2.58A5.54,5.54,0,0,0,366,650a5.64,5.64,0,0,0-5.65,5.49Z"/><path class="cls-1" d="M409.76,666.75H406l0-2.42a7.92,7.92,0,0,1-6.1,2.86c-3.55,0-6.62-2.22-6.62-5.93s3.07-5.65,7.51-5.85l5.13-.2v-.77c0-2.91-2-4.36-4.77-4.36a11.72,11.72,0,0,0-5.77,1.66l-1.17-2.59a14.9,14.9,0,0,1,7.19-1.93c3.18,0,5,.88,6.33,2.18s2.06,2.94,2.06,6.21Zm-3.83-9.2-4.48.28c-3.11.16-4.36,1.49-4.36,3.31s1.41,3.31,4,3.31a6,6,0,0,0,4.89-2.78Z"/><path class="cls-1" d="M429.57,665.5a8.15,8.15,0,0,1-5.32,1.69,9.18,9.18,0,0,1-7.47-3.43l1.86-2.26a7.85,7.85,0,0,0,5.65,2.75c1.77,0,3.67-.65,3.67-2.75s-3-2.74-4.32-3.19a14.18,14.18,0,0,1-2.62-1,5,5,0,0,1-3-4.6c0-3.56,3.07-5.49,6.46-5.49a8.41,8.41,0,0,1,6.54,2.5l-1.62,2.38a7,7,0,0,0-4.84-2.06c-1.86,0-3.07.81-3.07,2.38s1.86,2.26,3.75,2.87c1.05.36,1.78.6,2.59.93a7.32,7.32,0,0,1,2.22,1.37,4.74,4.74,0,0,1,1.53,3.55A5.46,5.46,0,0,1,429.57,665.5Z"/><path class="cls-1" d="M448.58,666.55a9.83,9.83,0,0,1-3.51.64,4.51,4.51,0,0,1-4.08-2c-.81-1.21-1-2.71-1-5.73v-8.76H437.2v-3.11H440v-5.73h3.88v5.73h4.6v3.11h-4.6v8.67a7.63,7.63,0,0,0,.48,3.52,2,2,0,0,0,2,1,4.73,4.73,0,0,0,2-.44Z"/><path class="cls-1" d="M466.17,651.13H466a5.11,5.11,0,0,0-2.1-.4,4.05,4.05,0,0,0-3.15,1.61,8.54,8.54,0,0,0-1.17,4.84v9.57h-3.87V647.58h3.87l0,2.95h.12a5,5,0,0,1,4.73-3.31,5.37,5.37,0,0,1,2,.32Z"/><path class="cls-1" d="M481.43,667.19c-5.74,0-10.18-4-10.18-10s4.44-10,10.18-10a9.75,9.75,0,0,1,10.12,10C491.55,663.2,487.12,667.19,481.43,667.19Zm0-16.83c-3.88,0-6.26,3-6.26,6.74s2.38,6.78,6.26,6.78,6.21-3,6.21-6.78S485.26,650.36,481.43,650.36Z"/><path class="cls-1" d="M510.24,667.19a7.75,7.75,0,0,1-6.74-3.47h-.08v3H499.7V638.9h3.84v11.67h.08a7.8,7.8,0,0,1,6.7-3.35c5.61,0,9.24,4.27,9.24,9.92S515.93,667.19,510.24,667.19Zm-.73-16.83c-3.83,0-6.13,2.91-6.13,6.74s2.3,6.78,6.13,6.78,6.09-2.94,6.09-6.78S513.34,650.36,509.51,650.36Z"/><path class="cls-1" d="M531.54,666.75h-3.83V638.9h3.83Z"/><path class="cls-1" d="M558.38,658.07H543.61c.2,3.8,2.62,6.1,6.17,6.1a10.66,10.66,0,0,0,6.34-2.22l1.61,2.22c-.24.2-2.7,3-8.43,3s-9.61-4-9.61-10.05a9.51,9.51,0,0,1,9.73-9.92,8.75,8.75,0,0,1,9.08,9.16A16.88,16.88,0,0,1,558.38,658.07Zm-3.55-2.58A5.54,5.54,0,0,0,549.3,650a5.64,5.64,0,0,0-5.65,5.49Z"/><path class="cls-1" d="M594,666.75h-3.83V655.57c0-2.22-.41-5.17-3.51-5.17s-4.61,3-4.61,6.38v10h-3.87V655.57c0-2.82-.69-5.17-3.47-5.17-3.07,0-4.6,3-4.6,6.38v10h-3.88V647.58h3.88l0,3h.12a6.31,6.31,0,0,1,5.53-3.39,5.53,5.53,0,0,1,5.69,3.79,6.65,6.65,0,0,1,6.09-3.79c5.13,0,6.5,3.75,6.5,7.91Z"/><path class="cls-1" d="M620.48,658.07H605.71c.2,3.8,2.62,6.1,6.17,6.1a10.63,10.63,0,0,0,6.34-2.22l1.61,2.22c-.24.2-2.7,3-8.43,3s-9.61-4-9.61-10.05a9.51,9.51,0,0,1,9.73-9.92,8.75,8.75,0,0,1,9.08,9.16A16.88,16.88,0,0,1,620.48,658.07Zm-3.55-2.58A5.54,5.54,0,0,0,611.4,650a5.64,5.64,0,0,0-5.65,5.49Z"/><path class="cls-1" d="M649.61,666.55a9.76,9.76,0,0,1-3.51.64,4.48,4.48,0,0,1-4.07-2c-.81-1.21-1-2.71-1-5.73v-8.76h-2.83v-3.11h2.83v-5.73h3.87v5.73h4.6v3.11h-4.6v8.67a7.48,7.48,0,0,0,.49,3.52,2,2,0,0,0,2,1,4.73,4.73,0,0,0,2-.44Z"/><path class="cls-1" d="M673.62,666.75h-3.87V655.89c0-2.74-.45-5.49-4-5.49s-5,3-5,6.87v9.48H657V638.9h3.84v11.71h.08a6.54,6.54,0,0,1,5.89-3.39c5.53,0,6.86,3.55,6.86,8.11Z"/><path class="cls-1" d="M697.67,666.75h-3.75l0-2.42a7.9,7.9,0,0,1-6.1,2.86c-3.55,0-6.61-2.22-6.61-5.93s3.06-5.65,7.5-5.85l5.13-.2v-.77c0-2.91-2-4.36-4.76-4.36a11.73,11.73,0,0,0-5.78,1.66l-1.17-2.59a14.9,14.9,0,0,1,7.19-1.93c3.19,0,5,.88,6.33,2.18s2.06,2.94,2.06,6.21Zm-3.83-9.2-4.48.28c-3.11.16-4.36,1.49-4.36,3.31s1.41,3.31,4,3.31a6,6,0,0,0,4.88-2.78Z"/><path class="cls-1" d="M715.87,666.55a9.76,9.76,0,0,1-3.51.64,4.51,4.51,0,0,1-4.08-2c-.8-1.21-1-2.71-1-5.73v-8.76h-2.82v-3.11h2.82v-5.73h3.88v5.73h4.6v3.11h-4.6v8.67a7.63,7.63,0,0,0,.48,3.52,2,2,0,0,0,2,1,4.73,4.73,0,0,0,2-.44Z"/><path class="cls-1" d="M762.72,666.75h-3.83V655.57c0-2.22-.41-5.17-3.51-5.17s-4.6,3-4.6,6.38v10H746.9V655.57c0-2.82-.68-5.17-3.47-5.17-3.07,0-4.6,3-4.6,6.38v10H735V647.58h3.87l0,3h.12a6.32,6.32,0,0,1,5.53-3.39,5.53,5.53,0,0,1,5.69,3.79,6.65,6.65,0,0,1,6.09-3.79c5.13,0,6.5,3.75,6.5,7.91Z"/><path class="cls-1" d="M786.69,666.75h-3.75l0-2.42a7.92,7.92,0,0,1-6.1,2.86c-3.55,0-6.62-2.22-6.62-5.93s3.07-5.65,7.51-5.85l5.12-.2v-.77c0-2.91-2-4.36-4.76-4.36a11.72,11.72,0,0,0-5.77,1.66l-1.17-2.59a14.85,14.85,0,0,1,7.18-1.93c3.19,0,5.05.88,6.34,2.18s2.06,2.94,2.06,6.21Zm-3.83-9.2-4.48.28c-3.11.16-4.36,1.49-4.36,3.31s1.41,3.31,4,3.31a6.06,6.06,0,0,0,4.89-2.78Z"/><path class="cls-1" d="M812.92,666.75H808.4l-6.58-9.28-2.22,2.1v7.18h-3.83V638.9h3.83v16.35l7.83-7.67H812l-7.51,7.22Z"/><path class="cls-1" d="M835.52,658.07H820.74c.21,3.8,2.63,6.1,6.18,6.1a10.66,10.66,0,0,0,6.34-2.22l1.61,2.22c-.24.2-2.7,3-8.44,3s-9.6-4-9.6-10.05a9.51,9.51,0,0,1,9.73-9.92,8.75,8.75,0,0,1,9.08,9.16A16.88,16.88,0,0,1,835.52,658.07ZM832,655.49a5.54,5.54,0,0,0-5.53-5.49,5.65,5.65,0,0,0-5.65,5.49Z"/><path class="cls-1" d="M854.32,665.5a8.18,8.18,0,0,1-5.33,1.69,9.16,9.16,0,0,1-7.46-3.43l1.85-2.26a7.86,7.86,0,0,0,5.65,2.75c1.78,0,3.67-.65,3.67-2.75s-3-2.74-4.31-3.19a14.6,14.6,0,0,1-2.63-1,5,5,0,0,1-3-4.6c0-3.56,3.06-5.49,6.45-5.49a8.4,8.4,0,0,1,6.54,2.5l-1.61,2.38a7,7,0,0,0-4.85-2.06c-1.85,0-3.06.81-3.06,2.38s1.85,2.26,3.75,2.87c1,.36,1.78.6,2.58.93a7.08,7.08,0,0,1,2.22,1.37,4.7,4.7,0,0,1,1.54,3.55A5.46,5.46,0,0,1,854.32,665.5Z"/><path class="cls-1" d="M899.47,666.75h-4.35l-2.87-7.26h-12l-2.86,7.26h-4.12l11.34-27.93h3.43Zm-8.31-10.53-4.88-12.51-4.89,12.51Z"/><path class="cls-1" d="M933.86,666.75H930V655.57c0-2.22-.4-5.17-3.51-5.17s-4.6,3-4.6,6.38v10H918V655.57c0-2.82-.69-5.17-3.48-5.17-3.06,0-4.6,3-4.6,6.38v10h-3.87V647.58H910l0,3H910a6.32,6.32,0,0,1,5.53-3.39,5.52,5.52,0,0,1,5.69,3.79,6.67,6.67,0,0,1,6.1-3.79c5.12,0,6.5,3.75,6.5,7.91Z"/><path class="cls-1" d="M960.33,658.07H945.55c.21,3.8,2.63,6.1,6.18,6.1a10.66,10.66,0,0,0,6.34-2.22l1.61,2.22c-.24.2-2.7,3-8.44,3s-9.6-4-9.6-10.05a9.51,9.51,0,0,1,9.73-9.92,8.75,8.75,0,0,1,9.08,9.16A16.88,16.88,0,0,1,960.33,658.07Zm-3.56-2.58a5.54,5.54,0,0,0-5.53-5.49,5.65,5.65,0,0,0-5.65,5.49Z"/><path class="cls-1" d="M979.13,665.5a8.18,8.18,0,0,1-5.33,1.69,9.16,9.16,0,0,1-7.46-3.43l1.85-2.26a7.86,7.86,0,0,0,5.65,2.75c1.78,0,3.67-.65,3.67-2.75s-3-2.74-4.31-3.19a14.31,14.31,0,0,1-2.63-1,5,5,0,0,1-3-4.6c0-3.56,3.06-5.49,6.45-5.49a8.4,8.4,0,0,1,6.54,2.5l-1.61,2.38a7,7,0,0,0-4.85-2.06c-1.85,0-3.06.81-3.06,2.38s1.85,2.26,3.75,2.87c1.05.36,1.78.6,2.58.93a7.08,7.08,0,0,1,2.22,1.37,4.7,4.7,0,0,1,1.54,3.55A5.46,5.46,0,0,1,979.13,665.5Z"/><path class="cls-1" d="M1011.69,665.5a8.18,8.18,0,0,1-5.33,1.69,9.17,9.17,0,0,1-7.46-3.43l1.86-2.26a7.85,7.85,0,0,0,5.65,2.75c1.77,0,3.67-.65,3.67-2.75s-3-2.74-4.32-3.19a14.18,14.18,0,0,1-2.62-1,5,5,0,0,1-3-4.6c0-3.56,3.07-5.49,6.46-5.49a8.37,8.37,0,0,1,6.53,2.5l-1.61,2.38a7,7,0,0,0-4.84-2.06c-1.86,0-3.07.81-3.07,2.38s1.86,2.26,3.75,2.87c1,.36,1.78.6,2.59.93a7.32,7.32,0,0,1,2.22,1.37,4.74,4.74,0,0,1,1.53,3.55A5.46,5.46,0,0,1,1011.69,665.5Z"/><path class="cls-1" d="M1030.25,667.19c-5.73,0-10.17-4-10.17-10a10.15,10.15,0,0,1,20.3,0C1040.38,663.2,1035.94,667.19,1030.25,667.19Zm0-16.83c-3.87,0-6.25,3-6.25,6.74s2.38,6.78,6.25,6.78,6.22-3,6.22-6.78S1034.09,650.36,1030.25,650.36Z"/><path class="cls-1" d="M90.9,715.17H87.15l0-2.74a6.68,6.68,0,0,1-5.94,3.19c-2.74,0-4.32-.93-5.32-2.22s-1.42-3.19-1.42-5.94V696h3.84V707.3c0,2.63.56,5.09,4,5.09S87,709.48,87,706.25V696H90.9Z"/><path class="cls-1" d="M116.81,715.17h-3.88V704.48c0-3.23-.56-5.65-4-5.65-3.6,0-4.93,3-4.93,6.7v9.64h-3.87V696H104l0,3h.12a6.47,6.47,0,0,1,5.85-3.39c5.45,0,6.87,3.59,6.87,8.19Z"/><path class="cls-1" d="M128,692.09a2.38,2.38,0,1,1,2.5-2.38A2.38,2.38,0,0,1,128,692.09Zm1.94,23.08H126V696h3.88Z"/><path class="cls-1" d="M157.89,722.68h-3.84V712.19H154a7.49,7.49,0,0,1-6.62,3.43c-5.69,0-9.32-4.36-9.32-10s3.63-9.93,9.24-9.93a8,8,0,0,1,6.82,3.39h.12l0-3h3.72Zm-9.81-23.89c-3.84,0-6.1,2.9-6.1,6.74s2.26,6.78,6.1,6.78,6.09-2.95,6.09-6.78S151.91,698.79,148.08,698.79Z"/><path class="cls-1" d="M183.43,715.17h-3.76l0-2.74a6.68,6.68,0,0,1-5.93,3.19c-2.74,0-4.32-.93-5.33-2.22s-1.41-3.19-1.41-5.94V696h3.84V707.3c0,2.63.56,5.09,4,5.09s4.76-2.91,4.76-6.14V696h3.88Z"/><path class="cls-1" d="M210.06,706.5H195.29c.2,3.79,2.62,6.09,6.17,6.09a10.63,10.63,0,0,0,6.34-2.22l1.61,2.22c-.24.2-2.7,3-8.43,3s-9.61-4-9.61-10a9.51,9.51,0,0,1,9.73-9.93,8.75,8.75,0,0,1,9.08,9.16A16.91,16.91,0,0,1,210.06,706.5Zm-3.55-2.59a5.54,5.54,0,0,0-5.53-5.49,5.64,5.64,0,0,0-5.65,5.49Z"/><path class="cls-1" d="M221.36,715.58a2.53,2.53,0,1,1,2.66-2.51A2.48,2.48,0,0,1,221.36,715.58Zm2-28.25L223,707.75h-3.35l-.32-20.42Z"/><path class="cls-1" d="M116.4,508.48H104.53l-3.69-16.26a1.42,1.42,0,0,0-1.5-1.3H82.49a1.48,1.48,0,0,0-1.4,1.2L77.6,508.48H66.13l13.76-59.85a3.4,3.4,0,0,0,.1-1c0-1-.69-1.7-2.89-1.7H69.72V435.56h30.62ZM91.56,450.32c-.1-.3-.3-.5-.49-.5s-.4.2-.5.5l-6.89,30.53c0,.69.1,1,1,1H97.55c.9,0,.9-.5.9-1.09Z"/><path class="cls-1" d="M163.38,490.92c0,11.87-6.28,19.25-21.94,19.25-16.86,0-21.35-4.69-21.35-21.94h11.77c0,8.18.9,10.87,9.58,10.87,8,0,9.67-3,9.67-8.38,0-3.69-.5-5.88-7.68-10.87l-6.68-4.69c-8.38-5.88-16.66-10.17-16.66-22.64,0-10.58,5.29-18.46,21.65-18.46,16.95,0,20.94,4.49,20.94,20.65H151.11c0-9-3.39-9.67-9.67-9.67-7.09,0-9.28,2.79-9.28,7.58,0,3.39,1,5.68,10.18,11.67l7.58,5c6.48,4.28,12.46,9.87,13.26,17.55C163.28,488.23,163.38,489.62,163.38,490.92Z"/><path class="cls-1" d="M209.46,446h-13a2.33,2.33,0,0,0-2.2,2.5v59.85H182.93V448.43c0-1.4-.6-2.4-1.89-2.4H167.77V435.46h41.69Z"/><path class="cls-1" d="M258.54,508.38H246.37L232.1,481a1.07,1.07,0,0,0-1.09-.8h-2.2a.89.89,0,0,0-.89.89v27.34H216.74V435.56h20.35c15.76,0,21.45,6.09,21.45,22.64,0,13.47-4.59,19.55-15,21.35ZM234.1,446h-4.69c-1,0-1.49.3-1.49,1.2v20.95a1.07,1.07,0,0,0,1.09,1.2h5.09c10.87,0,13.07-3,13.07-11.18C247.17,449.62,246,446,234.1,446Z"/><path class="cls-1" d="M287.26,510.17c-17.65,0-21.24-5.38-21.24-38.1,0-28.93,3.59-38,21.44-38,18.76,0,21.25,5.79,21.25,38C308.71,505.78,305.22,510.17,287.26,510.17Zm0-64.73c-7.18,0-9.87,1.19-9.87,26.63,0,24.64,2.59,26.63,9.87,26.63,7.48,0,10-1.7,10-26.63C297.24,445.83,295.44,445.44,287.26,445.44Z"/><path class="cls-1" d="M339.33,508.38h-22V435.56h20.34c15.67,0,21.35,3.39,21.35,21.65,0,8.87-4.39,14.36-10.17,15.26v.6c6.28.39,10.67,4.09,10.67,15.86C359.48,502.49,352.4,508.38,339.33,508.38ZM334.64,446h-5.09c-.69,0-1.09.4-1.09,1.2v19c0,.7.4,1.1.9,1.1h5.28c10.87,0,13-1.8,13-11.57C347.61,448.23,346.51,446,334.64,446Zm1.8,32.12h-7c-.6,0-1,.3-1,.8v17.46a1,1,0,0,0,1,1.09h7.28c10,0,10.77-2.19,10.77-10C347.51,480.25,344.82,478.15,336.44,478.15Z"/><path class="cls-1" d="M404.46,508.38H367V435.56h12.17v59.35c0,2,1.39,3.29,3.59,3.29h21.74Z"/><path class="cls-1" d="M446.76,508.38H411.55V435.46h35.21v10.37H425.41a2.77,2.77,0,0,0-2.49,2.6v19.65a2.49,2.49,0,0,0,2.29,2.49h17.56v11.37H425.31a2.5,2.5,0,0,0-2.39,2.7v9.87a2.28,2.28,0,0,0,2.29,2.49h21.55Z"/><path class="cls-1" d="M503.51,508.48H492.14V483.14c0-.8-.4-1.2-.8-1.2a.92.92,0,0,0-.79.8l-7.29,25.74H476L468.3,483c-.2-.8-.6-1.2-.9-1.2s-.79.6-.79,1.6v25H455.23v-73h11.38l11.77,41.79c.3,1.2.89,1.8,1.49,1.8s1.1-.6,1.4-1.8l10.87-41.79h11.37Z"/><path class="cls-1" d="M548.8,508.38H513.59V435.46H548.8v10.37H527.45a2.77,2.77,0,0,0-2.49,2.6v19.65a2.49,2.49,0,0,0,2.29,2.49h17.56v11.37H527.35a2.5,2.5,0,0,0-2.39,2.7v9.87a2.28,2.28,0,0,0,2.29,2.49H548.8Z"/><path class="cls-1" d="M614.73,508.38H592.68V448.83a2.59,2.59,0,0,0-2.49-2.8h-6.38V435.56H613c15.66,0,21.35,3.39,21.35,21.65,0,8.87-4.39,14.36-10.18,15.26v.6c6.29.39,10.68,4.09,10.68,15.86C634.88,502.49,627.79,508.38,614.73,508.38ZM610,446h-5a1.13,1.13,0,0,0-1.2,1.1v19.35c0,.7.3.9,1,.9H610c10.87,0,13-1.8,13.07-11.57C623.11,448.23,621.81,446,610,446Zm1.79,32.12H605a1.18,1.18,0,0,0-1.1,1v17.26a1,1,0,0,0,1,1.09h7.28c10,0,10.78-2.19,10.78-10C622.91,480.25,620.21,478.15,611.83,478.15Z"/><path class="cls-1" d="M679.86,508.38h-37.5V435.56h12.16v59.35c0,2,1.4,3.29,3.6,3.29h21.74Z"/><path class="cls-1" d="M735.12,508.38H723.25L719.56,492a1.24,1.24,0,0,0-1.4-1.1H701.3a1.46,1.46,0,0,0-1.39.9l-3.59,16.66H684.85l16.75-72.92h17.46Zm-24.94-58.46c-.1-.2-.2-.3-.4-.3s-.4.1-.4.3l-7,31a.81.81,0,0,0,.9.89h13a.89.89,0,0,0,1-1Z"/><path class="cls-1" d="M783,490.92c0,11.87-6.29,19.25-22,19.25-16.85,0-21.34-4.69-21.34-21.94h11.77c0,8.18.9,10.87,9.57,10.87,8,0,9.68-3,9.68-8.38,0-3.69-.5-5.88-7.68-10.87l-6.68-4.69c-8.38-5.88-16.66-10.17-16.66-22.64,0-10.58,5.29-18.46,21.64-18.46,17,0,20.95,4.49,20.95,20.65H770.73c0-9-3.39-9.67-9.68-9.67-7.08,0-9.27,2.79-9.27,7.58,0,3.39,1,5.68,10.17,11.67l7.58,5c6.49,4.28,12.47,9.87,13.27,17.55C782.9,488.23,783,489.62,783,490.92Z"/><path class="cls-1" d="M829.08,446h-13a2.33,2.33,0,0,0-2.19,2.5v59.85H802.55V448.43c0-1.4-.6-2.4-1.9-2.4H787.39V435.46h41.69Z"/><line class="cls-2" x1="8" y1="139.68" x2="1101.37" y2="139.68"/><line class="cls-2" x1="8" y1="139.78" x2="1101.37" y2="139.78"/><path class="cls-1" d="M963.72,211.88c0,5-2.39,8.15-8.26,8.67v4H952.2v-4c-6.39-.29-7.91-2.68-7.91-10.06h5.3c0,3.2.23,4.48,2.61,4.83V205.25l-.64-.4c-3.72-2.62-7.5-4.77-7.5-10.24,0-4.53,2-8,8.14-8.49V182h3.26v4.12c6.4.29,7.73,2.56,7.73,9.48H958c0-3.31-.82-4.13-2.5-4.3v9.24l2.27,1.46c3.37,2.15,5.52,5.12,5.87,8C963.66,210.61,963.72,211.25,963.72,211.88ZM952.2,191.36c-1.92.35-2.5,1.51-2.5,3.2,0,1.22.29,2,2.5,3.72Zm3.26,16.22v7.74c2.09-.35,2.56-1.46,2.56-3.55C958,210.26,957.84,209.38,955.46,207.58Z"/><path class="cls-1" d="M993.73,259.07c-22.14,0-22.24-11.57-22.24-24.33h12.16c0,7.48,1,13.56,10.28,13.56,8.88,0,10.17-5.09,10.17-11.17,0-7.08-3-10.37-11.27-10.37h-5.19V215h4.89c7.18,0,11.37-1.5,11.37-12.17,0-6.19-3.89-7.58-10-7.58-8.28,0-10.38,3.89-10.38,13.36H971.68c0-12.37,2.3-24.34,21.85-24.34,16.46,0,22,3.79,22,18,0,15-4,17.25-10.37,17.65,6.48,1.2,11.07,2.8,11.07,18.86C1016.27,255.18,1008.09,259.07,993.73,259.07Z"/><path class="cls-1" d="M1033,223.69a.82.82,0,0,1-.87.87h-5.18a.82.82,0,0,1-.87-.87v-5.18a.82.82,0,0,1,.87-.87h5.18a.82.82,0,0,1,.87.87Z"/><path class="cls-1" d="M1053,225.32c-10.76,0-12.5-7.39-12.5-10.64h6.86c0,2.55,1.86,4.3,5.64,4.3,5.12,0,6.57-2.56,6.57-7.27,0-5.52-2.5-7.5-6.16-7.5a6.08,6.08,0,0,0-5.58,3.14h-6.52V182.11h24.14v9.36h-5.35v-.93c0-1.39-1-2.38-2.74-2.38h-8.78c-.64,0-1,.46-1,1.16v10.82c1.34-1.34,4.07-2.27,6.75-2.27,3.2,0,12,2,12,13.26C1066.37,219.39,1064.27,225.32,1053,225.32Z"/><path class="cls-1" d="M1096.37,216c0,8.08-4.65,9.36-12,9.36-9.94,0-12.09-2.33-12.09-9.36V189.79c0-5.47,3.08-8.09,12.15-8.09,7.85,0,11.92,2.62,11.92,8.09Zm-6.69-20c0-6-1-7.73-5.17-7.73-4.65,0-5.41,1.28-5.41,7.73v16.17c0,5.29,1.69,6.57,5.35,6.57,3.84,0,5.23-2.15,5.23-6.57Z"/><path class="cls-1" d="M963.72,462.48c0,4.95-2.39,8.14-8.26,8.67v4H952.2v-4c-6.39-.29-7.91-2.68-7.91-10.06h5.3c0,3.2.23,4.48,2.61,4.82V455.85l-.64-.4c-3.72-2.62-7.5-4.77-7.5-10.24,0-4.53,2-8,8.14-8.49v-4.13h3.26v4.13c6.4.29,7.73,2.56,7.73,9.48H958c0-3.31-.82-4.13-2.5-4.3v9.24l2.27,1.46c3.37,2.15,5.52,5.11,5.87,8C963.66,461.2,963.72,461.84,963.72,462.48ZM952.2,442c-1.92.34-2.5,1.51-2.5,3.19,0,1.23.29,2,2.5,3.73Zm3.26,16.22v7.73c2.09-.34,2.56-1.45,2.56-3.54C958,460.85,957.84,460,955.46,458.18Z"/><path class="cls-1" d="M994.23,509.67c-18.46,0-21.45-12.67-21.45-18.25h11.77c0,4.39,3.19,7.38,9.68,7.38,8.78,0,11.27-4.39,11.27-12.47,0-9.47-4.29-12.87-10.57-12.87a10.44,10.44,0,0,0-9.58,5.39H974.18V435.56h41.39v16.06h-9.17V450c0-2.39-1.7-4.09-4.69-4.09H986.65c-1.1,0-1.7.8-1.7,2v18.55c2.3-2.29,7-3.89,11.57-3.89,5.49,0,20.65,3.49,20.65,22.74C1017.17,499.5,1013.58,509.67,994.23,509.67Z"/><path class="cls-1" d="M1034.08,474.29a.82.82,0,0,1-.87.87H1028a.83.83,0,0,1-.88-.87v-5.18a.83.83,0,0,1,.88-.87h5.17a.82.82,0,0,1,.87.87Z"/><path class="cls-1" d="M1068.86,436.9l-18.73,38.26h-7.44l17.45-35.3a.9.9,0,0,0,.11-.4c0-.35-.29-.64-.87-.64h-9.25c-3.43,0-3.19.46-3.19,3.37v1h-5.88V432.71h27.8Z"/><path class="cls-1" d="M1086.25,475.92c-10.76,0-12.51-7.39-12.51-10.65h6.87c0,2.56,1.86,4.31,5.64,4.31,5.11,0,6.57-2.56,6.57-7.27,0-5.53-2.5-7.5-6.17-7.5a6.08,6.08,0,0,0-5.58,3.14h-6.51V432.71h24.13v9.36h-5.35v-.93c0-1.39-1-2.38-2.73-2.38h-8.78c-.64,0-1,.46-1,1.16v10.82c1.34-1.34,4.07-2.27,6.74-2.27,3.2,0,12,2,12,13.26C1099.62,470,1097.53,475.92,1086.25,475.92Z"/></g></g></g></g></g></svg>