<svg xmlns="http://www.w3.org/2000/svg" viewBox="0 0 1109.37 988.95"><defs><style>.cls-1{fill:#333;}.cls-2{fill:#e6e6e6;stroke:#333;stroke-linecap:round;stroke-linejoin:round;stroke-width:16px;}</style></defs><g id="Layer_2" data-name="Layer 2"><g id="Layer_1-2" data-name="Layer 1"><g id="Columns"><g id="Right_Column" data-name="Right Column"><g id="Drinks"><path class="cls-1" d="M110.22,244.11c-1.2,19-6.29,22.25-20.85,22.25-17.66,0-21.25-5.39-21.25-38.11,0-28.92,3.59-38,21.45-38,14.86,0,19.35,3.59,20.65,21.05H98.65c0-8.78-3.1-9.68-9.28-9.68-7,0-9.87,1.2-9.87,26.63,0,24.64,2.89,26.64,9.87,26.64,6.78,0,9.18-2,9.18-10.78Z"/><path class="cls-1" d="M139.24,266.36c-17.65,0-21.24-5.39-21.24-38.11,0-28.92,3.59-38,21.44-38,18.75,0,21.25,5.79,21.25,38C160.69,262,157.2,266.36,139.24,266.36Zm0-64.74c-7.18,0-9.87,1.2-9.87,26.63,0,24.64,2.59,26.64,9.87,26.64,7.48,0,10-1.7,10-26.64C149.22,202,147.42,201.62,139.24,201.62Z"/><path class="cls-1" d="M210.26,244.11c-1.2,19-6.28,22.25-20.85,22.25-17.65,0-21.24-5.39-21.24-38.11,0-28.92,3.59-38,21.44-38,14.87,0,19.35,3.59,20.65,21.05H198.69c0-8.78-3.09-9.68-9.28-9.68-7,0-9.87,1.2-9.87,26.63,0,24.64,3,26.64,9.87,26.64s9.18-2,9.18-10.78Z"/><path class="cls-1" d="M265.52,264.56H253.65L250,248.2a1.24,1.24,0,0,0-1.4-1.09H231.71a1.47,1.47,0,0,0-1.4.89l-3.59,16.66H215.25L232,191.75h17.46Zm-24.94-58.45c-.1-.2-.2-.3-.4-.3s-.39.1-.39.3l-7,31a.82.82,0,0,0,.9.9h13a.9.9,0,0,0,1-1Z"/><path class="cls-1" d="M343.32,244.11c-1.2,19-6.28,22.25-20.85,22.25-17.65,0-21.24-5.39-21.24-38.11,0-28.92,3.59-38,21.44-38,14.87,0,19.35,3.59,20.65,21.05H331.75c0-8.78-3.09-9.68-9.28-9.68-7,0-9.87,1.2-9.87,26.63,0,24.64,2.89,26.64,9.87,26.64,6.79,0,9.18-2,9.18-10.78Z"/><path class="cls-1" d="M372.35,266.36c-17.66,0-21.25-5.39-21.25-38.11,0-28.92,3.59-38,21.45-38,18.75,0,21.24,5.79,21.24,38C393.79,262,390.3,266.36,372.35,266.36Zm0-64.74c-7.18,0-9.88,1.2-9.88,26.63,0,24.64,2.6,26.64,9.88,26.64,7.48,0,10-1.7,10-26.64C382.32,202,380.53,201.62,372.35,201.62Z"/><path class="cls-1" d="M439.77,264.56h-37.5V191.75h12.17V251.1c0,2,1.4,3.29,3.59,3.29h21.74Z"/><path class="cls-1" d="M495,264.56H483.16l-3.69-16.36a1.24,1.24,0,0,0-1.39-1.09H461.22a1.47,1.47,0,0,0-1.4.89l-3.59,16.66H444.76l16.76-72.91H479ZM470.1,206.11c-.1-.2-.2-.3-.4-.3s-.4.1-.4.3l-7,31a.82.82,0,0,0,.89.9h13a.9.9,0,0,0,1-1Z"/><path class="cls-1" d="M96.15,384.26H75.8V324.41a2.37,2.37,0,0,0-2.49-2.59H66.93V311.34l29.22.1c12.47.1,21.35,5,21.35,36.61C117.5,375.88,109.32,384.26,96.15,384.26Zm-3-62.34H88.57a1.35,1.35,0,0,0-1.49,1.49v48.78c0,1,.49,1.39,1.29,1.39h4.79c10.87,0,13.07-9.37,13.07-25.53C106.23,329.8,105,321.92,93.16,321.92Z"/><path class="cls-1" d="M168.17,384.26H156l-14.26-27.43a1.08,1.08,0,0,0-1.1-.8h-2.2a.89.89,0,0,0-.89.9v27.33H126.37V311.44h20.35c15.76,0,21.45,6.09,21.45,22.64,0,13.47-4.59,19.56-15,21.35Zm-24.44-62.34H139c-1,0-1.49.3-1.49,1.19v20.95a1.07,1.07,0,0,0,1.09,1.2h5.09c10.87,0,13.07-3,13.07-11.18C156.8,325.51,155.6,321.92,143.73,321.92Z"/><path class="cls-1" d="M193,382.76a1.41,1.41,0,0,1-1.49,1.5h-8.88a1.42,1.42,0,0,1-1.5-1.5v-8.88a1.41,1.41,0,0,1,1.5-1.49h8.88a1.41,1.41,0,0,1,1.49,1.49Z"/><path class="cls-1" d="M260.63,356h-8v28.23H241.48V324.71a2.59,2.59,0,0,0-2.49-2.79H232.6V311.44h29.23c15.66,0,21.34,6.09,21.34,22.64C283.17,350.44,276.39,356,260.63,356Zm-1.8-34.11h-5a1.15,1.15,0,0,0-1.2,1.19v21.05a1,1,0,0,0,.9,1.1h5.28c10.88,0,13.07-3,13.07-11.18C271.9,325.51,270.71,321.92,258.83,321.92Z"/><path class="cls-1" d="M326.46,384.26H291.25V311.34h35.21v10.38H305.12a2.77,2.77,0,0,0-2.5,2.59V344a2.5,2.5,0,0,0,2.3,2.49h17.55v11.38H305a2.5,2.5,0,0,0-2.4,2.69v9.87a2.29,2.29,0,0,0,2.3,2.5h21.54Z"/><path class="cls-1" d="M353.79,356H347c-.8,0-1.3.4-1.3,1.2v27H334.54V311.44H355c15.66,0,21.34,6.09,21.34,22.64C376.33,350.44,369.55,356,353.79,356ZM352,321.92h-5.19c-.8,0-1.1.4-1.1.89v21.35c0,.8.4,1.1,1,1.1H352c10.87,0,13-3,13-11.18C365,325.51,363.87,321.92,352,321.92Z"/><path class="cls-1" d="M403.17,356h-6.79a1.13,1.13,0,0,0-1.29,1.2v27H383.92V311.44h20.44c15.66,0,21.35,6.09,21.35,22.64C425.71,350.44,418.93,356,403.17,356Zm-1.8-34.11h-5.19c-.79,0-1.09.4-1.09.89v21.35c0,.8.4,1.1,1,1.1h5.29c10.87,0,13-3,13-11.18C414.34,325.51,413.24,321.92,401.37,321.92Z"/><path class="cls-1" d="M468.2,384.26H433V311.34H468.2v10.38H446.85a2.77,2.77,0,0,0-2.49,2.59V344a2.5,2.5,0,0,0,2.3,2.49h17.55v11.38H446.75a2.5,2.5,0,0,0-2.39,2.69v9.87a2.29,2.29,0,0,0,2.3,2.5H468.2Z"/><path class="cls-1" d="M518.57,384.26H506.4l-14.26-27.43a1.08,1.08,0,0,0-1.1-.8h-2.19a.9.9,0,0,0-.9.9v27.33H476.78V311.44h20.35c15.76,0,21.44,6.09,21.44,22.64,0,13.47-4.59,19.56-15,21.35Zm-24.44-62.34h-4.68c-1,0-1.5.3-1.5,1.19v20.95a1.07,1.07,0,0,0,1.1,1.2h5.08c10.88,0,13.07-3,13.07-11.18C507.2,325.51,506,321.92,494.13,321.92Z"/><path class="cls-1" d="M111.41,486.5c0,11.87-6.28,19.25-21.94,19.25-16.86,0-21.35-4.69-21.35-21.94H79.89c0,8.17.9,10.87,9.58,10.87,8,0,9.68-3,9.68-8.38,0-3.69-.5-5.89-7.69-10.87l-6.68-4.69c-8.38-5.89-16.66-10.18-16.66-22.64,0-10.58,5.29-18.46,21.65-18.46,17,0,21,4.49,21,20.65H99.15c0-9-3.4-9.67-9.68-9.67-7.08,0-9.28,2.79-9.28,7.58,0,3.39,1,5.68,10.18,11.67l7.58,5c6.48,4.29,12.47,9.88,13.26,17.56C111.31,483.81,111.41,485.2,111.41,486.5Z"/><path class="cls-1" d="M138.54,475.73h-6.78c-.8,0-1.3.39-1.3,1.19v27H119.29V431.14h20.45c15.66,0,21.35,6.08,21.35,22.64C161.09,470.14,154.3,475.73,138.54,475.73Zm-1.79-34.12h-5.19c-.8,0-1.1.4-1.1.9v21.35c0,.79.4,1.09,1,1.09h5.29c10.87,0,13-3,13-11.17C149.72,445.2,148.62,441.61,136.75,441.61Z"/><path class="cls-1" d="M211,504H198.79l-14.26-27.43a1.09,1.09,0,0,0-1.1-.79h-2.19a.89.89,0,0,0-.9.89V504H169.17V431.14h20.34c15.76,0,21.45,6.08,21.45,22.64,0,13.47-4.59,19.55-15,21.35Zm-24.44-62.34h-4.69c-1,0-1.49.3-1.49,1.2v20.95a1.07,1.07,0,0,0,1.09,1.19h5.09c10.87,0,13.07-3,13.07-11.17C199.59,445.2,198.39,441.61,186.52,441.61Z"/><path class="cls-1" d="M226.32,442.91a6.59,6.59,0,0,1,0-13.17,6.59,6.59,0,1,1,0,13.17ZM232,504H220.63V447.1H232Z"/><path class="cls-1" d="M282,441.61H269a2.33,2.33,0,0,0-2.19,2.5V504H255.45V444c0-1.4-.6-2.4-1.9-2.4H240.28V431H282Z"/><path class="cls-1" d="M323.67,504H288.46V431h35.21v10.37H302.33a2.78,2.78,0,0,0-2.5,2.6v19.65a2.5,2.5,0,0,0,2.29,2.49h17.56v11.37H302.22a2.51,2.51,0,0,0-2.39,2.69v9.88a2.28,2.28,0,0,0,2.29,2.49h21.55Z"/><path class="cls-1" d="M117.6,623.65H105.83L91.56,596.32c-.3-.6-.59-.9-1.19-.9h-2.3c-.8,0-1.09.4-1.09,1.2v27H75.8V564.1a2.58,2.58,0,0,0-2.49-2.79H66.93V550.83H96.15c15.66,0,21.35,6.09,21.35,22.65,0,13.46-4.59,19.55-14.86,21.34ZM93.16,561.31H88.07c-.7,0-1.09.3-1.09,1.19v21a1.07,1.07,0,0,0,1.09,1.2h5.09c10.87,0,13.07-3,13.07-11.17C106.23,564.9,105,561.31,93.16,561.31Z"/><path class="cls-1" d="M146.82,625.45c-17.65,0-21.24-5.39-21.24-38.11,0-28.92,3.59-38,21.44-38,18.76,0,21.25,5.78,21.25,38C168.27,621.06,164.78,625.45,146.82,625.45Zm0-64.74c-7.18,0-9.87,1.2-9.87,26.63C137,612,139.54,614,146.82,614c7.48,0,10-1.69,10-26.63C156.8,561.11,155,560.71,146.82,560.71Z"/><path class="cls-1" d="M197.29,625.45c-17.65,0-21.24-5.39-21.24-38.11,0-28.92,3.59-38,21.44-38,18.76,0,21.25,5.78,21.25,38C218.74,621.06,215.25,625.45,197.29,625.45Zm0-64.74c-7.18,0-9.87,1.2-9.87,26.63C187.42,612,190,614,197.29,614c7.49,0,10-1.69,10-26.63C207.27,561.11,205.47,560.71,197.29,560.71Z"/><path class="cls-1" d="M265.52,561.31h-13a2.32,2.32,0,0,0-2.19,2.49v59.85H239V563.7c0-1.39-.6-2.39-1.9-2.39H223.83V550.73h41.69Z"/><path class="cls-1" d="M330.16,623.65H308.11V564.1a2.59,2.59,0,0,0-2.49-2.79h-6.39V550.83h29.23c15.66,0,21.35,3.4,21.35,21.65,0,8.88-4.39,14.36-10.18,15.26v.6c6.29.4,10.67,4.09,10.67,15.86C350.3,617.76,343.22,623.65,330.16,623.65Zm-4.69-62.34h-5a1.13,1.13,0,0,0-1.2,1.1v19.35c0,.69.3.89,1,.89h5.19c10.87,0,13-1.79,13.06-11.57C338.53,563.5,337.24,561.31,325.47,561.31Zm1.79,32.12h-6.88a1.17,1.17,0,0,0-1.1,1v17.26a1,1,0,0,0,1,1.1h7.28c10,0,10.77-2.2,10.77-10C338.33,595.52,335.64,593.43,327.26,593.43Z"/><path class="cls-1" d="M393.09,623.65H357.88V550.73h35.21v10.38H371.75a2.77,2.77,0,0,0-2.5,2.59v19.65a2.51,2.51,0,0,0,2.3,2.5H389.1v11.37H371.65a2.5,2.5,0,0,0-2.4,2.69v9.87a2.29,2.29,0,0,0,2.3,2.5h21.54Z"/><path class="cls-1" d="M436.08,623.65H400.87V550.73h35.21v10.38H414.74a2.76,2.76,0,0,0-2.49,2.59v19.65a2.5,2.5,0,0,0,2.29,2.5h17.55v11.37H414.64a2.49,2.49,0,0,0-2.39,2.69v9.87a2.29,2.29,0,0,0,2.29,2.5h21.54Z"/><path class="cls-1" d="M486.46,623.65H474.29L460,596.22a1.08,1.08,0,0,0-1.09-.8h-2.2a.9.9,0,0,0-.9.9v27.33H444.66V550.83H465c15.76,0,21.45,6.09,21.45,22.65,0,13.46-4.59,19.55-15,21.34ZM462,561.31h-4.69c-1,0-1.5.3-1.5,1.19v21a1.07,1.07,0,0,0,1.1,1.2H462c10.87,0,13.06-3,13.06-11.17C475.08,564.9,473.89,561.31,462,561.31Z"/><path class="cls-1" d="M111.41,725.89c0,11.87-6.28,19.25-21.94,19.25-16.86,0-21.35-4.69-21.35-21.94H79.89c0,8.18.9,10.87,9.58,10.87,8,0,9.68-3,9.68-8.38,0-3.69-.5-5.89-7.69-10.87l-6.68-4.69C76.4,704.24,68.12,700,68.12,687.49c0-10.58,5.29-18.46,21.65-18.46,17,0,21,4.49,21,20.65H99.15c0-9-3.4-9.67-9.68-9.67-7.08,0-9.28,2.79-9.28,7.58,0,3.39,1,5.68,10.18,11.67l7.58,5c6.48,4.29,12.47,9.88,13.26,17.56C111.31,723.2,111.41,724.59,111.41,725.89Z"/><path class="cls-1" d="M177.05,670.53l-13,72.81H152.21l-5.89-35.7c-.1-.3-.3-.5-.49-.5a.56.56,0,0,0-.6.5l-6.39,35.7H127l-12-72.81h11.57l5.79,41.59a.63.63,0,0,0,.7.7.94.94,0,0,0,.8-.8l6.38-41.49h11.57l5.78,41.59a.63.63,0,0,0,.7.7.94.94,0,0,0,.8-.8l6.39-41.49Z"/><path class="cls-1" d="M217.64,743.34H182.43V670.43h35.21V680.8H196.3a2.78,2.78,0,0,0-2.5,2.6v19.65a2.5,2.5,0,0,0,2.3,2.49h17.55v11.37H196.2a2.51,2.51,0,0,0-2.4,2.7v9.87a2.29,2.29,0,0,0,2.3,2.49h21.54Z"/><path class="cls-1" d="M260.63,743.34H225.42V670.43h35.21V680.8H239.29a2.78,2.78,0,0,0-2.5,2.6v19.65a2.5,2.5,0,0,0,2.3,2.49h17.55v11.37H239.19a2.51,2.51,0,0,0-2.4,2.7v9.87a2.29,2.29,0,0,0,2.3,2.49h21.54Z"/><path class="cls-1" d="M310,681H297a2.33,2.33,0,0,0-2.2,2.5v59.84H283.47V683.4c0-1.4-.6-2.4-1.89-2.4H268.31V670.43H310Z"/><path class="cls-1" d="M385.41,681h-13a2.33,2.33,0,0,0-2.19,2.5v59.84H358.88V683.4c0-1.4-.6-2.4-1.9-2.4H343.72V670.43h41.69Z"/><path class="cls-1" d="M427.4,743.34H392.19V670.43H427.4V680.8H406.06a2.77,2.77,0,0,0-2.49,2.6v19.65a2.49,2.49,0,0,0,2.29,2.49h17.56v11.37H406a2.5,2.5,0,0,0-2.39,2.7v9.87a2.28,2.28,0,0,0,2.29,2.49H427.4Z"/><path class="cls-1" d="M483.36,743.34H471.49L467.8,727a1.24,1.24,0,0,0-1.39-1.1H449.55a1.46,1.46,0,0,0-1.4.9l-3.59,16.65H433.09l16.76-72.91H467.3Zm-24.94-58.45c-.09-.2-.19-.3-.39-.3s-.4.1-.4.3l-7,31a.82.82,0,0,0,.89.9h13a.9.9,0,0,0,1-1Z"/><path class="cls-1" d="M111.21,829c0,31.32-4,35.81-21.44,35.81-17.26,0-21.25-5.19-21.25-35.81v-38.9H79.89v39.1c0,22.24,2.8,24.14,9.78,24.14,7.28,0,10.07-1.5,10.07-24.14v-39.1h11.47Z"/><path class="cls-1" d="M162.68,863H151.31l-18.75-43.29a.54.54,0,0,0-.4-.3.37.37,0,0,0-.4.4V863H120.39V790.23h11.37L150.51,834a.66.66,0,0,0,.5.4.45.45,0,0,0,.3-.4V790.23h11.37Z"/><path class="cls-1" d="M214.45,845.58c0,11.88-6.28,19.26-21.94,19.26-16.86,0-21.35-4.69-21.35-22h11.77c0,8.18.9,10.87,9.58,10.87,8,0,9.67-3,9.67-8.37,0-3.69-.5-5.89-7.68-10.88l-6.68-4.68c-8.38-5.89-16.66-10.18-16.66-22.65,0-10.57,5.29-18.45,21.65-18.45,16.95,0,20.94,4.49,20.94,20.65H202.18c0-9-3.39-9.68-9.67-9.68-7.09,0-9.28,2.8-9.28,7.58,0,3.39,1,5.69,10.17,11.67l7.59,5c6.48,4.29,12.46,9.88,13.26,17.56C214.35,842.89,214.45,844.29,214.45,845.58Z"/><path class="cls-1" d="M280.08,790.23l-13,72.81H255.25l-5.89-35.71c-.1-.3-.3-.5-.5-.5a.56.56,0,0,0-.6.5L241.88,863H230l-12-72.81h11.57l5.79,41.59a.63.63,0,0,0,.69.7.94.94,0,0,0,.8-.8l6.39-41.49h11.57l5.78,41.59a.63.63,0,0,0,.7.7.94.94,0,0,0,.8-.8l6.38-41.49Z"/><path class="cls-1" d="M320.68,863H285.47V790.13h35.21V800.5H299.33a2.78,2.78,0,0,0-2.49,2.59v19.65a2.51,2.51,0,0,0,2.29,2.5h17.56v11.37H299.23a2.5,2.5,0,0,0-2.39,2.69v9.88a2.29,2.29,0,0,0,2.29,2.49h21.55Z"/><path class="cls-1" d="M363.67,863H328.46V790.13h35.21V800.5H342.32a2.78,2.78,0,0,0-2.49,2.59v19.65a2.51,2.51,0,0,0,2.29,2.5h17.56v11.37H342.22a2.5,2.5,0,0,0-2.39,2.69v9.88a2.29,2.29,0,0,0,2.29,2.49h21.55Z"/><path class="cls-1" d="M413,800.7h-13a2.32,2.32,0,0,0-2.2,2.49V863H386.51V803.09c0-1.39-.6-2.39-1.9-2.39H371.35V790.13H413Z"/><path class="cls-1" d="M488.45,800.7h-13a2.32,2.32,0,0,0-2.19,2.49V863H461.92V803.09c0-1.39-.6-2.39-1.9-2.39H446.75V790.13h41.7Z"/><path class="cls-1" d="M530.44,863H495.23V790.13h35.21V800.5H509.09a2.78,2.78,0,0,0-2.49,2.59v19.65a2.51,2.51,0,0,0,2.3,2.5h17.55v11.37H509a2.5,2.5,0,0,0-2.4,2.69v9.88a2.29,2.29,0,0,0,2.3,2.49h21.54Z"/><path class="cls-1" d="M586.4,863H574.53l-3.69-16.36a1.24,1.24,0,0,0-1.4-1.1H552.58a1.46,1.46,0,0,0-1.39.9l-3.59,16.66H536.13l16.75-72.91h17.46Zm-24.94-58.45c-.1-.2-.2-.3-.4-.3s-.4.1-.4.3l-7,31a.82.82,0,0,0,.9.9h13a.89.89,0,0,0,1-1Z"/><path class="cls-1" d="M106.63,982.74H69.12V909.92H81.29v59.35c0,2,1.4,3.29,3.59,3.29h21.75Z"/><path class="cls-1" d="M149.12,982.74H113.91V909.82h35.21V920.2H127.77a2.77,2.77,0,0,0-2.49,2.59v19.65a2.5,2.5,0,0,0,2.29,2.49h17.56V956.3H127.67a2.51,2.51,0,0,0-2.39,2.7v9.87a2.29,2.29,0,0,0,2.29,2.5h21.55Z"/><path class="cls-1" d="M205.87,982.84H194.5V957.5c0-.8-.4-1.2-.8-1.2a.94.94,0,0,0-.79.8l-7.29,25.74h-7.28l-7.68-25.44c-.2-.8-.6-1.2-.9-1.2s-.79.6-.79,1.6v25H157.6v-73H169l11.77,41.8c.3,1.19.89,1.79,1.49,1.79s1.1-.6,1.4-1.79l10.87-41.8h11.37Z"/><path class="cls-1" d="M236.4,984.53c-17.66,0-21.25-5.38-21.25-38.1,0-28.93,3.59-38,21.44-38,18.76,0,21.25,5.79,21.25,38C257.84,980.14,254.35,984.53,236.4,984.53Zm0-64.73c-7.19,0-9.88,1.19-9.88,26.63,0,24.64,2.59,26.63,9.88,26.63,7.48,0,10-1.69,10-26.63C246.37,920.2,244.57,919.8,236.4,919.8Z"/><path class="cls-1" d="M309.31,982.74H297.94l-18.75-43.29a.54.54,0,0,0-.4-.3.37.37,0,0,0-.4.4v43.19H267V909.92h11.37l18.75,43.79a.66.66,0,0,0,.5.4.45.45,0,0,0,.3-.4V909.92h11.37Z"/><path class="cls-1" d="M367.06,982.74H355.19l-3.69-16.36a1.24,1.24,0,0,0-1.39-1.1H333.25a1.46,1.46,0,0,0-1.4.9l-3.59,16.66H316.79l16.76-72.92H351Zm-24.93-58.45c-.1-.21-.2-.3-.4-.3s-.4.09-.4.3l-7,31a.81.81,0,0,0,.9.89h13a.89.89,0,0,0,1-1Z"/><path class="cls-1" d="M395.19,982.74H374.74V909.92h20.45c12.37,0,21.35,4.89,21.35,36.61C416.54,974.36,408.36,982.74,395.19,982.74Zm-3-62.35h-4.79c-.8,0-1.3.4-1.3,1.2V971a1,1,0,0,0,1,1.09h5.09c10.87,0,13-9.37,13-25.53C405.17,928.27,404.07,920.39,392.2,920.39Z"/><path class="cls-1" d="M460.22,982.74H425V909.82h35.21V920.2H438.88a2.76,2.76,0,0,0-2.49,2.59v19.65a2.49,2.49,0,0,0,2.29,2.49h17.56V956.3H438.78a2.5,2.5,0,0,0-2.39,2.7v9.87a2.29,2.29,0,0,0,2.29,2.5h21.54Z"/><g id="Title"><path class="cls-1" d="M53.15,110.64H22.85V21.53a3.55,3.55,0,0,0-3.71-3.86H9.63V2.08l43.52.15c18.56.15,31.78,7.42,31.78,54.5C84.93,98.17,72.75,110.64,53.15,110.64ZM48.69,17.82H41.86a2,2,0,0,0-2.23,2.23V92.67c0,1.49.75,2.08,1.93,2.08h7.13c16.19,0,19.46-14,19.46-38C68.15,29.55,66.37,17.82,48.69,17.82Z"/><path class="cls-1" d="M163.49,110.64H145.37L124.13,69.8a1.6,1.6,0,0,0-1.63-1.19h-3.27A1.33,1.33,0,0,0,117.9,70v40.69H101.26V2.23h30.3c23.46,0,31.93,9.06,31.93,33.71,0,20.05-6.83,29.11-22.28,31.78ZM127.1,17.82h-7c-1.48,0-2.22.45-2.22,1.78V50.79a1.59,1.59,0,0,0,1.63,1.78h7.57c16.19,0,19.46-4.45,19.46-16.63C146.56,23.17,144.78,17.82,127.1,17.82Z"/><path class="cls-1" d="M189.48,19.75a9.8,9.8,0,1,1,0-19.6,9.92,9.92,0,0,1,10,9.8A9.82,9.82,0,0,1,189.48,19.75Zm8.46,90.89H181V26h16.93Z"/><path class="cls-1" d="M281,110.64H264L236.11,46.19a.81.81,0,0,0-.59-.45.55.55,0,0,0-.6.6v64.3H218V2.23h16.93l27.92,65.19a1,1,0,0,0,.74.6.67.67,0,0,0,.45-.6V2.23H281Z"/><path class="cls-1" d="M360.56,110.79H342.15L318.38,69.65a3,3,0,0,0-2.22-1.78c-.6,0-1,.45-1,1.34v41.58H298.33V2.23h16.79V44.41c0,1.18.59,1.48,1.33,1.48a2.67,2.67,0,0,0,2.38-1.34L342.15,2.23h18.41L332.64,53.61a5.9,5.9,0,0,0-.74,3,7,7,0,0,0,.74,3.12Z"/><path class="cls-1" d="M432.44,84.65c0,17.68-9.35,28.67-32.67,28.67-25.1,0-31.78-7-31.78-32.68h17.52c0,12.18,1.34,16.19,14.26,16.19,11.88,0,14.4-4.45,14.4-12.47,0-5.5-.74-8.77-11.43-16.19l-9.95-7C380.31,52.42,368,46,368,27.47,368,11.73,375.86,0,400.21,0c25.25,0,31.19,6.68,31.19,30.74H414.17c0-13.36-5-14.4-14.4-14.4C389.22,16.34,386,20.5,386,27.62c0,5.05,1.48,8.47,15.15,17.38l11.28,7.42c9.66,6.39,18.57,14.71,19.76,26.14C432.29,80.64,432.44,82.72,432.44,84.65Z"/><line class="cls-2" x1="8" y1="139.78" x2="1101.37" y2="139.78"/></g><path class="cls-1" d="M963.72,223.59c0,4.94-2.39,8.14-8.26,8.66v4H952.2v-4c-6.39-.29-7.91-2.67-7.91-10.06h5.29c0,3.2.24,4.48,2.62,4.83V217l-.64-.41c-3.72-2.61-7.5-4.77-7.5-10.23,0-4.54,2-8,8.14-8.49V193.7h3.26v4.13c6.39.29,7.73,2.56,7.73,9.48H958c0-3.32-.82-4.13-2.5-4.31v9.25l2.27,1.45c3.37,2.15,5.52,5.12,5.87,8C963.66,222.31,963.72,223,963.72,223.59ZM952.2,203.06c-1.92.35-2.5,1.51-2.5,3.2,0,1.22.29,2,2.5,3.72Zm3.26,16.23V227c2.09-.35,2.56-1.45,2.56-3.55C958,222,957.84,221.09,955.46,219.29Z"/><path class="cls-1" d="M990.93,269.48H979.56V210.93h-6.28c-1.7,0-2.39-1.6-2.39-3.19a2.69,2.69,0,0,1,2.39-2.79c7.88-1.1,9.58-7.09,9.58-8.28h8.07Z"/><path class="cls-1" d="M1011.24,235.39a.83.83,0,0,1-.87.88h-5.18a.83.83,0,0,1-.87-.88v-5.17a.82.82,0,0,1,.87-.87h5.18a.82.82,0,0,1,.87.87Z"/><path class="cls-1" d="M1031.25,237c-10.76,0-12.51-7.38-12.51-10.64h6.87c0,2.56,1.86,4.3,5.64,4.3,5.11,0,6.57-2.56,6.57-7.26,0-5.53-2.5-7.51-6.17-7.51a6.08,6.08,0,0,0-5.58,3.14h-6.51V193.82h24.13v9.36h-5.35v-.93c0-1.4-1-2.39-2.73-2.39h-8.78c-.64,0-1,.47-1,1.17v10.81c1.34-1.34,4.07-2.26,6.74-2.26,3.2,0,12,2,12,13.25C1044.62,231.09,1042.53,237,1031.25,237Z"/><path class="cls-1" d="M1074.63,227.66c0,8.08-4.65,9.36-12,9.36-10,0-12.1-2.32-12.1-9.36V201.49c0-5.46,3.09-8.08,12.16-8.08,7.85,0,11.92,2.62,11.92,8.08Zm-6.69-20c0-6-1-7.74-5.18-7.74-4.65,0-5.4,1.28-5.4,7.74v16.16c0,5.29,1.68,6.57,5.35,6.57,3.83,0,5.23-2.15,5.23-6.57Z"/><path class="cls-1" d="M963.72,343.28c0,5-2.39,8.14-8.26,8.67v4H952.2v-4c-6.39-.29-7.91-2.68-7.91-10.06h5.29c0,3.2.24,4.48,2.62,4.83V336.66l-.64-.41c-3.72-2.62-7.5-4.77-7.5-10.24,0-4.53,2-8,8.14-8.49V313.4h3.26v4.12c6.39.29,7.73,2.56,7.73,9.48H958c0-3.31-.82-4.13-2.5-4.3v9.24l2.27,1.46c3.37,2.15,5.52,5.12,5.87,8C963.66,342,963.72,342.65,963.72,343.28ZM952.2,322.76c-1.92.35-2.5,1.51-2.5,3.2,0,1.22.29,2,2.5,3.72ZM955.46,339v7.74c2.09-.35,2.56-1.46,2.56-3.55C958,341.66,957.84,340.78,955.46,339Z"/><path class="cls-1" d="M990.93,389.18H979.56V330.63h-6.28c-1.7,0-2.39-1.6-2.39-3.2a2.7,2.7,0,0,1,2.39-2.79c7.88-1.1,9.58-7.08,9.58-8.28h8.07Z"/><path class="cls-1" d="M1011.24,355.09a.82.82,0,0,1-.87.87h-5.18a.82.82,0,0,1-.87-.87v-5.18a.82.82,0,0,1,.87-.87h5.18a.82.82,0,0,1,.87.87Z"/><path class="cls-1" d="M1031.25,356.72c-10.76,0-12.51-7.39-12.51-10.64h6.87c0,2.55,1.86,4.3,5.64,4.3,5.11,0,6.57-2.56,6.57-7.27,0-5.53-2.5-7.5-6.17-7.5a6.08,6.08,0,0,0-5.58,3.14h-6.51V313.51h24.13v9.36h-5.35v-.93c0-1.39-1-2.38-2.73-2.38h-8.78c-.64,0-1,.46-1,1.16v10.82c1.34-1.34,4.07-2.27,6.74-2.27,3.2,0,12,2,12,13.26C1044.62,350.79,1042.53,356.72,1031.25,356.72Z"/><path class="cls-1" d="M1074.63,347.35c0,8.09-4.65,9.37-12,9.37-10,0-12.1-2.33-12.1-9.37V321.19c0-5.47,3.09-8.09,12.16-8.09,7.85,0,11.92,2.62,11.92,8.09Zm-6.69-20c0-6.05-1-7.73-5.18-7.73-4.65,0-5.4,1.28-5.4,7.73v16.17c0,5.29,1.68,6.57,5.35,6.57,3.83,0,5.23-2.15,5.23-6.57Z"/><path class="cls-1" d="M963.72,463c0,4.94-2.39,8.14-8.26,8.67v4H952.2v-4c-6.39-.3-7.91-2.68-7.91-10.07h5.29c0,3.2.24,4.48,2.62,4.83V456.35l-.64-.41c-3.72-2.61-7.5-4.76-7.5-10.23,0-4.54,2-8,8.14-8.49v-4.13h3.26v4.13c6.39.29,7.73,2.56,7.73,9.48H958c0-3.32-.82-4.13-2.5-4.3v9.24l2.27,1.45c3.37,2.16,5.52,5.12,5.87,8C963.66,461.7,963.72,462.34,963.72,463ZM952.2,442.45c-1.92.35-2.5,1.52-2.5,3.2,0,1.22.29,2,2.5,3.72Zm3.26,16.23v7.73c2.09-.35,2.56-1.45,2.56-3.55C958,461.35,957.84,460.48,955.46,458.68Z"/><path class="cls-1" d="M990.93,508.87H979.56V450.32h-6.28c-1.7,0-2.39-1.59-2.39-3.19a2.69,2.69,0,0,1,2.39-2.79c7.88-1.1,9.58-7.09,9.58-8.28h8.07Z"/><path class="cls-1" d="M1011.24,474.79a.82.82,0,0,1-.87.87h-5.18a.82.82,0,0,1-.87-.87v-5.18a.82.82,0,0,1,.87-.87h5.18a.82.82,0,0,1,.87.87Z"/><path class="cls-1" d="M1031.25,476.41c-10.76,0-12.51-7.38-12.51-10.64h6.87c0,2.56,1.86,4.31,5.64,4.31,5.11,0,6.57-2.56,6.57-7.27,0-5.53-2.5-7.5-6.17-7.5a6.08,6.08,0,0,0-5.58,3.13h-6.51V433.21h24.13v9.36h-5.35v-.93c0-1.4-1-2.39-2.73-2.39h-8.78c-.64,0-1,.47-1,1.17v10.81c1.34-1.33,4.07-2.26,6.74-2.26,3.2,0,12,2,12,13.26C1044.62,470.48,1042.53,476.41,1031.25,476.41Z"/><path class="cls-1" d="M1074.63,467.05c0,8.08-4.65,9.36-12,9.36-10,0-12.1-2.32-12.1-9.36V440.88c0-5.46,3.09-8.08,12.16-8.08,7.85,0,11.92,2.62,11.92,8.08Zm-6.69-20c0-6.05-1-7.74-5.18-7.74-4.65,0-5.4,1.28-5.4,7.74v16.16c0,5.29,1.68,6.57,5.35,6.57,3.83,0,5.23-2.15,5.23-6.57Z"/><path class="cls-1" d="M963.72,582.68c0,4.94-2.39,8.14-8.26,8.66v4H952.2v-4c-6.39-.29-7.91-2.67-7.91-10.06h5.29c0,3.2.24,4.48,2.62,4.83V576.05l-.64-.41c-3.72-2.62-7.5-4.77-7.5-10.23,0-4.54,2-8,8.14-8.49v-4.13h3.26v4.13c6.39.29,7.73,2.55,7.73,9.47H958c0-3.31-.82-4.13-2.5-4.3v9.25l2.27,1.45c3.37,2.15,5.52,5.12,5.87,8C963.66,581.4,963.72,582,963.72,582.68ZM952.2,562.15c-1.92.35-2.5,1.51-2.5,3.2,0,1.22.29,2,2.5,3.72Zm3.26,16.22v7.74c2.09-.35,2.56-1.46,2.56-3.55C958,581.05,957.84,580.17,955.46,578.37Z"/><path class="cls-1" d="M990.93,628.57H979.56V570h-6.28c-1.7,0-2.39-1.6-2.39-3.19a2.7,2.7,0,0,1,2.39-2.8c7.88-1.1,9.58-7.08,9.58-8.28h8.07Z"/><path class="cls-1" d="M1011.24,594.48a.82.82,0,0,1-.87.87h-5.18a.82.82,0,0,1-.87-.87v-5.17a.83.83,0,0,1,.87-.88h5.18a.83.83,0,0,1,.87.88Z"/><path class="cls-1" d="M1031.25,596.11c-10.76,0-12.51-7.39-12.51-10.64h6.87c0,2.56,1.86,4.3,5.64,4.3,5.11,0,6.57-2.56,6.57-7.27,0-5.52-2.5-7.5-6.17-7.5a6.08,6.08,0,0,0-5.58,3.14h-6.51V552.9h24.13v9.36h-5.35v-.93c0-1.39-1-2.38-2.73-2.38h-8.78c-.64,0-1,.47-1,1.16v10.82c1.34-1.34,4.07-2.27,6.74-2.27,3.2,0,12,2,12,13.26C1044.62,590.18,1042.53,596.11,1031.25,596.11Z"/><path class="cls-1" d="M1074.63,586.75c0,8.08-4.65,9.36-12,9.36-10,0-12.1-2.33-12.1-9.36V560.58c0-5.47,3.09-8.08,12.16-8.08,7.85,0,11.92,2.61,11.92,8.08Zm-6.69-20c0-6-1-7.73-5.18-7.73-4.65,0-5.4,1.28-5.4,7.73v16.17c0,5.29,1.68,6.57,5.35,6.57,3.83,0,5.23-2.15,5.23-6.57Z"/><path class="cls-1" d="M963.72,702.37c0,4.94-2.39,8.14-8.26,8.67v4H952.2v-4c-6.39-.29-7.91-2.68-7.91-10.06h5.29c0,3.19.24,4.47,2.62,4.82V695.74l-.64-.41c-3.72-2.61-7.5-4.76-7.5-10.23,0-4.53,2-8,8.14-8.49v-4.13h3.26v4.13c6.39.29,7.73,2.56,7.73,9.48H958c0-3.32-.82-4.13-2.5-4.3V691l2.27,1.46c3.37,2.15,5.52,5.11,5.87,8C963.66,701.09,963.72,701.73,963.72,702.37ZM952.2,681.84c-1.92.35-2.5,1.52-2.5,3.2,0,1.22.29,2,2.5,3.72Zm3.26,16.23v7.73c2.09-.35,2.56-1.45,2.56-3.55C958,700.74,957.84,699.87,955.46,698.07Z"/><path class="cls-1" d="M1000.91,719.74l-10.27,6.38c-3.89,2.39-6.19,5.09-6.19,9.18v3.19h17.06c3,0,4.09-1.6,4.09-4.49v-4h10.47v18.25H972.88V732.41c0-5.29,3.19-10.88,11.07-16.07l7.18-4.68c12-7.78,13.87-11.57,13.87-16.46,0-3.79-.7-9.48-9.78-9.48-10.77,0-10.27,7.68-10.27,12.37v1.7H973.68c0-12.17.9-25.24,22.24-25.24,18.75,0,21.55,8.08,21.55,16.86C1017.47,705.37,1014.67,711.16,1000.91,719.74Z"/><path class="cls-1" d="M1034.58,714.18a.82.82,0,0,1-.87.87h-5.18a.82.82,0,0,1-.87-.87V709a.82.82,0,0,1,.87-.87h5.18a.82.82,0,0,1,.87.87Z"/><path class="cls-1" d="M1054.59,715.8c-10.76,0-12.51-7.38-12.51-10.64H1049c0,2.56,1.86,4.31,5.64,4.31,5.11,0,6.57-2.56,6.57-7.27,0-5.53-2.5-7.5-6.17-7.5a6.08,6.08,0,0,0-5.58,3.13h-6.51V672.6H1067V682h-5.35V681c0-1.4-1-2.38-2.73-2.38h-8.78c-.64,0-1,.46-1,1.16v10.81c1.34-1.33,4.07-2.26,6.74-2.26,3.2,0,12,2,12,13.26C1068,709.87,1065.87,715.8,1054.59,715.8Z"/><path class="cls-1" d="M1098,706.44c0,8.08-4.65,9.36-12,9.36-10,0-12.1-2.32-12.1-9.36V680.27c0-5.46,3.09-8.08,12.16-8.08,7.85,0,11.92,2.62,11.92,8.08Zm-6.69-20c0-6.05-1-7.74-5.18-7.74-4.65,0-5.4,1.28-5.4,7.74V702.6c0,5.3,1.68,6.57,5.35,6.57,3.83,0,5.23-2.15,5.23-6.57Z"/><path class="cls-1" d="M963.72,822.07c0,4.94-2.39,8.14-8.26,8.66v4H952.2v-4c-6.39-.29-7.91-2.67-7.91-10.06h5.29c0,3.2.24,4.48,2.62,4.83V815.44l-.64-.41c-3.72-2.61-7.5-4.77-7.5-10.23,0-4.54,2-8,8.14-8.49v-4.13h3.26v4.13c6.39.29,7.73,2.56,7.73,9.48H958c0-3.32-.82-4.13-2.5-4.31v9.25l2.27,1.45c3.37,2.15,5.52,5.12,5.87,8C963.66,820.79,963.72,821.43,963.72,822.07ZM952.2,801.54c-1.92.35-2.5,1.51-2.5,3.2,0,1.22.29,2,2.5,3.72Zm3.26,16.22v7.74c2.09-.35,2.56-1.46,2.56-3.55C958,820.44,957.84,819.57,955.46,817.76Z"/><path class="cls-1" d="M1000.91,839.43l-10.27,6.39c-3.89,2.39-6.19,5.08-6.19,9.17v3.19h17.06c3,0,4.09-1.59,4.09-4.48v-4h10.47V868H972.88V852.1c0-5.29,3.19-10.87,11.07-16.06l7.18-4.69c12-7.78,13.87-11.57,13.87-16.45,0-3.8-.7-9.48-9.78-9.48-10.77,0-10.27,7.68-10.27,12.37v1.69H973.68c0-12.17.9-25.23,22.24-25.23,18.75,0,21.55,8.08,21.55,16.85C1017.47,825.07,1014.67,830.85,1000.91,839.43Z"/><path class="cls-1" d="M1034.58,833.87a.83.83,0,0,1-.87.88h-5.18a.83.83,0,0,1-.87-.88V828.7a.82.82,0,0,1,.87-.87h5.18a.82.82,0,0,1,.87.87Z"/><path class="cls-1" d="M1054.59,835.5c-10.76,0-12.51-7.38-12.51-10.64H1049c0,2.56,1.86,4.3,5.64,4.3,5.11,0,6.57-2.56,6.57-7.27,0-5.52-2.5-7.5-6.17-7.5a6.08,6.08,0,0,0-5.58,3.14h-6.51V792.29H1067v9.37h-5.35v-.93c0-1.4-1-2.39-2.73-2.39h-8.78c-.64,0-1,.47-1,1.16v10.82c1.34-1.34,4.07-2.27,6.74-2.27,3.2,0,12,2,12,13.26C1068,829.57,1065.87,835.5,1054.59,835.5Z"/><path class="cls-1" d="M1098,826.14c0,8.08-4.65,9.36-12,9.36-10,0-12.1-2.33-12.1-9.36V800c0-5.47,3.09-8.08,12.16-8.08,7.85,0,11.92,2.61,11.92,8.08Zm-6.69-20c0-6-1-7.73-5.18-7.73-4.65,0-5.4,1.28-5.4,7.73V822.3c0,5.29,1.68,6.57,5.35,6.57,3.83,0,5.23-2.15,5.23-6.57Z"/><path class="cls-1" d="M963.72,941.76c0,5-2.39,8.14-8.26,8.67v4H952.2v-4c-6.39-.29-7.91-2.68-7.91-10.06h5.29c0,3.2.24,4.47,2.62,4.82V935.13l-.64-.4c-3.72-2.62-7.5-4.77-7.5-10.24,0-4.53,2-8,8.14-8.49v-4.13h3.26V916c6.39.29,7.73,2.56,7.73,9.48H958c0-3.31-.82-4.13-2.5-4.3v9.24l2.27,1.46c3.37,2.15,5.52,5.12,5.87,8C963.66,940.48,963.72,941.12,963.72,941.76ZM952.2,921.24c-1.92.34-2.5,1.51-2.5,3.19,0,1.23.29,2,2.5,3.73Zm3.26,16.22v7.73c2.09-.35,2.56-1.45,2.56-3.54C958,940.13,957.84,939.26,955.46,937.46Z"/><path class="cls-1" d="M993.73,989c-22.15,0-22.24-11.57-22.24-24.34h12.16c0,7.48,1,13.57,10.28,13.57,8.88,0,10.17-5.09,10.17-11.17,0-7.08-3-10.38-11.27-10.38h-5.19V944.86h4.89c7.18,0,11.37-1.49,11.37-12.16,0-6.19-3.89-7.59-10-7.59-8.28,0-10.38,3.89-10.38,13.37H971.68c0-12.37,2.3-24.34,21.85-24.34,16.46,0,22,3.79,22,18,0,15-4,17.25-10.37,17.65,6.48,1.2,11.07,2.79,11.07,18.85C1016.27,985.06,1008.09,989,993.73,989Z"/><path class="cls-1" d="M1033,953.57a.82.82,0,0,1-.87.87h-5.18a.82.82,0,0,1-.87-.87v-5.18a.82.82,0,0,1,.87-.87h5.18a.82.82,0,0,1,.87.87Z"/><path class="cls-1" d="M1053,955.2c-10.76,0-12.5-7.39-12.5-10.65h6.86c0,2.56,1.86,4.31,5.64,4.31,5.12,0,6.57-2.56,6.57-7.27,0-5.53-2.5-7.5-6.16-7.5a6.08,6.08,0,0,0-5.58,3.14h-6.52V912h24.14v9.36h-5.35v-.93c0-1.39-1-2.38-2.74-2.38h-8.78c-.64,0-1,.46-1,1.16V930c1.34-1.34,4.07-2.27,6.75-2.27,3.2,0,12,2,12,13.26C1066.37,949.26,1064.27,955.2,1053,955.2Z"/><path class="cls-1" d="M1096.37,945.83c0,8.09-4.65,9.37-12,9.37-9.94,0-12.09-2.33-12.09-9.37V919.67c0-5.47,3.08-8.09,12.15-8.09,7.85,0,11.92,2.62,11.92,8.09Zm-6.69-20c0-6.05-1-7.74-5.17-7.74-4.65,0-5.41,1.28-5.41,7.74V942c0,5.29,1.69,6.57,5.35,6.57,3.84,0,5.23-2.15,5.23-6.57Z"/></g></g></g></g></g></svg>