<svg xmlns="http://www.w3.org/2000/svg" viewBox="0 0 1109.37 1007.9"><defs><style>.cls-1{fill:#333;}.cls-2{fill:#e6e6e6;stroke:#333;stroke-linecap:round;stroke-linejoin:round;stroke-width:16px;}</style></defs><g id="Layer_2" data-name="Layer 2"><g id="Layer_1-2" data-name="Layer 1"><g id="Columns"><g id="Right_Column" data-name="Right Column"><g id="Salads"><path class="cls-1" d="M101.87,326.09H98l-1.81-22h-.13l-8.51,22.24H85.32L76.8,304.09h-.12l-1.77,22H71l2.5-27.85h4.85l8,21.51h.08l8-21.51h4.8Z"/><path class="cls-1" d="M112.35,303a2.38,2.38,0,1,1,2.51-2.38A2.37,2.37,0,0,1,112.35,303Zm1.94,23.09h-3.87V306.92h3.87Z"/><path class="cls-1" d="M141.09,326.09h-4.36L131,318.3l-5.69,7.79H121L128.78,316l-6.9-9.08h4.27l4.89,6.9,4.88-6.9h4.32L133.3,316Z"/><path class="cls-1" d="M164.21,317.41H149.44c.2,3.8,2.62,6.1,6.17,6.1a10.66,10.66,0,0,0,6.34-2.22l1.61,2.22c-.24.2-2.7,3-8.43,3s-9.61-3.95-9.61-10a9.51,9.51,0,0,1,9.73-9.92,8.75,8.75,0,0,1,9.08,9.16A16.88,16.88,0,0,1,164.21,317.41Zm-3.55-2.58a5.54,5.54,0,0,0-5.53-5.49,5.64,5.64,0,0,0-5.65,5.49Z"/><path class="cls-1" d="M190.64,326.09h-3.71V323h-.08a7.81,7.81,0,0,1-6.74,3.51c-5.69,0-9.33-4.36-9.33-10s3.64-9.92,9.24-9.92a7.74,7.74,0,0,1,6.7,3.35h.08V298.24h3.84Zm-9.81-16.39c-3.83,0-6.09,2.91-6.09,6.74s2.26,6.78,6.09,6.78,6.1-2.94,6.1-6.78S184.67,309.7,180.83,309.7Z"/><path class="cls-1" d="M230.59,322.05c0,4.24-.69,6.58-2.1,8.28S224.7,334,219.93,334a14.63,14.63,0,0,1-8.55-2.87l1.81-2.7a12.14,12.14,0,0,0,6.86,2.42c2.87,0,4.48-1.13,5.25-2.1a8.57,8.57,0,0,0,1.45-5.36v-1h-.08a7.7,7.7,0,0,1-6.7,3.43c-4.92,0-9.24-3.55-9.24-9.65s4.32-9.64,9.24-9.64a7.65,7.65,0,0,1,6.7,3.39h.12l0-3h3.84Zm-9.81-12.39c-3.91,0-6.09,2.91-6.09,6.54s2.18,6.5,6.09,6.5,6.09-2.87,6.09-6.5S224.74,309.66,220.78,309.66Z"/><path class="cls-1" d="M250.32,310.47h-.16a5.15,5.15,0,0,0-2.1-.4,4,4,0,0,0-3.15,1.61,8.54,8.54,0,0,0-1.17,4.84v9.57h-3.87V306.92h3.87l0,2.95h.12a5,5,0,0,1,4.72-3.31,5.46,5.46,0,0,1,2,.32Z"/><path class="cls-1" d="M274.09,317.41H259.32c.2,3.8,2.62,6.1,6.17,6.1a10.66,10.66,0,0,0,6.34-2.22l1.61,2.22c-.24.2-2.7,3-8.43,3s-9.61-3.95-9.61-10a9.51,9.51,0,0,1,9.73-9.92,8.75,8.75,0,0,1,9.08,9.16A16.88,16.88,0,0,1,274.09,317.41Zm-3.55-2.58a5.54,5.54,0,0,0-5.53-5.49,5.64,5.64,0,0,0-5.65,5.49Z"/><path class="cls-1" d="M299.35,317.41H284.58c.2,3.8,2.62,6.1,6.17,6.1a10.66,10.66,0,0,0,6.34-2.22l1.61,2.22c-.24.2-2.7,3-8.43,3s-9.61-3.95-9.61-10a9.51,9.51,0,0,1,9.73-9.92,8.75,8.75,0,0,1,9.08,9.16A16.88,16.88,0,0,1,299.35,317.41Zm-3.56-2.58a5.53,5.53,0,0,0-5.52-5.49,5.64,5.64,0,0,0-5.65,5.49Z"/><path class="cls-1" d="M323.88,326.09H320v-10.7c0-3.22-.57-5.65-4-5.65-3.59,0-4.92,3-4.92,6.7v9.65h-3.88V306.92h3.88l0,3h.12a6.47,6.47,0,0,1,5.85-3.39c5.45,0,6.86,3.59,6.86,8.19Z"/><path class="cls-1" d="M343.89,324.84a8.15,8.15,0,0,1-5.32,1.69,9.18,9.18,0,0,1-7.47-3.43l1.86-2.26a7.85,7.85,0,0,0,5.65,2.75c1.77,0,3.67-.65,3.67-2.75s-3-2.74-4.32-3.19a14.46,14.46,0,0,1-2.62-1,5,5,0,0,1-3-4.61c0-3.55,3.07-5.48,6.46-5.48a8.4,8.4,0,0,1,6.54,2.5l-1.62,2.38a7,7,0,0,0-4.84-2.06c-1.86,0-3.07.81-3.07,2.38s1.86,2.26,3.76,2.87c1,.36,1.77.6,2.58.93a7.32,7.32,0,0,1,2.22,1.37,4.74,4.74,0,0,1,1.53,3.55A5.43,5.43,0,0,1,343.89,324.84Z"/><path class="cls-1" d="M360.16,321.81l-3.72,9.93h-3.07l2.83-9.93Z"/><path class="cls-1" d="M390.9,325.89a9.76,9.76,0,0,1-3.51.64,4.48,4.48,0,0,1-4.07-2c-.81-1.21-1-2.71-1-5.73v-8.76h-2.83V307h2.83v-5.73h3.87V307h4.6v3.11h-4.6v8.67a7.48,7.48,0,0,0,.49,3.52,2,2,0,0,0,2,1,4.73,4.73,0,0,0,2-.44Z"/><path class="cls-1" d="M406.52,326.53c-5.73,0-10.17-4-10.17-10a10.15,10.15,0,0,1,20.3,0C416.65,322.54,412.21,326.53,406.52,326.53Zm0-16.83c-3.87,0-6.26,3-6.26,6.74s2.39,6.78,6.26,6.78,6.22-3,6.22-6.78S410.35,309.7,406.52,309.7Z"/><path class="cls-1" d="M452.36,326.09h-3.83V314.91c0-2.22-.4-5.17-3.51-5.17s-4.6,2.95-4.6,6.38v10h-3.88V314.91c0-2.83-.68-5.17-3.47-5.17-3.07,0-4.6,2.95-4.6,6.38v10H424.6V306.92h3.87l0,3h.12a6.32,6.32,0,0,1,5.53-3.39,5.53,5.53,0,0,1,5.69,3.79,6.65,6.65,0,0,1,6.1-3.79c5.12,0,6.49,3.75,6.49,7.91Z"/><path class="cls-1" d="M476.33,326.09h-3.75l0-2.42a7.92,7.92,0,0,1-6.1,2.86c-3.55,0-6.62-2.22-6.62-5.93s3.07-5.65,7.51-5.85l5.13-.2v-.77c0-2.91-2-4.36-4.77-4.36a11.72,11.72,0,0,0-5.77,1.66l-1.17-2.59a14.9,14.9,0,0,1,7.19-1.93c3.18,0,5,.88,6.33,2.18s2.06,2.94,2.06,6.21Zm-3.83-9.2-4.48.28c-3.11.16-4.36,1.49-4.36,3.31s1.41,3.31,3.95,3.31A6,6,0,0,0,472.5,321Z"/><path class="cls-1" d="M494.53,325.89a9.76,9.76,0,0,1-3.51.64,4.51,4.51,0,0,1-4.08-2c-.81-1.21-1-2.71-1-5.73v-8.76h-2.82V307H486v-5.73h3.88V307h4.6v3.11h-4.6v8.67a7.63,7.63,0,0,0,.48,3.52,2,2,0,0,0,2,1,4.73,4.73,0,0,0,2-.44Z"/><path class="cls-1" d="M510.15,326.53c-5.74,0-10.18-4-10.18-10s4.44-10,10.18-10a9.76,9.76,0,0,1,10.13,10C520.28,322.54,515.84,326.53,510.15,326.53Zm0-16.83c-3.88,0-6.26,3-6.26,6.74s2.38,6.78,6.26,6.78,6.21-3,6.21-6.78S514,309.7,510.15,309.7Z"/><path class="cls-1" d="M534,321.81l-3.71,9.93h-3.07l2.83-9.93Z"/><path class="cls-1" d="M565.87,310.47h-.16a5.11,5.11,0,0,0-2.1-.4,4.05,4.05,0,0,0-3.15,1.61,8.54,8.54,0,0,0-1.17,4.84v9.57h-3.87V306.92h3.87l0,2.95h.12a5,5,0,0,1,4.73-3.31,5.46,5.46,0,0,1,2,.32Z"/><path class="cls-1" d="M589.64,317.41H574.87c.2,3.8,2.62,6.1,6.17,6.1a10.6,10.6,0,0,0,6.34-2.22l1.62,2.22c-.25.2-2.71,3-8.44,3s-9.61-3.95-9.61-10a9.51,9.51,0,0,1,9.73-9.92,8.75,8.75,0,0,1,9.08,9.16A16.88,16.88,0,0,1,589.64,317.41Zm-3.55-2.58a5.54,5.54,0,0,0-5.53-5.49,5.64,5.64,0,0,0-5.65,5.49Z"/><path class="cls-1" d="M616.07,326.09h-3.71V323h-.08a7.81,7.81,0,0,1-6.74,3.51c-5.69,0-9.33-4.36-9.33-10s3.64-9.92,9.25-9.92a7.74,7.74,0,0,1,6.7,3.35h.08V298.24h3.83Zm-9.81-16.39c-3.83,0-6.09,2.91-6.09,6.74s2.26,6.78,6.09,6.78,6.1-2.94,6.1-6.78S610.1,309.7,606.26,309.7Z"/><path class="cls-1" d="M646.33,326.53c-5.73,0-10.17-4-10.17-10a10.15,10.15,0,0,1,20.3,0C656.46,322.54,652,326.53,646.33,326.53Zm0-16.83c-3.87,0-6.25,3-6.25,6.74s2.38,6.78,6.25,6.78,6.22-3,6.22-6.78S650.17,309.7,646.33,309.7Z"/><path class="cls-1" d="M681.08,326.09H677.2v-10.7c0-3.22-.56-5.65-4-5.65-3.59,0-4.93,3-4.93,6.7v9.65h-3.87V306.92h3.87l0,3h.13a6.45,6.45,0,0,1,5.85-3.39c5.45,0,6.86,3.59,6.86,8.19Z"/><path class="cls-1" d="M692.25,303a2.38,2.38,0,1,1,2.51-2.38A2.37,2.37,0,0,1,692.25,303Zm1.94,23.09h-3.87V306.92h3.87Z"/><path class="cls-1" d="M712.47,326.53c-5.73,0-10.17-4-10.17-10a10.15,10.15,0,0,1,20.3,0C722.6,322.54,718.16,326.53,712.47,326.53Zm0-16.83c-3.87,0-6.26,3-6.26,6.74s2.39,6.78,6.26,6.78,6.22-3,6.22-6.78S716.3,309.7,712.47,309.7Z"/><path class="cls-1" d="M747.22,326.09h-3.88v-10.7c0-3.22-.56-5.65-4-5.65-3.6,0-4.93,3-4.93,6.7v9.65h-3.87V306.92h3.87l0,3h.12a6.47,6.47,0,0,1,5.85-3.39c5.45,0,6.87,3.59,6.87,8.19Z"/><path class="cls-1" d="M762.87,321.81l-3.71,9.93h-3.07l2.83-9.93Z"/><path class="cls-1" d="M799.19,326.09h-3.76l0-2.42a7.88,7.88,0,0,1-6.09,2.86c-3.55,0-6.62-2.22-6.62-5.93s3.07-5.65,7.51-5.85l5.12-.2v-.77c0-2.91-2-4.36-4.76-4.36a11.72,11.72,0,0,0-5.77,1.66l-1.17-2.59a14.85,14.85,0,0,1,7.18-1.93c3.19,0,5.05.88,6.34,2.18s2.06,2.94,2.06,6.21Zm-3.84-9.2-4.48.28c-3.1.16-4.35,1.49-4.35,3.31s1.41,3.31,4,3.31a6,6,0,0,0,4.88-2.79Z"/><path class="cls-1" d="M824.73,326.09h-3.87v-10.7c0-3.22-.57-5.65-4-5.65-3.59,0-4.92,3-4.92,6.7v9.65h-3.88V306.92h3.88l0,3H812a6.47,6.47,0,0,1,5.85-3.39c5.45,0,6.86,3.59,6.86,8.19Z"/><path class="cls-1" d="M852.37,326.09h-3.71V323h-.08a7.81,7.81,0,0,1-6.74,3.51c-5.69,0-9.32-4.36-9.32-10s3.63-9.92,9.24-9.92a7.74,7.74,0,0,1,6.7,3.35h.08V298.24h3.83Zm-9.8-16.39c-3.84,0-6.1,2.91-6.1,6.74s2.26,6.78,6.1,6.78,6.09-2.94,6.09-6.78S846.4,309.7,842.57,309.7Z"/><path class="cls-1" d="M889.82,323.63c-.57.56-2.54,2.9-7.67,2.9a10,10,0,0,1,.12-20c5.13,0,7.23,2.5,7.43,2.74l-1.37,2.82a7.62,7.62,0,0,0-5.74-2.34c-3.39,0-6.21,2.59-6.21,6.62s2.54,6.82,6.25,6.82a8,8,0,0,0,5.82-2.42Z"/><path class="cls-1" d="M913.14,326.09h-3.75l0-2.74a6.69,6.69,0,0,1-5.93,3.18c-2.75,0-4.32-.92-5.33-2.22s-1.41-3.18-1.41-5.93v-11.5h3.83v11.34c0,2.62.57,5.08,4,5.08s4.76-2.9,4.76-6.13V306.88h3.87Z"/><path class="cls-1" d="M938.44,323.63c-.56.56-2.54,2.9-7.66,2.9a10,10,0,0,1,.12-20c5.12,0,7.22,2.5,7.42,2.74L937,312.12a7.59,7.59,0,0,0-5.73-2.34c-3.39,0-6.22,2.59-6.22,6.62s2.55,6.82,6.26,6.82a8,8,0,0,0,5.81-2.42Z"/><path class="cls-1" d="M961.77,326.09H958l0-2.74a6.69,6.69,0,0,1-5.93,3.18c-2.74,0-4.32-.92-5.33-2.22s-1.41-3.18-1.41-5.93v-11.5h3.83v11.34c0,2.62.57,5.08,4,5.08s4.76-2.9,4.76-6.13V306.88h3.88Z"/><path class="cls-1" d="M998.77,326.09h-3.83V314.91c0-2.22-.41-5.17-3.51-5.17s-4.6,2.95-4.6,6.38v10H983V314.91c0-2.83-.69-5.17-3.47-5.17-3.07,0-4.6,2.95-4.6,6.38v10H971V306.92h3.88l0,3H975a6.32,6.32,0,0,1,5.53-3.39,5.53,5.53,0,0,1,5.69,3.79,6.65,6.65,0,0,1,6.09-3.79c5.13,0,6.5,3.75,6.5,7.91Z"/><path class="cls-1" d="M1018.58,326.53a7.78,7.78,0,0,1-6.74-3.47h-.08v3h-3.71V298.24h3.83v11.67h.08a7.83,7.83,0,0,1,6.7-3.35c5.61,0,9.25,4.27,9.25,9.92S1024.27,326.53,1018.58,326.53Zm-.72-16.83c-3.84,0-6.14,2.91-6.14,6.74s2.3,6.78,6.14,6.78,6.09-2.94,6.09-6.78S1021.69,309.7,1017.86,309.7Z"/><path class="cls-1" d="M1053.25,317.41h-14.78c.21,3.8,2.63,6.1,6.18,6.1a10.66,10.66,0,0,0,6.34-2.22l1.61,2.22c-.24.2-2.7,3-8.44,3s-9.6-3.95-9.6-10a9.51,9.51,0,0,1,9.73-9.92,8.75,8.75,0,0,1,9.08,9.16A16.88,16.88,0,0,1,1053.25,317.41Zm-3.56-2.58a5.54,5.54,0,0,0-5.53-5.49,5.64,5.64,0,0,0-5.65,5.49Z"/><path class="cls-1" d="M1071.56,310.47h-.16a5.11,5.11,0,0,0-2.1-.4,4,4,0,0,0-3.14,1.61,8.46,8.46,0,0,0-1.17,4.84v9.57h-3.88V306.92H1065l0,2.95h.12a5,5,0,0,1,4.72-3.31,5.46,5.46,0,0,1,2,.32Z"/><path class="cls-1" d="M1081.49,321.81l-3.71,9.93h-3.07l2.83-9.93Z"/><path class="cls-1" d="M99.53,355.34l-6.34,19.17H89.64l-5-14.32-5.08,14.32H76l-6.34-19.17h3.91L78,369.83l5-14.53h3.11l5,14.53,4.44-14.49Z"/><path class="cls-1" d="M108.6,351.43a2.38,2.38,0,1,1,2.5-2.38A2.38,2.38,0,0,1,108.6,351.43Zm1.94,23.08h-3.88V355.34h3.88Z"/><path class="cls-1" d="M129.26,374.31a9.63,9.63,0,0,1-3.51.65,4.51,4.51,0,0,1-4.08-2c-.8-1.21-1-2.7-1-5.73v-8.76h-2.83v-3.11h2.83v-5.73h3.87v5.73h4.6v3.11h-4.6v8.68a7.61,7.61,0,0,0,.48,3.51,2,2,0,0,0,2,1,4.64,4.64,0,0,0,2-.45Z"/><path class="cls-1" d="M153.27,374.51H149.4V363.66c0-2.75-.45-5.49-4-5.49s-5,3-5,6.86v9.48H136.6V346.67h3.84v11.7h.08a6.54,6.54,0,0,1,5.89-3.39c5.53,0,6.86,3.55,6.86,8.11Z"/><path class="cls-1" d="M191.12,355.34l-9.24,22.52c-1.33,3.31-2.91,4.44-5,4.44a9.63,9.63,0,0,1-3.64-.68l.77-3.15a6.13,6.13,0,0,0,2,.44c.8,0,1.65.08,2.5-2.26l.93-2.54-7.67-18.81,4,0,5.69,14.89,5.65-14.93Z"/><path class="cls-1" d="M206.09,375c-5.73,0-10.17-4-10.17-10a10.15,10.15,0,0,1,20.3,0C216.22,371,211.78,375,206.09,375Zm0-16.83c-3.87,0-6.25,3-6.25,6.74s2.38,6.78,6.25,6.78,6.22-3,6.22-6.78S209.93,358.13,206.09,358.13Z"/><path class="cls-1" d="M240.47,374.51h-3.75l0-2.74a6.7,6.7,0,0,1-5.93,3.19c-2.75,0-4.32-.93-5.33-2.22S224,369.55,224,366.8V355.3h3.83v11.34c0,2.63.57,5.09,4,5.09s4.76-2.91,4.76-6.14V355.3h3.87Z"/><path class="cls-1" d="M260.17,358.89H260a5.11,5.11,0,0,0-2.1-.4,4,4,0,0,0-3.14,1.61,8.47,8.47,0,0,0-1.17,4.85v9.56h-3.88V355.34h3.88l0,3h.12a5,5,0,0,1,4.72-3.31,5.46,5.46,0,0,1,2,.32Z"/><path class="cls-1" d="M295.15,372.05c-.56.57-2.54,2.91-7.67,2.91a10,10,0,0,1,.12-20c5.13,0,7.23,2.5,7.43,2.74l-1.37,2.83a7.55,7.55,0,0,0-5.73-2.34c-3.39,0-6.22,2.58-6.22,6.62s2.54,6.82,6.26,6.82a8,8,0,0,0,5.81-2.42Z"/><path class="cls-1" d="M319,374.51h-3.88V363.66c0-2.75-.44-5.49-4-5.49s-5,3-5,6.86v9.48h-3.83V346.67h3.83v11.7h.09a6.52,6.52,0,0,1,5.89-3.39c5.53,0,6.86,3.55,6.86,8.11Z"/><path class="cls-1" d="M337.08,375c-5.74,0-10.18-4-10.18-10s4.44-10,10.18-10a9.76,9.76,0,0,1,10.13,10C347.21,371,342.77,375,337.08,375Zm0-16.83c-3.88,0-6.26,3-6.26,6.74s2.38,6.78,6.26,6.78,6.21-3,6.21-6.78S340.91,358.13,337.08,358.13Z"/><path class="cls-1" d="M357.25,351.43a2.38,2.38,0,1,1,2.5-2.38A2.38,2.38,0,0,1,357.25,351.43Zm1.94,23.08h-3.88V355.34h3.88Z"/><path class="cls-1" d="M384.65,372.05c-.56.57-2.54,2.91-7.67,2.91a10,10,0,0,1,.12-20c5.13,0,7.23,2.5,7.43,2.74l-1.37,2.83a7.55,7.55,0,0,0-5.73-2.34c-3.39,0-6.22,2.58-6.22,6.62s2.54,6.82,6.26,6.82a8,8,0,0,0,5.81-2.42Z"/><path class="cls-1" d="M409.06,365.83H394.29c.21,3.8,2.63,6.1,6.18,6.1a10.59,10.59,0,0,0,6.33-2.22l1.62,2.22c-.24.2-2.71,3-8.44,3s-9.6-4-9.6-10A9.51,9.51,0,0,1,400.1,355a8.76,8.76,0,0,1,9.09,9.16A15.34,15.34,0,0,1,409.06,365.83Zm-3.55-2.58a5.54,5.54,0,0,0-5.53-5.49,5.64,5.64,0,0,0-5.65,5.49Z"/><path class="cls-1" d="M437.75,375c-5.73,0-10.17-4-10.17-10a10.15,10.15,0,0,1,20.3,0C447.88,371,443.44,375,437.75,375Zm0-16.83c-3.87,0-6.25,3-6.25,6.74s2.38,6.78,6.25,6.78,6.22-3,6.22-6.78S441.59,358.13,437.75,358.13Z"/><path class="cls-1" d="M465.52,349.53a8,8,0,0,0-2.18-.36c-2.55,0-2.95,1.89-2.95,4.07v2.14H465v3.11h-4.56v16h-3.83v-16h-2.75v-3.11h2.75v-1.93c0-2.51.48-4.12,1.29-5.13a5.81,5.81,0,0,1,4.6-2.1,9.5,9.5,0,0,1,3.31.45Z"/><path class="cls-1" d="M502,374.51h-4.73l-7.26-12h-3v12h-3.91V346.67H491a10.69,10.69,0,0,1,6.7,1.93,7.77,7.77,0,0,1-3.64,13.52Zm-7.43-23.65c-1.25-.93-2.74-1-4.68-1h-2.87v9.45h2.87c1.94,0,3.43-.08,4.68-1a4.22,4.22,0,0,0,1.78-3.75A4.15,4.15,0,0,0,494.61,350.86Z"/><path class="cls-1" d="M523.34,374.51h-3.75l0-2.42a7.92,7.92,0,0,1-6.1,2.87c-3.55,0-6.62-2.22-6.62-5.94s3.07-5.65,7.51-5.85l5.13-.2v-.77c0-2.9-2-4.36-4.76-4.36a11.84,11.84,0,0,0-5.78,1.66l-1.17-2.58A14.78,14.78,0,0,1,515,355c3.18,0,5,.89,6.33,2.18s2.06,2.94,2.06,6.21Zm-3.83-9.2-4.48.28c-3.11.16-4.36,1.5-4.36,3.31s1.41,3.31,3.95,3.31a6,6,0,0,0,4.89-2.78Z"/><path class="cls-1" d="M548.88,374.51H545V363.82c0-3.23-.57-5.65-4-5.65-3.59,0-4.92,3-4.92,6.7v9.64h-3.87V355.34h3.87l0,3h.12A6.47,6.47,0,0,1,542,355c5.45,0,6.86,3.59,6.86,8.19Z"/><path class="cls-1" d="M574,372.05c-.56.57-2.54,2.91-7.66,2.91a10,10,0,0,1,.12-20c5.12,0,7.22,2.5,7.42,2.74l-1.37,2.83a7.55,7.55,0,0,0-5.73-2.34c-3.39,0-6.22,2.58-6.22,6.62s2.55,6.82,6.26,6.82a8,8,0,0,0,5.81-2.42Z"/><path class="cls-1" d="M597.91,374.51H594V363.66c0-2.75-.45-5.49-4-5.49s-5,3-5,6.86v9.48h-3.84V346.67h3.84v11.7h.08a6.54,6.54,0,0,1,5.89-3.39c5.53,0,6.86,3.55,6.86,8.11Z"/><path class="cls-1" d="M627.89,375c-5.73,0-10.17-4-10.17-10a10.15,10.15,0,0,1,20.3,0C638,371,633.58,375,627.89,375Zm0-16.83c-3.87,0-6.25,3-6.25,6.74s2.38,6.78,6.25,6.78,6.22-3,6.22-6.78S631.73,358.13,627.89,358.13Z"/><path class="cls-1" d="M656.42,358.89h-.16a5.11,5.11,0,0,0-2.1-.4A4.05,4.05,0,0,0,651,360.1a8.56,8.56,0,0,0-1.17,4.85v9.56H646V355.34h3.87l0,3h.12a5,5,0,0,1,4.73-3.31,5.37,5.37,0,0,1,2,.32Z"/><path class="cls-1" d="M691.81,372.7c-1.73,1.37-3.95,1.81-7,1.81h-9V346.67h7.5c2.63,0,4.89.2,6.62,1.33a6.18,6.18,0,0,1,3,5.65,6.35,6.35,0,0,1-4.24,6.09v.08c3.76.77,6.18,3.11,6.18,6.78A7.27,7.27,0,0,1,691.81,372.7Zm-4.72-22.16a7.14,7.14,0,0,0-3.84-.77h-3.59v8.84h3.27c1.94,0,3.23-.16,4.16-.85a4.13,4.13,0,0,0,1.86-3.67A3.7,3.7,0,0,0,687.09,350.54Zm1.65,12.07a8.51,8.51,0,0,0-4.88-1h-4.2v9.72h4.2c1.78,0,3.51,0,4.88-1a4.31,4.31,0,0,0,2-3.92A4.18,4.18,0,0,0,688.74,362.61Z"/><path class="cls-1" d="M707,374.51h-3.83V346.67H707Z"/><path class="cls-1" d="M732.73,374.51H729l0-2.74A6.69,6.69,0,0,1,723,375c-2.74,0-4.32-.93-5.33-2.22s-1.41-3.19-1.41-5.94V355.3h3.84v11.34c0,2.63.56,5.09,4,5.09s4.76-2.91,4.76-6.14V355.3h3.88Z"/><path class="cls-1" d="M759.36,365.83H744.59c.2,3.8,2.62,6.1,6.17,6.1a10.6,10.6,0,0,0,6.34-2.22l1.61,2.22c-.24.2-2.7,3-8.43,3s-9.61-4-9.61-10A9.51,9.51,0,0,1,750.4,355a8.75,8.75,0,0,1,9.08,9.16A16.6,16.6,0,0,1,759.36,365.83Zm-3.55-2.58a5.54,5.54,0,0,0-5.53-5.49,5.64,5.64,0,0,0-5.65,5.49Z"/><path class="cls-1" d="M802.42,370.88c-1.74,1.94-4.89,4.12-10.17,4.12-8.12,0-14.25-5.69-14.25-14.37s6.26-14.37,14.25-14.37a13.79,13.79,0,0,1,9.88,3.67l-1.65,3.15a11,11,0,0,0-8.07-3.39c-6,0-10.37,4.32-10.37,10.86s4.4,10.86,10.37,10.86a11,11,0,0,0,8.31-3.4Z"/><path class="cls-1" d="M826.79,374.51h-3.88V363.66c0-2.75-.44-5.49-3.95-5.49s-5,3-5,6.86v9.48h-3.83V346.67H814v11.7H814a6.52,6.52,0,0,1,5.89-3.39c5.53,0,6.86,3.55,6.86,8.11Z"/><path class="cls-1" d="M853.34,365.83H838.57c.2,3.8,2.62,6.1,6.17,6.1a10.6,10.6,0,0,0,6.34-2.22l1.62,2.22c-.25.2-2.71,3-8.44,3s-9.61-4-9.61-10a9.51,9.51,0,0,1,9.73-9.93,8.75,8.75,0,0,1,9.08,9.16A16.6,16.6,0,0,1,853.34,365.83Zm-3.55-2.58a5.54,5.54,0,0,0-5.53-5.49,5.64,5.64,0,0,0-5.65,5.49Z"/><path class="cls-1" d="M878.6,365.83H863.83c.2,3.8,2.62,6.1,6.17,6.1a10.6,10.6,0,0,0,6.34-2.22l1.62,2.22c-.25.2-2.71,3-8.44,3s-9.6-4-9.6-10a9.5,9.5,0,0,1,9.72-9.93,8.75,8.75,0,0,1,9.08,9.16A16.6,16.6,0,0,1,878.6,365.83Zm-3.55-2.58a5.54,5.54,0,0,0-5.53-5.49,5.64,5.64,0,0,0-5.65,5.49Z"/><path class="cls-1" d="M897.4,373.26a8.15,8.15,0,0,1-5.32,1.7,9.2,9.2,0,0,1-7.47-3.43l1.86-2.26a7.87,7.87,0,0,0,5.65,2.74c1.77,0,3.67-.65,3.67-2.74s-3-2.75-4.32-3.19a15.18,15.18,0,0,1-2.62-1,5,5,0,0,1-3-4.6c0-3.55,3.07-5.49,6.46-5.49a8.4,8.4,0,0,1,6.54,2.5l-1.62,2.38a7,7,0,0,0-4.84-2.06c-1.86,0-3.07.81-3.07,2.39s1.86,2.26,3.75,2.86c1.05.36,1.78.61,2.59.93a7.52,7.52,0,0,1,2.22,1.37,4.77,4.77,0,0,1,1.53,3.55A5.43,5.43,0,0,1,897.4,373.26Z"/><path class="cls-1" d="M924.48,365.83H909.71c.2,3.8,2.62,6.1,6.17,6.1a10.6,10.6,0,0,0,6.34-2.22l1.62,2.22c-.25.2-2.71,3-8.44,3s-9.61-4-9.61-10a9.51,9.51,0,0,1,9.73-9.93,8.75,8.75,0,0,1,9.08,9.16A16.6,16.6,0,0,1,924.48,365.83Zm-3.55-2.58a5.54,5.54,0,0,0-5.53-5.49,5.64,5.64,0,0,0-5.65,5.49Z"/><path class="cls-1" d="M98.65,211.3c0-8.78-3.1-9.68-9.28-9.68-7,0-9.87,1.2-9.87,26.63,0,24.64,2.89,26.64,9.87,26.64,6.58,0,9.18-1.8,9.18-10v-5.68a1,1,0,0,0-1-1.1H89.37V226.76h20.75c.2,2.69.3,5.58.3,8.48,0,26.93-4.59,31.12-21,31.12-17.66,0-21.25-5.39-21.25-38.11,0-28.92,3.59-38,21.45-38,14.86,0,19.35,3.59,20.65,21.05Z"/><path class="cls-1" d="M167,264.56H155.1l-3.69-16.36a1.24,1.24,0,0,0-1.39-1.09H133.16a1.47,1.47,0,0,0-1.4.89l-3.59,16.66H116.7l16.76-72.91h17.45ZM142,206.11c-.1-.2-.2-.3-.4-.3s-.4.1-.4.3l-7,31a.82.82,0,0,0,.89.9h13a.9.9,0,0,0,1-1Z"/><path class="cls-1" d="M216.85,264.56H204.68l-14.27-27.43a1.08,1.08,0,0,0-1.09-.8h-2.2a.9.9,0,0,0-.9.9v27.33H175.05V191.75H195.4c15.76,0,21.45,6.08,21.45,22.64,0,13.47-4.59,19.55-15,21.35Zm-24.44-62.34h-4.69c-1,0-1.5.3-1.5,1.2v20.94a1.07,1.07,0,0,0,1.1,1.2h5.09c10.87,0,13.06-3,13.06-11.17C205.47,205.81,204.28,202.22,192.41,202.22Z"/><path class="cls-1" d="M246,264.56H225.52V191.75H246c12.37,0,21.35,4.88,21.35,36.6C267.32,256.18,259.14,264.56,246,264.56Zm-3-62.34h-4.79c-.8,0-1.3.4-1.3,1.2v49.37a1,1,0,0,0,1,1.1H243c10.87,0,13-9.38,13-25.54C256,210.1,254.85,202.22,243,202.22Z"/><path class="cls-1" d="M311,264.56H275.79V191.65H311V202H289.66a2.77,2.77,0,0,0-2.49,2.59v19.65a2.5,2.5,0,0,0,2.29,2.5H307v11.37H289.56a2.5,2.5,0,0,0-2.39,2.69v9.88a2.28,2.28,0,0,0,2.29,2.49H311Z"/><path class="cls-1" d="M361.68,264.56H350.3l-18.75-43.29a.54.54,0,0,0-.4-.3.37.37,0,0,0-.4.4v43.19H319.38V191.75h11.37l18.76,43.79a.66.66,0,0,0,.5.4c.1,0,.29-.2.29-.4V191.75h11.38Z"/><path class="cls-1" d="M443,247.11c0,11.87-6.29,19.25-22,19.25-16.85,0-21.34-4.69-21.34-22h11.77c0,8.18.9,10.88,9.57,10.88,8,0,9.68-3,9.68-8.38,0-3.69-.5-5.89-7.68-10.87l-6.68-4.69c-8.38-5.89-16.66-10.18-16.66-22.65,0-10.57,5.28-18.45,21.64-18.45,17,0,20.95,4.49,20.95,20.65H430.7c0-9-3.39-9.68-9.68-9.68-7.08,0-9.27,2.8-9.27,7.58,0,3.4,1,5.69,10.17,11.67l7.58,5C436,229.75,442,235.34,442.77,243,442.87,244.41,443,245.81,443,247.11Z"/><path class="cls-1" d="M498.73,264.56H486.86l-3.69-16.36a1.24,1.24,0,0,0-1.4-1.09H464.91a1.47,1.47,0,0,0-1.4.89l-3.59,16.66H448.45l16.76-72.91h17.46Zm-24.94-58.45c-.1-.2-.2-.3-.4-.3s-.4.1-.4.3l-7,31a.82.82,0,0,0,.9.9h13a.9.9,0,0,0,1-1Z"/><path class="cls-1" d="M543.41,264.56h-37.5V191.75h12.17V251.1c0,2,1.39,3.29,3.59,3.29h21.74Z"/><path class="cls-1" d="M598.67,264.56H586.8l-3.69-16.36a1.24,1.24,0,0,0-1.4-1.09H564.86a1.47,1.47,0,0,0-1.4.89l-3.59,16.66H548.4l16.76-72.91h17.45Zm-24.94-58.45c-.1-.2-.2-.3-.4-.3s-.39.1-.39.3l-7,31a.82.82,0,0,0,.9.9h13a.9.9,0,0,0,1-1Z"/><path class="cls-1" d="M626.8,264.56H606.35V191.75H626.8c12.37,0,21.34,4.88,21.34,36.6C648.14,256.18,640,264.56,626.8,264.56Zm-3-62.34H619c-.8,0-1.3.4-1.3,1.2v49.37a1,1,0,0,0,1,1.1h5.09c10.87,0,13-9.38,13-25.54C636.77,210.1,635.68,202.22,623.81,202.22Z"/><path class="cls-1" d="M97.84,566.27c-1.73,1.94-4.88,4.12-10.17,4.12-8.11,0-14.25-5.69-14.25-14.37s6.26-14.37,14.25-14.37a13.75,13.75,0,0,1,9.89,3.68l-1.66,3.14a11,11,0,0,0-8.07-3.39c-6,0-10.37,4.32-10.37,10.86s4.4,10.86,10.37,10.86a11.08,11.08,0,0,0,8.32-3.39Z"/><path class="cls-1" d="M115.8,554.28h-.17a5.09,5.09,0,0,0-2.09-.4,4,4,0,0,0-3.15,1.62,8.4,8.4,0,0,0-1.17,4.84v9.56h-3.88V550.73h3.88l0,2.95h.12a5,5,0,0,1,4.72-3.31,5.46,5.46,0,0,1,2,.32Z"/><path class="cls-1" d="M124.87,546.82a2.38,2.38,0,1,1,2.51-2.38A2.38,2.38,0,0,1,124.87,546.82Zm1.94,23.08h-3.87V550.73h3.87Z"/><path class="cls-1" d="M147.15,568.65a8.18,8.18,0,0,1-5.33,1.7,9.16,9.16,0,0,1-7.46-3.43l1.85-2.26a7.89,7.89,0,0,0,5.65,2.74c1.78,0,3.67-.65,3.67-2.74s-3-2.75-4.31-3.19a15,15,0,0,1-2.63-1,5,5,0,0,1-3-4.6c0-3.55,3.06-5.49,6.45-5.49a8.4,8.4,0,0,1,6.54,2.5L147,555.25a7,7,0,0,0-4.85-2.06c-1.85,0-3.06.81-3.06,2.39s1.85,2.26,3.75,2.86c1.05.37,1.78.61,2.58.93a7.27,7.27,0,0,1,2.22,1.37,4.74,4.74,0,0,1,1.54,3.55A5.46,5.46,0,0,1,147.15,568.65Z"/><path class="cls-1" d="M167.53,570.35a7.44,7.44,0,0,1-6.62-3.43l0,0v10.53H157V550.73h3.72v3h.08a8.11,8.11,0,0,1,6.82-3.39c5.65,0,9.24,4.24,9.24,9.93S173.22,570.35,167.53,570.35Zm-.73-16.83c-3.83,0-6.09,2.9-6.09,6.74S163,567,166.8,567s6.09-2.95,6.09-6.78S170.63,553.52,166.8,553.52Z"/><path class="cls-1" d="M200.54,550.73l-9.25,22.52c-1.33,3.31-2.9,4.44-5,4.44a9.54,9.54,0,0,1-3.63-.68l.76-3.15a6.13,6.13,0,0,0,2,.44c.81,0,1.66.08,2.5-2.26l.93-2.54-7.67-18.81,4,0,5.69,14.9,5.65-14.94Z"/><path class="cls-1" d="M227.85,570.35c-5.73,0-10.17-4-10.17-10a10.15,10.15,0,0,1,20.3,0C238,566.35,233.54,570.35,227.85,570.35Zm0-16.83c-3.87,0-6.25,3-6.25,6.74S224,567,227.85,567s6.22-3,6.22-6.78S231.69,553.52,227.85,553.52Z"/><path class="cls-1" d="M256.38,554.28h-.16a5.11,5.11,0,0,0-2.1-.4A4,4,0,0,0,251,555.5a8.48,8.48,0,0,0-1.17,4.84v9.56h-3.87V550.73h3.87l0,2.95h.12a5,5,0,0,1,4.73-3.31,5.37,5.37,0,0,1,2,.32Z"/><path class="cls-1" d="M293.87,565.87c0,4.24-.69,6.58-2.1,8.27s-3.79,3.67-8.55,3.67a14.74,14.74,0,0,1-8.56-2.86l1.82-2.7a12.15,12.15,0,0,0,6.86,2.42c2.86,0,4.48-1.13,5.24-2.1A8.62,8.62,0,0,0,290,567.2v-1H290a7.69,7.69,0,0,1-6.7,3.43c-4.93,0-9.25-3.55-9.25-9.64s4.32-9.65,9.25-9.65a7.65,7.65,0,0,1,6.7,3.39h.12l0-3h3.83Zm-9.81-12.39c-3.91,0-6.09,2.9-6.09,6.54s2.18,6.49,6.09,6.49,6.1-2.86,6.1-6.49S288,553.48,284.06,553.48Z"/><path class="cls-1" d="M313.6,554.28h-.16a5.11,5.11,0,0,0-2.1-.4,4,4,0,0,0-3.15,1.62,8.48,8.48,0,0,0-1.17,4.84v9.56h-3.87V550.73H307l0,2.95h.12a5,5,0,0,1,4.73-3.31,5.37,5.37,0,0,1,2,.32Z"/><path class="cls-1" d="M322.68,546.82a2.38,2.38,0,1,1,2.5-2.38A2.38,2.38,0,0,1,322.68,546.82Zm1.94,23.08h-3.88V550.73h3.88Z"/><path class="cls-1" d="M338.05,569.9h-3.83V542.06h3.83Z"/><path class="cls-1" d="M351.53,569.9H347.7V542.06h3.83Z"/><path class="cls-1" d="M378.37,561.23H363.6c.2,3.79,2.62,6.09,6.17,6.09a10.66,10.66,0,0,0,6.34-2.22l1.61,2.22c-.24.2-2.7,3-8.43,3s-9.61-4-9.61-10.05a9.51,9.51,0,0,1,9.73-9.93,8.75,8.75,0,0,1,9.08,9.16A16.91,16.91,0,0,1,378.37,561.23Zm-3.55-2.59a5.54,5.54,0,0,0-5.53-5.48,5.63,5.63,0,0,0-5.65,5.48Z"/><path class="cls-1" d="M404.8,569.9h-3.72v-3.06H401a7.79,7.79,0,0,1-6.74,3.51c-5.69,0-9.32-4.36-9.32-10.05s3.63-9.93,9.24-9.93a7.74,7.74,0,0,1,6.7,3.35H401V542.06h3.84ZM395,553.52c-3.83,0-6.09,2.9-6.09,6.74S391.16,567,395,567s6.09-2.95,6.09-6.78S398.83,553.52,395,553.52Z"/><path class="cls-1" d="M442.24,567.44c-.56.57-2.54,2.91-7.66,2.91a10,10,0,0,1,.12-20c5.12,0,7.22,2.5,7.42,2.74l-1.37,2.83A7.53,7.53,0,0,0,435,553.6c-3.39,0-6.22,2.58-6.22,6.62s2.55,6.82,6.26,6.82a8,8,0,0,0,5.81-2.42Z"/><path class="cls-1" d="M466.13,569.9h-3.87V559.05c0-2.75-.44-5.49-4-5.49s-5,3-5,6.86v9.48h-3.84V542.06h3.84v11.7h.08a6.54,6.54,0,0,1,5.89-3.39c5.53,0,6.86,3.55,6.86,8.11Z"/><path class="cls-1" d="M477.39,546.82a2.38,2.38,0,1,1,2.5-2.38A2.38,2.38,0,0,1,477.39,546.82Zm1.94,23.08h-3.88V550.73h3.88Z"/><path class="cls-1" d="M504.79,567.44c-.56.57-2.54,2.91-7.67,2.91a10,10,0,0,1,.12-20c5.13,0,7.23,2.5,7.43,2.74l-1.37,2.83a7.55,7.55,0,0,0-5.73-2.34c-3.39,0-6.22,2.58-6.22,6.62s2.54,6.82,6.26,6.82a8,8,0,0,0,5.81-2.42Z"/><path class="cls-1" d="M529.16,569.9h-4.52l-6.58-9.28-2.22,2.1v7.18H512V542.06h3.83V558.4l7.83-7.67h4.52l-7.5,7.23Z"/><path class="cls-1" d="M551.76,561.23H537c.2,3.79,2.62,6.09,6.17,6.09a10.6,10.6,0,0,0,6.34-2.22l1.62,2.22c-.25.2-2.71,3-8.44,3s-9.61-4-9.61-10.05a9.51,9.51,0,0,1,9.73-9.93,8.75,8.75,0,0,1,9.08,9.16A16.91,16.91,0,0,1,551.76,561.23Zm-3.55-2.59a5.54,5.54,0,0,0-5.53-5.48,5.64,5.64,0,0,0-5.65,5.48Z"/><path class="cls-1" d="M576.29,569.9h-3.87V559.21c0-3.23-.56-5.65-4-5.65s-4.92,3-4.92,6.7v9.64h-3.87V550.73h3.87l0,3h.12a6.47,6.47,0,0,1,5.85-3.39c5.45,0,6.86,3.59,6.86,8.19Z"/><path class="cls-1" d="M592,565.63l-3.71,9.92h-3.07l2.82-9.92Z"/><path class="cls-1" d="M641.14,569.9h-3.83V558.72c0-2.22-.41-5.16-3.51-5.16s-4.6,2.94-4.6,6.37v10h-3.88V558.72c0-2.82-.69-5.16-3.47-5.16-3.07,0-4.6,2.94-4.6,6.37v10h-3.88V550.73h3.88l0,3h.12a6.32,6.32,0,0,1,5.53-3.39,5.53,5.53,0,0,1,5.69,3.79,6.65,6.65,0,0,1,6.09-3.79c5.13,0,6.5,3.75,6.5,7.91Z"/><path class="cls-1" d="M652.32,546.82a2.38,2.38,0,1,1,2.5-2.38A2.38,2.38,0,0,1,652.32,546.82Zm1.93,23.08h-3.87V550.73h3.87Z"/><path class="cls-1" d="M681.05,569.9h-4.36L671,562.11l-5.69,7.79H661l7.79-10.09-6.9-9.08h4.28l4.88,6.9,4.88-6.9h4.32l-6.94,9.08Z"/><path class="cls-1" d="M704.17,561.23H689.4c.2,3.79,2.62,6.09,6.17,6.09a10.6,10.6,0,0,0,6.34-2.22l1.62,2.22c-.25.2-2.71,3-8.44,3s-9.61-4-9.61-10.05a9.51,9.51,0,0,1,9.73-9.93,8.75,8.75,0,0,1,9.08,9.16A16.91,16.91,0,0,1,704.17,561.23Zm-3.55-2.59a5.54,5.54,0,0,0-5.53-5.48,5.64,5.64,0,0,0-5.65,5.48Z"/><path class="cls-1" d="M730.6,569.9h-3.71v-3.06h-.08a7.81,7.81,0,0,1-6.74,3.51c-5.69,0-9.32-4.36-9.32-10.05s3.63-9.93,9.24-9.93a7.74,7.74,0,0,1,6.7,3.35h.08V542.06h3.83Zm-9.81-16.38c-3.83,0-6.09,2.9-6.09,6.74S717,567,720.79,567s6.1-2.95,6.1-6.78S724.63,553.52,720.79,553.52Z"/><path class="cls-1" d="M770.55,565.87c0,4.24-.69,6.58-2.1,8.27s-3.79,3.67-8.55,3.67a14.74,14.74,0,0,1-8.56-2.86l1.82-2.7a12.15,12.15,0,0,0,6.86,2.42c2.86,0,4.48-1.13,5.24-2.1a8.62,8.62,0,0,0,1.46-5.37v-1h-.08a7.69,7.69,0,0,1-6.7,3.43c-4.93,0-9.25-3.55-9.25-9.64s4.32-9.65,9.25-9.65a7.65,7.65,0,0,1,6.7,3.39h.12l0-3h3.83Zm-9.81-12.39c-3.91,0-6.09,2.9-6.09,6.54s2.18,6.49,6.09,6.49,6.1-2.86,6.1-6.49S764.7,553.48,760.74,553.48Z"/><path class="cls-1" d="M790.28,554.28h-.16a5.11,5.11,0,0,0-2.1-.4,4,4,0,0,0-3.15,1.62,8.48,8.48,0,0,0-1.17,4.84v9.56h-3.87V550.73h3.87l0,2.95h.12a5,5,0,0,1,4.72-3.31,5.39,5.39,0,0,1,2,.32Z"/><path class="cls-1" d="M814.05,561.23H799.28c.2,3.79,2.62,6.09,6.17,6.09a10.66,10.66,0,0,0,6.34-2.22l1.61,2.22c-.24.2-2.7,3-8.43,3s-9.61-4-9.61-10.05a9.51,9.51,0,0,1,9.73-9.93,8.75,8.75,0,0,1,9.08,9.16A16.91,16.91,0,0,1,814.05,561.23Zm-3.55-2.59a5.54,5.54,0,0,0-5.53-5.48,5.63,5.63,0,0,0-5.65,5.48Z"/><path class="cls-1" d="M839.31,561.23H824.54c.2,3.79,2.62,6.09,6.17,6.09a10.63,10.63,0,0,0,6.34-2.22l1.61,2.22c-.24.2-2.7,3-8.43,3s-9.61-4-9.61-10.05a9.51,9.51,0,0,1,9.73-9.93,8.75,8.75,0,0,1,9.08,9.16A16.91,16.91,0,0,1,839.31,561.23Zm-3.55-2.59a5.54,5.54,0,0,0-5.53-5.48,5.63,5.63,0,0,0-5.65,5.48Z"/><path class="cls-1" d="M863.84,569.9H860V559.21c0-3.23-.57-5.65-4-5.65-3.59,0-4.92,3-4.92,6.7v9.64h-3.87V550.73h3.87l0,3h.12a6.47,6.47,0,0,1,5.85-3.39c5.45,0,6.86,3.59,6.86,8.19Z"/><path class="cls-1" d="M883.86,568.65a8.18,8.18,0,0,1-5.33,1.7,9.19,9.19,0,0,1-7.47-3.43l1.86-2.26a7.87,7.87,0,0,0,5.65,2.74c1.78,0,3.67-.65,3.67-2.74s-3-2.75-4.32-3.19a15.18,15.18,0,0,1-2.62-1,5,5,0,0,1-3-4.6c0-3.55,3.07-5.49,6.46-5.49a8.4,8.4,0,0,1,6.54,2.5l-1.61,2.38a7,7,0,0,0-4.85-2.06c-1.85,0-3.06.81-3.06,2.39s1.85,2.26,3.75,2.86c1,.37,1.77.61,2.58.93a7.27,7.27,0,0,1,2.22,1.37,4.74,4.74,0,0,1,1.53,3.55A5.45,5.45,0,0,1,883.86,568.65Z"/><path class="cls-1" d="M900.12,565.63l-3.71,9.92h-3.07l2.82-9.92Z"/><path class="cls-1" d="M930.87,569.7a9.7,9.7,0,0,1-3.51.65,4.51,4.51,0,0,1-4.08-2c-.81-1.21-1-2.7-1-5.73v-8.76h-2.82v-3.11h2.82V545h3.87v5.73h4.61v3.11h-4.61v8.68a7.59,7.59,0,0,0,.49,3.51,2,2,0,0,0,2,1,4.57,4.57,0,0,0,2-.45Z"/><path class="cls-1" d="M946.48,570.35c-5.73,0-10.17-4-10.17-10a10.15,10.15,0,0,1,20.3,0C956.61,566.35,952.17,570.35,946.48,570.35Zm0-16.83c-3.87,0-6.25,3-6.25,6.74s2.38,6.78,6.25,6.78,6.22-3,6.22-6.78S950.32,553.52,946.48,553.52Z"/><path class="cls-1" d="M992.33,569.9h-3.84V558.72c0-2.22-.4-5.16-3.51-5.16s-4.6,2.94-4.6,6.37v10h-3.87V558.72c0-2.82-.69-5.16-3.47-5.16-3.07,0-4.61,2.94-4.61,6.37v10h-3.87V550.73h3.87l0,3h.12a6.32,6.32,0,0,1,5.53-3.39,5.52,5.52,0,0,1,5.69,3.79,6.67,6.67,0,0,1,6.1-3.79c5.12,0,6.5,3.75,6.5,7.91Z"/><path class="cls-1" d="M1016.29,569.9h-3.75l0-2.42a7.9,7.9,0,0,1-6.09,2.87c-3.56,0-6.62-2.22-6.62-5.93s3.06-5.66,7.5-5.86l5.13-.2v-.77c0-2.9-2-4.35-4.76-4.35a11.77,11.77,0,0,0-5.77,1.65l-1.18-2.58a14.78,14.78,0,0,1,7.19-1.94c3.19,0,5,.89,6.34,2.18s2,3,2,6.21Zm-3.83-9.2L1008,561c-3.11.17-4.36,1.5-4.36,3.31s1.41,3.31,4,3.31a6,6,0,0,0,4.88-2.78Z"/><path class="cls-1" d="M1034.49,569.7a9.63,9.63,0,0,1-3.51.65,4.51,4.51,0,0,1-4.08-2c-.8-1.21-1-2.7-1-5.73v-8.76h-2.83v-3.11h2.83V545h3.87v5.73h4.6v3.11h-4.6v8.68a7.61,7.61,0,0,0,.48,3.51,2,2,0,0,0,2,1,4.64,4.64,0,0,0,2-.45Z"/><path class="cls-1" d="M1050.11,570.35c-5.73,0-10.17-4-10.17-10a10.15,10.15,0,0,1,20.3,0C1060.24,566.35,1055.8,570.35,1050.11,570.35Zm0-16.83c-3.88,0-6.26,3-6.26,6.74s2.38,6.78,6.26,6.78,6.21-3,6.21-6.78S1053.94,553.52,1050.11,553.52Z"/><path class="cls-1" d="M1074,565.63l-3.72,9.92h-3.06l2.82-9.92Z"/><path class="cls-1" d="M85.05,602.71h-.16a5.11,5.11,0,0,0-2.1-.41,4,4,0,0,0-3.15,1.62,8.51,8.51,0,0,0-1.17,4.84v9.57H74.59V599.16h3.88l0,2.94h.12a5,5,0,0,1,4.72-3.31,5.31,5.31,0,0,1,2,.33Z"/><path class="cls-1" d="M108.82,609.65H94c.21,3.79,2.63,6.09,6.18,6.09a10.59,10.59,0,0,0,6.34-2.22l1.61,2.22c-.24.21-2.7,3-8.43,3s-9.61-3.95-9.61-10a9.51,9.51,0,0,1,9.73-9.93,8.76,8.76,0,0,1,9.08,9.16A16.91,16.91,0,0,1,108.82,609.65Zm-3.56-2.58a5.53,5.53,0,0,0-5.52-5.49,5.65,5.65,0,0,0-5.66,5.49Z"/><path class="cls-1" d="M135.25,618.33h-3.72v-3.07h-.08a7.79,7.79,0,0,1-6.74,3.51c-5.69,0-9.32-4.36-9.32-10s3.63-9.93,9.24-9.93a7.76,7.76,0,0,1,6.7,3.35h.08V590.48h3.84Zm-9.81-16.39c-3.83,0-6.1,2.91-6.1,6.74s2.27,6.78,6.1,6.78,6.09-3,6.09-6.78S129.27,601.94,125.44,601.94Z"/><path class="cls-1" d="M165.51,618.77c-5.73,0-10.17-4-10.17-10a10.15,10.15,0,0,1,20.3,0C175.64,614.77,171.2,618.77,165.51,618.77Zm0-16.83c-3.88,0-6.26,3-6.26,6.74s2.38,6.78,6.26,6.78,6.21-3,6.21-6.78S169.34,601.94,165.51,601.94Z"/><path class="cls-1" d="M200.25,618.33h-3.87v-10.7c0-3.23-.57-5.65-4-5.65-3.59,0-4.92,3-4.92,6.7v9.65h-3.87V599.16h3.87l0,3h.12a6.49,6.49,0,0,1,5.85-3.39c5.45,0,6.86,3.59,6.86,8.2Z"/><path class="cls-1" d="M211.43,595.24a2.38,2.38,0,1,1,2.5-2.38A2.38,2.38,0,0,1,211.43,595.24Zm1.94,23.09h-3.88V599.16h3.88Z"/><path class="cls-1" d="M231.65,618.77c-5.73,0-10.17-4-10.17-10a10.15,10.15,0,0,1,20.3,0C241.78,614.77,237.34,618.77,231.65,618.77Zm0-16.83c-3.88,0-6.26,3-6.26,6.74s2.38,6.78,6.26,6.78,6.21-3,6.21-6.78S235.48,601.94,231.65,601.94Z"/><path class="cls-1" d="M266.39,618.33h-3.87v-10.7c0-3.23-.57-5.65-4-5.65-3.59,0-4.92,3-4.92,6.7v9.65h-3.88V599.16h3.88l0,3h.12a6.49,6.49,0,0,1,5.85-3.39c5.45,0,6.86,3.59,6.86,8.2Z"/><path class="cls-1" d="M282,614.05,278.33,624h-3.07l2.83-9.93Z"/><path class="cls-1" d="M318.36,618.33h-3.75l0-2.42a7.93,7.93,0,0,1-6.09,2.86c-3.56,0-6.62-2.22-6.62-5.93s3.06-5.65,7.5-5.85l5.13-.21V606c0-2.91-2-4.36-4.76-4.36a11.77,11.77,0,0,0-5.77,1.65l-1.17-2.58a14.7,14.7,0,0,1,7.18-1.94c3.19,0,5,.89,6.34,2.18s2.05,2.95,2.05,6.22Zm-3.83-9.21-4.48.29c-3.11.16-4.36,1.49-4.36,3.31s1.41,3.31,4,3.31a6,6,0,0,0,4.88-2.79Z"/><path class="cls-1" d="M343.91,618.33H340v-10.7c0-3.23-.56-5.65-4-5.65-3.6,0-4.93,3-4.93,6.7v9.65h-3.87V599.16h3.87l0,3h.12a6.49,6.49,0,0,1,5.85-3.39c5.45,0,6.87,3.59,6.87,8.2Z"/><path class="cls-1" d="M371.55,618.33h-3.72v-3.07h-.08a7.79,7.79,0,0,1-6.74,3.51c-5.69,0-9.32-4.36-9.32-10s3.63-9.93,9.24-9.93a7.76,7.76,0,0,1,6.7,3.35h.08V590.48h3.84Zm-9.81-16.39c-3.83,0-6.09,2.91-6.09,6.74s2.26,6.78,6.09,6.78,6.09-3,6.09-6.78S365.58,601.94,361.74,601.94Z"/><path class="cls-1" d="M409,615.86c-.56.57-2.54,2.91-7.66,2.91a10,10,0,0,1,.12-20c5.12,0,7.22,2.51,7.42,2.75l-1.37,2.82a7.57,7.57,0,0,0-5.73-2.34c-3.39,0-6.22,2.58-6.22,6.62s2.55,6.82,6.26,6.82a8,8,0,0,0,5.81-2.42Z"/><path class="cls-1" d="M432.32,618.33h-3.76l0-2.75a6.68,6.68,0,0,1-5.93,3.19c-2.74,0-4.32-.93-5.33-2.22s-1.41-3.19-1.41-5.93v-11.5h3.84v11.34c0,2.62.56,5.08,4,5.08s4.76-2.9,4.76-6.13V599.12h3.88Z"/><path class="cls-1" d="M457.62,615.86c-.57.57-2.54,2.91-7.67,2.91a10,10,0,0,1,.12-20c5.13,0,7.23,2.51,7.43,2.75l-1.38,2.82a7.57,7.57,0,0,0-5.73-2.34c-3.39,0-6.21,2.58-6.21,6.62s2.54,6.82,6.25,6.82a8,8,0,0,0,5.82-2.42Z"/><path class="cls-1" d="M480.94,618.33h-3.75l0-2.75a6.68,6.68,0,0,1-5.94,3.19c-2.74,0-4.31-.93-5.32-2.22s-1.42-3.19-1.42-5.93v-11.5h3.84v11.34c0,2.62.56,5.08,4,5.08s4.77-2.9,4.77-6.13V599.12h3.87Z"/><path class="cls-1" d="M518,618.33h-3.84V607.15c0-2.22-.4-5.17-3.51-5.17s-4.6,2.95-4.6,6.38v10h-3.87V607.15c0-2.83-.69-5.17-3.47-5.17-3.07,0-4.61,2.95-4.61,6.38v10h-3.87V599.16h3.87l0,3h.12a6.34,6.34,0,0,1,5.53-3.39,5.51,5.51,0,0,1,5.69,3.8,6.68,6.68,0,0,1,6.1-3.8c5.12,0,6.5,3.76,6.5,7.91Z"/><path class="cls-1" d="M537.76,618.77A7.75,7.75,0,0,1,531,615.3h-.08v3h-3.72V590.48h3.84v11.66h.08a7.8,7.8,0,0,1,6.7-3.35c5.61,0,9.24,4.28,9.24,9.93S543.45,618.77,537.76,618.77ZM537,601.94c-3.83,0-6.13,2.91-6.13,6.74s2.3,6.78,6.13,6.78,6.09-3,6.09-6.78S540.86,601.94,537,601.94Z"/><path class="cls-1" d="M572.42,609.65H557.65c.2,3.79,2.62,6.09,6.17,6.09a10.53,10.53,0,0,0,6.34-2.22l1.62,2.22c-.25.21-2.71,3-8.44,3s-9.61-3.95-9.61-10a9.51,9.51,0,0,1,9.73-9.93,8.75,8.75,0,0,1,9.08,9.16A16.91,16.91,0,0,1,572.42,609.65Zm-3.55-2.58a5.54,5.54,0,0,0-5.53-5.49,5.64,5.64,0,0,0-5.65,5.49Z"/><path class="cls-1" d="M590.74,602.71h-.16a5.11,5.11,0,0,0-2.1-.41,4,4,0,0,0-3.15,1.62,8.51,8.51,0,0,0-1.17,4.84v9.57h-3.87V599.16h3.87l0,2.94h.12a5,5,0,0,1,4.72-3.31,5.31,5.31,0,0,1,2,.33Z"/><path class="cls-1" d="M600.67,614.05,597,624h-3.07l2.83-9.93Z"/><path class="cls-1" d="M649.74,599.16l-6.34,19.17h-3.55L634.8,604l-5.08,14.33h-3.55l-6.34-19.17h3.92l4.43,14.49,5.05-14.53h3.11l5,14.53,4.44-14.49Z"/><path class="cls-1" d="M658.81,595.24a2.38,2.38,0,1,1,2.5-2.38A2.38,2.38,0,0,1,658.81,595.24Zm1.94,23.09h-3.88V599.16h3.88Z"/><path class="cls-1" d="M679.47,618.12a9.63,9.63,0,0,1-3.51.65,4.48,4.48,0,0,1-4.07-2c-.81-1.21-1-2.7-1-5.73V602.3h-2.83v-3.1h2.83v-5.73h3.87v5.73h4.6v3.1h-4.6V611a7.46,7.46,0,0,0,.49,3.51,2,2,0,0,0,2,1,4.73,4.73,0,0,0,2-.44Z"/><path class="cls-1" d="M703.48,618.33h-3.87V607.47c0-2.74-.44-5.49-4-5.49s-5,3-5,6.86v9.49h-3.83V590.48h3.83v11.7h.08a6.56,6.56,0,0,1,5.89-3.39c5.53,0,6.86,3.55,6.86,8.12Z"/><path class="cls-1" d="M741.33,599.16l-9.24,22.52c-1.33,3.31-2.9,4.44-5,4.44a9.51,9.51,0,0,1-3.64-.69l.77-3.15a6,6,0,0,0,2,.45c.81,0,1.65.08,2.5-2.26l.93-2.55L722,599.12l4,0,5.69,14.89,5.65-14.93Z"/><path class="cls-1" d="M756.3,618.77c-5.73,0-10.17-4-10.17-10a10.15,10.15,0,0,1,20.3,0C766.43,614.77,762,618.77,756.3,618.77Zm0-16.83c-3.87,0-6.25,3-6.25,6.74s2.38,6.78,6.25,6.78,6.22-3,6.22-6.78S760.14,601.94,756.3,601.94Z"/><path class="cls-1" d="M790.68,618.33h-3.75l0-2.75a6.68,6.68,0,0,1-5.93,3.19c-2.75,0-4.32-.93-5.33-2.22s-1.41-3.19-1.41-5.93v-11.5h3.83v11.34c0,2.62.57,5.08,4,5.08s4.76-2.9,4.76-6.13V599.12h3.87Z"/><path class="cls-1" d="M810.38,602.71h-.17a5,5,0,0,0-2.09-.41,4,4,0,0,0-3.15,1.62,8.43,8.43,0,0,0-1.17,4.84v9.57h-3.88V599.16h3.88l0,2.94h.12a5,5,0,0,1,4.72-3.31,5.31,5.31,0,0,1,2,.33Z"/><path class="cls-1" d="M845.36,615.86c-.56.57-2.54,2.91-7.67,2.91a10,10,0,0,1,.12-20c5.13,0,7.23,2.51,7.43,2.75l-1.37,2.82a7.59,7.59,0,0,0-5.73-2.34c-3.39,0-6.22,2.58-6.22,6.62s2.54,6.82,6.26,6.82A8,8,0,0,0,844,613Z"/><path class="cls-1" d="M869.25,618.33h-3.88V607.47c0-2.74-.44-5.49-4-5.49s-5,3-5,6.86v9.49h-3.84V590.48h3.84v11.7h.08a6.53,6.53,0,0,1,5.89-3.39c5.53,0,6.86,3.55,6.86,8.12Z"/><path class="cls-1" d="M887.29,618.77c-5.74,0-10.17-4-10.17-10a10.15,10.15,0,0,1,20.3,0C897.42,614.77,893,618.77,887.29,618.77Zm0-16.83c-3.88,0-6.26,3-6.26,6.74s2.38,6.78,6.26,6.78,6.21-3,6.21-6.78S891.12,601.94,887.29,601.94Z"/><path class="cls-1" d="M907.46,595.24a2.38,2.38,0,1,1,2.5-2.38A2.38,2.38,0,0,1,907.46,595.24Zm1.94,23.09h-3.88V599.16h3.88Z"/><path class="cls-1" d="M934.86,615.86c-.56.57-2.54,2.91-7.67,2.91a10,10,0,0,1,.13-20c5.12,0,7.22,2.51,7.42,2.75l-1.37,2.82a7.59,7.59,0,0,0-5.73-2.34c-3.39,0-6.22,2.58-6.22,6.62s2.55,6.82,6.26,6.82a8,8,0,0,0,5.81-2.42Z"/><path class="cls-1" d="M959.28,609.65H944.5c.21,3.79,2.63,6.09,6.18,6.09a10.59,10.59,0,0,0,6.34-2.22l1.61,2.22c-.24.21-2.7,3-8.43,3s-9.61-3.95-9.61-10a9.51,9.51,0,0,1,9.73-9.93A8.76,8.76,0,0,1,959.4,608,16.91,16.91,0,0,1,959.28,609.65Zm-3.56-2.58a5.53,5.53,0,0,0-5.52-5.49,5.65,5.65,0,0,0-5.66,5.49Z"/><path class="cls-1" d="M988,618.77c-5.73,0-10.17-4-10.17-10a10.15,10.15,0,0,1,20.3,0C998.09,614.77,993.66,618.77,988,618.77Zm0-16.83c-3.87,0-6.25,3-6.25,6.74s2.38,6.78,6.25,6.78,6.22-3,6.22-6.78S991.8,601.94,988,601.94Z"/><path class="cls-1" d="M1015.73,593.34a8,8,0,0,0-2.18-.36c-2.54,0-2.95,1.9-2.95,4.08v2.14h4.56v3.1h-4.56v16h-3.83v-16H1004v-3.1h2.75v-1.94c0-2.5.48-4.12,1.29-5.13a5.81,5.81,0,0,1,4.6-2.1,9.5,9.5,0,0,1,3.31.45Z"/><path class="cls-1" d="M93.89,666.75H89.16l-7.26-12h-3v12H75V638.9h7.87a10.69,10.69,0,0,1,6.7,1.94,7.77,7.77,0,0,1-3.63,13.52ZM86.46,643.1c-1.25-.93-2.74-1-4.68-1H78.91v9.44h2.87c1.94,0,3.43-.08,4.68-1a4.22,4.22,0,0,0,1.78-3.76A4.15,4.15,0,0,0,86.46,643.1Z"/><path class="cls-1" d="M115.19,666.75h-3.75l0-2.42a7.92,7.92,0,0,1-6.1,2.86c-3.55,0-6.62-2.21-6.62-5.93s3.07-5.65,7.51-5.85l5.13-.2v-.77c0-2.91-2-4.36-4.77-4.36a11.72,11.72,0,0,0-5.77,1.66l-1.17-2.59a14.9,14.9,0,0,1,7.19-1.93c3.18,0,5,.88,6.33,2.18s2.06,2.94,2.06,6.21Zm-3.83-9.2-4.48.28c-3.11.16-4.36,1.5-4.36,3.31s1.41,3.31,4,3.31a6,6,0,0,0,4.89-2.78Z"/><path class="cls-1" d="M140.73,666.75h-3.87V656.06c0-3.23-.57-5.65-4-5.65-3.59,0-4.92,3-4.92,6.69v9.65h-3.87V647.58h3.87l0,3H128a6.47,6.47,0,0,1,5.85-3.39c5.45,0,6.86,3.59,6.86,8.19Z"/><path class="cls-1" d="M165.87,664.29c-.56.56-2.54,2.9-7.66,2.9a10,10,0,0,1,.12-20c5.12,0,7.22,2.5,7.42,2.74l-1.37,2.83a7.55,7.55,0,0,0-5.73-2.35c-3.39,0-6.22,2.59-6.22,6.62s2.55,6.83,6.26,6.83a8,8,0,0,0,5.81-2.43Z"/><path class="cls-1" d="M189.76,666.75h-3.87V655.89c0-2.74-.45-5.48-4-5.48s-5,3-5,6.86v9.48h-3.84V638.9h3.84v11.71H177a6.54,6.54,0,0,1,5.89-3.39c5.53,0,6.86,3.55,6.86,8.11Z"/><path class="cls-1" d="M219.74,667.19c-5.73,0-10.17-4-10.17-10a10.15,10.15,0,0,1,20.3,0C229.87,663.2,225.43,667.19,219.74,667.19Zm0-16.83c-3.87,0-6.25,3-6.25,6.74s2.38,6.79,6.25,6.79,6.22-3,6.22-6.79S223.58,650.36,219.74,650.36Z"/><path class="cls-1" d="M248.27,651.13h-.16a5.11,5.11,0,0,0-2.1-.4,4.05,4.05,0,0,0-3.15,1.61,8.54,8.54,0,0,0-1.17,4.84v9.57h-3.87V647.58h3.87l0,2.95h.12a5,5,0,0,1,4.73-3.31,5.37,5.37,0,0,1,2,.32Z"/><path class="cls-1" d="M283.66,664.93c-1.74,1.38-4,1.82-7,1.82h-9V638.9h7.5c2.63,0,4.89.2,6.62,1.33a6.19,6.19,0,0,1,3,5.65,6.36,6.36,0,0,1-4.24,6.1v.08c3.76.77,6.18,3.11,6.18,6.78A7.24,7.24,0,0,1,283.66,664.93Zm-4.72-22.15a7.14,7.14,0,0,0-3.84-.77h-3.59v8.84h3.27c1.94,0,3.23-.16,4.16-.85a4.13,4.13,0,0,0,1.85-3.67A3.69,3.69,0,0,0,278.94,642.78Zm1.65,12.06a8.59,8.59,0,0,0-4.88-1h-4.2v9.73h4.2c1.78,0,3.51,0,4.88-1a4.3,4.3,0,0,0,2-3.91A4.18,4.18,0,0,0,280.59,654.84Z"/><path class="cls-1" d="M298.83,666.75H295V638.9h3.83Z"/><path class="cls-1" d="M324.58,666.75h-3.75l-.05-2.74a6.67,6.67,0,0,1-5.93,3.18c-2.74,0-4.32-.92-5.33-2.21s-1.41-3.19-1.41-5.94v-11.5H312v11.34c0,2.62.56,5.09,4,5.09s4.76-2.91,4.76-6.14V647.54h3.88Z"/><path class="cls-1" d="M351.21,658.07H336.44c.2,3.8,2.62,6.1,6.17,6.1A10.6,10.6,0,0,0,349,662l1.62,2.22c-.25.2-2.71,3-8.44,3s-9.61-4-9.61-10a9.51,9.51,0,0,1,9.73-9.93,8.75,8.75,0,0,1,9.08,9.16A16.88,16.88,0,0,1,351.21,658.07Zm-3.55-2.58a5.54,5.54,0,0,0-5.53-5.49,5.64,5.64,0,0,0-5.65,5.49Z"/><path class="cls-1" d="M394.27,663.12c-1.74,1.94-4.89,4.12-10.17,4.12-8.12,0-14.25-5.7-14.25-14.37s6.26-14.37,14.25-14.37a13.79,13.79,0,0,1,9.88,3.67l-1.65,3.15a11,11,0,0,0-8.07-3.39c-6,0-10.37,4.32-10.37,10.86s4.4,10.85,10.37,10.85a11,11,0,0,0,8.31-3.39Z"/><path class="cls-1" d="M418.64,666.75h-3.88V655.89c0-2.74-.44-5.48-3.95-5.48s-5,3-5,6.86v9.48H402V638.9h3.83v11.71h.09a6.52,6.52,0,0,1,5.89-3.39c5.53,0,6.86,3.55,6.86,8.11Z"/><path class="cls-1" d="M445.19,658.07H430.42c.2,3.8,2.62,6.1,6.17,6.1a10.6,10.6,0,0,0,6.34-2.22l1.62,2.22c-.25.2-2.71,3-8.44,3s-9.61-4-9.61-10a9.51,9.51,0,0,1,9.73-9.93,8.75,8.75,0,0,1,9.08,9.16A16.88,16.88,0,0,1,445.19,658.07Zm-3.55-2.58a5.54,5.54,0,0,0-5.53-5.49,5.64,5.64,0,0,0-5.65,5.49Z"/><path class="cls-1" d="M470.45,658.07H455.68c.2,3.8,2.62,6.1,6.17,6.1a10.6,10.6,0,0,0,6.34-2.22l1.62,2.22c-.25.2-2.71,3-8.44,3s-9.61-4-9.61-10a9.51,9.51,0,0,1,9.73-9.93,8.75,8.75,0,0,1,9.08,9.16A16.88,16.88,0,0,1,470.45,658.07Zm-3.55-2.58a5.54,5.54,0,0,0-5.53-5.49,5.64,5.64,0,0,0-5.65,5.49Z"/><path class="cls-1" d="M489.25,665.5a8.15,8.15,0,0,1-5.32,1.69,9.19,9.19,0,0,1-7.47-3.43l1.86-2.26a7.85,7.85,0,0,0,5.65,2.75c1.77,0,3.67-.65,3.67-2.75s-3-2.74-4.32-3.18a15.18,15.18,0,0,1-2.62-1,5,5,0,0,1-3-4.6c0-3.56,3.07-5.49,6.46-5.49a8.4,8.4,0,0,1,6.54,2.5l-1.62,2.38a7,7,0,0,0-4.84-2.06c-1.86,0-3.07.81-3.07,2.38s1.86,2.26,3.76,2.87c1.05.36,1.77.6,2.58.93a7.2,7.2,0,0,1,2.22,1.37,4.75,4.75,0,0,1,1.53,3.55A5.43,5.43,0,0,1,489.25,665.5Z"/><path class="cls-1" d="M516.33,658.07H501.56c.2,3.8,2.62,6.1,6.18,6.1a10.59,10.59,0,0,0,6.33-2.22l1.62,2.22c-.25.2-2.71,3-8.44,3s-9.6-4-9.6-10a9.5,9.5,0,0,1,9.72-9.93,8.75,8.75,0,0,1,9.08,9.16A16.88,16.88,0,0,1,516.33,658.07Zm-3.55-2.58a5.54,5.54,0,0,0-5.53-5.49,5.64,5.64,0,0,0-5.65,5.49Z"/><path class="cls-1" d="M110.22,487.93c-1.2,18.95-6.29,22.24-20.85,22.24-17.66,0-21.25-5.38-21.25-38.1,0-28.93,3.59-38,21.45-38,14.86,0,19.35,3.6,20.65,21.05H98.65c0-8.78-3.1-9.67-9.28-9.67-7,0-9.87,1.19-9.87,26.63,0,24.64,2.89,26.63,9.87,26.63,6.78,0,9.18-2,9.18-10.77Z"/><path class="cls-1" d="M158.89,508.38H147.52V483.94c0-1.2-.4-2-1.79-2H132.66a2.05,2.05,0,0,0-1.8,2v24.44H118.6V435.56h12.26V469a1.79,1.79,0,0,0,1.6,1.89h13.27c1.09,0,1.79-.6,1.79-2.09V435.56h11.37Z"/><path class="cls-1" d="M174.75,447.33a6.59,6.59,0,0,1,0-13.17,6.67,6.67,0,0,1,6.68,6.59A6.59,6.59,0,0,1,174.75,447.33Zm5.69,61.05H169.07V451.52h11.37Z"/><path class="cls-1" d="M232.21,487.93c-1.2,18.95-6.29,22.24-20.85,22.24-17.66,0-21.25-5.38-21.25-38.1,0-28.93,3.59-38,21.45-38,14.86,0,19.35,3.6,20.65,21.05H220.63c0-8.78-3.09-9.67-9.27-9.67-7,0-9.88,1.19-9.88,26.63,0,24.64,3,26.63,9.88,26.63s9.17-2,9.17-10.77Z"/><path class="cls-1" d="M282.58,508.48H270.21l-16-27.63a2,2,0,0,0-1.5-1.2c-.4,0-.7.3-.7.9v27.93H240.78V435.56h11.27v28.33c0,.8.4,1,.9,1a1.8,1.8,0,0,0,1.6-.9l15.66-28.43h12.37l-18.76,34.51a3.93,3.93,0,0,0-.49,2,4.6,4.6,0,0,0,.49,2.09Z"/><path class="cls-1" d="M325,508.38H289.76V435.46H325v10.37H303.62a2.77,2.77,0,0,0-2.49,2.6v19.65a2.49,2.49,0,0,0,2.29,2.49H321v11.37H303.52a2.5,2.5,0,0,0-2.39,2.7v9.87a2.28,2.28,0,0,0,2.29,2.49H325Z"/><path class="cls-1" d="M375.64,508.38H364.27l-18.75-43.29a.54.54,0,0,0-.4-.3.37.37,0,0,0-.4.4v43.19H333.35V435.56h11.37l18.75,43.79a.66.66,0,0,0,.5.4.45.45,0,0,0,.3-.4V435.56h11.37Z"/><path class="cls-1" d="M456.93,490.92c0,11.87-6.28,19.25-21.94,19.25-16.86,0-21.35-4.69-21.35-21.94h11.77c0,8.18.9,10.87,9.58,10.87,8,0,9.67-3,9.67-8.38,0-3.69-.5-5.88-7.68-10.87l-6.68-4.69c-8.38-5.88-16.66-10.17-16.66-22.64,0-10.58,5.29-18.46,21.65-18.46,16.95,0,20.94,4.49,20.94,20.65H444.66c0-9-3.39-9.67-9.67-9.67-7.09,0-9.28,2.79-9.28,7.58,0,3.39,1,5.68,10.17,11.67l7.58,5c6.49,4.28,12.47,9.87,13.27,17.55C456.83,488.23,456.93,489.62,456.93,490.92Z"/><path class="cls-1" d="M512.69,508.38H500.82L497.13,492a1.24,1.24,0,0,0-1.4-1.1H478.87a1.46,1.46,0,0,0-1.39.9l-3.59,16.66H462.42l16.75-72.92h17.46Zm-24.94-58.46c-.1-.2-.2-.3-.4-.3s-.4.1-.4.3l-7,31a.81.81,0,0,0,.9.89h13a.89.89,0,0,0,1-1Z"/><path class="cls-1" d="M557.37,508.38h-37.5V435.56H532v59.35c0,2,1.4,3.29,3.59,3.29h21.74Z"/><path class="cls-1" d="M612.63,508.38H600.76L597.07,492a1.24,1.24,0,0,0-1.39-1.1H578.82a1.46,1.46,0,0,0-1.4.9l-3.59,16.66H562.36l16.76-72.92h17.45ZM587.7,449.92c-.1-.2-.2-.3-.4-.3s-.4.1-.4.3l-7,31a.81.81,0,0,0,.89.89h13a.89.89,0,0,0,1-1Z"/><path class="cls-1" d="M640.76,508.38H620.31V435.56h20.45c12.37,0,21.35,4.89,21.35,36.61C662.11,500,653.93,508.38,640.76,508.38Zm-3-62.35H633c-.8,0-1.3.4-1.3,1.2v49.38a1,1,0,0,0,1,1.09h5.09c10.87,0,13-9.37,13-25.53C650.74,453.91,649.64,446,637.77,446Z"/><path class="cls-1" d="M97.84,858.51c-1.73,1.94-4.88,4.12-10.17,4.12-8.11,0-14.25-5.69-14.25-14.37s6.26-14.37,14.25-14.37a13.82,13.82,0,0,1,9.89,3.67l-1.66,3.15a11,11,0,0,0-8.07-3.39c-6,0-10.37,4.32-10.37,10.86S81.86,859,87.83,859a11,11,0,0,0,8.32-3.39Z"/><path class="cls-1" d="M115.8,846.52h-.17a5.11,5.11,0,0,0-2.1-.4,4,4,0,0,0-3.14,1.61,8.47,8.47,0,0,0-1.17,4.85v9.56h-3.88V843h3.88l0,2.95h.12a5,5,0,0,1,4.72-3.31,5.46,5.46,0,0,1,2,.32Z"/><path class="cls-1" d="M124.87,839.06a2.39,2.39,0,1,1,2.51-2.39A2.38,2.38,0,0,1,124.87,839.06Zm1.94,23.08h-3.87V843h3.87Z"/><path class="cls-1" d="M147.15,860.89a8.18,8.18,0,0,1-5.33,1.7,9.22,9.22,0,0,1-7.47-3.43l1.86-2.27a7.85,7.85,0,0,0,5.65,2.75c1.78,0,3.67-.65,3.67-2.75s-3-2.74-4.31-3.18a15,15,0,0,1-2.63-1,5,5,0,0,1-3-4.6c0-3.56,3.06-5.49,6.45-5.49a8.4,8.4,0,0,1,6.54,2.5L147,847.49a7,7,0,0,0-4.85-2.06c-1.85,0-3.06.81-3.06,2.38s1.85,2.26,3.75,2.87c1.05.36,1.78.61,2.58.93a7.27,7.27,0,0,1,2.22,1.37,4.74,4.74,0,0,1,1.54,3.55A5.46,5.46,0,0,1,147.15,860.89Z"/><path class="cls-1" d="M167.53,862.59a7.46,7.46,0,0,1-6.62-3.43l0,0v10.54H157V843h3.72v3h.08a8.11,8.11,0,0,1,6.82-3.39c5.65,0,9.24,4.24,9.24,9.93S173.22,862.59,167.53,862.59Zm-.73-16.83c-3.83,0-6.09,2.9-6.09,6.74s2.26,6.78,6.09,6.78,6.09-2.95,6.09-6.78S170.63,845.76,166.8,845.76Z"/><path class="cls-1" d="M200.54,843l-9.25,22.52c-1.33,3.31-2.9,4.44-5,4.44a9.54,9.54,0,0,1-3.63-.68l.76-3.15a6.13,6.13,0,0,0,2,.44c.81,0,1.66.08,2.5-2.26l.93-2.54-7.67-18.81,4,0,5.69,14.89,5.65-14.93Z"/><path class="cls-1" d="M227.85,862.59c-5.73,0-10.17-4-10.17-10a10.15,10.15,0,0,1,20.3,0C238,858.59,233.54,862.59,227.85,862.59Zm0-16.83c-3.87,0-6.25,3-6.25,6.74s2.38,6.78,6.25,6.78,6.22-3,6.22-6.78S231.69,845.76,227.85,845.76Z"/><path class="cls-1" d="M256.38,846.52h-.16a5.11,5.11,0,0,0-2.1-.4,4.05,4.05,0,0,0-3.15,1.61,8.56,8.56,0,0,0-1.17,4.85v9.56h-3.87V843h3.87l0,2.95h.12a5,5,0,0,1,4.73-3.31,5.37,5.37,0,0,1,2,.32Z"/><path class="cls-1" d="M293.87,858.11c0,4.23-.69,6.57-2.1,8.27s-3.79,3.67-8.55,3.67a14.74,14.74,0,0,1-8.56-2.86l1.82-2.71a12.08,12.08,0,0,0,6.86,2.42c2.86,0,4.48-1.13,5.24-2.09a8.62,8.62,0,0,0,1.46-5.37v-1H290a7.7,7.7,0,0,1-6.71,3.43c-4.92,0-9.24-3.55-9.24-9.65s4.32-9.64,9.24-9.64A7.66,7.66,0,0,1,290,846h.12l0-3h3.83Zm-9.81-12.4c-3.91,0-6.09,2.91-6.09,6.54s2.18,6.5,6.09,6.5,6.1-2.86,6.1-6.5S288,845.71,284.06,845.71Z"/><path class="cls-1" d="M313.6,846.52h-.16a5.11,5.11,0,0,0-2.1-.4,4.05,4.05,0,0,0-3.15,1.61,8.56,8.56,0,0,0-1.17,4.85v9.56h-3.87V843H307l0,2.95h.12a5,5,0,0,1,4.73-3.31,5.37,5.37,0,0,1,2,.32Z"/><path class="cls-1" d="M322.68,839.06a2.39,2.39,0,1,1,2.5-2.39A2.38,2.38,0,0,1,322.68,839.06Zm1.94,23.08h-3.88V843h3.88Z"/><path class="cls-1" d="M338.05,862.14h-3.83V834.29h3.83Z"/><path class="cls-1" d="M351.53,862.14H347.7V834.29h3.83Z"/><path class="cls-1" d="M378.37,853.46H363.6c.2,3.8,2.62,6.1,6.17,6.1a10.66,10.66,0,0,0,6.34-2.22l1.61,2.22c-.24.2-2.7,3-8.43,3s-9.61-4-9.61-10.05a9.51,9.51,0,0,1,9.73-9.93,8.75,8.75,0,0,1,9.08,9.16A16.6,16.6,0,0,1,378.37,853.46Zm-3.55-2.58a5.54,5.54,0,0,0-5.53-5.49,5.64,5.64,0,0,0-5.65,5.49Z"/><path class="cls-1" d="M404.8,862.14h-3.72v-3.07H401a7.78,7.78,0,0,1-6.74,3.52c-5.69,0-9.32-4.36-9.32-10.05s3.63-9.93,9.24-9.93a7.74,7.74,0,0,1,6.7,3.35H401V834.29h3.84ZM395,845.76c-3.83,0-6.09,2.9-6.09,6.74s2.26,6.78,6.09,6.78,6.09-2.95,6.09-6.78S398.83,845.76,395,845.76Z"/><path class="cls-1" d="M442.24,859.68c-.56.57-2.54,2.91-7.66,2.91a10,10,0,0,1,.12-20c5.12,0,7.22,2.5,7.42,2.74l-1.37,2.83a7.55,7.55,0,0,0-5.73-2.34c-3.39,0-6.22,2.58-6.22,6.62s2.55,6.82,6.26,6.82a8,8,0,0,0,5.81-2.43Z"/><path class="cls-1" d="M466.13,862.14h-3.87V851.29c0-2.75-.44-5.49-4-5.49s-5,3-5,6.86v9.48h-3.84V834.29h3.84V846h.08a6.54,6.54,0,0,1,5.89-3.39c5.53,0,6.86,3.55,6.86,8.11Z"/><path class="cls-1" d="M477.39,839.06a2.39,2.39,0,1,1,2.5-2.39A2.39,2.39,0,0,1,477.39,839.06Zm1.94,23.08h-3.88V843h3.88Z"/><path class="cls-1" d="M504.79,859.68c-.56.57-2.54,2.91-7.67,2.91a10,10,0,0,1,.12-20c5.13,0,7.23,2.5,7.43,2.74l-1.37,2.83a7.55,7.55,0,0,0-5.73-2.34c-3.4,0-6.22,2.58-6.22,6.62s2.54,6.82,6.26,6.82a8,8,0,0,0,5.81-2.43Z"/><path class="cls-1" d="M529.16,862.14h-4.52l-6.58-9.28-2.22,2.1v7.18H512V834.29h3.83v16.35l7.83-7.67h4.52l-7.5,7.23Z"/><path class="cls-1" d="M551.76,853.46H537c.2,3.8,2.62,6.1,6.17,6.1a10.63,10.63,0,0,0,6.34-2.22l1.61,2.22c-.24.2-2.7,3-8.43,3s-9.61-4-9.61-10.05a9.51,9.51,0,0,1,9.73-9.93,8.75,8.75,0,0,1,9.08,9.16A16.6,16.6,0,0,1,551.76,853.46Zm-3.55-2.58a5.54,5.54,0,0,0-5.53-5.49,5.64,5.64,0,0,0-5.65,5.49Z"/><path class="cls-1" d="M576.29,862.14h-3.87V851.45c0-3.23-.57-5.65-4-5.65-3.59,0-4.92,3-4.92,6.7v9.64h-3.87V843h3.87l0,3h.12a6.47,6.47,0,0,1,5.85-3.39c5.45,0,6.86,3.59,6.86,8.19Z"/><path class="cls-1" d="M592,857.86l-3.71,9.93h-3.07l2.82-9.93Z"/><path class="cls-1" d="M641.14,862.14h-3.83V851c0-2.22-.41-5.16-3.51-5.16s-4.61,2.94-4.61,6.37v10h-3.87V851c0-2.82-.69-5.16-3.47-5.16-3.07,0-4.6,2.94-4.6,6.37v10h-3.88V843h3.88l0,3h.12a6.32,6.32,0,0,1,5.53-3.39,5.53,5.53,0,0,1,5.69,3.79,6.65,6.65,0,0,1,6.09-3.79c5.13,0,6.5,3.75,6.5,7.91Z"/><path class="cls-1" d="M652.32,839.06a2.39,2.39,0,1,1,2.5-2.39A2.38,2.38,0,0,1,652.32,839.06Zm1.93,23.08h-3.87V843h3.87Z"/><path class="cls-1" d="M681.05,862.14h-4.36L671,854.35l-5.69,7.79H661l7.79-10.09-6.9-9.08h4.28l4.88,6.9,4.88-6.9h4.32l-6.94,9.08Z"/><path class="cls-1" d="M704.17,853.46H689.4c.2,3.8,2.62,6.1,6.17,6.1a10.6,10.6,0,0,0,6.34-2.22l1.61,2.22c-.24.2-2.7,3-8.43,3s-9.61-4-9.61-10.05a9.51,9.51,0,0,1,9.73-9.93,8.75,8.75,0,0,1,9.08,9.16A16.6,16.6,0,0,1,704.17,853.46Zm-3.55-2.58a5.54,5.54,0,0,0-5.53-5.49,5.64,5.64,0,0,0-5.65,5.49Z"/><path class="cls-1" d="M730.6,862.14h-3.71v-3.07h-.08a7.8,7.8,0,0,1-6.74,3.52c-5.69,0-9.32-4.36-9.32-10.05s3.63-9.93,9.24-9.93a7.76,7.76,0,0,1,6.7,3.35h.08V834.29h3.83Zm-9.81-16.38c-3.83,0-6.09,2.9-6.09,6.74s2.26,6.78,6.09,6.78,6.1-2.95,6.1-6.78S724.63,845.76,720.79,845.76Z"/><path class="cls-1" d="M770.55,858.11c0,4.23-.69,6.57-2.1,8.27s-3.79,3.67-8.55,3.67a14.74,14.74,0,0,1-8.56-2.86l1.82-2.71A12.08,12.08,0,0,0,760,866.9c2.86,0,4.48-1.13,5.24-2.09a8.62,8.62,0,0,0,1.46-5.37v-1h-.08a7.7,7.7,0,0,1-6.71,3.43c-4.92,0-9.24-3.55-9.24-9.65s4.32-9.64,9.24-9.64a7.67,7.67,0,0,1,6.71,3.39h.12l0-3h3.83Zm-9.81-12.4c-3.91,0-6.09,2.91-6.09,6.54s2.18,6.5,6.09,6.5,6.1-2.86,6.1-6.5S764.7,845.71,760.74,845.71Z"/><path class="cls-1" d="M790.28,846.52h-.16a5.15,5.15,0,0,0-2.1-.4,4.05,4.05,0,0,0-3.15,1.61,8.56,8.56,0,0,0-1.17,4.85v9.56h-3.87V843h3.87l0,2.95h.12a5,5,0,0,1,4.72-3.31,5.39,5.39,0,0,1,2,.32Z"/><path class="cls-1" d="M814.05,853.46H799.28c.2,3.8,2.62,6.1,6.17,6.1a10.66,10.66,0,0,0,6.34-2.22l1.61,2.22c-.24.2-2.7,3-8.43,3s-9.61-4-9.61-10.05a9.51,9.51,0,0,1,9.73-9.93,8.75,8.75,0,0,1,9.08,9.16A16.6,16.6,0,0,1,814.05,853.46Zm-3.55-2.58a5.54,5.54,0,0,0-5.53-5.49,5.64,5.64,0,0,0-5.65,5.49Z"/><path class="cls-1" d="M839.31,853.46H824.54c.2,3.8,2.62,6.1,6.17,6.1a10.66,10.66,0,0,0,6.34-2.22l1.61,2.22c-.24.2-2.7,3-8.43,3s-9.61-4-9.61-10.05a9.51,9.51,0,0,1,9.73-9.93,8.75,8.75,0,0,1,9.08,9.16A16.6,16.6,0,0,1,839.31,853.46Zm-3.55-2.58a5.54,5.54,0,0,0-5.53-5.49,5.64,5.64,0,0,0-5.65,5.49Z"/><path class="cls-1" d="M863.84,862.14H860V851.45c0-3.23-.57-5.65-4-5.65-3.59,0-4.92,3-4.92,6.7v9.64h-3.88V843h3.88l0,3h.12a6.47,6.47,0,0,1,5.85-3.39c5.45,0,6.86,3.59,6.86,8.19Z"/><path class="cls-1" d="M883.86,860.89a8.2,8.2,0,0,1-5.33,1.7,9.22,9.22,0,0,1-7.47-3.43l1.86-2.27a7.85,7.85,0,0,0,5.65,2.75c1.77,0,3.67-.65,3.67-2.75s-3-2.74-4.32-3.18a15.18,15.18,0,0,1-2.62-1,5,5,0,0,1-3-4.6c0-3.56,3.07-5.49,6.46-5.49a8.4,8.4,0,0,1,6.54,2.5l-1.61,2.38a7.06,7.06,0,0,0-4.85-2.06c-1.86,0-3.06.81-3.06,2.38s1.85,2.26,3.75,2.87c1,.36,1.77.61,2.58.93A7.27,7.27,0,0,1,884.3,853a4.74,4.74,0,0,1,1.53,3.55A5.45,5.45,0,0,1,883.86,860.89Z"/><path class="cls-1" d="M900.12,857.86l-3.71,9.93h-3.07l2.82-9.93Z"/><path class="cls-1" d="M930.87,861.94a9.72,9.72,0,0,1-3.52.65,4.49,4.49,0,0,1-4.07-2c-.81-1.21-1-2.71-1-5.73v-8.76h-2.82V843h2.82v-5.73h3.87V843h4.61v3.11h-4.61v8.68a7.59,7.59,0,0,0,.49,3.51,2,2,0,0,0,2,1,4.57,4.57,0,0,0,2-.45Z"/><path class="cls-1" d="M946.48,862.59c-5.73,0-10.17-4-10.17-10a10.15,10.15,0,0,1,20.3,0C956.61,858.59,952.17,862.59,946.48,862.59Zm0-16.83c-3.87,0-6.25,3-6.25,6.74s2.38,6.78,6.25,6.78,6.22-3,6.22-6.78S950.32,845.76,946.48,845.76Z"/><path class="cls-1" d="M992.33,862.14h-3.84V851c0-2.22-.4-5.16-3.51-5.16s-4.6,2.94-4.6,6.37v10H976.5V851c0-2.82-.68-5.16-3.47-5.16-3.06,0-4.6,2.94-4.6,6.37v10h-3.87V843h3.87l0,3h.12a6.32,6.32,0,0,1,5.53-3.39,5.52,5.52,0,0,1,5.69,3.79,6.67,6.67,0,0,1,6.1-3.79c5.12,0,6.5,3.75,6.5,7.91Z"/><path class="cls-1" d="M1016.29,862.14h-3.75l0-2.42a7.9,7.9,0,0,1-6.09,2.87c-3.56,0-6.62-2.22-6.62-5.94s3.06-5.65,7.5-5.85l5.13-.2v-.77c0-2.9-2-4.36-4.76-4.36a11.64,11.64,0,0,0-5.77,1.66l-1.18-2.59a14.9,14.9,0,0,1,7.19-1.93c3.19,0,5,.89,6.34,2.18s2,2.94,2,6.21Zm-3.83-9.2-4.48.28c-3.11.16-4.36,1.5-4.36,3.31s1.41,3.31,4,3.31a6,6,0,0,0,4.88-2.78Z"/><path class="cls-1" d="M1034.49,861.94a9.63,9.63,0,0,1-3.51.65,4.51,4.51,0,0,1-4.08-2c-.8-1.21-1-2.71-1-5.73v-8.76h-2.82V843h2.82v-5.73h3.88V843h4.6v3.11h-4.6v8.68a7.61,7.61,0,0,0,.48,3.51,2,2,0,0,0,2,1,4.64,4.64,0,0,0,2-.45Z"/><path class="cls-1" d="M1050.11,862.59c-5.73,0-10.17-4-10.17-10a10.15,10.15,0,0,1,20.3,0C1060.24,858.59,1055.8,862.59,1050.11,862.59Zm0-16.83c-3.88,0-6.26,3-6.26,6.74s2.38,6.78,6.26,6.78,6.21-3,6.21-6.78S1053.94,845.76,1050.11,845.76Z"/><path class="cls-1" d="M1074,857.86l-3.72,9.93h-3.07l2.83-9.93Z"/><path class="cls-1" d="M85.05,895h-.16a4.94,4.94,0,0,0-2.1-.41,4,4,0,0,0-3.15,1.62A8.48,8.48,0,0,0,78.47,901v9.56H74.59V891.39h3.88l0,3h.12A5,5,0,0,1,83.27,891a5.46,5.46,0,0,1,2,.32Z"/><path class="cls-1" d="M108.82,901.89H94c.21,3.79,2.63,6.09,6.18,6.09a10.66,10.66,0,0,0,6.34-2.22l1.61,2.22c-.24.2-2.7,3-8.43,3s-9.61-4-9.61-10A9.51,9.51,0,0,1,99.86,891a8.75,8.75,0,0,1,9.08,9.16A16.91,16.91,0,0,1,108.82,901.89Zm-3.56-2.59a5.53,5.53,0,0,0-5.52-5.48,5.64,5.64,0,0,0-5.66,5.48Z"/><path class="cls-1" d="M135.25,910.56h-3.72V907.5h-.08a7.79,7.79,0,0,1-6.74,3.51c-5.69,0-9.32-4.36-9.32-10S119,891,124.63,891a7.74,7.74,0,0,1,6.7,3.35h.08V882.72h3.84Zm-9.81-16.38c-3.84,0-6.1,2.9-6.1,6.74s2.26,6.78,6.1,6.78,6.09-3,6.09-6.78S129.27,894.18,125.44,894.18Z"/><path class="cls-1" d="M165.51,911c-5.73,0-10.17-4-10.17-10a10.15,10.15,0,0,1,20.3,0C175.64,907,171.2,911,165.51,911Zm0-16.83c-3.88,0-6.26,3-6.26,6.74s2.38,6.78,6.26,6.78,6.21-3,6.21-6.78S169.34,894.18,165.51,894.18Z"/><path class="cls-1" d="M200.25,910.56h-3.87V899.87c0-3.23-.57-5.65-4-5.65-3.59,0-4.92,3-4.92,6.7v9.64h-3.88V891.39h3.88l0,3h.12a6.47,6.47,0,0,1,5.85-3.39c5.45,0,6.86,3.59,6.86,8.19Z"/><path class="cls-1" d="M211.43,887.48a2.38,2.38,0,1,1,2.5-2.38A2.37,2.37,0,0,1,211.43,887.48Zm1.93,23.08h-3.87V891.39h3.87Z"/><path class="cls-1" d="M231.65,911c-5.73,0-10.17-4-10.17-10a10.15,10.15,0,0,1,20.3,0C241.78,907,237.34,911,231.65,911Zm0-16.83c-3.88,0-6.26,3-6.26,6.74s2.38,6.78,6.26,6.78,6.21-3,6.21-6.78S235.48,894.18,231.65,894.18Z"/><path class="cls-1" d="M266.39,910.56h-3.87V899.87c0-3.23-.57-5.65-4-5.65-3.59,0-4.92,3-4.92,6.7v9.64h-3.88V891.39h3.88l0,3h.12a6.47,6.47,0,0,1,5.85-3.39c5.45,0,6.86,3.59,6.86,8.19Z"/><path class="cls-1" d="M282,906.29l-3.71,9.92h-3.07l2.83-9.92Z"/><path class="cls-1" d="M319.53,908.1c-.56.57-2.54,2.91-7.66,2.91a10,10,0,0,1,.12-20c5.12,0,7.22,2.5,7.42,2.74L318,896.6a7.53,7.53,0,0,0-5.73-2.34c-3.39,0-6.22,2.58-6.22,6.62s2.55,6.82,6.26,6.82a8,8,0,0,0,5.81-2.42Z"/><path class="cls-1" d="M342.86,910.56H339.1l0-2.74a6.68,6.68,0,0,1-5.93,3.19c-2.74,0-4.32-.93-5.33-2.22s-1.41-3.19-1.41-5.93V891.35h3.84v11.34c0,2.63.56,5.09,4,5.09s4.76-2.91,4.76-6.14V891.35h3.88Z"/><path class="cls-1" d="M368.16,908.1c-.57.57-2.54,2.91-7.67,2.91a10,10,0,0,1,.12-20c5.13,0,7.22,2.5,7.43,2.74l-1.37,2.83a7.58,7.58,0,0,0-5.74-2.34c-3.39,0-6.21,2.58-6.21,6.62s2.54,6.82,6.25,6.82a8,8,0,0,0,5.82-2.42Z"/><path class="cls-1" d="M391.48,910.56h-3.75l0-2.74a6.68,6.68,0,0,1-5.94,3.19c-2.74,0-4.31-.93-5.32-2.22S375,905.6,375,902.86V891.35h3.84v11.34c0,2.63.56,5.09,4,5.09s4.77-2.91,4.77-6.14V891.35h3.87Z"/><path class="cls-1" d="M428.49,910.56h-3.84V899.38c0-2.21-.4-5.16-3.51-5.16s-4.6,2.95-4.6,6.38v10h-3.87V899.38c0-2.82-.69-5.16-3.48-5.16-3.06,0-4.6,2.95-4.6,6.38v10h-3.87V891.39h3.87l0,3h.12A6.32,6.32,0,0,1,410.2,891a5.52,5.52,0,0,1,5.69,3.79A6.67,6.67,0,0,1,422,891c5.12,0,6.5,3.75,6.5,7.91Z"/><path class="cls-1" d="M448.3,911a7.75,7.75,0,0,1-6.74-3.47h-.08v3h-3.72V882.72h3.84v11.66h.08a7.8,7.8,0,0,1,6.7-3.35c5.61,0,9.24,4.28,9.24,9.93S454,911,448.3,911Zm-.73-16.83c-3.83,0-6.14,2.9-6.14,6.74s2.31,6.78,6.14,6.78,6.1-3,6.1-6.78S451.4,894.18,447.57,894.18Z"/><path class="cls-1" d="M483,901.89H468.19c.2,3.79,2.62,6.09,6.17,6.09a10.6,10.6,0,0,0,6.34-2.22l1.62,2.22c-.25.2-2.71,3-8.44,3s-9.61-4-9.61-10A9.51,9.51,0,0,1,474,891a8.75,8.75,0,0,1,9.08,9.16A16.91,16.91,0,0,1,483,901.89Zm-3.55-2.59a5.54,5.54,0,0,0-5.53-5.48,5.64,5.64,0,0,0-5.65,5.48Z"/><path class="cls-1" d="M501.28,895h-.16a4.94,4.94,0,0,0-2.1-.41,4,4,0,0,0-3.15,1.62A8.48,8.48,0,0,0,494.7,901v9.56h-3.87V891.39h3.87l0,3h.12A5,5,0,0,1,499.5,891a5.39,5.39,0,0,1,2,.32Z"/><path class="cls-1" d="M511.2,906.29l-3.71,9.92h-3.07l2.83-9.92Z"/><path class="cls-1" d="M543.37,911a7.75,7.75,0,0,1-6.74-3.47h-.09v3h-3.71V882.72h3.84v11.66h.08a7.8,7.8,0,0,1,6.7-3.35c5.61,0,9.24,4.28,9.24,9.93S549.06,911,543.37,911Zm-.73-16.83c-3.83,0-6.14,2.9-6.14,6.74s2.31,6.78,6.14,6.78,6.09-3,6.09-6.78S546.47,894.18,542.64,894.18Z"/><path class="cls-1" d="M564.67,910.56h-3.83V882.72h3.83Z"/><path class="cls-1" d="M590.42,910.56h-3.75l0-2.74a6.65,6.65,0,0,1-5.93,3.19c-2.74,0-4.32-.93-5.33-2.22S574,905.6,574,902.86V891.35h3.84v11.34c0,2.63.56,5.09,4,5.09s4.76-2.91,4.76-6.14V891.35h3.88Z"/><path class="cls-1" d="M617.05,901.89H602.28c.2,3.79,2.62,6.09,6.17,6.09a10.6,10.6,0,0,0,6.34-2.22l1.62,2.22c-.25.2-2.71,3-8.44,3s-9.61-4-9.61-10a9.51,9.51,0,0,1,9.73-9.93,8.75,8.75,0,0,1,9.08,9.16A16.91,16.91,0,0,1,617.05,901.89Zm-3.55-2.59a5.54,5.54,0,0,0-5.53-5.48,5.64,5.64,0,0,0-5.65,5.48Z"/><path class="cls-1" d="M652.92,908.1c-.56.57-2.54,2.91-7.67,2.91a10,10,0,0,1,.13-20c5.12,0,7.22,2.5,7.42,2.74l-1.37,2.83a7.55,7.55,0,0,0-5.73-2.34c-3.39,0-6.22,2.58-6.22,6.62s2.55,6.82,6.26,6.82a8,8,0,0,0,5.81-2.42Z"/><path class="cls-1" d="M676.81,910.56h-3.87V899.71c0-2.75-.45-5.49-4-5.49s-5,3-5,6.86v9.48h-3.84V882.72H664v11.7h.08A6.54,6.54,0,0,1,670,891c5.53,0,6.86,3.55,6.86,8.11Z"/><path class="cls-1" d="M703.36,901.89H688.59c.2,3.79,2.63,6.09,6.18,6.09a10.59,10.59,0,0,0,6.33-2.22l1.62,2.22c-.24.2-2.71,3-8.44,3s-9.6-4-9.6-10A9.51,9.51,0,0,1,694.4,891a8.76,8.76,0,0,1,9.09,9.16A15.64,15.64,0,0,1,703.36,901.89Zm-3.55-2.59a5.53,5.53,0,0,0-5.53-5.48,5.64,5.64,0,0,0-5.65,5.48Z"/><path class="cls-1" d="M728.62,901.89H713.85c.2,3.79,2.63,6.09,6.18,6.09a10.59,10.59,0,0,0,6.33-2.22L728,908c-.24.2-2.71,3-8.44,3s-9.6-4-9.6-10a9.51,9.51,0,0,1,9.72-9.93,8.76,8.76,0,0,1,9.09,9.16A15.64,15.64,0,0,1,728.62,901.89Zm-3.55-2.59a5.53,5.53,0,0,0-5.53-5.48,5.64,5.64,0,0,0-5.65,5.48Z"/><path class="cls-1" d="M747.43,909.31a8.2,8.2,0,0,1-5.33,1.7,9.19,9.19,0,0,1-7.47-3.43l1.86-2.26a7.87,7.87,0,0,0,5.65,2.74c1.78,0,3.67-.64,3.67-2.74s-3-2.75-4.32-3.19a14.41,14.41,0,0,1-2.62-1,5,5,0,0,1-3-4.6c0-3.55,3.07-5.49,6.46-5.49a8.4,8.4,0,0,1,6.54,2.5l-1.61,2.38a7.05,7.05,0,0,0-4.85-2c-1.86,0-3.06.8-3.06,2.38s1.85,2.26,3.75,2.86c1,.37,1.77.61,2.58.93a7.27,7.27,0,0,1,2.22,1.37,4.74,4.74,0,0,1,1.54,3.55A5.46,5.46,0,0,1,747.43,909.31Z"/><path class="cls-1" d="M774.5,901.89H759.73c.2,3.79,2.62,6.09,6.18,6.09a10.59,10.59,0,0,0,6.33-2.22l1.62,2.22c-.24.2-2.71,3-8.44,3s-9.6-4-9.6-10a9.51,9.51,0,0,1,9.72-9.93,8.75,8.75,0,0,1,9.08,9.16A16.91,16.91,0,0,1,774.5,901.89ZM771,899.3a5.53,5.53,0,0,0-5.53-5.48,5.64,5.64,0,0,0-5.65,5.48Z"/><path class="cls-1" d="M810.38,908.1c-.57.57-2.55,2.91-7.67,2.91a10,10,0,0,1,.12-20c5.13,0,7.22,2.5,7.42,2.74l-1.37,2.83a7.53,7.53,0,0,0-5.73-2.34c-3.39,0-6.21,2.58-6.21,6.62s2.54,6.82,6.25,6.82a8,8,0,0,0,5.81-2.42Z"/><path class="cls-1" d="M827.85,895h-.16a4.94,4.94,0,0,0-2.1-.41,4,4,0,0,0-3.15,1.62,8.48,8.48,0,0,0-1.17,4.84v9.56H817.4V891.39h3.87l0,3h.12a5,5,0,0,1,4.72-3.31,5.46,5.46,0,0,1,2,.32Z"/><path class="cls-1" d="M851.13,910.56h-3.75l0-2.74a6.68,6.68,0,0,1-5.93,3.19c-2.75,0-4.32-.93-5.33-2.22s-1.41-3.19-1.41-5.93V891.35h3.83v11.34c0,2.63.57,5.09,4,5.09s4.76-2.91,4.76-6.14V891.35h3.87Z"/><path class="cls-1" d="M888.14,910.56H884.3V899.38c0-2.21-.4-5.16-3.51-5.16s-4.6,2.95-4.6,6.38v10h-3.87V899.38c0-2.82-.69-5.16-3.47-5.16-3.07,0-4.6,2.95-4.6,6.38v10h-3.88V891.39h3.88l0,3h.13a6.3,6.3,0,0,1,5.52-3.39,5.54,5.54,0,0,1,5.7,3.79,6.65,6.65,0,0,1,6.09-3.79c5.12,0,6.5,3.75,6.5,7.91Z"/><path class="cls-1" d="M908,911a7.75,7.75,0,0,1-6.74-3.47h-.08v3h-3.72V882.72h3.84v11.66h.08A7.8,7.8,0,0,1,908,891c5.61,0,9.24,4.28,9.24,9.93S913.64,911,908,911Zm-.73-16.83c-3.83,0-6.13,2.9-6.13,6.74s2.3,6.78,6.13,6.78,6.1-3,6.1-6.78S911.06,894.18,907.22,894.18Z"/><path class="cls-1" d="M929.25,910.56h-3.83V882.72h3.83Z"/><path class="cls-1" d="M956.09,901.89H941.32c.2,3.79,2.62,6.09,6.17,6.09a10.66,10.66,0,0,0,6.34-2.22l1.61,2.22c-.24.2-2.7,3-8.43,3s-9.61-4-9.61-10a9.51,9.51,0,0,1,9.73-9.93,8.75,8.75,0,0,1,9.08,9.16A16.91,16.91,0,0,1,956.09,901.89Zm-3.55-2.59a5.54,5.54,0,0,0-5.53-5.48,5.63,5.63,0,0,0-5.65,5.48Z"/><path class="cls-1" d="M970.13,906.29l-3.71,9.92h-3.07l2.82-9.92Z"/><path class="cls-1" d="M1006.45,910.56h-3.76l0-2.42a7.88,7.88,0,0,1-6.09,2.87c-3.55,0-6.62-2.22-6.62-5.93s3.07-5.66,7.51-5.86l5.12-.2v-.77c0-2.9-2-4.35-4.76-4.35a11.81,11.81,0,0,0-5.77,1.65L990.87,893a14.7,14.7,0,0,1,7.18-1.94c3.19,0,5.05.89,6.34,2.18s2.06,2.95,2.06,6.21Zm-3.84-9.2-4.48.28c-3.1.17-4.36,1.5-4.36,3.31s1.42,3.31,4,3.31a6,6,0,0,0,4.88-2.78Z"/><path class="cls-1" d="M1032,910.56h-3.87V899.87c0-3.23-.57-5.65-4-5.65-3.59,0-4.92,3-4.92,6.7v9.64h-3.88V891.39h3.88l0,3h.12a6.46,6.46,0,0,1,5.85-3.39c5.45,0,6.86,3.59,6.86,8.19Z"/><path class="cls-1" d="M1059.63,910.56h-3.71V907.5h-.08a7.81,7.81,0,0,1-6.74,3.51c-5.69,0-9.33-4.36-9.33-10s3.64-9.93,9.25-9.93a7.74,7.74,0,0,1,6.7,3.35h.08V882.72h3.83Zm-9.8-16.38c-3.84,0-6.1,2.9-6.1,6.74s2.26,6.78,6.1,6.78,6.09-3,6.09-6.78S1053.66,894.18,1049.83,894.18Z"/><path class="cls-1" d="M97.84,955.36c-1.73,1.93-4.88,4.11-10.17,4.11-8.11,0-14.25-5.69-14.25-14.37s6.26-14.36,14.25-14.36a13.82,13.82,0,0,1,9.89,3.67l-1.66,3.15a11,11,0,0,0-8.07-3.39c-6,0-10.37,4.32-10.37,10.85s4.4,10.86,10.37,10.86a11,11,0,0,0,8.32-3.39Z"/><path class="cls-1" d="M109.38,959h-3.84V931.14h3.84Z"/><path class="cls-1" d="M133.71,959H130l0-2.42a7.93,7.93,0,0,1-6.09,2.86c-3.56,0-6.62-2.22-6.62-5.93s3.06-5.65,7.5-5.85l5.13-.2v-.77c0-2.91-2-4.36-4.76-4.36a11.77,11.77,0,0,0-5.77,1.65l-1.18-2.58a14.78,14.78,0,0,1,7.19-1.94c3.19,0,5,.89,6.34,2.18s2.05,3,2.05,6.22Zm-3.83-9.2-4.48.28c-3.11.16-4.36,1.49-4.36,3.31s1.41,3.31,4,3.31a6,6,0,0,0,4.88-2.79Z"/><path class="cls-1" d="M153.52,957.74a8.15,8.15,0,0,1-5.32,1.69,9.18,9.18,0,0,1-7.47-3.43l1.86-2.26a7.85,7.85,0,0,0,5.65,2.75c1.77,0,3.67-.65,3.67-2.75s-3-2.74-4.32-3.19a13.71,13.71,0,0,1-2.62-1,4.93,4.93,0,0,1-3-4.6c0-3.55,3.07-5.49,6.46-5.49a8.4,8.4,0,0,1,6.54,2.51l-1.62,2.38a7,7,0,0,0-4.84-2.06c-1.86,0-3.07.81-3.07,2.38s1.86,2.26,3.76,2.87c1.05.36,1.77.6,2.58.92a7.55,7.55,0,0,1,2.22,1.38,4.74,4.74,0,0,1,1.53,3.55A5.44,5.44,0,0,1,153.52,957.74Z"/><path class="cls-1" d="M173.74,957.74a8.18,8.18,0,0,1-5.33,1.69A9.16,9.16,0,0,1,161,956l1.85-2.26a7.88,7.88,0,0,0,5.65,2.75c1.78,0,3.68-.65,3.68-2.75s-3-2.74-4.32-3.19a13.83,13.83,0,0,1-2.63-1,4.93,4.93,0,0,1-3-4.6c0-3.55,3.07-5.49,6.46-5.49a8.39,8.39,0,0,1,6.53,2.51l-1.61,2.38a7,7,0,0,0-4.84-2.06c-1.86,0-3.07.81-3.07,2.38s1.86,2.26,3.75,2.87c1.05.36,1.78.6,2.59.92a7.37,7.37,0,0,1,2.21,1.38,4.7,4.7,0,0,1,1.54,3.55A5.47,5.47,0,0,1,173.74,957.74Z"/><path class="cls-1" d="M185.52,935.9a2.38,2.38,0,1,1,2.5-2.38A2.38,2.38,0,0,1,185.52,935.9ZM187.46,959h-3.88V939.82h3.88Z"/><path class="cls-1" d="M212.92,956.53c-.56.56-2.54,2.9-7.67,2.9a10,10,0,0,1,.13-20c5.12,0,7.22,2.51,7.42,2.75L211.43,945a7.59,7.59,0,0,0-5.73-2.34c-3.39,0-6.22,2.59-6.22,6.62s2.55,6.82,6.26,6.82a8,8,0,0,0,5.81-2.42Z"/><path class="cls-1" d="M248.35,957.17c-1.73,1.37-3.95,1.82-7,1.82h-9V931.14h7.51c2.62,0,4.88.2,6.62,1.33a6.21,6.21,0,0,1,3,5.65,6.36,6.36,0,0,1-4.23,6.1v.08c3.75.76,6.17,3.11,6.17,6.78A7.25,7.25,0,0,1,248.35,957.17ZM243.63,935a7.22,7.22,0,0,0-3.83-.76h-3.6v8.84h3.27c1.94,0,3.23-.17,4.16-.85a4.16,4.16,0,0,0,1.86-3.67A3.73,3.73,0,0,0,243.63,935Zm1.66,12.07a8.56,8.56,0,0,0-4.89-1h-4.2v9.73h4.2c1.78,0,3.51,0,4.89-1a4.32,4.32,0,0,0,2-3.91A4.19,4.19,0,0,0,245.29,947.08Z"/><path class="cls-1" d="M275.79,959H272l0-2.75a6.68,6.68,0,0,1-5.93,3.19c-2.75,0-4.32-.93-5.33-2.22s-1.41-3.19-1.41-5.93v-11.5h3.83v11.34c0,2.62.56,5.08,4,5.08s4.76-2.9,4.76-6.13V939.78h3.87Z"/><path class="cls-1" d="M305.77,934a7.79,7.79,0,0,0-2.18-.37c-2.54,0-2.94,1.9-2.94,4.08v2.14h4.56V943h-4.56v16h-3.84V943h-7.22v16h-3.83V943H283v-3.11h2.75v-1.94c0-2.5.48-4.12,1.29-5.13a5.83,5.83,0,0,1,4.6-2.09,9.69,9.69,0,0,1,3.31.44l-.24,2.87a7.79,7.79,0,0,0-2.18-.37c-2.55,0-3,1.9-3,4.08v2.14h7.22v-1.94c0-2.5.49-4.12,1.3-5.13a5.82,5.82,0,0,1,4.6-2.09,9.69,9.69,0,0,1,3.31.44Z"/><path class="cls-1" d="M325.79,959H322l0-2.42a8,8,0,0,1-6.1,2.86c-3.55,0-6.62-2.22-6.62-5.93s3.07-5.65,7.51-5.85l5.12-.2v-.77c0-2.91-2-4.36-4.76-4.36a11.85,11.85,0,0,0-5.77,1.65l-1.17-2.58a14.73,14.73,0,0,1,7.18-1.94c3.19,0,5.05.89,6.34,2.18s2.06,3,2.06,6.22Zm-3.84-9.2-4.48.28c-3.1.16-4.35,1.49-4.35,3.31s1.41,3.31,3.95,3.31A6,6,0,0,0,322,953.9Z"/><path class="cls-1" d="M338.7,959h-3.84V931.14h3.84Z"/><path class="cls-1" d="M357,959.43c-5.73,0-10.17-4-10.17-10a10.15,10.15,0,0,1,20.3,0C367.15,955.44,362.71,959.43,357,959.43Zm0-16.83c-3.87,0-6.26,3-6.26,6.74s2.39,6.78,6.26,6.78,6.22-3,6.22-6.78S360.85,942.6,357,942.6Z"/><path class="cls-1" d="M401.57,957.29a10.52,10.52,0,0,1-6.82,2.18c-4.88,0-7.67-3.15-9-4.68l2.3-2.62c1.41,1.89,4,4,7.06,4s5.45-1.73,5.45-4.68-3.11-4-4.52-4.6-3.39-1.33-4.44-1.86a8.93,8.93,0,0,1-2.78-2A6.71,6.71,0,0,1,387,938.2a7,7,0,0,1,2.54-5.37,9.79,9.79,0,0,1,6.42-2.05,10.85,10.85,0,0,1,8,3.59L401.89,937a8.46,8.46,0,0,0-6.13-3c-2.75,0-4.84,1.29-4.84,3.87s1.89,3.55,3.59,4.24l5.12,2.14a10.77,10.77,0,0,1,3.15,2.26,7.15,7.15,0,0,1,1.7,4.68A7.74,7.74,0,0,1,401.57,957.29Z"/><path class="cls-1" d="M427.4,959h-3.76l0-2.42a7.93,7.93,0,0,1-6.09,2.86c-3.55,0-6.62-2.22-6.62-5.93s3.07-5.65,7.51-5.85l5.12-.2v-.77c0-2.91-2-4.36-4.76-4.36A11.77,11.77,0,0,0,413,944l-1.17-2.58a14.7,14.7,0,0,1,7.18-1.94c3.19,0,5.05.89,6.34,2.18s2.06,3,2.06,6.22Zm-3.84-9.2-4.48.28c-3.11.16-4.36,1.49-4.36,3.31s1.42,3.31,4,3.31a6,6,0,0,0,4.88-2.79Z"/><path class="cls-1" d="M452.58,959h-3.76l0-2.75a6.68,6.68,0,0,1-5.93,3.19c-2.75,0-4.32-.93-5.33-2.22s-1.41-3.19-1.41-5.93v-11.5h3.83v11.34c0,2.62.57,5.08,4,5.08s4.76-2.9,4.76-6.13V939.78h3.88Z"/><path class="cls-1" d="M477.88,956.53c-.57.56-2.55,2.9-7.67,2.9a10,10,0,0,1,.12-20c5.12,0,7.22,2.51,7.42,2.75L476.38,945a7.57,7.57,0,0,0-5.73-2.34c-3.39,0-6.21,2.59-6.21,6.62s2.54,6.82,6.25,6.82a8,8,0,0,0,5.81-2.42Z"/><path class="cls-1" d="M502.29,950.31H487.52c.2,3.79,2.62,6.1,6.17,6.1a10.66,10.66,0,0,0,6.34-2.22l1.61,2.22c-.24.2-2.7,3-8.43,3s-9.61-3.95-9.61-10a9.51,9.51,0,0,1,9.73-9.93,8.76,8.76,0,0,1,9.08,9.17A16.88,16.88,0,0,1,502.29,950.31Zm-3.55-2.58a5.54,5.54,0,0,0-5.53-5.49,5.64,5.64,0,0,0-5.65,5.49Z"/><path class="cls-1" d="M516.33,954.71l-3.71,9.93h-3.07l2.83-9.93Z"/><path class="cls-1" d="M565.4,939.82,559.07,959h-3.56l-5-14.33L545.38,959h-3.55l-6.33-19.17h3.91l4.44,14.49,5-14.53H552l5,14.53,4.44-14.49Z"/><path class="cls-1" d="M574.48,935.9a2.38,2.38,0,1,1,2.5-2.38A2.38,2.38,0,0,1,574.48,935.9ZM576.41,959h-3.87V939.82h3.87Z"/><path class="cls-1" d="M595.14,958.79a9.83,9.83,0,0,1-3.51.64,4.51,4.51,0,0,1-4.08-2c-.81-1.22-1-2.71-1-5.74V943h-2.82v-3.11h2.82v-5.73h3.88v5.73h4.6V943h-4.6v8.67a7.56,7.56,0,0,0,.48,3.51,2,2,0,0,0,2,1,4.73,4.73,0,0,0,2-.44Z"/><path class="cls-1" d="M619.15,959h-3.88V948.13c0-2.74-.44-5.49-3.95-5.49s-5,3-5,6.86V959h-3.83V931.14h3.83v11.7h.09a6.53,6.53,0,0,1,5.89-3.39c5.53,0,6.86,3.56,6.86,8.12Z"/><path class="cls-1" d="M657,939.82l-9.24,22.52c-1.34,3.31-2.91,4.44-5,4.44a9.42,9.42,0,0,1-3.63-.69l.76-3.15a6.1,6.1,0,0,0,2,.45c.81,0,1.66.08,2.51-2.26l.92-2.55-7.66-18.8,4,0,5.69,14.89L653,939.78Z"/><path class="cls-1" d="M672,959.43c-5.73,0-10.17-4-10.17-10a10.15,10.15,0,0,1,20.3,0C682.1,955.44,677.66,959.43,672,959.43Zm0-16.83c-3.88,0-6.26,3-6.26,6.74s2.38,6.78,6.26,6.78,6.21-3,6.21-6.78S675.8,942.6,672,942.6Z"/><path class="cls-1" d="M706.35,959H702.6l0-2.75a6.68,6.68,0,0,1-5.94,3.19c-2.74,0-4.32-.93-5.32-2.22s-1.42-3.19-1.42-5.93v-11.5h3.84v11.34c0,2.62.56,5.08,4,5.08s4.77-2.9,4.77-6.13V939.78h3.87Z"/><path class="cls-1" d="M726,943.37h-.16a5.11,5.11,0,0,0-2.1-.4,4,4,0,0,0-3.15,1.61,8.51,8.51,0,0,0-1.17,4.84V959h-3.87V939.82h3.87l0,2.94h.12a5,5,0,0,1,4.72-3.31,5.25,5.25,0,0,1,2,.33Z"/><path class="cls-1" d="M761,956.53c-.57.56-2.54,2.9-7.67,2.9a10,10,0,0,1,.12-20c5.13,0,7.22,2.51,7.43,2.75L759.53,945a7.57,7.57,0,0,0-5.73-2.34c-3.39,0-6.21,2.59-6.21,6.62s2.54,6.82,6.25,6.82a8,8,0,0,0,5.82-2.42Z"/><path class="cls-1" d="M784.92,959H781V948.13c0-2.74-.44-5.49-4-5.49s-5,3-5,6.86V959h-3.83V931.14h3.83v11.7h.08a6.56,6.56,0,0,1,5.89-3.39c5.53,0,6.87,3.56,6.87,8.12Z"/><path class="cls-1" d="M803,959.43c-5.73,0-10.17-4-10.17-10a10.15,10.15,0,0,1,20.3,0C813.08,955.44,808.64,959.43,803,959.43Zm0-16.83c-3.87,0-6.25,3-6.25,6.74s2.38,6.78,6.25,6.78,6.22-3,6.22-6.78S806.79,942.6,803,942.6Z"/><path class="cls-1" d="M823.13,935.9a2.38,2.38,0,1,1,2.5-2.38A2.38,2.38,0,0,1,823.13,935.9ZM825.06,959h-3.87V939.82h3.87Z"/><path class="cls-1" d="M850.53,956.53c-.57.56-2.54,2.9-7.67,2.9a10,10,0,0,1,.12-20c5.13,0,7.23,2.51,7.43,2.75L849,945a7.57,7.57,0,0,0-5.73-2.34c-3.39,0-6.21,2.59-6.21,6.62s2.54,6.82,6.25,6.82a8,8,0,0,0,5.82-2.42Z"/><path class="cls-1" d="M874.94,950.31H860.17c.2,3.79,2.62,6.1,6.17,6.1a10.6,10.6,0,0,0,6.34-2.22l1.62,2.22c-.25.2-2.71,3-8.44,3s-9.61-3.95-9.61-10a9.51,9.51,0,0,1,9.73-9.93,8.76,8.76,0,0,1,9.08,9.17A16.88,16.88,0,0,1,874.94,950.31Zm-3.55-2.58a5.54,5.54,0,0,0-5.53-5.49,5.64,5.64,0,0,0-5.65,5.49Z"/><path class="cls-1" d="M903.63,959.43c-5.73,0-10.17-4-10.17-10a10.15,10.15,0,0,1,20.3,0C913.76,955.44,909.32,959.43,903.63,959.43Zm0-16.83c-3.88,0-6.26,3-6.26,6.74s2.38,6.78,6.26,6.78,6.21-3,6.21-6.78S907.46,942.6,903.63,942.6Z"/><path class="cls-1" d="M931.39,934a7.79,7.79,0,0,0-2.18-.37c-2.54,0-2.94,1.9-2.94,4.08v2.14h4.56V943h-4.56v16h-3.84V943h-2.74v-3.11h2.74v-1.94c0-2.5.49-4.12,1.29-5.13a5.84,5.84,0,0,1,4.61-2.09,9.59,9.59,0,0,1,3.3.44Z"/><path class="cls-1" d="M967.91,959h-4.72l-7.27-12h-3v12H949V931.14h7.87a10.65,10.65,0,0,1,6.7,1.94A7.32,7.32,0,0,1,966.3,939,7.42,7.42,0,0,1,960,946.6Zm-7.42-23.65c-1.25-.93-2.75-1-4.69-1h-2.86v9.44h2.86c1.94,0,3.44-.08,4.69-1a4.19,4.19,0,0,0,1.77-3.75A4.14,4.14,0,0,0,960.49,935.34Z"/><path class="cls-1" d="M989.22,959h-3.76l0-2.42a7.91,7.91,0,0,1-6.09,2.86c-3.55,0-6.62-2.22-6.62-5.93s3.07-5.65,7.51-5.85l5.12-.2v-.77c0-2.91-2-4.36-4.76-4.36a11.85,11.85,0,0,0-5.77,1.65l-1.17-2.58a14.73,14.73,0,0,1,7.18-1.94c3.19,0,5,.89,6.34,2.18s2.06,3,2.06,6.22Zm-3.84-9.2-4.48.28c-3.1.16-4.35,1.49-4.35,3.31s1.41,3.31,4,3.31a6,6,0,0,0,4.88-2.79Z"/><path class="cls-1" d="M1014.76,959h-3.87v-10.7c0-3.23-.57-5.65-4-5.65-3.59,0-4.92,3-4.92,6.7V959h-3.88V939.82H1002l0,3h.12a6.48,6.48,0,0,1,5.85-3.39c5.45,0,6.86,3.6,6.86,8.2Z"/><path class="cls-1" d="M1039.9,956.53c-.57.56-2.54,2.9-7.67,2.9a10,10,0,0,1,.12-20c5.13,0,7.23,2.51,7.43,2.75l-1.37,2.82a7.59,7.59,0,0,0-5.73-2.34c-3.39,0-6.22,2.59-6.22,6.62s2.54,6.82,6.26,6.82a8,8,0,0,0,5.81-2.42Z"/><path class="cls-1" d="M1063.79,959h-3.88V948.13c0-2.74-.44-5.49-4-5.49s-5,3-5,6.86V959h-3.83V931.14H1051v11.7h.08a6.56,6.56,0,0,1,5.9-3.39c5.53,0,6.86,3.56,6.86,8.12Z"/><path class="cls-1" d="M83.47,1007.86c-5.73,0-10.17-4-10.17-10a10.15,10.15,0,0,1,20.3,0C93.6,1003.86,89.16,1007.86,83.47,1007.86Zm0-16.83c-3.87,0-6.25,3-6.25,6.74s2.38,6.78,6.25,6.78,6.22-3,6.22-6.78S87.31,991,83.47,991Z"/><path class="cls-1" d="M112,991.79h-.16a5.11,5.11,0,0,0-2.1-.4,4.05,4.05,0,0,0-3.15,1.61,8.56,8.56,0,0,0-1.17,4.85v9.56h-3.87V988.24h3.87l0,3h.12a5,5,0,0,1,4.73-3.31,5.46,5.46,0,0,1,2,.32Z"/><path class="cls-1" d="M147.39,1005.59c-1.73,1.38-3.95,1.82-7,1.82h-9V979.56h7.51c2.62,0,4.88.2,6.62,1.33a6.21,6.21,0,0,1,3,5.65,6.34,6.34,0,0,1-4.24,6.1v.08c3.76.77,6.18,3.11,6.18,6.78A7.24,7.24,0,0,1,147.39,1005.59Zm-4.72-22.15a7.12,7.12,0,0,0-3.83-.77h-3.59v8.84h3.26c1.94,0,3.23-.16,4.16-.85a4.13,4.13,0,0,0,1.86-3.67A3.7,3.7,0,0,0,142.67,983.44Zm1.66,12.06a8.64,8.64,0,0,0-4.89-1h-4.19v9.72h4.19c1.78,0,3.51,0,4.89-1a4.3,4.3,0,0,0,2-3.91A4.19,4.19,0,0,0,144.33,995.5Z"/><path class="cls-1" d="M162.56,1007.41h-3.83V979.56h3.83Z"/><path class="cls-1" d="M188.31,1007.41h-3.75l-.05-2.74a6.67,6.67,0,0,1-5.93,3.19c-2.74,0-4.32-.93-5.33-2.22s-1.41-3.19-1.41-5.94V988.2h3.84v11.34c0,2.62.56,5.09,4,5.09s4.76-2.91,4.76-6.14V988.2h3.88Z"/><path class="cls-1" d="M214.94,998.73H200.17c.2,3.8,2.62,6.1,6.17,6.1a10.6,10.6,0,0,0,6.34-2.22l1.62,2.22c-.25.2-2.71,3-8.44,3s-9.61-4-9.61-10.05a9.51,9.51,0,0,1,9.73-9.93,8.75,8.75,0,0,1,9.08,9.16A16.6,16.6,0,0,1,214.94,998.73Zm-3.55-2.58a5.54,5.54,0,0,0-5.53-5.49,5.64,5.64,0,0,0-5.65,5.49Z"/><path class="cls-1" d="M258,1003.78c-1.74,1.94-4.88,4.12-10.17,4.12-8.11,0-14.25-5.69-14.25-14.37s6.26-14.37,14.25-14.37a13.84,13.84,0,0,1,9.89,3.67L256.06,986a11,11,0,0,0-8.07-3.39c-6,0-10.37,4.32-10.37,10.86S242,1004.3,248,1004.3a11,11,0,0,0,8.31-3.39Z"/><path class="cls-1" d="M282.37,1007.41H278.5V996.55c0-2.74-.45-5.48-4-5.48s-5,3-5,6.86v9.48H265.7V979.56h3.84v11.71h.08a6.53,6.53,0,0,1,5.89-3.39c5.53,0,6.86,3.55,6.86,8.11Z"/><path class="cls-1" d="M308.92,998.73H294.15c.2,3.8,2.62,6.1,6.18,6.1a10.59,10.59,0,0,0,6.33-2.22l1.62,2.22c-.25.2-2.71,3-8.44,3s-9.6-4-9.6-10.05a9.51,9.51,0,0,1,9.72-9.93A8.75,8.75,0,0,1,309,997,16.6,16.6,0,0,1,308.92,998.73Zm-3.55-2.58a5.54,5.54,0,0,0-5.53-5.49,5.64,5.64,0,0,0-5.65,5.49Z"/><path class="cls-1" d="M334.18,998.73H319.41c.2,3.8,2.62,6.1,6.17,6.1a10.6,10.6,0,0,0,6.34-2.22l1.62,2.22c-.25.2-2.71,3-8.44,3s-9.6-4-9.6-10.05a9.51,9.51,0,0,1,9.72-9.93A8.75,8.75,0,0,1,334.3,997,16.6,16.6,0,0,1,334.18,998.73Zm-3.55-2.58a5.54,5.54,0,0,0-5.53-5.49,5.64,5.64,0,0,0-5.65,5.49Z"/><path class="cls-1" d="M353,1006.16a8.2,8.2,0,0,1-5.33,1.7,9.2,9.2,0,0,1-7.47-3.44l1.86-2.26a7.85,7.85,0,0,0,5.65,2.75c1.77,0,3.67-.65,3.67-2.75s-3-2.74-4.32-3.18a15.18,15.18,0,0,1-2.62-1,5,5,0,0,1-3-4.6c0-3.56,3.07-5.49,6.46-5.49a8.4,8.4,0,0,1,6.54,2.5l-1.62,2.38a7,7,0,0,0-4.84-2.06c-1.86,0-3.07.81-3.07,2.38s1.86,2.26,3.76,2.87c1.05.36,1.77.6,2.58.93a7.2,7.2,0,0,1,2.22,1.37,4.74,4.74,0,0,1,1.53,3.55A5.45,5.45,0,0,1,353,1006.16Z"/><path class="cls-1" d="M380.06,998.73H365.29c.2,3.8,2.63,6.1,6.18,6.1a10.59,10.59,0,0,0,6.33-2.22l1.62,2.22c-.25.2-2.71,3-8.44,3s-9.6-4-9.6-10.05a9.51,9.51,0,0,1,9.72-9.93,8.75,8.75,0,0,1,9.08,9.16A16.6,16.6,0,0,1,380.06,998.73Zm-3.55-2.58a5.54,5.54,0,0,0-5.53-5.49,5.64,5.64,0,0,0-5.65,5.49Z"/><path class="cls-1" d="M97.85,800.61h-22V741.06a2.59,2.59,0,0,0-2.49-2.79H66.93V727.8H96.15c15.66,0,21.35,3.39,21.35,21.64,0,8.88-4.39,14.37-10.18,15.26v.6c6.29.4,10.68,4.09,10.68,15.86C118,794.73,110.92,800.61,97.85,800.61Zm-4.69-62.34h-5a1.13,1.13,0,0,0-1.19,1.1v19.35c0,.7.29.9,1,.9h5.19c10.87,0,13-1.8,13.07-11.57C106.23,740.47,104.93,738.27,93.16,738.27ZM95,770.39H88.07a1.16,1.16,0,0,0-1.09,1v17.25a1,1,0,0,0,1,1.1h7.28c10,0,10.78-2.19,10.78-10C106,772.48,103.33,770.39,95,770.39Z"/><path class="cls-1" d="M167.57,766.6c0,31.32-4,35.81-21.45,35.81-17.15,0-21.24-5.19-21.24-35.81V727.7h11.37v39.1c0,22.24,2.79,24.14,9.87,24.14,7.29,0,10-1.5,10-24.14V727.7h11.47Z"/><path class="cls-1" d="M211.86,738.07H190.51a2.77,2.77,0,0,0-2.49,2.6v19.65a2.49,2.49,0,0,0,2.29,2.49h17.56v11.37H190.41a2.58,2.58,0,0,0-2.49,2.69v23.74H176.64V727.7h35.22Zm39.5,0H230a2.77,2.77,0,0,0-2.49,2.6v19.65a2.49,2.49,0,0,0,2.29,2.49h17.56v11.37H229.91a2.58,2.58,0,0,0-2.49,2.69v23.74H216.14V727.7h35.22Z"/><path class="cls-1" d="M307,800.61H295.14l-3.69-16.36a1.24,1.24,0,0,0-1.39-1.09H273.2a1.46,1.46,0,0,0-1.4.9l-3.59,16.65H256.74L273.5,727.8H291Zm-24.93-58.45c-.1-.2-.2-.3-.4-.3s-.4.1-.4.3l-7,31a.82.82,0,0,0,.89.9h13a.9.9,0,0,0,1-1Z"/><path class="cls-1" d="M351.7,800.61H314.19V727.8h12.17v59.35c0,2,1.4,3.29,3.59,3.29H351.7Z"/><path class="cls-1" d="M379.23,802.41c-17.66,0-21.25-5.39-21.25-38.1,0-28.93,3.59-38,21.45-38,18.75,0,21.24,5.79,21.24,38C400.67,798,397.18,802.41,379.23,802.41Zm0-64.74c-7.18,0-9.88,1.2-9.88,26.64,0,24.63,2.6,26.63,9.88,26.63,7.48,0,10-1.7,10-26.63C389.2,738.07,387.41,737.67,379.23,737.67Z"/><path class="cls-1" d="M481,783.16c0,11.87-6.29,19.25-22,19.25-16.85,0-21.34-4.69-21.34-21.95h11.77c0,8.18.9,10.88,9.57,10.88,8,0,9.68-3,9.68-8.38,0-3.69-.5-5.89-7.68-10.87l-6.68-4.69c-8.38-5.89-16.66-10.18-16.66-22.65,0-10.57,5.29-18.45,21.64-18.45,17,0,20.95,4.49,20.95,20.65H468.7c0-9-3.39-9.68-9.68-9.68-7.08,0-9.27,2.8-9.27,7.58,0,3.4,1,5.69,10.17,11.68l7.58,5c6.49,4.29,12.47,9.88,13.27,17.56C480.87,780.46,481,781.86,481,783.16Z"/><path class="cls-1" d="M536.73,800.61H524.86l-3.69-16.36a1.24,1.24,0,0,0-1.4-1.09H502.91a1.45,1.45,0,0,0-1.39.9l-3.6,16.65H486.45l16.76-72.91h17.46Zm-24.94-58.45c-.1-.2-.2-.3-.4-.3s-.4.1-.4.3l-7,31a.82.82,0,0,0,.9.9h13a.9.9,0,0,0,1-1Z"/><path class="cls-1" d="M581.41,800.61h-37.5V727.8h12.17v59.35c0,2,1.39,3.29,3.59,3.29h21.74Z"/><path class="cls-1" d="M636.67,800.61H624.8l-3.69-16.36a1.24,1.24,0,0,0-1.4-1.09H602.86a1.46,1.46,0,0,0-1.4.9l-3.59,16.65H586.4l16.76-72.91h17.45Zm-24.93-58.45c-.11-.2-.2-.3-.4-.3s-.4.1-.4.3l-7,31a.81.81,0,0,0,.89.9h13a.9.9,0,0,0,1-1Z"/><path class="cls-1" d="M664.8,800.61H644.35V727.8H664.8c12.37,0,21.35,4.89,21.35,36.61C686.15,792.23,678,800.61,664.8,800.61Zm-3-62.34H657c-.8,0-1.3.4-1.3,1.2v49.37a1,1,0,0,0,1,1.1h5.09c10.87,0,13-9.38,13-25.53C674.77,746.15,673.68,738.27,661.81,738.27Z"/><g id="Title"><path class="cls-1" d="M75.87,84.65c0,17.68-9.36,28.67-32.67,28.67-25.1,0-31.78-7-31.78-32.68H28.94c0,12.18,1.34,16.19,14.26,16.19,11.88,0,14.4-4.45,14.4-12.47,0-5.5-.74-8.77-11.43-16.19l-10-7C23.74,52.42,11.42,46,11.42,27.47,11.42,11.73,19.29,0,43.64,0,68.89,0,74.83,6.68,74.83,30.74H57.6c0-13.36-5.05-14.4-14.4-14.4-10.55,0-13.81,4.16-13.81,11.28,0,5.05,1.48,8.47,15.14,17.38l11.29,7.42c9.65,6.39,18.57,14.71,19.75,26.14C75.72,80.64,75.87,82.72,75.87,84.65Z"/><path class="cls-1" d="M162,110.64H144.33l-5.49-24.35a1.85,1.85,0,0,0-2.08-1.64h-25.1A2.18,2.18,0,0,0,109.58,86l-5.35,24.8H87.16l25-108.56h26Zm-37.13-87c-.15-.29-.3-.44-.6-.44s-.59.15-.59.44L113.29,69.8a1.22,1.22,0,0,0,1.34,1.34h19.31a1.33,1.33,0,0,0,1.48-1.49Z"/><path class="cls-1" d="M231.66,110.64H175.82V2.23h18.11V90.59c0,3,2.08,4.9,5.35,4.9h32.38Z"/><path class="cls-1" d="M317.05,110.64H299.38l-5.5-24.35a1.85,1.85,0,0,0-2.08-1.64H266.71A2.16,2.16,0,0,0,264.63,86l-5.35,24.8H242.2L267.15,2.23h26Zm-37.13-87c-.15-.29-.29-.44-.59-.44s-.6.15-.6.44L268.34,69.8a1.22,1.22,0,0,0,1.33,1.34H289a1.34,1.34,0,0,0,1.49-1.49Z"/><path class="cls-1" d="M362.05,110.64H331.6V2.23h30.45c18.42,0,31.78,7.27,31.78,54.5C393.83,98.17,381.65,110.64,362.05,110.64Zm-4.46-92.82h-7.12a1.69,1.69,0,0,0-1.93,1.78V93.12A1.44,1.44,0,0,0,350,94.75h7.57c16.19,0,19.31-14,19.31-38C376.9,29.55,375.27,17.82,357.59,17.82Z"/><path class="cls-1" d="M472.39,84.65c0,17.68-9.35,28.67-32.67,28.67-25.1,0-31.78-7-31.78-32.68h17.52c0,12.18,1.34,16.19,14.26,16.19,11.88,0,14.41-4.45,14.41-12.47,0-5.5-.75-8.77-11.44-16.19l-9.95-7c-12.48-8.77-24.8-15.15-24.8-33.72C407.94,11.73,415.81,0,440.17,0c25.24,0,31.18,6.68,31.18,30.74H454.13c0-13.36-5.05-14.4-14.41-14.4-10.54,0-13.81,4.16-13.81,11.28,0,5.05,1.48,8.47,15.15,17.38l11.28,7.42c9.66,6.39,18.57,14.71,19.76,26.14C472.25,80.64,472.39,82.72,472.39,84.65Z"/><line class="cls-2" x1="8" y1="139.68" x2="1101.37" y2="139.68"/></g><path class="cls-1" d="M963.72,223.59c0,4.94-2.39,8.14-8.26,8.66v4H952.2v-4c-6.39-.29-7.91-2.67-7.91-10.06h5.29c0,3.2.24,4.48,2.62,4.83V217l-.64-.41c-3.72-2.61-7.5-4.77-7.5-10.23,0-4.54,2-8,8.14-8.49V193.7h3.26v4.13c6.4.29,7.73,2.56,7.73,9.48H958c0-3.32-.82-4.13-2.5-4.31v9.25l2.27,1.45c3.37,2.15,5.52,5.12,5.87,8C963.66,222.31,963.72,223,963.72,223.59ZM952.2,203.06c-1.92.35-2.5,1.51-2.5,3.2,0,1.22.29,2,2.5,3.72Zm3.26,16.23V227c2.09-.35,2.56-1.45,2.56-3.55C958,222,957.84,221.09,955.46,219.29Z"/><path class="cls-1" d="M994.23,270.78c-18.46,0-21.45-12.67-21.45-18.26h11.77c0,4.39,3.19,7.39,9.68,7.39,8.77,0,11.27-4.39,11.27-12.47,0-9.48-4.29-12.87-10.57-12.87a10.44,10.44,0,0,0-9.58,5.39H974.18V196.67h41.39v16.06h-9.17v-1.6c0-2.39-1.7-4.09-4.69-4.09H986.65c-1.1,0-1.7.8-1.7,2v18.55c2.3-2.3,7-3.89,11.57-3.89,5.49,0,20.65,3.49,20.65,22.74C1017.17,260.6,1013.58,270.78,994.23,270.78Z"/><path class="cls-1" d="M1034.08,235.39a.82.82,0,0,1-.87.88H1028a.83.83,0,0,1-.88-.88v-5.17a.82.82,0,0,1,.88-.87h5.17a.81.81,0,0,1,.87.87Z"/><path class="cls-1" d="M1058,219.63l-6,3.73c-2.26,1.39-3.6,3-3.6,5.35v1.86h9.94c1.75,0,2.39-.93,2.39-2.62v-2.33h6.1v10.65h-25.18V227c0-3.08,1.86-6.34,6.46-9.36l4.19-2.74c7-4.53,8.08-6.74,8.08-9.59,0-2.21-.41-5.53-5.7-5.53-6.28,0-6,4.48-6,7.22v1h-6.57c0-7.09.52-14.71,13-14.71,10.93,0,12.56,4.71,12.56,9.83C1067.64,211.26,1066,214.63,1058,219.63Z"/><path class="cls-1" d="M1085.61,237c-10.76,0-12.51-7.38-12.51-10.64H1080c0,2.56,1.86,4.3,5.64,4.3,5.11,0,6.57-2.56,6.57-7.27,0-5.52-2.5-7.5-6.17-7.5a6.08,6.08,0,0,0-5.58,3.14h-6.51V193.82h24.13v9.36h-5.35v-.93c0-1.4-1-2.39-2.73-2.39h-8.78c-.64,0-1,.47-1,1.17v10.81c1.34-1.34,4.07-2.27,6.74-2.27,3.2,0,12,2,12,13.26C1099,231.09,1096.89,237,1085.61,237Z"/><path class="cls-1" d="M963.72,462.48c0,4.95-2.39,8.14-8.26,8.67v4H952.2v-4c-6.39-.29-7.91-2.68-7.91-10.06h5.29c0,3.2.24,4.48,2.62,4.82V455.85l-.64-.4c-3.72-2.62-7.5-4.77-7.5-10.24,0-4.53,2-8,8.14-8.49v-4.13h3.26v4.13c6.4.29,7.73,2.56,7.73,9.48H958c0-3.31-.82-4.13-2.5-4.3v9.24l2.27,1.46c3.37,2.15,5.52,5.11,5.87,8C963.66,461.2,963.72,461.84,963.72,462.48ZM952.2,442c-1.92.34-2.5,1.51-2.5,3.19,0,1.23.29,2,2.5,3.73Zm3.26,16.22v7.73c2.09-.34,2.56-1.45,2.56-3.54C958,460.85,957.84,460,955.46,458.18Z"/><path class="cls-1" d="M993.83,510.07c-20.45,0-21.85-8.18-21.85-21.54,0-10.88,1.1-14.17,8.28-17.46-6-3-7.08-6.28-7.08-17.26,0-15.66,5.69-19.45,20.85-19.45,16.26,0,21.64,3.1,21.64,18.56,0,9.57-1,14.66-7.48,17.65,8.78,3.09,8.48,9.88,8.48,18C1016.67,504.19,1010.79,510.07,993.83,510.07Zm.9-30.92c-7.88,0-11.48,1.6-11.48,9.18,0,9.07,2.1,11.77,11.48,11.77,9,0,10.77-3.19,10.77-10.78C1005.5,480.75,1002.41,479.15,994.73,479.15Zm-.5-33.41c-6.89,0-10.28,1.29-10.28,10.77,0,9.07,1.5,10.87,10.28,10.87s10.27-2.29,10.27-10.87C1004.5,446.83,1002.51,445.74,994.23,445.74Z"/><path class="cls-1" d="M1034.08,474.29a.82.82,0,0,1-.87.87H1028a.83.83,0,0,1-.88-.87v-5.18a.83.83,0,0,1,.88-.87h5.17a.82.82,0,0,1,.87.87Z"/><path class="cls-1" d="M1058,458.53l-6,3.72c-2.26,1.4-3.6,3-3.6,5.35v1.86h9.94c1.75,0,2.39-.93,2.39-2.62v-2.32h6.1v10.64h-25.18v-9.25c0-3.08,1.86-6.33,6.46-9.36l4.19-2.73c7-4.54,8.08-6.75,8.08-9.6,0-2.21-.41-5.52-5.7-5.52-6.28,0-6,4.48-6,7.21v1h-6.57c0-7.1.52-14.71,13-14.71,10.93,0,12.56,4.71,12.56,9.82C1067.64,450.16,1066,453.53,1058,458.53Z"/><path class="cls-1" d="M1085.61,475.92c-10.76,0-12.51-7.39-12.51-10.65H1080c0,2.56,1.86,4.31,5.64,4.31,5.11,0,6.57-2.56,6.57-7.27,0-5.53-2.5-7.5-6.17-7.5a6.08,6.08,0,0,0-5.58,3.14h-6.51V432.71h24.13v9.36h-5.35v-.93c0-1.39-1-2.38-2.73-2.38h-8.78c-.64,0-1,.46-1,1.16v10.82c1.34-1.34,4.07-2.27,6.74-2.27,3.2,0,12,2,12,13.26C1099,470,1096.89,475.92,1085.61,475.92Z"/><path class="cls-1" d="M963.72,754.72c0,4.94-2.39,8.14-8.26,8.66v4H952.2v-4c-6.39-.29-7.91-2.67-7.91-10h5.29c0,3.19.24,4.47,2.62,4.82V748.09l-.64-.41c-3.72-2.61-7.5-4.76-7.5-10.23,0-4.54,2-8,8.14-8.49v-4.13h3.26V729c6.4.29,7.73,2.56,7.73,9.48H958c0-3.32-.82-4.13-2.5-4.31v9.25l2.27,1.45c3.37,2.16,5.52,5.12,5.87,8C963.66,753.44,963.72,754.08,963.72,754.72ZM952.2,734.19c-1.92.35-2.5,1.52-2.5,3.2,0,1.22.29,2,2.5,3.72Zm3.26,16.23v7.73c2.09-.35,2.56-1.45,2.56-3.55C958,753.09,957.84,752.22,955.46,750.42Z"/><path class="cls-1" d="M993.83,802.31c-20.45,0-21.85-8.18-21.85-21.55,0-10.87,1.1-14.16,8.28-17.45-6-3-7.08-6.29-7.08-17.26,0-15.66,5.69-19.45,20.85-19.45,16.26,0,21.64,3.09,21.64,18.55,0,9.58-1,14.67-7.48,17.66,8.78,3.09,8.48,9.87,8.48,18C1016.67,796.42,1010.79,802.31,993.83,802.31Zm.9-30.92c-7.88,0-11.48,1.59-11.48,9.17,0,9.08,2.1,11.77,11.48,11.77,9,0,10.77-3.19,10.77-10.77C1005.5,773,1002.41,771.39,994.73,771.39Zm-.5-33.42c-6.89,0-10.28,1.3-10.28,10.78,0,9.07,1.5,10.87,10.28,10.87s10.27-2.3,10.27-10.87C1004.5,739.07,1002.51,738,994.23,738Z"/><path class="cls-1" d="M1034.08,766.53a.82.82,0,0,1-.87.87H1028a.83.83,0,0,1-.88-.87v-5.18a.83.83,0,0,1,.88-.87h5.17a.82.82,0,0,1,.87.87Z"/><path class="cls-1" d="M1058,750.77l-6,3.72c-2.26,1.39-3.6,3-3.6,5.35v1.86h9.94c1.75,0,2.39-.93,2.39-2.62v-2.32h6.1V767.4h-25.18v-9.25c0-3.08,1.86-6.34,6.46-9.36l4.19-2.73c7-4.54,8.08-6.75,8.08-9.6,0-2.21-.41-5.52-5.7-5.52-6.28,0-6,4.47-6,7.21v1h-6.57c0-7.1.52-14.72,13-14.72,10.93,0,12.56,4.71,12.56,9.83C1067.64,742.39,1066,745.77,1058,750.77Z"/><path class="cls-1" d="M1085.61,768.15c-10.76,0-12.51-7.38-12.51-10.64H1080c0,2.56,1.86,4.3,5.64,4.3,5.11,0,6.57-2.55,6.57-7.26,0-5.53-2.5-7.51-6.17-7.51a6.08,6.08,0,0,0-5.58,3.14h-6.51V725h24.13v9.36h-5.35v-.93c0-1.4-1-2.38-2.73-2.38h-8.78c-.64,0-1,.46-1,1.16V743c1.34-1.33,4.07-2.26,6.74-2.26,3.2,0,12,2,12,13.25C1099,762.22,1096.89,768.15,1085.61,768.15Z"/></g></g></g></g></g></svg>