<svg xmlns="http://www.w3.org/2000/svg" viewBox="0 0 1109.37 745.14"><defs><style>.cls-1{fill:#333;}.cls-2{fill:#e6e6e6;stroke:#333;stroke-linecap:round;stroke-linejoin:round;stroke-width:16px;}</style></defs><g id="Layer_2" data-name="Layer 2"><g id="Layer_1-2" data-name="Layer 1"><g id="Columns"><g id="Left_Column" data-name="Left Column"><g id="Sides"><path class="cls-1" d="M104.93,202H83.58a2.78,2.78,0,0,0-2.49,2.59v19.65a2.51,2.51,0,0,0,2.3,2.5h17.55v11.37H83.48A2.58,2.58,0,0,0,81,240.82v23.74H69.72V191.65h35.21Z"/><path class="cls-1" d="M155,264.56H142.83l-14.26-27.43a1.08,1.08,0,0,0-1.1-.8h-2.19a.9.9,0,0,0-.9.9v27.33H113.21V191.75h20.35c15.76,0,21.44,6.08,21.44,22.64,0,13.47-4.59,19.55-15,21.35Zm-24.44-62.34h-4.68c-1,0-1.5.3-1.5,1.2v20.94a1.07,1.07,0,0,0,1.1,1.2h5.08c10.88,0,13.07-3,13.07-11.17C143.63,205.81,142.43,202.22,130.56,202.22Z"/><path class="cls-1" d="M176.15,264.56H164.78V191.75h11.37Z"/><path class="cls-1" d="M222,264.56H186.82V191.65H222V202H200.69a2.78,2.78,0,0,0-2.5,2.59v19.65a2.51,2.51,0,0,0,2.3,2.5H218v11.37H200.58a2.51,2.51,0,0,0-2.39,2.69v9.88a2.29,2.29,0,0,0,2.3,2.49H222Z"/><path class="cls-1" d="M272,247.11c0,11.87-6.28,19.25-21.94,19.25-16.86,0-21.35-4.69-21.35-22h11.77c0,8.18.9,10.88,9.58,10.88,8,0,9.67-3,9.67-8.38,0-3.69-.49-5.89-7.68-10.87l-6.68-4.69c-8.38-5.89-16.66-10.18-16.66-22.65,0-10.57,5.29-18.45,21.65-18.45,17,0,20.95,4.49,20.95,20.65H259.73c0-9-3.39-9.68-9.67-9.68-7.08,0-9.28,2.8-9.28,7.58,0,3.4,1,5.69,10.18,11.67l7.58,5C265,229.75,271,235.34,271.8,243,271.9,244.41,272,245.81,272,247.11Z"/><path class="cls-1" d="M108.62,321.92h-13a2.32,2.32,0,0,0-2.19,2.49v59.85H82.09V324.31c0-1.4-.6-2.39-1.9-2.39H66.93V311.34h41.69Z"/><path class="cls-1" d="M155.8,384.26H143.93l-3.69-16.36a1.24,1.24,0,0,0-1.39-1.1H122a1.46,1.46,0,0,0-1.4.9L117,384.36H105.53l16.76-72.92h17.45Zm-24.93-58.45c-.1-.2-.2-.3-.4-.3s-.4.1-.4.3l-7,31a.82.82,0,0,0,.9.9h13a.9.9,0,0,0,1-1Z"/><path class="cls-1" d="M195.3,321.92h-13a2.32,2.32,0,0,0-2.2,2.49v59.85H168.77V324.31c0-1.4-.6-2.39-1.9-2.39H153.61V311.34H195.3Z"/><path class="cls-1" d="M237,384.26H201.78V311.34H237v10.38H215.65a2.76,2.76,0,0,0-2.49,2.59V344a2.49,2.49,0,0,0,2.29,2.49H233v11.38H215.55a2.49,2.49,0,0,0-2.39,2.69v9.87a2.29,2.29,0,0,0,2.29,2.5H237Z"/><path class="cls-1" d="M287.37,384.26H275.2l-14.27-27.43a1.07,1.07,0,0,0-1.09-.8h-2.2a.9.9,0,0,0-.9.9v27.33H245.57V311.44h20.35c15.76,0,21.45,6.09,21.45,22.64,0,13.47-4.59,19.56-15,21.35Zm-24.44-62.34h-4.69c-1,0-1.5.3-1.5,1.19v20.95a1.07,1.07,0,0,0,1.1,1.2h5.09c10.87,0,13.07-3,13.07-11.18C276,325.51,274.8,321.92,262.93,321.92Z"/><path class="cls-1" d="M364.57,321.92h-13a2.32,2.32,0,0,0-2.19,2.49v59.85H338V324.31c0-1.4-.6-2.39-1.9-2.39H322.87V311.34h41.7Z"/><path class="cls-1" d="M390.3,386.05c-17.65,0-21.24-5.38-21.24-38.1,0-28.93,3.59-38,21.44-38,18.76,0,21.25,5.78,21.25,38C411.75,381.66,408.26,386.05,390.3,386.05Zm0-64.73c-7.18,0-9.87,1.19-9.87,26.63,0,24.64,2.59,26.63,9.87,26.63,7.48,0,10-1.69,10-26.63C400.28,321.72,398.48,321.32,390.3,321.32Z"/><path class="cls-1" d="M458.53,321.92h-13a2.32,2.32,0,0,0-2.19,2.49v59.85H432V324.31c0-1.4-.6-2.39-1.9-2.39H416.84V311.34h41.69Z"/><path class="cls-1" d="M506.21,366.8c0,11.87-6.29,19.25-21.95,19.25-16.85,0-21.34-4.68-21.34-21.94h11.77c0,8.18.9,10.87,9.57,10.87,8,0,9.68-3,9.68-8.38,0-3.69-.5-5.88-7.68-10.87L479.58,351c-8.38-5.88-16.66-10.17-16.66-22.64,0-10.57,5.28-18.45,21.64-18.45,17,0,20.95,4.49,20.95,20.64H493.94c0-9-3.39-9.67-9.68-9.67-7.08,0-9.27,2.79-9.27,7.58,0,3.39,1,5.68,10.17,11.67l7.58,5c6.49,4.29,12.47,9.87,13.27,17.55C506.11,364.11,506.21,365.51,506.21,366.8Z"/><path class="cls-1" d="M91.27,504h-22V431.14H89.57c15.66,0,21.35,3.39,21.35,21.64,0,8.88-4.39,14.37-10.18,15.26v.6c6.28.4,10.67,4.09,10.67,15.86C111.41,498.07,104.33,504,91.27,504Zm-4.69-62.34H81.49c-.7,0-1.1.4-1.1,1.2v19.05c0,.7.4,1.1.9,1.1h5.29c10.87,0,13-1.8,13-11.57C99.54,443.81,98.45,441.61,86.58,441.61Zm1.79,32.12h-7c-.6,0-1,.3-1,.8V492a1,1,0,0,0,1,1.1h7.28c10,0,10.77-2.19,10.77-10C99.44,475.83,96.75,473.73,88.37,473.73Z"/><path class="cls-1" d="M166,504H154.1l-3.69-16.35a1.24,1.24,0,0,0-1.39-1.1H132.16a1.46,1.46,0,0,0-1.4.9l-3.59,16.65H115.7l16.76-72.91h17.46ZM141,445.5c-.1-.2-.2-.3-.4-.3s-.4.1-.4.3l-7,31a.82.82,0,0,0,.9.9h13a.9.9,0,0,0,1-1Z"/><path class="cls-1" d="M215.05,504.05H202.68l-16-27.63a2,2,0,0,0-1.49-1.19c-.4,0-.7.3-.7.89v27.93H173.26V431.14h11.27v28.33c0,.79.4,1,.9,1a1.79,1.79,0,0,0,1.59-.89l15.66-28.43h12.37L196.3,465.65a3.94,3.94,0,0,0-.5,2,4.64,4.64,0,0,0,.5,2.09Z"/><path class="cls-1" d="M257.44,504H222.23V431h35.21v10.37H236.1a2.78,2.78,0,0,0-2.5,2.6v19.65a2.5,2.5,0,0,0,2.3,2.49h17.55v11.37H236a2.51,2.51,0,0,0-2.4,2.69v9.88a2.29,2.29,0,0,0,2.3,2.49h21.54Z"/><path class="cls-1" d="M286.07,504H265.62V431.14h20.45c12.37,0,21.35,4.89,21.35,36.61C307.42,495.58,299.24,504,286.07,504Zm-3-62.34h-4.79c-.8,0-1.3.4-1.3,1.2v49.37a1,1,0,0,0,1,1.1h5.09c10.87,0,13-9.37,13-25.53C296,449.49,295,441.61,283.08,441.61Z"/><path class="cls-1" d="M367.46,504h-22V431.14h20.34c15.66,0,21.35,3.39,21.35,21.64,0,8.88-4.39,14.37-10.17,15.26v.6c6.28.4,10.67,4.09,10.67,15.86C387.61,498.07,380.53,504,367.46,504Zm-4.69-62.34h-5.08c-.7,0-1.1.4-1.1,1.2v19.05c0,.7.4,1.1.9,1.1h5.28c10.87,0,13-1.8,13-11.57C375.74,443.81,374.64,441.61,362.77,441.61Zm1.8,32.12h-7c-.6,0-1,.3-1,.8V492a1,1,0,0,0,1,1.1h7.28c10,0,10.77-2.19,10.77-10C375.64,475.83,373,473.73,364.57,473.73Z"/><path class="cls-1" d="M430.4,504H395.19V431H430.4v10.37H409.05a2.78,2.78,0,0,0-2.49,2.6v19.65a2.5,2.5,0,0,0,2.29,2.49h17.56v11.37H409a2.51,2.51,0,0,0-2.39,2.69v9.88a2.28,2.28,0,0,0,2.29,2.49H430.4Z"/><path class="cls-1" d="M486.36,504H474.49L470.8,487.6a1.24,1.24,0,0,0-1.4-1.1H452.54a1.45,1.45,0,0,0-1.39.9l-3.59,16.65H436.08l16.76-72.91H470.3ZM461.42,445.5c-.1-.2-.2-.3-.4-.3s-.4.1-.4.3l-7,31a.82.82,0,0,0,.9.9h13a.9.9,0,0,0,1-1Z"/><path class="cls-1" d="M536.53,504H525.16l-18.75-43.29a.52.52,0,0,0-.4-.29.36.36,0,0,0-.4.39V504H494.24V431.14h11.37l18.75,43.79a.66.66,0,0,0,.5.4.45.45,0,0,0,.3-.4V431.14h11.37Z"/><path class="cls-1" d="M588.3,486.5c0,11.87-6.29,19.25-21.95,19.25-16.85,0-21.34-4.69-21.34-21.94h11.77c0,8.17.89,10.87,9.57,10.87,8,0,9.68-3,9.68-8.38,0-3.69-.5-5.89-7.68-10.87l-6.68-4.69C553.29,464.85,545,460.56,545,448.1c0-10.58,5.28-18.46,21.64-18.46,17,0,21,4.49,21,20.65H576c0-9-3.39-9.67-9.68-9.67-7.08,0-9.27,2.79-9.27,7.58,0,3.39,1,5.68,10.17,11.67l7.58,5c6.48,4.29,12.47,9.88,13.27,17.56C588.2,483.81,588.3,485.2,588.3,486.5Z"/><path class="cls-1" d="M91.27,623.65h-22V550.83H89.57c15.66,0,21.35,3.4,21.35,21.65,0,8.88-4.39,14.36-10.18,15.26v.6c6.28.4,10.67,4.09,10.67,15.86C111.41,617.76,104.33,623.65,91.27,623.65Zm-4.69-62.34H81.49c-.7,0-1.1.4-1.1,1.19v19.06c0,.69.4,1.09.9,1.09h5.29c10.87,0,13-1.79,13-11.57C99.54,563.5,98.45,561.31,86.58,561.31Zm1.79,32.12h-7c-.6,0-1,.3-1,.79v17.46a1,1,0,0,0,1,1.1h7.28c10,0,10.77-2.2,10.77-10C99.44,595.52,96.75,593.43,88.37,593.43Z"/><path class="cls-1" d="M161.59,623.65H149.42l-14.27-27.43a1.08,1.08,0,0,0-1.09-.8h-2.2a.9.9,0,0,0-.9.9v27.33H119.79V550.83h20.35c15.76,0,21.45,6.09,21.45,22.65,0,13.46-4.59,19.55-15,21.34Zm-24.44-62.34h-4.69c-1,0-1.5.3-1.5,1.19v21a1.07,1.07,0,0,0,1.1,1.2h5.09c10.87,0,13.06-3,13.06-11.17C150.21,564.9,149,561.31,137.15,561.31Z"/><path class="cls-1" d="M190.31,625.45c-17.65,0-21.24-5.39-21.24-38.11,0-28.92,3.59-38,21.44-38,18.75,0,21.25,5.78,21.25,38C211.76,621.06,208.27,625.45,190.31,625.45Zm0-64.74c-7.18,0-9.87,1.2-9.87,26.63C180.44,612,183,614,190.31,614c7.48,0,10-1.69,10-26.63C200.29,561.11,198.49,560.71,190.31,560.71Z"/><path class="cls-1" d="M261.33,603.2c-1.2,18.95-6.28,22.25-20.85,22.25-17.65,0-21.24-5.39-21.24-38.11,0-28.92,3.59-38,21.44-38,14.87,0,19.35,3.59,20.65,21H249.76c0-8.77-3.09-9.67-9.28-9.67-7,0-9.87,1.2-9.87,26.63,0,24.64,3,26.63,9.87,26.63s9.18-2,9.18-10.77Z"/><path class="cls-1" d="M310.9,603.2c-1.19,18.95-6.28,22.25-20.84,22.25-17.66,0-21.25-5.39-21.25-38.11,0-28.92,3.59-38,21.45-38,14.86,0,19.35,3.59,20.64,21H299.33c0-8.77-3.09-9.67-9.27-9.67-7,0-9.88,1.2-9.88,26.63,0,24.64,3,26.63,9.88,26.63s9.17-2,9.17-10.77Z"/><path class="cls-1" d="M339.93,625.45c-17.66,0-21.25-5.39-21.25-38.11,0-28.92,3.59-38,21.45-38,18.75,0,21.24,5.78,21.24,38C361.37,621.06,357.88,625.45,339.93,625.45Zm0-64.74c-7.18,0-9.88,1.2-9.88,26.63,0,24.64,2.6,26.63,9.88,26.63,7.48,0,10-1.69,10-26.63C349.9,561.11,348.11,560.71,339.93,560.71Z"/><path class="cls-1" d="M407.36,623.65H369.85V550.83H382v59.35c0,2,1.4,3.3,3.59,3.3h21.75Z"/><path class="cls-1" d="M427.31,623.65H415.94V550.83h11.37Z"/><path class="cls-1" d="M509.69,606.19c0,11.87-6.28,19.26-21.94,19.26-16.86,0-21.35-4.69-21.35-22h11.77c0,8.18.9,10.87,9.58,10.87,8,0,9.68-3,9.68-8.38,0-3.69-.5-5.88-7.68-10.87l-6.69-4.69c-8.38-5.88-16.66-10.17-16.66-22.64,0-10.57,5.29-18.45,21.65-18.45,17,0,20.95,4.49,20.95,20.65H497.43c0-9-3.4-9.68-9.68-9.68-7.08,0-9.28,2.79-9.28,7.58,0,3.39,1,5.69,10.18,11.67l7.58,5c6.48,4.29,12.47,9.87,13.27,17.55C509.59,603.5,509.69,604.9,509.69,606.19Z"/><path class="cls-1" d="M565.45,623.65H553.58l-3.69-16.36a1.24,1.24,0,0,0-1.39-1.1H531.64a1.46,1.46,0,0,0-1.4.9l-3.59,16.66H515.18l16.76-72.92h17.45ZM540.52,565.2c-.1-.2-.2-.3-.4-.3s-.4.1-.4.3l-7,31a.81.81,0,0,0,.89.9h13a.9.9,0,0,0,1-1Z"/><path class="cls-1" d="M610.14,623.65H572.63V550.83H584.8v59.35c0,2,1.4,3.3,3.59,3.3h21.75Z"/><path class="cls-1" d="M665.4,623.65H653.53l-3.69-16.36a1.24,1.24,0,0,0-1.4-1.1H631.58a1.46,1.46,0,0,0-1.39.9l-3.59,16.66H615.13l16.75-72.92h17.46ZM640.46,565.2c-.1-.2-.2-.3-.4-.3s-.4.1-.4.3l-7,31a.82.82,0,0,0,.9.9h13a.89.89,0,0,0,1-1Z"/><path class="cls-1" d="M693.53,623.65H673.08V550.83h20.45c12.36,0,21.34,4.89,21.34,36.61C714.87,615.27,706.69,623.65,693.53,623.65Zm-3-62.34h-4.78c-.8,0-1.3.4-1.3,1.19v49.38a1,1,0,0,0,1,1.1h5.08c10.88,0,13-9.38,13-25.54C703.5,569.19,702.4,561.31,690.53,561.31Z"/><path class="cls-1" d="M111.41,725.89c0,11.87-6.28,19.25-21.94,19.25-16.86,0-21.35-4.69-21.35-21.94H79.89c0,8.18.9,10.87,9.58,10.87,8,0,9.68-3,9.68-8.38,0-3.69-.5-5.89-7.69-10.87l-6.68-4.69C76.4,704.24,68.12,700,68.12,687.49c0-10.58,5.29-18.46,21.65-18.46,17,0,21,4.49,21,20.65H99.15c0-9-3.4-9.67-9.68-9.67-7.08,0-9.28,2.79-9.28,7.58,0,3.39,1,5.68,10.18,11.67l7.58,5c6.48,4.29,12.47,9.88,13.26,17.56C111.31,723.2,111.41,724.59,111.41,725.89Z"/><path class="cls-1" d="M131.86,743.34H120.49V670.53h11.37Z"/><path class="cls-1" d="M163.38,743.34H142.93V670.53h20.45c12.37,0,21.35,4.89,21.35,36.61C184.73,735,176.55,743.34,163.38,743.34Zm-3-62.34H155.6c-.8,0-1.3.4-1.3,1.2v49.37a1,1,0,0,0,1,1.1h5.09c10.87,0,13-9.37,13-25.53C173.35,688.88,172.26,681,160.39,681Z"/><path class="cls-1" d="M228.41,743.34H193.2V670.43h35.21V680.8H207.07a2.78,2.78,0,0,0-2.5,2.6v19.65a2.5,2.5,0,0,0,2.3,2.49h17.55v11.37H207a2.51,2.51,0,0,0-2.4,2.7v9.87a2.29,2.29,0,0,0,2.3,2.49h21.54Z"/><path class="cls-1" d="M295.54,690.08c0-8.78-3.09-9.68-9.27-9.68-7,0-9.88,1.2-9.88,26.64,0,24.63,3,26.63,9.88,26.63,6.58,0,9.17-1.8,9.17-10v-5.18c0-1-.4-1.6-1.39-1.6h-7.78V705.54H307c.2,2.89.4,5.89.4,9,0,26.53-4.89,30.62-21.14,30.62-17.66,0-21.25-5.39-21.25-38.1,0-28.93,3.59-38,21.45-38,14.86,0,19.35,3.59,20.64,21.05Z"/><path class="cls-1" d="M362.37,743.34H350.5L346.81,727a1.24,1.24,0,0,0-1.4-1.1H328.56a1.46,1.46,0,0,0-1.4.9l-3.59,16.65H312.1l16.76-72.91h17.45Zm-24.94-58.45c-.1-.2-.19-.3-.39-.3s-.4.1-.4.3l-7,31a.82.82,0,0,0,.9.9h13a.9.9,0,0,0,1-1Z"/><path class="cls-1" d="M412.24,743.34H400.08l-14.27-27.43a1.09,1.09,0,0,0-1.1-.79h-2.19a.89.89,0,0,0-.9.89v27.33H370.45V670.53H390.8c15.76,0,21.44,6.08,21.44,22.64,0,13.47-4.58,19.55-15,21.35ZM387.81,681h-4.69c-1,0-1.5.3-1.5,1.2v20.95a1.07,1.07,0,0,0,1.1,1.19h5.09c10.87,0,13.06-3,13.06-11.17C400.87,684.59,399.68,681,387.81,681Z"/><path class="cls-1" d="M441.37,743.34H420.92V670.53h20.45c12.37,0,21.35,4.89,21.35,36.61C462.72,735,454.54,743.34,441.37,743.34Zm-3-62.34h-4.79c-.8,0-1.3.4-1.3,1.2v49.37a1,1,0,0,0,1,1.1h5.09c10.87,0,13-9.37,13-25.53C451.34,688.88,450.25,681,438.38,681Z"/><path class="cls-1" d="M506.4,743.34H471.19V670.43H506.4V680.8H485.06a2.78,2.78,0,0,0-2.5,2.6v19.65a2.5,2.5,0,0,0,2.3,2.49h17.55v11.37H485a2.51,2.51,0,0,0-2.4,2.7v9.87a2.29,2.29,0,0,0,2.3,2.49H506.4Z"/><path class="cls-1" d="M557.07,743.34H545.7L527,700.05a.54.54,0,0,0-.4-.29.36.36,0,0,0-.4.39v43.19H514.78V670.53h11.37l18.76,43.79a.65.65,0,0,0,.49.4.45.45,0,0,0,.3-.4V670.53h11.37Z"/><path class="cls-1" d="M638.37,725.89c0,11.87-6.29,19.25-22,19.25-16.85,0-21.34-4.69-21.34-21.94h11.77c0,8.18.89,10.87,9.57,10.87,8,0,9.68-3,9.68-8.38,0-3.69-.5-5.89-7.68-10.87l-6.69-4.69c-8.37-5.89-16.65-10.17-16.65-22.64,0-10.58,5.28-18.46,21.64-18.46,17,0,20.95,4.49,20.95,20.65H626.1c0-9-3.39-9.67-9.68-9.67-7.08,0-9.27,2.79-9.27,7.58,0,3.39,1,5.68,10.17,11.67l7.58,5c6.48,4.29,12.47,9.88,13.27,17.56C638.27,723.2,638.37,724.59,638.37,725.89Z"/><path class="cls-1" d="M694.12,743.34H682.25L678.56,727a1.24,1.24,0,0,0-1.39-1.1H660.31a1.46,1.46,0,0,0-1.4.9l-3.59,16.65H643.85l16.76-72.91h17.45Zm-24.93-58.45c-.1-.2-.2-.3-.4-.3s-.4.1-.4.3l-7,31a.82.82,0,0,0,.89.9h13a.9.9,0,0,0,1-1Z"/><path class="cls-1" d="M738.81,743.34h-37.5V670.53h12.16v59.35c0,2,1.4,3.29,3.6,3.29h21.74Z"/><path class="cls-1" d="M794.07,743.34H782.2L778.51,727a1.24,1.24,0,0,0-1.4-1.1H760.26a1.46,1.46,0,0,0-1.4.9l-3.59,16.65H743.8l16.75-72.91H778Zm-24.94-58.45c-.1-.2-.2-.3-.4-.3s-.4.1-.4.3l-7,31a.82.82,0,0,0,.9.9h13a.9.9,0,0,0,1-1Z"/><path class="cls-1" d="M822.2,743.34H801.75V670.53H822.2c12.37,0,21.34,4.89,21.34,36.61C843.54,735,835.37,743.34,822.2,743.34Zm-3-62.34h-4.79c-.8,0-1.3.4-1.3,1.2v49.37a1,1,0,0,0,1,1.1h5.09c10.87,0,13-9.37,13-25.53C832.17,688.88,831.08,681,819.21,681Z"/><path class="cls-1" d="M75.87,84.65c0,17.68-9.36,28.67-32.67,28.67-25.1,0-31.78-7-31.78-32.68H28.94c0,12.18,1.34,16.19,14.26,16.19,11.88,0,14.4-4.45,14.4-12.47,0-5.5-.74-8.77-11.43-16.19l-10-7C23.74,52.42,11.42,46,11.42,27.47,11.42,11.73,19.29,0,43.64,0,68.89,0,74.83,6.68,74.83,30.74H57.6c0-13.36-5.05-14.4-14.4-14.4-10.55,0-13.81,4.16-13.81,11.28,0,5.05,1.48,8.47,15.14,17.38l11.29,7.42c9.65,6.39,18.57,14.71,19.75,26.14C75.72,80.64,75.87,82.72,75.87,84.65Z"/><path class="cls-1" d="M100.82,19.75a9.8,9.8,0,1,1,0-19.6,9.92,9.92,0,0,1,10,9.8A9.82,9.82,0,0,1,100.82,19.75Zm8.46,90.89H92.35V26h16.93Z"/><path class="cls-1" d="M168.54,110.64h-30.3V21.53a3.55,3.55,0,0,0-3.71-3.86H125V2.08l43.52.15c18.56.15,31.78,7.42,31.78,54.5C200.32,98.17,188.14,110.64,168.54,110.64Zm-4.46-92.82h-6.83A2,2,0,0,0,155,20.05V92.67c0,1.49.75,2.08,1.93,2.08h7.13c16.19,0,19.46-14,19.46-38C183.54,29.55,181.76,17.82,164.08,17.82Z"/><path class="cls-1" d="M267.89,110.64H215.47V2.08h52.42V17.52H236.11a4.13,4.13,0,0,0-3.71,3.87V50.64a3.73,3.73,0,0,0,3.41,3.72H262V71.29H236a3.72,3.72,0,0,0-3.56,4V90c0,1.63.89,3.71,3.41,3.71h32.08Z"/><path class="cls-1" d="M345.41,84.65c0,17.68-9.35,28.67-32.67,28.67-25.1,0-31.78-7-31.78-32.68h17.52c0,12.18,1.34,16.19,14.26,16.19,11.88,0,14.41-4.45,14.41-12.47,0-5.5-.75-8.77-11.44-16.19l-9.95-7C293.29,52.42,281,46,281,27.47,281,11.73,288.83,0,313.19,0c25.24,0,31.18,6.68,31.18,30.74H327.15c0-13.36-5-14.4-14.41-14.4-10.54,0-13.81,4.16-13.81,11.28,0,5.05,1.48,8.47,15.15,17.38l11.28,7.42c9.66,6.39,18.57,14.71,19.76,26.14C345.27,80.64,345.41,82.72,345.41,84.65Z"/><line class="cls-2" x1="8" y1="139.78" x2="1101.37" y2="139.78"/><path class="cls-1" d="M963.72,211.89c0,4.94-2.39,8.14-8.26,8.66v4H952.2v-4c-6.39-.29-7.91-2.67-7.91-10.06h5.29c0,3.2.24,4.48,2.62,4.83V205.26l-.64-.41c-3.72-2.62-7.5-4.77-7.5-10.24,0-4.53,2-8,8.14-8.49V182h3.26v4.12c6.39.3,7.73,2.56,7.73,9.48H958c0-3.31-.81-4.13-2.5-4.3v9.25l2.27,1.45c3.37,2.15,5.52,5.12,5.87,8C963.66,210.61,963.72,211.25,963.72,211.89ZM952.2,191.36c-1.92.35-2.5,1.51-2.5,3.2,0,1.22.29,2,2.5,3.72Zm3.26,16.22v7.74c2.09-.35,2.56-1.46,2.56-3.55C958,210.26,957.84,209.38,955.46,207.58Z"/><path class="cls-1" d="M1000.91,229.25l-10.27,6.38c-3.89,2.4-6.19,5.09-6.19,9.18V248h17.06c3,0,4.09-1.59,4.09-4.49v-4h10.47v18.26H972.88V241.92c0-5.29,3.19-10.87,11.07-16.06l7.19-4.69c12-7.78,13.86-11.57,13.86-16.46,0-3.79-.7-9.47-9.78-9.47-10.77,0-10.27,7.68-10.27,12.37v1.69H973.68c0-12.17.9-25.23,22.24-25.23,18.75,0,21.55,8.07,21.55,16.85C1017.47,214.89,1014.67,220.67,1000.91,229.25Z"/><path class="cls-1" d="M1034.58,223.69a.82.82,0,0,1-.87.87h-5.17a.83.83,0,0,1-.88-.87v-5.18a.83.83,0,0,1,.88-.87h5.17a.82.82,0,0,1,.87.87Z"/><path class="cls-1" d="M1054.59,225.32c-10.76,0-12.51-7.39-12.51-10.64H1049c0,2.56,1.86,4.3,5.64,4.3,5.11,0,6.57-2.56,6.57-7.27,0-5.52-2.5-7.5-6.17-7.5a6.1,6.1,0,0,0-5.58,3.14h-6.51V182.11H1067v9.36h-5.35v-.93c0-1.39-1-2.38-2.73-2.38h-8.78c-.64,0-1,.46-1,1.16v10.82c1.34-1.34,4.07-2.27,6.74-2.27,3.2,0,12,2,12,13.26C1068,219.39,1065.87,225.32,1054.59,225.32Z"/><path class="cls-1" d="M1098,216c0,8.08-4.65,9.36-12,9.36-10,0-12.1-2.33-12.1-9.36V189.79c0-5.47,3.09-8.08,12.16-8.08,7.85,0,11.92,2.61,11.92,8.08Zm-6.69-20c0-6-1-7.73-5.18-7.73-4.65,0-5.4,1.28-5.4,7.73v16.17c0,5.29,1.68,6.57,5.35,6.57,3.83,0,5.23-2.15,5.23-6.57Z"/><path class="cls-1" d="M963.72,331.58c0,4.94-2.39,8.14-8.26,8.67v4H952.2v-4c-6.39-.29-7.91-2.68-7.91-10.06h5.29c0,3.19.24,4.47,2.62,4.82V325l-.64-.41c-3.72-2.61-7.5-4.76-7.5-10.23,0-4.54,2-8,8.14-8.49v-4.13h3.26v4.13c6.39.29,7.73,2.56,7.73,9.48H958c0-3.32-.81-4.13-2.5-4.3v9.24l2.27,1.46c3.37,2.15,5.52,5.11,5.87,8C963.66,330.3,963.72,330.94,963.72,331.58ZM952.2,311.05c-1.92.35-2.5,1.52-2.5,3.2,0,1.22.29,2,2.5,3.72Zm3.26,16.23V335c2.09-.35,2.56-1.45,2.56-3.55C958,330,957.84,329.08,955.46,327.28Z"/><path class="cls-1" d="M1000.91,349l-10.27,6.38c-3.89,2.39-6.19,5.09-6.19,9.18v3.19h17.06c3,0,4.09-1.6,4.09-4.49v-4h10.47v18.25H972.88V361.61c0-5.28,3.19-10.87,11.07-16.06l7.19-4.68c12-7.78,13.86-11.57,13.86-16.46,0-3.79-.7-9.48-9.78-9.48-10.77,0-10.27,7.68-10.27,12.37V329H973.68c0-12.17.9-25.24,22.24-25.24,18.75,0,21.55,8.08,21.55,16.86C1017.47,334.58,1014.67,340.37,1000.91,349Z"/><path class="cls-1" d="M1034.58,343.39a.82.82,0,0,1-.87.87h-5.17a.83.83,0,0,1-.88-.87v-5.18a.83.83,0,0,1,.88-.87h5.17a.82.82,0,0,1,.87.87Z"/><path class="cls-1" d="M1054.59,345c-10.76,0-12.51-7.38-12.51-10.64H1049c0,2.56,1.86,4.3,5.64,4.3,5.11,0,6.57-2.55,6.57-7.26,0-5.53-2.5-7.5-6.17-7.5a6.1,6.1,0,0,0-5.58,3.13h-6.51V301.81H1067v9.36h-5.35v-.93c0-1.4-1-2.38-2.73-2.38h-8.78c-.64,0-1,.46-1,1.16v10.81c1.34-1.33,4.07-2.26,6.74-2.26,3.2,0,12,2,12,13.26C1068,339.08,1065.87,345,1054.59,345Z"/><path class="cls-1" d="M1098,335.65c0,8.08-4.65,9.36-12,9.36-10,0-12.1-2.32-12.1-9.36V309.48c0-5.46,3.09-8.08,12.16-8.08,7.85,0,11.92,2.62,11.92,8.08Zm-6.69-20c0-6-1-7.74-5.18-7.74-4.65,0-5.4,1.28-5.4,7.74v16.16c0,5.3,1.68,6.57,5.35,6.57,3.83,0,5.23-2.15,5.23-6.57Z"/><path class="cls-1" d="M963.72,451.28c0,4.94-2.39,8.14-8.26,8.66v4H952.2v-4c-6.39-.29-7.91-2.67-7.91-10.06h5.29c0,3.2.24,4.48,2.62,4.83V444.65l-.64-.41c-3.72-2.62-7.5-4.77-7.5-10.23,0-4.54,2-8,8.14-8.49v-4.13h3.26v4.13c6.39.29,7.73,2.56,7.73,9.48H958c0-3.32-.81-4.13-2.5-4.31v9.25l2.27,1.45c3.37,2.15,5.52,5.12,5.87,8C963.66,450,963.72,450.64,963.72,451.28ZM952.2,430.75c-1.92.35-2.5,1.51-2.5,3.2,0,1.22.29,2,2.5,3.72ZM955.46,447v7.74c2.09-.35,2.56-1.46,2.56-3.55C958,449.65,957.84,448.78,955.46,447Z"/><path class="cls-1" d="M993.73,498.47c-22.15,0-22.24-11.57-22.24-24.34h12.16c0,7.48,1,13.56,10.28,13.56,8.88,0,10.17-5.08,10.17-11.17,0-7.08-3-10.37-11.27-10.37h-5.19V454.38h4.89c7.18,0,11.37-1.5,11.37-12.17,0-6.18-3.89-7.58-10-7.58-8.28,0-10.38,3.89-10.38,13.37H971.68c0-12.37,2.3-24.34,21.85-24.34,16.46,0,22,3.79,22,17.95,0,15-4,17.26-10.37,17.66,6.48,1.19,11.07,2.79,11.07,18.85C1016.27,494.58,1008.09,498.47,993.73,498.47Z"/><path class="cls-1" d="M1033,463.08a.82.82,0,0,1-.87.87h-5.18a.82.82,0,0,1-.87-.87v-5.17a.83.83,0,0,1,.87-.88h5.18a.83.83,0,0,1,.87.88Z"/><path class="cls-1" d="M1053,464.71c-10.76,0-12.5-7.38-12.5-10.64h6.86c0,2.56,1.86,4.3,5.64,4.3,5.12,0,6.57-2.56,6.57-7.27,0-5.52-2.5-7.5-6.16-7.5a6.08,6.08,0,0,0-5.58,3.14h-6.52V421.5h24.14v9.37h-5.35v-.93c0-1.4-1-2.39-2.74-2.39h-8.78c-.64,0-1,.47-1,1.16v10.82c1.34-1.34,4.08-2.27,6.75-2.27,3.2,0,12,2,12,13.26C1066.37,458.78,1064.27,464.71,1053,464.71Z"/><path class="cls-1" d="M1096.37,455.35c0,8.08-4.65,9.36-12,9.36-9.94,0-12.09-2.33-12.09-9.36V429.18c0-5.47,3.08-8.08,12.15-8.08,7.85,0,11.92,2.61,11.92,8.08Zm-6.68-20c0-6-1-7.73-5.18-7.73-4.65,0-5.41,1.28-5.41,7.73v16.17c0,5.29,1.69,6.57,5.35,6.57,3.84,0,5.24-2.15,5.24-6.57Z"/><path class="cls-1" d="M963.72,571c0,4.95-2.39,8.14-8.26,8.67v4H952.2v-4c-6.39-.29-7.91-2.68-7.91-10.06h5.29c0,3.2.24,4.47,2.62,4.82V564.34l-.64-.4c-3.72-2.62-7.5-4.77-7.5-10.24,0-4.53,2-8,8.14-8.49v-4.13h3.26v4.13c6.39.29,7.73,2.56,7.73,9.48H958c0-3.31-.81-4.13-2.5-4.3v9.24l2.27,1.46c3.37,2.15,5.52,5.11,5.87,8C963.66,569.69,963.72,570.33,963.72,571ZM952.2,550.45c-1.92.34-2.5,1.51-2.5,3.19,0,1.22.29,2,2.5,3.73Zm3.26,16.22v7.73c2.09-.35,2.56-1.45,2.56-3.54C958,569.34,957.84,568.47,955.46,566.67Z"/><path class="cls-1" d="M993.73,618.16c-22.15,0-22.24-11.57-22.24-24.34h12.16c0,7.48,1,13.57,10.28,13.57,8.88,0,10.17-5.09,10.17-11.17,0-7.08-3-10.38-11.27-10.38h-5.19V574.07h4.89c7.18,0,11.37-1.49,11.37-12.16,0-6.19-3.89-7.59-10-7.59-8.28,0-10.38,3.89-10.38,13.37H971.68c0-12.37,2.3-24.34,21.85-24.34,16.46,0,22,3.79,22,18,0,15-4,17.25-10.37,17.65,6.48,1.2,11.07,2.79,11.07,18.85C1016.27,614.27,1008.09,618.16,993.73,618.16Z"/><path class="cls-1" d="M1033,582.78a.82.82,0,0,1-.87.87h-5.18a.82.82,0,0,1-.87-.87V577.6a.82.82,0,0,1,.87-.87h5.18a.82.82,0,0,1,.87.87Z"/><path class="cls-1" d="M1067.76,545.39,1049,583.65h-7.45l17.45-35.3a.8.8,0,0,0,.12-.41c0-.34-.29-.64-.88-.64H1049c-3.43,0-3.2.47-3.2,3.38v1H1040V541.2h27.79Z"/><path class="cls-1" d="M1085.15,584.41c-10.76,0-12.5-7.39-12.5-10.65h6.86c0,2.56,1.86,4.31,5.64,4.31,5.12,0,6.57-2.56,6.57-7.27,0-5.53-2.5-7.5-6.16-7.5a6.1,6.1,0,0,0-5.59,3.14h-6.51V541.2h24.13v9.36h-5.35v-.93c0-1.39-1-2.38-2.73-2.38h-8.78c-.64,0-1,.46-1,1.16v10.82c1.34-1.34,4.07-2.27,6.75-2.27,3.2,0,12,2,12,13.26C1098.52,578.47,1096.43,584.41,1085.15,584.41Z"/><path class="cls-1" d="M963.72,690.67c0,4.94-2.39,8.14-8.26,8.66v4H952.2v-4c-6.39-.29-7.91-2.67-7.91-10.06h5.29c0,3.2.24,4.48,2.62,4.83V684l-.64-.41c-3.72-2.62-7.5-4.77-7.5-10.23,0-4.54,2-8,8.14-8.49v-4.13h3.26v4.13c6.39.29,7.73,2.56,7.73,9.48H958c0-3.32-.81-4.13-2.5-4.31v9.25l2.27,1.45c3.37,2.15,5.52,5.12,5.87,8C963.66,689.39,963.72,690,963.72,690.67ZM952.2,670.14c-1.92.35-2.5,1.51-2.5,3.2,0,1.22.29,2,2.5,3.72Zm3.26,16.22v7.74c2.09-.35,2.56-1.46,2.56-3.55C958,689,957.84,688.17,955.46,686.36Z"/><path class="cls-1" d="M1019.86,717.51h-6.38v19h-11.17v-19H975.37a4.88,4.88,0,0,1-5.08-4.89,6.74,6.74,0,0,1,1.1-3.59l27.53-45.38h14.56v44.58h6.38Zm-17.55-38.8a.43.43,0,0,0-.4-.4.66.66,0,0,0-.5.4l-16.66,28.13a.6.6,0,0,0-.1.4c0,.39.3.69,1,.69h15.56a1,1,0,0,0,1.1-1.09Z"/><path class="cls-1" d="M1036.08,702.47a.82.82,0,0,1-.87.87H1030a.82.82,0,0,1-.87-.87V697.3a.83.83,0,0,1,.87-.88h5.18a.83.83,0,0,1,.87.88Z"/><path class="cls-1" d="M1056.08,704.1c-10.75,0-12.5-7.38-12.5-10.64h6.86c0,2.56,1.86,4.3,5.64,4.3,5.12,0,6.57-2.56,6.57-7.27,0-5.52-2.5-7.5-6.16-7.5a6.08,6.08,0,0,0-5.58,3.14h-6.51V660.89h24.13v9.37h-5.35v-.93c0-1.4-1-2.39-2.74-2.39h-8.78c-.64,0-1,.47-1,1.17v10.81c1.34-1.34,4.08-2.27,6.75-2.27,3.2,0,12,2,12,13.26C1069.46,698.17,1067.36,704.1,1056.08,704.1Z"/><path class="cls-1" d="M1099.46,694.74c0,8.08-4.65,9.36-12,9.36-10,0-12.1-2.33-12.1-9.36V668.57c0-5.47,3.08-8.08,12.15-8.08,7.85,0,11.92,2.61,11.92,8.08Zm-6.68-20c0-6-1-7.73-5.18-7.73-4.65,0-5.41,1.28-5.41,7.73V690.9c0,5.29,1.69,6.57,5.35,6.57,3.84,0,5.24-2.15,5.24-6.57Z"/></g></g></g></g></g></svg>