<svg xmlns="http://www.w3.org/2000/svg" viewBox="0 0 1218.16 1455.14"><defs><style>.cls-1,.cls-5{fill:#333;}.cls-2{fill:#ccc;}.cls-3,.cls-7{fill:none;}.cls-3,.cls-5,.cls-7{stroke:#ccc;stroke-linecap:round;}.cls-3,.cls-5{stroke-linejoin:round;stroke-width:16px;}.cls-4{fill:#ed1c24;}.cls-6{opacity:0.98;}.cls-7{stroke-miterlimit:10;stroke-width:9px;stroke-dasharray:3 24;}</style></defs><g id="Layer_2" data-name="Layer 2"><g id="Layer_1-2" data-name="Layer 1"><g id="Columns"><g id="Left_Column" data-name="Left Column"><g id="Wings"><rect id="Background" class="cls-1" width="1218.16" height="1455.14" rx="107.47"/><g id="Wings-2" data-name="Wings"><g id="Flavors"><path class="cls-2" d="M114.39,913.2c0,11.56-6.12,18.75-21.37,18.75-16.41,0-20.78-4.57-20.78-21.37H83.7c0,8,.87,10.59,9.32,10.59,7.77,0,9.42-2.92,9.42-8.16,0-3.6-.49-5.73-7.48-10.59l-6.51-4.56c-8.15-5.73-16.21-9.91-16.21-22.05,0-10.3,5.14-18,21.07-18,16.51,0,20.4,4.37,20.4,20.11H102.44c0-8.75-3.3-9.43-9.42-9.43-6.9,0-9,2.72-9,7.39,0,3.3,1,5.53,9.9,11.36l7.38,4.86c6.32,4.17,12.15,9.61,12.92,17.09C114.29,910.58,114.39,911.94,114.39,913.2Z"/><path class="cls-2" d="M169.75,930.29H158.19l-3.59-15.83a1.39,1.39,0,0,0-1.46-1.26H136.73a1.44,1.44,0,0,0-1.36,1.17L132,930.29H120.8L134.2,872a3.2,3.2,0,0,0,.1-1c0-1-.68-1.65-2.82-1.65H124.3V859.3h29.81Zm-24.18-56.62c-.1-.29-.3-.48-.49-.48s-.39.19-.49.48l-6.7,29.72c0,.68.1,1,1,1h12.53c.88,0,.88-.48.88-1.07Z"/><path class="cls-2" d="M218.8,897.08c0,30.5-3.89,34.87-20.88,34.87-16.8,0-20.69-5.05-20.69-34.87V859.2H188.3v38.07c0,21.66,2.72,23.51,9.52,23.51,7.09,0,9.81-1.46,9.81-23.51V859.2H218.8Z"/><path class="cls-2" d="M269.11,910.29C267.94,928.74,263,932,248.81,932c-17.19,0-20.69-5.25-20.69-37.1,0-28.17,3.5-37,20.89-37,14.47,0,18.84,3.5,20.1,20.49H257.84c0-8.54-3-9.42-9-9.42-6.8,0-9.61,1.17-9.61,25.94,0,24,2.81,25.93,9.61,25.93,6.61,0,8.94-1.95,8.94-10.49Z"/><path class="cls-2" d="M313.79,930.2H279.5v-71h34.29v10.3H293a2.7,2.7,0,0,0-2.42,2.52V891a2.43,2.43,0,0,0,2.23,2.43H309.9v11.07h-17a2.44,2.44,0,0,0-2.33,2.62v9.62a2.23,2.23,0,0,0,2.23,2.43h21Z"/><path class="cls-2" d="M364.49,913.2c0,11.56-6.12,18.75-21.37,18.75-16.41,0-20.78-4.57-20.78-21.37H333.8c0,8,.87,10.59,9.32,10.59,7.77,0,9.42-2.92,9.42-8.16,0-3.6-.48-5.73-7.48-10.59l-6.5-4.56c-8.16-5.73-16.22-9.91-16.22-22.05,0-10.3,5.15-18,21.07-18,16.51,0,20.4,4.37,20.4,20.11H352.54c0-8.75-3.3-9.43-9.42-9.43-6.89,0-9,2.72-9,7.39,0,3.3,1,5.53,9.91,11.36l7.38,4.86c6.31,4.17,12.14,9.61,12.91,17.09C364.39,910.58,364.49,911.94,364.49,913.2Z"/><line class="cls-3" x1="674.5" y1="957.75" x2="1150.86" y2="957.75"/><path class="cls-2" d="M718.83,911.92c0,11.54-6.11,18.72-21.34,18.72-16.39,0-20.76-4.56-20.76-21.34h11.45c0,8,.87,10.57,9.31,10.57,7.76,0,9.41-2.91,9.41-8.15,0-3.58-.49-5.72-7.47-10.57l-6.5-4.56c-8.15-5.72-16.2-9.89-16.2-22,0-10.28,5.14-17.94,21-17.94,16.49,0,20.37,4.36,20.37,20.08H706.9c0-8.73-3.3-9.41-9.41-9.41-6.89,0-9,2.71-9,7.37,0,3.3,1,5.53,9.89,11.35l7.37,4.85c6.31,4.17,12.13,9.6,12.9,17.07C718.73,909.3,718.83,910.66,718.83,911.92Z"/><path class="cls-2" d="M762.48,928.89H728.24V858h34.24v10.08H741.72a2.7,2.7,0,0,0-2.42,2.53v19.1a2.43,2.43,0,0,0,2.23,2.43H758.6v11.06h-17a2.43,2.43,0,0,0-2.32,2.62v9.6a2.23,2.23,0,0,0,2.23,2.43h21Z"/><path class="cls-2" d="M818.93,928.89H807.39L803.8,913a1.21,1.21,0,0,0-1.36-1.06H786.05a1.43,1.43,0,0,0-1.36.87L781.2,929H770l16.3-70.91h17Zm-24.25-56.84c-.1-.19-.19-.29-.39-.29s-.38.1-.38.29l-6.79,30.17a.79.79,0,0,0,.87.87H800.6a.87.87,0,0,0,1-1Z"/><path class="cls-2" d="M867.53,911.92c0,11.54-6.11,18.72-21.34,18.72-16.39,0-20.76-4.56-20.76-21.34h11.45c0,8,.87,10.57,9.31,10.57,7.76,0,9.41-2.91,9.41-8.15,0-3.58-.49-5.72-7.47-10.57l-6.5-4.56c-8.15-5.72-16.2-9.89-16.2-22,0-10.28,5.14-17.94,21.05-17.94,16.49,0,20.37,4.36,20.37,20.08H855.6c0-8.73-3.3-9.41-9.41-9.41-6.89,0-9,2.71-9,7.37,0,3.3,1,5.53,9.89,11.35l7.38,4.85c6.3,4.17,12.12,9.6,12.9,17.07C867.43,909.3,867.53,910.66,867.53,911.92Z"/><path class="cls-2" d="M896.82,930.64c-17.17,0-20.66-5.24-20.66-37,0-28.14,3.49-37,20.86-37,18.23,0,20.66,5.62,20.66,37C917.68,926.37,914.28,930.64,896.82,930.64Zm0-62.95c-7,0-9.6,1.16-9.6,25.9,0,23.95,2.52,25.89,9.6,25.89,7.28,0,9.7-1.64,9.7-25.89C906.52,868.07,904.78,867.69,896.82,867.69Z"/><path class="cls-2" d="M969.77,928.89H958.71L940.47,886.8a.51.51,0,0,0-.39-.3.35.35,0,0,0-.38.39v42H928.64V858.08H939.7l18.23,42.59a.64.64,0,0,0,.49.38.43.43,0,0,0,.29-.38V858.08h11.06Z"/><path class="cls-2" d="M993.63,928.89H982.57V858.08h11.06Z"/><path class="cls-2" d="M1047.75,928.89h-11l-18.24-42.09a.52.52,0,0,0-.39-.3.36.36,0,0,0-.39.39v42h-11V858.08h11l18.24,42.59a.64.64,0,0,0,.49.38.43.43,0,0,0,.29-.38V858.08h11Z"/><path class="cls-2" d="M1087.72,877.1c0-8.54-3-9.41-9-9.41-6.79,0-9.61,1.16-9.61,25.9,0,23.95,2.82,25.89,9.61,25.89,6.4,0,8.92-1.74,8.92-9.7v-5.52a1,1,0,0,0-1-1.07h-8V892.13h20.17c.2,2.62.29,5.43.29,8.25,0,26.19-4.46,30.26-20.46,30.26-17.17,0-20.66-5.24-20.66-37,0-28.14,3.49-37,20.85-37,14.45,0,18.82,3.49,20.08,20.47Z"/><path class="cls-2" d="M1150.38,911.92c0,11.54-6.11,18.72-21.34,18.72-16.39,0-20.76-4.56-20.76-21.34h11.45c0,8,.87,10.57,9.31,10.57,7.76,0,9.41-2.91,9.41-8.15,0-3.58-.49-5.72-7.47-10.57l-6.5-4.56c-8.15-5.72-16.2-9.89-16.2-22,0-10.28,5.14-17.94,21-17.94,16.49,0,20.37,4.36,20.37,20.08h-11.25c0-8.73-3.3-9.41-9.41-9.41-6.89,0-9,2.71-9,7.37,0,3.3,1,5.53,9.89,11.35l7.37,4.85c6.31,4.17,12.13,9.6,12.9,17.07C1150.28,909.3,1150.38,910.66,1150.38,911.92Z"/><path class="cls-2" d="M687.31,1039.68c-9.49,0-11.42-2.9-11.42-20.48,0-15.55,1.93-20.43,11.53-20.43,10.08,0,11.42,3.11,11.42,20.43C698.84,1037.32,697,1039.68,687.31,1039.68Zm0-34.8c-3.86,0-5.3.64-5.3,14.32,0,13.24,1.39,14.31,5.3,14.31s5.37-.91,5.37-14.31C692.68,1005.09,691.71,1004.88,687.31,1004.88Z"/><path class="cls-2" d="M724.64,1038.71H704.47V999.57H711v31.91a1.73,1.73,0,0,0,1.93,1.76h11.69Z"/><path class="cls-2" d="M740.72,1038.71h-11V999.57h11c6.65,0,11.48,2.63,11.48,19.68C752.2,1034.21,747.8,1038.71,740.72,1038.71Zm-1.6-33.51h-2.58a.61.61,0,0,0-.7.64v26.55a.53.53,0,0,0,.54.59h2.74c5.84,0,7-5,7-13.73C746.09,1009.44,745.5,1005.2,739.12,1005.2Z"/><path class="cls-2" d="M786.62,1038.71H774.78V999.57h10.93c8.42,0,11.48,1.82,11.48,11.64,0,4.77-2.36,7.72-5.47,8.2v.32c3.38.22,5.74,2.2,5.74,8.53C797.46,1035.55,793.65,1038.71,786.62,1038.71Zm-2.52-33.51h-2.73c-.37,0-.59.22-.59.64v10.25c0,.37.22.59.48.59h2.84c5.85,0,7-1,7-6.22C791.08,1006.38,790.49,1005.2,784.1,1005.2Zm1,17.27h-3.75c-.32,0-.54.16-.54.43v9.38a.56.56,0,0,0,.54.59h3.91c5.36,0,5.79-1.18,5.79-5.36C791,1023.59,789.57,1022.47,785.07,1022.47Z"/><path class="cls-2" d="M827.86,1038.71h-6.38l-2-8.79a.67.67,0,0,0-.75-.59h-9.07a.79.79,0,0,0-.75.48l-1.93,9h-6.16l9-39.2h9.39Zm-13.4-31.42c-.06-.1-.11-.16-.22-.16s-.21.06-.21.16L810.27,1024a.44.44,0,0,0,.49.48h7a.48.48,0,0,0,.53-.54Z"/><path class="cls-2" d="M853.07,1005.74c0,14.85-1.67,18.44-8.48,19.09v13.88h-6.11v-13.94c-6.7-.69-8.36-4.56-8.36-19v-6.22h6.11v6.27c0,12,1.5,13,5.31,13s5.36-.81,5.36-13v-6.27h6.17Z"/><path class="cls-2" d="M692.14,1091.08c0-4.72-1.66-5.2-5-5.2-3.75,0-5.31.64-5.31,14.32,0,13.24,1.56,14.31,5.31,14.31,3.54,0,4.94-1,4.94-5.36v-3.06a.53.53,0,0,0-.54-.59h-4.4v-6.11h11.16c.1,1.45.16,3,.16,4.56,0,14.48-2.47,16.73-11.32,16.73-9.49,0-11.42-2.9-11.42-20.48,0-15.55,1.93-20.43,11.53-20.43,8,0,10.4,1.93,11.1,11.31Z"/><path class="cls-2" d="M729.94,1119.71h-6.38l-2-8.79a.67.67,0,0,0-.75-.59h-9.06a.78.78,0,0,0-.75.48l-1.93,9h-6.17l9-39.2h9.38Zm-13.4-31.42a.23.23,0,0,0-.22-.16c-.1,0-.21.06-.21.16L712.36,1105a.44.44,0,0,0,.48.48h7a.48.48,0,0,0,.54-.54Z"/><path class="cls-2" d="M757.83,1119.71h-6.54L743.62,1105a.58.58,0,0,0-.59-.43h-1.18a.47.47,0,0,0-.48.48v14.69h-6v-39.14H746.3c8.47,0,11.53,3.27,11.53,12.17,0,7.24-2.47,10.51-8,11.48Zm-13.14-33.51h-2.52c-.53,0-.8.16-.8.64v11.27a.57.57,0,0,0,.59.64h2.73c5.85,0,7-1.61,7-6C751.72,1088.13,751.07,1086.2,744.69,1086.2Z"/><path class="cls-2" d="M783.46,1119.71H763.3v-39.14h6.54v31.91a1.73,1.73,0,0,0,1.93,1.76h11.69Z"/><path class="cls-2" d="M795.26,1119.71h-6.11v-39.14h6.11Z"/><path class="cls-2" d="M824.11,1108.72c-.65,10.19-3.38,12-11.21,12-9.49,0-11.42-2.9-11.42-20.48,0-15.55,1.93-20.43,11.53-20.43,8,0,10.4,1.93,11.1,11.31h-6.22c0-4.72-1.66-5.2-5-5.2-3.75,0-5.31.64-5.31,14.32,0,13.24,1.61,14.31,5.31,14.31s4.93-1.07,4.93-5.79Z"/><path class="cls-2" d="M878.75,1117.3l-4.56,3.86-3.65-4.45c-1.12,3.06-4.5,4.18-10.18,4.18-7.67,0-13.14-2.52-13.14-11.15,0-9.38,3.22-11.31,6.65-13.35-2.25-2.47-3.91-4.77-3.91-7.62,0-5.52,5.2-8.57,9.59-8.57h1c5.52,0,9.81,1.55,9.81,7.13v3.86h-5.74c0-.32.06-.65.06-1,0-3-.81-4.55-3.81-4.55h-.75a3,3,0,0,0-3.27,3.16,5.3,5.3,0,0,0,1.29,3.32l9.22,11.1v-3h5.31a39.24,39.24,0,0,1,.21,4.88,35.46,35.46,0,0,1-.21,4.45Zm-21.07-16.41a1,1,0,0,0-.7-.32c-1.4,0-3.54,2.63-3.54,7.24,0,4.83,2,7.4,6.11,7.4,3.43,0,6.6-.48,6.6-3.75Z"/><path class="cls-2" d="M912.85,1104.54h-3.64c-.43,0-.7.21-.7.64v14.53h-6v-39.14h11c8.42,0,11.47,3.27,11.47,12.17S921.33,1104.54,912.85,1104.54Zm-1-18.34H909.1c-.43,0-.59.22-.59.48v11.48c0,.43.22.59.54.59h2.84c5.84,0,7-1.61,7-6C918.86,1088.13,918.27,1086.2,911.89,1086.2Z"/><path class="cls-2" d="M952,1119.71h-6.38l-2-8.79a.66.66,0,0,0-.75-.59h-9.06a.79.79,0,0,0-.75.48l-1.93,9H925l9-39.2h9.39Zm-13.41-31.42c-.05-.1-.1-.16-.21-.16s-.21.06-.21.16L934.41,1105a.44.44,0,0,0,.48.48h7a.48.48,0,0,0,.53-.54Z"/><path class="cls-2" d="M979.88,1119.71h-6.54L965.68,1105a.58.58,0,0,0-.59-.43h-1.18a.48.48,0,0,0-.49.48v14.69h-6v-39.14h10.94c8.47,0,11.52,3.27,11.52,12.17,0,7.24-2.46,10.51-8,11.48Zm-13.13-33.51h-2.52c-.54,0-.81.16-.81.64v11.27a.57.57,0,0,0,.59.64h2.74c5.84,0,7-1.61,7-6C973.77,1088.13,973.13,1086.2,966.75,1086.2Z"/><path class="cls-2" d="M1011.74,1119.77h-6.12v-13.62c0-.43-.21-.65-.42-.65a.5.5,0,0,0-.43.43l-3.92,13.84h-3.91l-4.13-13.68c-.11-.42-.32-.64-.48-.64s-.43.32-.43.86v13.46h-6.11v-39.25h6.11l6.32,22.46c.17.65.49,1,.81,1s.59-.32.75-1l5.84-22.46h6.12Z"/><path class="cls-2" d="M1037.16,1119.71h-18.93v-39.19h18.93v5.57h-11.48a1.49,1.49,0,0,0-1.34,1.4v10.56a1.35,1.35,0,0,0,1.23,1.34H1035v6.11h-9.38a1.35,1.35,0,0,0-1.29,1.45v5.31a1.23,1.23,0,0,0,1.23,1.34h11.59Z"/><path class="cls-2" d="M1065.09,1110.33c0,6.38-3.38,10.35-11.79,10.35-9.06,0-11.48-2.52-11.48-11.8h6.33c0,4.4.48,5.85,5.15,5.85,4.29,0,5.2-1.61,5.2-4.51,0-2-.27-3.16-4.13-5.84l-3.59-2.52c-4.51-3.17-9-5.47-9-12.17,0-5.69,2.84-9.92,11.64-9.92,9.11,0,11.26,2.41,11.26,11.1h-6.22c0-4.83-1.83-5.2-5.2-5.2-3.81,0-5,1.5-5,4.07,0,1.82.54,3.06,5.47,6.27l4.07,2.68c3.49,2.31,6.71,5.31,7.14,9.44C1065,1108.88,1065.09,1109.63,1065.09,1110.33Z"/><path class="cls-2" d="M1096.14,1119.71h-6.38l-2-8.79a.67.67,0,0,0-.75-.59H1078a.79.79,0,0,0-.75.48l-1.93,9h-6.16l9-39.2h9.39Zm-13.4-31.42c-.06-.1-.11-.16-.22-.16s-.21.06-.21.16l-3.76,16.68a.44.44,0,0,0,.49.48h7a.48.48,0,0,0,.53-.54Z"/><path class="cls-2" d="M1124.19,1119.71h-6.12L1108,1096.44a.3.3,0,0,0-.21-.16.2.2,0,0,0-.21.22v23.21h-6.12v-39.14h6.12l10.08,23.54a.34.34,0,0,0,.26.21.22.22,0,0,0,.16-.21v-23.54h6.12Z"/><path class="cls-2" d="M696.43,1200.71H676.27v-39.14h6.54v31.91a1.73,1.73,0,0,0,1.93,1.76h11.69Z"/><path class="cls-2" d="M720.35,1200.71H701.42v-39.19h18.93v5.57H708.87a1.49,1.49,0,0,0-1.34,1.4v10.56a1.35,1.35,0,0,0,1.23,1.34h9.44v6.11h-9.38a1.35,1.35,0,0,0-1.29,1.45v5.31a1.23,1.23,0,0,0,1.23,1.34h11.59Z"/><path class="cls-2" d="M751.93,1200.77h-6.11v-13.62c0-.43-.22-.65-.43-.65a.51.51,0,0,0-.43.43L741,1200.77h-3.91L733,1187.09c-.11-.42-.32-.64-.48-.64s-.43.32-.43.86v13.46H726v-39.25h6.11l6.33,22.46c.16.65.48,1,.8,1s.59-.32.75-1l5.85-22.46h6.11Z"/><path class="cls-2" d="M769.41,1201.68c-9.49,0-11.42-2.9-11.42-20.48,0-15.55,1.93-20.43,11.53-20.43,10.08,0,11.42,3.11,11.42,20.43C780.94,1199.32,779.06,1201.68,769.41,1201.68Zm0-34.8c-3.86,0-5.31.64-5.31,14.32,0,13.24,1.4,14.31,5.31,14.31s5.36-.91,5.36-14.31C774.77,1167.09,773.81,1166.88,769.41,1166.88Z"/><path class="cls-2" d="M809.68,1200.71h-6.11l-10.08-23.27a.3.3,0,0,0-.21-.16.2.2,0,0,0-.22.22v23.21H787v-39.14h6.11l10.08,23.54a.35.35,0,0,0,.27.21.23.23,0,0,0,.16-.21v-23.54h6.11Z"/><path class="cls-2" d="M843.36,1185.54h-3.65a.6.6,0,0,0-.69.64v14.53h-6v-39.14h11c8.42,0,11.48,3.27,11.48,12.17S851.83,1185.54,843.36,1185.54Zm-1-18.34h-2.78c-.43,0-.59.22-.59.48v11.48c0,.43.21.59.53.59h2.84c5.85,0,7-1.61,7-6C849.37,1169.13,848.78,1167.2,842.39,1167.2Z"/><path class="cls-2" d="M879.39,1200.71H860.47v-39.19h18.92v5.57H867.92a1.49,1.49,0,0,0-1.34,1.4v10.56a1.35,1.35,0,0,0,1.23,1.34h9.44v6.11h-9.38a1.35,1.35,0,0,0-1.29,1.45v5.31a1.23,1.23,0,0,0,1.23,1.34h11.58Z"/><path class="cls-2" d="M895.16,1185.54h-3.65a.6.6,0,0,0-.69.64v14.53h-6v-39.14h11c8.42,0,11.48,3.27,11.48,12.17S903.63,1185.54,895.16,1185.54Zm-1-18.34h-2.79c-.43,0-.59.22-.59.48v11.48c0,.43.21.59.53.59h2.85c5.84,0,7-1.61,7-6C901.17,1169.13,900.58,1167.2,894.2,1167.2Z"/><path class="cls-2" d="M922.78,1185.54h-3.65c-.43,0-.7.21-.7.64v14.53h-6v-39.14h11c8.42,0,11.47,3.27,11.47,12.17S931.25,1185.54,922.78,1185.54Zm-1-18.34H919c-.43,0-.59.22-.59.48v11.48c0,.43.22.59.54.59h2.84c5.85,0,7-1.61,7-6C928.78,1169.13,928.19,1167.2,921.81,1167.2Z"/><path class="cls-2" d="M958.81,1200.71H939.88v-39.19h18.93v5.57H947.34a1.49,1.49,0,0,0-1.34,1.4v10.56a1.34,1.34,0,0,0,1.23,1.34h9.44v6.11h-9.39A1.35,1.35,0,0,0,946,1188v5.31a1.23,1.23,0,0,0,1.23,1.34h11.58Z"/><path class="cls-2" d="M987,1200.71h-6.54L972.75,1186a.56.56,0,0,0-.58-.43H971a.48.48,0,0,0-.49.48v14.69h-6v-39.14h10.94c8.47,0,11.52,3.27,11.52,12.17,0,7.24-2.46,10.51-8,11.48Zm-13.13-33.51h-2.52c-.54,0-.81.16-.81.64v11.27a.57.57,0,0,0,.59.64h2.74c5.84,0,7-1.61,7-6C980.85,1169.13,980.21,1167.2,973.83,1167.2Z"/><path class="cls-2" d="M138.25,1027.72c-.64,10.19-3.37,12-11.2,12-9.49,0-11.42-2.9-11.42-20.48,0-15.55,1.93-20.43,11.53-20.43,8,0,10.4,1.93,11.09,11.31H132c0-4.72-1.66-5.2-5-5.2-3.76,0-5.31.64-5.31,14.32,0,13.24,1.61,14.31,5.31,14.31s4.93-1.07,4.93-5.79Z"/><path class="cls-2" d="M164.05,1038.71H143.89V999.57h6.54v31.91a1.73,1.73,0,0,0,1.93,1.76h11.69Z"/><path class="cls-2" d="M194.83,1038.71h-6.38l-2-8.79a.66.66,0,0,0-.75-.59h-9.06a.78.78,0,0,0-.75.48l-1.93,9H167.8l9-39.2h9.38Zm-13.41-31.42c0-.1-.11-.16-.21-.16s-.22.06-.22.16L177.24,1024a.44.44,0,0,0,.48.48h7a.48.48,0,0,0,.54-.54Z"/><path class="cls-2" d="M221.64,1029.33c0,6.38-3.38,10.35-11.8,10.35-9.06,0-11.47-2.52-11.47-11.8h6.33c0,4.4.48,5.85,5.14,5.85,4.29,0,5.21-1.61,5.21-4.51,0-2-.27-3.16-4.13-5.84l-3.6-2.52c-4.5-3.17-8.95-5.47-8.95-12.17,0-5.69,2.84-9.92,11.64-9.92,9.11,0,11.26,2.41,11.26,11.1h-6.22c0-4.83-1.83-5.2-5.21-5.2-3.8,0-5,1.5-5,4.07,0,1.82.53,3.06,5.47,6.27l4.07,2.68c3.49,2.31,6.7,5.31,7.13,9.44C221.59,1027.88,221.64,1028.63,221.64,1029.33Z"/><path class="cls-2" d="M249.47,1029.33c0,6.38-3.38,10.35-11.79,10.35-9.07,0-11.48-2.52-11.48-11.8h6.33c0,4.4.48,5.85,5.15,5.85,4.28,0,5.2-1.61,5.2-4.51,0-2-.27-3.16-4.13-5.84l-3.6-2.52c-4.5-3.17-9-5.47-9-12.17,0-5.69,2.84-9.92,11.64-9.92,9.11,0,11.26,2.41,11.26,11.1h-6.22c0-4.83-1.83-5.2-5.2-5.2-3.81,0-5,1.5-5,4.07,0,1.82.54,3.06,5.47,6.27l4.07,2.68c3.49,2.31,6.71,5.31,7.13,9.44C249.42,1027.88,249.47,1028.63,249.47,1029.33Z"/><path class="cls-2" d="M261.54,1038.71h-6.11V999.57h6.11Z"/><path class="cls-2" d="M290.39,1027.72c-.65,10.19-3.38,12-11.21,12-9.49,0-11.42-2.9-11.42-20.48,0-15.55,1.93-20.43,11.53-20.43,8,0,10.4,1.93,11.1,11.31h-6.22c0-4.72-1.67-5.2-5-5.2-3.75,0-5.31.64-5.31,14.32,0,13.24,1.61,14.31,5.31,14.31s4.93-1.07,4.93-5.79Z"/><path class="cls-2" d="M324.87,1038.71H313V999.57H324c8.41,0,11.47,1.82,11.47,11.64,0,4.77-2.36,7.72-5.47,8.2v.32c3.38.22,5.74,2.2,5.74,8.53C335.7,1035.55,331.89,1038.71,324.87,1038.71Zm-2.52-33.51h-2.74c-.37,0-.59.22-.59.64v10.25c0,.37.22.59.48.59h2.85c5.84,0,7-1,7-6.22C329.32,1006.38,328.73,1005.2,322.35,1005.2Zm1,17.27h-3.75c-.32,0-.54.16-.54.43v9.38a.56.56,0,0,0,.54.59h3.91c5.36,0,5.79-1.18,5.79-5.36C329.26,1023.59,327.82,1022.47,323.31,1022.47Z"/><path class="cls-2" d="M363.42,1020.43c0,16.84-2.14,19.25-11.53,19.25-9.22,0-11.42-2.79-11.42-19.25V999.52h6.11v21c0,12,1.51,13,5.31,13s5.36-.8,5.36-13v-21h6.17Z"/><path class="cls-2" d="M388.3,1005.09H376.83a1.49,1.49,0,0,0-1.34,1.4v10.56a1.34,1.34,0,0,0,1.23,1.34h9.44v6.11h-9.39a1.39,1.39,0,0,0-1.34,1.45v12.76h-6.06V999.52H388.3Zm21.24,0H398.06a1.49,1.49,0,0,0-1.34,1.4v10.56a1.35,1.35,0,0,0,1.23,1.34h9.44v6.11H398a1.39,1.39,0,0,0-1.34,1.45v12.76h-6.06V999.52h18.93Z"/><path class="cls-2" d="M440.53,1038.71h-6.38l-2-8.79a.67.67,0,0,0-.75-.59h-9.07a.79.79,0,0,0-.75.48l-1.93,9h-6.16l9-39.2h9.38Zm-13.4-31.42c-.06-.1-.11-.16-.22-.16s-.21.06-.21.16L422.94,1024a.44.44,0,0,0,.49.48h7a.48.48,0,0,0,.53-.54Z"/><path class="cls-2" d="M465.63,1038.71H445.47V999.57H452v31.91a1.73,1.73,0,0,0,1.93,1.76h11.69Z"/><path class="cls-2" d="M481.5,1039.68c-9.49,0-11.42-2.9-11.42-20.48,0-15.55,1.93-20.43,11.53-20.43,10.08,0,11.42,3.11,11.42,20.43C493,1037.32,491.15,1039.68,481.5,1039.68Zm0-34.8c-3.86,0-5.31.64-5.31,14.32,0,13.24,1.4,14.31,5.31,14.31s5.36-.91,5.36-14.31C486.86,1005.09,485.9,1004.88,481.5,1004.88Z"/><path class="cls-2" d="M135.41,1086.09H123.94a1.49,1.49,0,0,0-1.34,1.4v10.56a1.34,1.34,0,0,0,1.23,1.34h9.44v6.11h-9.39a1.39,1.39,0,0,0-1.34,1.45v12.76h-6.06v-39.19h18.93Z"/><path class="cls-2" d="M163.08,1101.43c0,16.84-2.14,19.25-11.53,19.25-9.22,0-11.42-2.79-11.42-19.25v-20.91h6.12v21c0,12,1.5,13,5.3,13s5.37-.8,5.37-13v-21h6.16Z"/><path class="cls-2" d="M191.82,1119.71h-6.11l-10.08-23.27a.3.3,0,0,0-.21-.16.2.2,0,0,0-.22.22v23.21h-6.11v-39.14h6.11l10.08,23.54a.35.35,0,0,0,.27.21.23.23,0,0,0,.16-.21v-23.54h6.11Z"/><path class="cls-2" d="M220.51,1119.77h-6.65l-8.57-14.86a1.11,1.11,0,0,0-.81-.64c-.21,0-.37.16-.37.48v15h-6.06v-39.2h6.06v15.23c0,.43.21.54.48.54a1,1,0,0,0,.86-.49l8.41-15.28h6.65l-10.08,18.55a2.16,2.16,0,0,0-.26,1.08,2.5,2.5,0,0,0,.26,1.12Z"/><path class="cls-2" d="M247.76,1086.74c0,14.85-1.67,18.44-8.48,19.09v13.88h-6.11v-13.94c-6.7-.69-8.36-4.56-8.36-19v-6.22h6.11v6.27c0,12,1.5,13,5.31,13s5.36-.81,5.36-13v-6.27h6.17Z"/><path class="cls-2" d="M289,1086.09H277.57a1.49,1.49,0,0,0-1.34,1.4v10.56a1.35,1.35,0,0,0,1.23,1.34h9.44v6.11h-9.38a1.39,1.39,0,0,0-1.34,1.45v12.76h-6.06v-39.19H289Z"/><path class="cls-2" d="M301.06,1119.71h-6.12v-39.14h6.12Z"/><path class="cls-2" d="M330.76,1119.71h-6.54L316.56,1105a.58.58,0,0,0-.59-.43h-1.18a.48.48,0,0,0-.49.48v14.69h-6v-39.14h10.94c8.47,0,11.52,3.27,11.52,12.17,0,7.24-2.46,10.51-8,11.48Zm-13.13-33.51h-2.52c-.54,0-.81.16-.81.64v11.27a.57.57,0,0,0,.59.64h2.74c5.84,0,7-1.61,7-6C324.65,1088.13,324,1086.2,317.63,1086.2Z"/><path class="cls-2" d="M355.22,1119.71H336.29v-39.19h18.93v5.57H343.74a1.49,1.49,0,0,0-1.34,1.4v10.56a1.35,1.35,0,0,0,1.23,1.34h9.44v6.11h-9.38a1.35,1.35,0,0,0-1.29,1.45v5.31a1.23,1.23,0,0,0,1.23,1.34h11.59Z"/><path class="cls-2" d="M400.1,1110.33c0,6.38-3.38,10.35-11.8,10.35-9.06,0-11.47-2.52-11.47-11.8h6.33c0,4.4.48,5.85,5.14,5.85,4.29,0,5.2-1.61,5.2-4.51,0-2-.26-3.16-4.12-5.84l-3.6-2.52c-4.5-3.17-8.95-5.47-8.95-12.17,0-5.69,2.84-9.92,11.63-9.92,9.12,0,11.26,2.41,11.26,11.1H393.5c0-4.83-1.82-5.2-5.2-5.2-3.8,0-5,1.5-5,4.07,0,1.82.53,3.06,5.47,6.27l4.07,2.68c3.49,2.31,6.7,5.31,7.13,9.44C400.05,1108.88,400.1,1109.63,400.1,1110.33Z"/><path class="cls-2" d="M431.15,1119.71h-6.38l-2-8.79a.66.66,0,0,0-.75-.59H413a.78.78,0,0,0-.75.48l-1.93,9h-6.17l9-39.2h9.38Zm-13.41-31.42c-.05-.1-.11-.16-.21-.16s-.22.06-.22.16L413.56,1105a.44.44,0,0,0,.48.48h7a.48.48,0,0,0,.54-.54Z"/><path class="cls-2" d="M458,1101.43c0,16.84-2.14,19.25-11.52,19.25s-11.43-2.79-11.43-19.25v-20.91h6.12v21c0,12,1.5,13,5.31,13s5.36-.8,5.36-13v-21H458Z"/><path class="cls-2" d="M485.74,1108.72c-.65,10.19-3.38,12-11.21,12-9.49,0-11.42-2.9-11.42-20.48,0-15.55,1.93-20.43,11.53-20.43,8,0,10.4,1.93,11.1,11.31h-6.22c0-4.72-1.67-5.2-5-5.2-3.75,0-5.31.64-5.31,14.32,0,13.24,1.61,14.31,5.31,14.31s4.93-1.07,4.93-5.79Z"/><path class="cls-2" d="M510.35,1119.71H491.42v-39.19h18.93v5.57H498.88a1.49,1.49,0,0,0-1.34,1.4v10.56a1.34,1.34,0,0,0,1.23,1.34h9.44v6.11h-9.39a1.35,1.35,0,0,0-1.28,1.45v5.31a1.23,1.23,0,0,0,1.23,1.34h11.58Z"/><path class="cls-2" d="M128.07,1200.71H116.22v-39.14h10.94c8.41,0,11.47,1.82,11.47,11.64,0,4.77-2.36,7.72-5.47,8.2v.32c3.38.22,5.74,2.2,5.74,8.53C138.9,1197.55,135.09,1200.71,128.07,1200.71Zm-2.52-33.51h-2.74c-.37,0-.59.22-.59.64v10.25c0,.37.22.59.48.59h2.85c5.84,0,7-1,7-6.22C132.52,1168.38,131.93,1167.2,125.55,1167.2Zm1,17.27h-3.75c-.32,0-.54.16-.54.43v9.38a.56.56,0,0,0,.54.59h3.91c5.36,0,5.79-1.18,5.79-5.36C132.46,1185.59,131,1184.47,126.51,1184.47Z"/><path class="cls-2" d="M169.3,1200.71h-6.38l-2-8.79a.67.67,0,0,0-.75-.59h-9.06a.77.77,0,0,0-.75.48l-1.94,9h-6.16l9-39.2h9.38Zm-13.4-31.42c-.06-.1-.11-.16-.22-.16s-.21.06-.21.16L151.72,1186a.44.44,0,0,0,.48.48h7a.48.48,0,0,0,.53-.54Z"/><path class="cls-2" d="M197.19,1200.71h-6.54L183,1186a.58.58,0,0,0-.59-.43h-1.18a.47.47,0,0,0-.48.48v14.69h-6v-39.14h10.94c8.47,0,11.53,3.27,11.53,12.17,0,7.24-2.47,10.51-8,11.48Zm-13.14-33.51h-2.52c-.54,0-.8.16-.8.64v11.27a.57.57,0,0,0,.59.64h2.73c5.85,0,7-1.61,7-6C191.07,1169.13,190.43,1167.2,184.05,1167.2Z"/><path class="cls-2" d="M216.6,1185.32a.76.76,0,0,1-.8.81H204.16a.76.76,0,0,1-.8-.81v-2.68a.78.78,0,0,1,.8-.8H215.8a.78.78,0,0,1,.8.8Z"/><path class="cls-2" d="M235.42,1200.71H223.57v-39.14h10.94c8.42,0,11.48,1.82,11.48,11.64,0,4.77-2.36,7.72-5.47,8.2v.32c3.37.22,5.73,2.2,5.73,8.53C246.25,1197.55,242.45,1200.71,235.42,1200.71Zm-2.52-33.51h-2.73c-.38,0-.59.22-.59.64v10.25c0,.37.21.59.48.59h2.84c5.85,0,7-1,7-6.22C239.87,1168.38,239.28,1167.2,232.9,1167.2Zm1,17.27h-3.76c-.32,0-.53.16-.53.43v9.38a.55.55,0,0,0,.53.59H234c5.36,0,5.79-1.18,5.79-5.36C239.82,1185.59,238.37,1184.47,233.87,1184.47Z"/><path class="cls-2" d="M270.33,1200.71H251.4v-39.19h18.93v5.57H258.86a1.49,1.49,0,0,0-1.34,1.4v10.56a1.34,1.34,0,0,0,1.23,1.34h9.44v6.11H258.8a1.35,1.35,0,0,0-1.28,1.45v5.31a1.23,1.23,0,0,0,1.23,1.34h11.58Z"/><path class="cls-2" d="M301.49,1200.71H295.1l-2-8.79a.66.66,0,0,0-.75-.59h-9.06a.78.78,0,0,0-.75.48l-1.93,9h-6.17l9-39.2h9.38Zm-13.41-31.42c-.05-.1-.11-.16-.21-.16s-.22.06-.22.16L283.9,1186a.44.44,0,0,0,.48.48h7a.48.48,0,0,0,.54-.54Z"/><path class="cls-2" d="M328.94,1200.77h-6.65l-8.58-14.86a1.09,1.09,0,0,0-.8-.64c-.22,0-.38.16-.38.48v15h-6v-39.2h6v15.23c0,.43.22.54.49.54a1,1,0,0,0,.85-.49l8.42-15.28h6.65l-10.08,18.55a2.18,2.18,0,0,0-.27,1.08,2.5,2.5,0,0,0,.27,1.12Z"/><path class="cls-2" d="M347.77,1185.32a.77.77,0,0,1-.81.81H335.32a.76.76,0,0,1-.8-.81v-2.68a.78.78,0,0,1,.8-.8H347a.79.79,0,0,1,.81.8Z"/><path class="cls-2" d="M367.5,1201.62c.16,3.6,3.75,4.13,5.09,4.13v5.69c-3.16,0-9-.59-9-8.74v-1.08c-7.77-.48-9.43-4.12-9.43-20.42,0-15.55,1.93-20.43,11.53-20.43,10.08,0,11.42,3.11,11.42,20.43C377.1,1198,375.43,1201.25,367.5,1201.62Zm-1.93-34.74c-3.86,0-5.31.64-5.31,14.32,0,13.24,1.34,14.31,5.31,14.31s5.36-.91,5.36-14.31C370.93,1167.09,370,1166.88,365.57,1166.88Z"/><path class="cls-2" d="M405,1182.43c0,16.84-2.14,19.25-11.52,19.25s-11.43-2.79-11.43-19.25v-20.91h6.12v21c0,12,1.5,13,5.31,13s5.36-.8,5.36-13v-21H405Z"/><path class="cls-2" d="M429.65,1200.71H410.72v-39.19h18.93v5.57H418.17a1.5,1.5,0,0,0-1.34,1.4v10.56a1.35,1.35,0,0,0,1.23,1.34h9.44v6.11h-9.38a1.35,1.35,0,0,0-1.29,1.45v5.31a1.23,1.23,0,0,0,1.23,1.34h11.59Z"/><path class="cls-2" d="M142.12,1281.71h-6.39l-2-8.79a.66.66,0,0,0-.75-.59h-9.06a.78.78,0,0,0-.75.48l-1.93,9h-6.17l9-39.2h9.38Zm-13.41-31.42c-.05-.1-.11-.16-.21-.16s-.22.06-.22.16L124.53,1267a.44.44,0,0,0,.48.48h7a.48.48,0,0,0,.54-.54Z"/><path class="cls-2" d="M168.93,1272.33c0,6.38-3.38,10.35-11.8,10.35-9.06,0-11.47-2.52-11.47-11.8H152c0,4.4.49,5.85,5.15,5.85,4.29,0,5.2-1.61,5.2-4.51,0-2-.27-3.16-4.13-5.84l-3.59-2.52c-4.5-3.17-9-5.47-9-12.17,0-5.69,2.84-9.92,11.63-9.92,9.12,0,11.26,2.41,11.26,11.1h-6.22c0-4.83-1.82-5.2-5.2-5.2-3.81,0-5,1.5-5,4.07,0,1.82.53,3.06,5.46,6.27l4.08,2.68c3.49,2.31,6.7,5.31,7.13,9.44C168.87,1270.88,168.93,1271.63,168.93,1272.33Z"/><path class="cls-2" d="M181,1281.71h-6.11v-39.14H181Z"/><path class="cls-2" d="M212.85,1281.71h-6.38l-2-8.79a.66.66,0,0,0-.75-.59h-9.06a.78.78,0,0,0-.75.48l-1.93,9h-6.17l9-39.2h9.38Zm-13.41-31.42c-.05-.1-.11-.16-.21-.16s-.22.06-.22.16L195.26,1267a.44.44,0,0,0,.48.48h7a.48.48,0,0,0,.54-.54Z"/><path class="cls-2" d="M240.89,1281.71h-6.11l-10.08-23.27a.3.3,0,0,0-.22-.16.2.2,0,0,0-.21.22v23.21h-6.11v-39.14h6.11l10.08,23.54a.34.34,0,0,0,.27.21.23.23,0,0,0,.16-.21v-23.54h6.11Z"/><path class="cls-2" d="M286.53,1281.77h-6.65l-8.58-14.86a1.11,1.11,0,0,0-.81-.64c-.21,0-.37.16-.37.48v15h-6.06v-39.2h6.06v15.23c0,.43.21.54.48.54a1,1,0,0,0,.86-.49l8.42-15.28h6.65l-10.09,18.55a2.16,2.16,0,0,0-.26,1.08,2.5,2.5,0,0,0,.26,1.12Z"/><path class="cls-2" d="M314,1263.43c0,16.84-2.14,19.25-11.52,19.25s-11.42-2.79-11.42-19.25v-20.91h6.11v21c0,12,1.5,13,5.31,13s5.36-.8,5.36-13v-21H314Z"/><path class="cls-2" d="M342.78,1281.71h-6.12l-10.08-23.27a.3.3,0,0,0-.21-.16.2.2,0,0,0-.22.22v23.21H320v-39.14h6.11l10.08,23.54a.37.37,0,0,0,.27.21.22.22,0,0,0,.16-.21v-23.54h6.12Z"/><path class="cls-2" d="M365,1253.08c0-4.72-1.66-5.2-5-5.2-3.75,0-5.3.64-5.3,14.32,0,13.24,1.61,14.31,5.3,14.31,3.54,0,4.94-1,4.94-5.36v-2.79c0-.53-.22-.86-.75-.86H360v-6.11H371.2c.11,1.56.21,3.17.21,4.83,0,14.26-2.63,16.46-11.37,16.46-9.49,0-11.42-2.9-11.42-20.48,0-15.55,1.93-20.43,11.53-20.43,8,0,10.4,1.93,11.1,11.31Z"/><path class="cls-2" d="M413.08,1248.09H401.6a1.5,1.5,0,0,0-1.34,1.4v10.56a1.35,1.35,0,0,0,1.24,1.34h9.43v6.11h-9.38a1.39,1.39,0,0,0-1.34,1.45v12.76h-6.06v-39.19h18.93Z"/><path class="cls-2" d="M440.75,1263.43c0,16.84-2.15,19.25-11.53,19.25-9.22,0-11.42-2.79-11.42-19.25v-20.91h6.11v21c0,12,1.5,13,5.31,13s5.36-.8,5.36-13v-21h6.17Z"/><path class="cls-2" d="M137.77,1362.71h-6.11v-13.13c0-.65-.22-1.08-1-1.08h-7a1.11,1.11,0,0,0-1,1.08v13.13h-6.59v-39.14h6.59v17.91a1,1,0,0,0,.86,1h7.13c.59,0,1-.32,1-1.13v-17.8h6.11Z"/><path class="cls-2" d="M154.72,1363.68c-9.49,0-11.42-2.9-11.42-20.48,0-15.55,1.93-20.43,11.52-20.43,10.09,0,11.43,3.11,11.43,20.43C166.25,1361.32,164.37,1363.68,154.72,1363.68Zm0-34.8c-3.86,0-5.31.64-5.31,14.32,0,13.24,1.39,14.31,5.31,14.31s5.36-.91,5.36-14.31C160.08,1329.09,159.11,1328.88,154.72,1328.88Z"/><path class="cls-2" d="M195,1362.71h-6.11l-10.08-23.27a.31.31,0,0,0-.22-.16.2.2,0,0,0-.21.22v23.21h-6.12v-39.14h6.12l10.08,23.54a.34.34,0,0,0,.27.21.23.23,0,0,0,.16-.21v-23.54H195Z"/><path class="cls-2" d="M220.14,1362.71H201.21v-39.19h18.93v5.57H208.66a1.5,1.5,0,0,0-1.34,1.4v10.56a1.35,1.35,0,0,0,1.24,1.34H218v6.11h-9.38a1.35,1.35,0,0,0-1.29,1.45v5.31a1.24,1.24,0,0,0,1.24,1.34h11.58Z"/><path class="cls-2" d="M247.7,1329.74c0,14.85-1.66,18.44-8.47,19.09v13.88h-6.11v-13.94c-6.71-.69-8.37-4.56-8.37-19v-6.22h6.11v6.27c0,12,1.51,13,5.31,13s5.37-.81,5.37-13v-6.27h6.16Z"/><path class="cls-2" d="M301.81,1360.3l-4.56,3.86-3.65-4.45c-1.12,3.06-4.5,4.18-10.18,4.18-7.67,0-13.14-2.52-13.14-11.15,0-9.38,3.22-11.31,6.65-13.35-2.25-2.47-3.92-4.77-3.92-7.62,0-5.52,5.2-8.57,9.6-8.57h1c5.52,0,9.81,1.55,9.81,7.13v3.86h-5.74c0-.32.05-.65.05-1,0-3-.8-4.55-3.8-4.55h-.75a3,3,0,0,0-3.27,3.16,5.34,5.34,0,0,0,1.28,3.32l9.23,11.1v-3h5.3a38.89,38.89,0,0,1,.22,4.88,35.13,35.13,0,0,1-.22,4.45Zm-21.08-16.41a.93.93,0,0,0-.69-.32c-1.4,0-3.54,2.63-3.54,7.24,0,4.83,2,7.4,6.11,7.4,3.43,0,6.6-.48,6.6-3.75Z"/><path class="cls-2" d="M336.4,1363.68c-9.5,0-11.42-2.9-11.42-20.48,0-15.55,1.92-20.43,11.52-20.43,10.08,0,11.42,3.11,11.42,20.43C347.92,1361.32,346.05,1363.68,336.4,1363.68Zm0-34.8c-3.87,0-5.31.64-5.31,14.32,0,13.24,1.39,14.31,5.31,14.31s5.36-.91,5.36-14.31C341.76,1329.09,340.79,1328.88,336.4,1328.88Z"/><path class="cls-2" d="M373.72,1362.71H353.56v-39.14h6.54v31.91a1.73,1.73,0,0,0,1.93,1.76h11.69Z"/><path class="cls-2" d="M389.8,1362.71h-11v-39.14h11c6.65,0,11.48,2.63,11.48,19.68C401.28,1358.21,396.88,1362.71,389.8,1362.71Zm-1.6-33.51h-2.58a.6.6,0,0,0-.69.64v26.55a.52.52,0,0,0,.53.59h2.74c5.84,0,7-5,7-13.73C395.17,1333.44,394.58,1329.2,388.2,1329.2Z"/><path class="cls-2" d="M435.71,1362.71H423.86v-39.14H434.8c8.41,0,11.47,1.82,11.47,11.64,0,4.77-2.36,7.72-5.47,8.2v.32c3.38.22,5.74,2.2,5.74,8.53C446.54,1359.55,442.73,1362.71,435.71,1362.71Zm-2.52-33.51h-2.74c-.37,0-.59.22-.59.64v10.25c0,.37.22.59.48.59h2.85c5.84,0,7-1,7-6.22C440.16,1330.38,439.57,1329.2,433.19,1329.2Zm1,17.27H430.4c-.32,0-.54.16-.54.43v9.38a.56.56,0,0,0,.54.59h3.91c5.36,0,5.79-1.18,5.79-5.36C440.1,1347.59,438.66,1346.47,434.15,1346.47Z"/><path class="cls-2" d="M476.94,1362.71h-6.38l-2-8.79a.67.67,0,0,0-.75-.59h-9.06a.77.77,0,0,0-.75.48l-1.94,9h-6.16l9-39.2h9.38Zm-13.4-31.42c-.06-.1-.11-.16-.22-.16s-.21.06-.21.16L459.35,1348a.44.44,0,0,0,.49.48h7a.48.48,0,0,0,.53-.54Z"/><path class="cls-2" d="M502.15,1329.74c0,14.85-1.67,18.44-8.47,19.09v13.88h-6.12v-13.94c-6.7-.69-8.36-4.56-8.36-19v-6.22h6.11v6.27c0,12,1.5,13,5.31,13s5.36-.81,5.36-13v-6.27h6.17Z"/><line class="cls-3" x1="71.44" y1="957.75" x2="547.81" y2="957.75"/><path class="cls-4" d="M75.88,1077.66s6.41,6,1.51,16.86c-1.67,3.66-5.57,5.89-5.57,14.09,0,6.32,2.57,8.81,7.31,9.88.45.1-4.35-4.94-1-9.88a5.63,5.63,0,0,0,1.39,4.35,9.77,9.77,0,0,0,2.17,1.58c3.16-4.94,1.78-8.7,1.78-8.7,4,1.19,4.74,9.49,4.34,10.48a15.49,15.49,0,0,0,2.38-2,5,5,0,0,0,.59-4.54c4.94,4.54-.06,9.56.59,9.28,5.22-2.2,8.89-7.7,5.93-17.19-1.38-4.41-3.76-4.54-4.55-8.89-1.21-6.69,1.19-9.29,1.19-9.29s-5.53,2.57-6.72,8.5a67.66,67.66,0,0,1-3.36,11.86,33.72,33.72,0,0,0,.6-13.24C83.65,1083.73,75.88,1077.66,75.88,1077.66Z"/><path class="cls-4" d="M75.88,996.87s6.41,6,1.51,16.85c-1.67,3.67-5.57,5.89-5.57,14.09,0,6.33,2.57,8.81,7.31,9.88.45.1-4.35-4.94-1-9.88a5.63,5.63,0,0,0,1.39,4.35,9.43,9.43,0,0,0,2.17,1.58c3.16-4.94,1.78-8.69,1.78-8.69,4,1.18,4.74,9.48,4.34,10.47a15.49,15.49,0,0,0,2.38-2,5,5,0,0,0,.59-4.54c4.94,4.54-.06,9.56.59,9.28,5.22-2.2,8.89-7.7,5.93-17.19-1.38-4.41-3.76-4.54-4.55-8.89-1.21-6.69,1.19-9.28,1.19-9.28s-5.53,2.56-6.72,8.49a67.31,67.31,0,0,1-3.36,11.86,33.71,33.71,0,0,0,.6-13.24C83.65,1002.94,75.88,996.87,75.88,996.87Z"/></g><g id="Title"><line id="Underline" class="cls-5" x1="61.67" y1="233.16" x2="1156.49" y2="233.16"/><path class="cls-2" d="M162.5,95.52,143.17,204.08h-17.7l-8.77-53.24c-.15-.44-.45-.74-.75-.74a.84.84,0,0,0-.89.74l-9.52,53.24H87.85L70,95.52H87.25l8.63,62a.94.94,0,0,0,1,1,1.41,1.41,0,0,0,1.19-1.19l9.51-61.87h17.25l8.63,62a.94.94,0,0,0,1,1,1.4,1.4,0,0,0,1.19-1.19l9.52-61.87Z"/><path class="cls-2" d="M184.21,113.07a9.82,9.82,0,1,1,0-19.63,9.82,9.82,0,1,1,0,19.63Zm8.47,91h-17V119.32h17Z"/><path class="cls-2" d="M275.81,204.08H258.86l-28-64.54a.79.79,0,0,0-.59-.44.54.54,0,0,0-.6.59v64.39h-17V95.52h17l28,65.29a1,1,0,0,0,.74.59.65.65,0,0,0,.45-.59V95.52h16.95Z"/><path class="cls-2" d="M337.67,124.67c0-13.09-4.61-14.42-13.83-14.42-10.41,0-14.72,1.78-14.72,39.7,0,36.73,4.46,39.71,14.72,39.71,9.82,0,13.68-2.68,13.68-14.87v-7.74c0-1.48-.59-2.38-2.08-2.38h-11.6V147.72h30.93c.3,4.31.6,8.78.6,13.39,0,39.55-7.29,45.65-31.53,45.65-26.32,0-31.67-8-31.67-56.81,0-43.12,5.35-56.66,32-56.66,22.16,0,28.85,5.36,30.78,31.38Z"/><path class="cls-2" d="M433.74,178.06c0,17.7-9.37,28.7-32.72,28.7-25.13,0-31.82-7-31.82-32.72h17.54c0,12.2,1.34,16.21,14.28,16.21,11.9,0,14.43-4.46,14.43-12.49,0-5.5-.75-8.77-11.45-16.21l-10-7c-12.49-8.77-24.83-15.17-24.83-33.76,0-15.76,7.88-27.51,32.27-27.51,25.28,0,31.23,6.69,31.23,30.79H415.45c0-13.39-5.06-14.43-14.43-14.43-10.56,0-13.83,4.17-13.83,11.3,0,5.06,1.49,8.48,15.17,17.4l11.3,7.44c9.67,6.39,18.59,14.72,19.78,26.17C433.59,174,433.74,176.13,433.74,178.06Z"/></g><path class="cls-2" d="M98.1,294.12a10.57,10.57,0,0,1-6.82,2.18c-4.89,0-7.67-3.15-9-4.68l2.3-2.63c1.41,1.9,4,4,7.06,4s5.45-1.74,5.45-4.68-3.11-4-4.52-4.6-3.39-1.34-4.44-1.86a8.9,8.9,0,0,1-2.79-2A6.72,6.72,0,0,1,83.53,275a6.94,6.94,0,0,1,2.54-5.37,9.78,9.78,0,0,1,6.42-2.06,10.89,10.89,0,0,1,8,3.59l-2.06,2.67a8.47,8.47,0,0,0-6.13-3c-2.75,0-4.85,1.29-4.85,3.88s1.9,3.55,3.6,4.23l5.12,2.14a11,11,0,0,1,3.15,2.26,7.18,7.18,0,0,1,1.69,4.69A7.76,7.76,0,0,1,98.1,294.12Z"/><path class="cls-2" d="M126.43,287.14H111.65c.21,3.79,2.63,6.09,6.18,6.09a10.66,10.66,0,0,0,6.34-2.22l1.61,2.22c-.24.2-2.7,3-8.43,3s-9.61-4-9.61-10.05a9.51,9.51,0,0,1,9.73-9.93,8.75,8.75,0,0,1,9.08,9.16A16.91,16.91,0,0,1,126.43,287.14Zm-3.56-2.59a5.53,5.53,0,0,0-5.52-5.48,5.64,5.64,0,0,0-5.66,5.48Z"/><path class="cls-2" d="M144.74,280.19h-.16a5.11,5.11,0,0,0-2.1-.4,4,4,0,0,0-3.14,1.62,8.4,8.4,0,0,0-1.17,4.84v9.56h-3.88V276.64h3.88l0,2.95h.12a5,5,0,0,1,4.72-3.31,5.46,5.46,0,0,1,2,.32Z"/><path class="cls-2" d="M168.47,276.64l-8,19.17h-3.39l-8-19.17h4l5.69,14.45,5.65-14.45Z"/><path class="cls-2" d="M192.08,287.14H177.31c.2,3.79,2.62,6.09,6.17,6.09a10.66,10.66,0,0,0,6.34-2.22l1.61,2.22c-.24.2-2.7,3-8.43,3s-9.61-4-9.61-10.05a9.51,9.51,0,0,1,9.73-9.93,8.75,8.75,0,0,1,9.08,9.16A16.91,16.91,0,0,1,192.08,287.14Zm-3.55-2.59a5.54,5.54,0,0,0-5.53-5.48,5.63,5.63,0,0,0-5.65,5.48Z"/><path class="cls-2" d="M218.51,295.81H214.8v-3.06h-.08a7.81,7.81,0,0,1-6.74,3.51c-5.69,0-9.33-4.36-9.33-10.05s3.64-9.93,9.25-9.93a7.76,7.76,0,0,1,6.7,3.35h.08V268h3.83Zm-9.81-16.38c-3.83,0-6.09,2.9-6.09,6.74s2.26,6.78,6.09,6.78,6.1-2.95,6.1-6.78S212.54,279.43,208.7,279.43Z"/><path class="cls-2" d="M267.54,276.64l-6.34,19.17h-3.55l-5-14.32-5.09,14.32H244l-6.34-19.17h3.92L246,291.13l5-14.53h3.11l5,14.53,4.44-14.49Z"/><path class="cls-2" d="M276.61,272.73a2.38,2.38,0,1,1,2.51-2.38A2.38,2.38,0,0,1,276.61,272.73Zm1.94,23.08h-3.87V276.64h3.87Z"/><path class="cls-2" d="M297.27,295.61a9.63,9.63,0,0,1-3.51.65,4.49,4.49,0,0,1-4.07-2c-.81-1.21-1-2.7-1-5.73v-8.76h-2.83v-3.11h2.83V271h3.87v5.73h4.6v3.11h-4.6v8.68a7.46,7.46,0,0,0,.49,3.51,2,2,0,0,0,2,1,4.57,4.57,0,0,0,2-.45Z"/><path class="cls-2" d="M321.29,295.81h-3.88V285c0-2.75-.44-5.49-4-5.49s-5,3-5,6.86v9.48h-3.83V268h3.83v11.7h.08a6.54,6.54,0,0,1,5.89-3.39c5.53,0,6.87,3.55,6.87,8.11Z"/><path class="cls-2" d="M358.45,293.35c-.57.57-2.54,2.91-7.67,2.91a10,10,0,0,1,.12-20c5.13,0,7.23,2.5,7.43,2.74L357,281.85a7.55,7.55,0,0,0-5.73-2.34c-3.4,0-6.22,2.58-6.22,6.62s2.54,6.82,6.26,6.82a8,8,0,0,0,5.81-2.42Z"/><path class="cls-2" d="M382.86,287.14H368.09c.2,3.79,2.62,6.09,6.18,6.09A10.59,10.59,0,0,0,380.6,291l1.62,2.22c-.24.2-2.71,3-8.44,3s-9.6-4-9.6-10.05a9.51,9.51,0,0,1,9.72-9.93,8.75,8.75,0,0,1,9.08,9.16A16.91,16.91,0,0,1,382.86,287.14Zm-3.55-2.59a5.53,5.53,0,0,0-5.53-5.48,5.64,5.64,0,0,0-5.65,5.48Z"/><path class="cls-2" d="M394.76,295.81h-3.83V268h3.83Z"/><path class="cls-2" d="M421.6,287.14H406.83c.2,3.79,2.62,6.09,6.17,6.09a10.6,10.6,0,0,0,6.34-2.22l1.62,2.22c-.25.2-2.71,3-8.44,3s-9.61-4-9.61-10.05a9.51,9.51,0,0,1,9.73-9.93,8.75,8.75,0,0,1,9.08,9.16A16.91,16.91,0,0,1,421.6,287.14Zm-3.55-2.59a5.53,5.53,0,0,0-5.53-5.48,5.64,5.64,0,0,0-5.65,5.48Z"/><path class="cls-2" d="M439.92,280.19h-.16a5.11,5.11,0,0,0-2.1-.4,4,4,0,0,0-3.15,1.62,8.48,8.48,0,0,0-1.17,4.84v9.56h-3.87V276.64h3.87l0,2.95h.12a5,5,0,0,1,4.72-3.31,5.39,5.39,0,0,1,2,.32Z"/><path class="cls-2" d="M463.65,276.64l-9.24,22.52c-1.34,3.31-2.91,4.44-5.05,4.44a9.54,9.54,0,0,1-3.63-.68l.77-3.15a6,6,0,0,0,2,.44c.81,0,1.66.08,2.51-2.26l.92-2.54-7.66-18.81,4,0,5.69,14.9,5.65-14.94Z"/><path class="cls-2" d="M507,295.81h-4.64l-3.43-4c-2.59,2.62-5.17,4.48-9.41,4.48-4.84,0-8.64-2.79-8.64-7.79,0-4.4,3.44-6.7,7.31-8.68-1.37-1.65-3.15-3.47-3.15-6.38,0-3.63,3-5.93,7.11-5.93s6.94,2.3,6.94,5.85c0,3.11-2.59,5.45-5.53,7.11l5.41,6.37a33,33,0,0,0,3.47-5.65l3,1.38a43.82,43.82,0,0,1-4.31,6.61l5.85,6.38Zm-16.67-13.76-1.17.65c-2,1.13-4.36,2.66-4.36,5.61a4.91,4.91,0,0,0,5.21,4.92c2.94,0,5.52-2.14,6.74-3.75Zm1.86-11.7a3.18,3.18,0,0,0-3.44,3.27,5.42,5.42,0,0,0,1.54,3.43l1.13,1.29c1.33-.77,4.16-2.34,4.16-4.89C495.61,271.4,494.19,270.35,492.22,270.35Z"/><path class="cls-2" d="M545.12,295.81H540.4l-7.27-12h-3v12h-3.92V268h7.87a10.65,10.65,0,0,1,6.7,1.93,7.32,7.32,0,0,1,2.7,5.9,7.4,7.4,0,0,1-6.33,7.62Zm-7.43-23.65c-1.25-.93-2.74-1-4.68-1h-2.86v9.45H533c1.94,0,3.43-.08,4.68-1a4.22,4.22,0,0,0,1.78-3.75A4.15,4.15,0,0,0,537.69,272.16Z"/><path class="cls-2" d="M566.42,295.81h-3.75l0-2.42a7.9,7.9,0,0,1-6.09,2.87c-3.56,0-6.62-2.22-6.62-5.94s3.06-5.65,7.5-5.85l5.13-.2v-.77c0-2.9-2-4.35-4.76-4.35A11.77,11.77,0,0,0,552,280.8l-1.18-2.58a14.78,14.78,0,0,1,7.19-1.94c3.19,0,5,.89,6.34,2.18s2,3,2,6.21Zm-3.83-9.2-4.48.28c-3.11.17-4.36,1.5-4.36,3.31s1.41,3.31,4,3.31a6,6,0,0,0,4.88-2.78Z"/><path class="cls-2" d="M592,295.81h-3.88V285.12c0-3.23-.56-5.65-4-5.65-3.6,0-4.93,3-4.93,6.7v9.64H575.3V276.64h3.87l0,3h.12a6.48,6.48,0,0,1,5.86-3.39c5.44,0,6.86,3.59,6.86,8.19Z"/><path class="cls-2" d="M617.11,293.35c-.57.57-2.55,2.91-7.67,2.91a10,10,0,0,1,.12-20c5.12,0,7.22,2.5,7.42,2.74l-1.37,2.83a7.53,7.53,0,0,0-5.73-2.34c-3.39,0-6.21,2.58-6.21,6.62s2.54,6.82,6.25,6.82a8,8,0,0,0,5.81-2.42Z"/><path class="cls-2" d="M641,295.81h-3.87V285c0-2.75-.44-5.49-4-5.49s-5,3-5,6.86v9.48h-3.83V268h3.83v11.7h.08a6.54,6.54,0,0,1,5.89-3.39c5.53,0,6.86,3.55,6.86,8.11Z"/><path class="cls-2" d="M671,296.26c-5.73,0-10.17-4-10.17-10a10.15,10.15,0,0,1,20.3,0C681.1,292.26,676.67,296.26,671,296.26Zm0-16.83c-3.87,0-6.25,3-6.25,6.74S667.1,293,671,293s6.22-3,6.22-6.78S674.81,279.43,671,279.43Z"/><path class="cls-2" d="M699.5,280.19h-.16a5.11,5.11,0,0,0-2.1-.4,4,4,0,0,0-3.14,1.62,8.37,8.37,0,0,0-1.18,4.84v9.56h-3.87V276.64h3.87l0,2.95H693a5,5,0,0,1,4.72-3.31,5.46,5.46,0,0,1,2,.32Z"/><path class="cls-2" d="M734.89,294c-1.73,1.37-3.95,1.81-7,1.81h-9V268h7.51c2.62,0,4.88.2,6.62,1.33a6.2,6.2,0,0,1,3,5.65,6.33,6.33,0,0,1-4.23,6.09v.08c3.75.77,6.17,3.11,6.17,6.78A7.26,7.26,0,0,1,734.89,294Zm-4.72-22.16a7.22,7.22,0,0,0-3.83-.77h-3.59v8.84H726c1.94,0,3.23-.16,4.16-.84a4.16,4.16,0,0,0,1.86-3.68A3.7,3.7,0,0,0,730.17,271.84Zm1.66,12.07a8.56,8.56,0,0,0-4.89-1h-4.19v9.73h4.19c1.78,0,3.51,0,4.89-1a4.33,4.33,0,0,0,2-3.92A4.19,4.19,0,0,0,731.83,283.91Z"/><path class="cls-2" d="M750.06,295.81h-3.83V268h3.83Z"/><path class="cls-2" d="M775.81,295.81h-3.75l0-2.74a6.68,6.68,0,0,1-5.94,3.19c-2.74,0-4.31-.93-5.32-2.22s-1.42-3.19-1.42-5.93V276.6h3.84v11.34c0,2.63.56,5.09,4,5.09s4.77-2.91,4.77-6.14V276.6h3.87Z"/><path class="cls-2" d="M802.44,287.14H787.67c.2,3.79,2.62,6.09,6.18,6.09a10.59,10.59,0,0,0,6.33-2.22l1.62,2.22c-.24.2-2.71,3-8.44,3s-9.6-4-9.6-10.05a9.51,9.51,0,0,1,9.72-9.93,8.75,8.75,0,0,1,9.08,9.16A16.91,16.91,0,0,1,802.44,287.14Zm-3.55-2.59a5.53,5.53,0,0,0-5.53-5.48,5.64,5.64,0,0,0-5.65,5.48Z"/><path class="cls-2" d="M845.5,292.18c-1.74,1.94-4.88,4.12-10.17,4.12-8.11,0-14.25-5.69-14.25-14.37s6.26-14.37,14.25-14.37a13.82,13.82,0,0,1,9.89,3.67l-1.66,3.15a11,11,0,0,0-8.07-3.39c-6,0-10.37,4.32-10.37,10.86s4.4,10.86,10.37,10.86a11,11,0,0,0,8.31-3.39Z"/><path class="cls-2" d="M869.87,295.81H866V285c0-2.75-.45-5.49-4-5.49s-5,3-5,6.86v9.48H853.2V268H857v11.7h.08a6.54,6.54,0,0,1,5.89-3.39c5.53,0,6.86,3.55,6.86,8.11Z"/><path class="cls-2" d="M896.42,287.14H881.65c.2,3.79,2.62,6.09,6.18,6.09a10.59,10.59,0,0,0,6.33-2.22l1.62,2.22c-.24.2-2.71,3-8.44,3s-9.6-4-9.6-10.05a9.51,9.51,0,0,1,9.72-9.93,8.75,8.75,0,0,1,9.08,9.16A16.91,16.91,0,0,1,896.42,287.14Zm-3.55-2.59a5.53,5.53,0,0,0-5.53-5.48,5.64,5.64,0,0,0-5.65,5.48Z"/><path class="cls-2" d="M921.68,287.14H906.91c.2,3.79,2.63,6.09,6.18,6.09a10.59,10.59,0,0,0,6.33-2.22l1.62,2.22c-.24.2-2.71,3-8.44,3s-9.6-4-9.6-10.05a9.51,9.51,0,0,1,9.72-9.93,8.75,8.75,0,0,1,9.08,9.16A16.91,16.91,0,0,1,921.68,287.14Zm-3.55-2.59a5.53,5.53,0,0,0-5.53-5.48,5.64,5.64,0,0,0-5.65,5.48Z"/><path class="cls-2" d="M940.49,294.56a8.18,8.18,0,0,1-5.33,1.7,9.19,9.19,0,0,1-7.47-3.43l1.86-2.26a7.87,7.87,0,0,0,5.65,2.74c1.78,0,3.67-.64,3.67-2.74s-3-2.75-4.32-3.19a14.41,14.41,0,0,1-2.62-1,5,5,0,0,1-3-4.6c0-3.55,3.07-5.49,6.46-5.49a8.4,8.4,0,0,1,6.54,2.5l-1.61,2.38a7,7,0,0,0-4.85-2.05c-1.86,0-3.07.8-3.07,2.38s1.86,2.26,3.76,2.86c1,.37,1.77.61,2.58.93a7.27,7.27,0,0,1,2.22,1.37,4.74,4.74,0,0,1,1.53,3.55A5.45,5.45,0,0,1,940.49,294.56Z"/><path class="cls-2" d="M967.56,287.14H952.79c.2,3.79,2.63,6.09,6.18,6.09A10.59,10.59,0,0,0,965.3,291l1.62,2.22c-.24.2-2.71,3-8.44,3s-9.6-4-9.6-10.05a9.51,9.51,0,0,1,9.72-9.93,8.75,8.75,0,0,1,9.08,9.16A16.91,16.91,0,0,1,967.56,287.14ZM964,284.55a5.53,5.53,0,0,0-5.53-5.48,5.64,5.64,0,0,0-5.65,5.48Z"/><g class="cls-6"><path class="cls-2" d="M166.2,420.56c-17,0-22.87-5.6-22.87-18.68V364.52c0-14.88,6.49-18.88,22.27-18.88,16.18,0,20.48,5.1,20.48,18.68v4.89H175v-1.39c0-9.39-3.2-11.19-9.39-11.19-7.59,0-10.39,2.2-10.39,10.09V377a28.23,28.23,0,0,1,12.09-2.7c14.68,0,20.08,5.49,20.08,21.57C187.38,412.86,183.28,420.56,166.2,420.56Zm-.7-34.87c-8.49,0-10.79,3.9-10.79,11.39s1.4,12.19,10.79,12.19c9,0,11-3.5,11-12.19C176.49,389.29,173.89,385.69,165.5,385.69Z"/><path class="cls-2" d="M127.85,539.11H116.46V480.48h-6.29c-1.7,0-2.4-1.6-2.4-3.2a2.7,2.7,0,0,1,2.4-2.79c7.89-1.1,9.59-7.1,9.59-8.29h8.09Z"/><path class="cls-2" d="M171,510.54l-10.29,6.4c-3.9,2.39-6.2,5.09-6.2,9.19v3.19h17.08c3,0,4.1-1.6,4.1-4.49v-4h10.49v18.28H142.93V523.23c0-5.29,3.19-10.89,11.09-16.08l7.19-4.7c12-7.79,13.88-11.58,13.88-16.48,0-3.79-.7-9.49-9.79-9.49-10.79,0-10.29,7.69-10.29,12.39v1.7H143.73c0-12.19.9-25.27,22.27-25.27,18.78,0,21.58,8.09,21.58,16.88C187.58,496.16,184.78,502,171,510.54Z"/><path class="cls-2" d="M128.35,659H117V600.33h-6.29c-1.7,0-2.4-1.6-2.4-3.19a2.71,2.71,0,0,1,2.4-2.8c7.89-1.1,9.59-7.09,9.59-8.29h8.09Z"/><path class="cls-2" d="M164.4,660.66c-20.47,0-21.87-8.19-21.87-21.57,0-10.89,1.1-14.19,8.29-17.48-6-3-7.09-6.29-7.09-17.28,0-15.68,5.69-19.48,20.87-19.48,16.28,0,21.68,3.1,21.68,18.58,0,9.59-1,14.68-7.49,17.68,8.79,3.1,8.49,9.89,8.49,18C187.28,654.77,181.38,660.66,164.4,660.66Zm.9-31c-7.89,0-11.48,1.6-11.48,9.19,0,9.09,2.09,11.79,11.48,11.79,9,0,10.79-3.2,10.79-10.79C176.09,631.3,173,629.7,165.3,629.7Zm-.5-33.46c-6.89,0-10.28,1.3-10.28,10.79,0,9.08,1.49,10.88,10.28,10.88s10.29-2.29,10.29-10.88C175.09,597.34,173.09,596.24,164.8,596.24Z"/><path class="cls-2" d="M113,750.25l-10.29,6.4c-3.9,2.39-6.19,5.09-6.19,9.18V769h17.08c3,0,4.09-1.6,4.09-4.49v-4h10.49v18.28H84.9V762.94c0-5.3,3.2-10.89,11.09-16.08l7.19-4.7c12-7.79,13.88-11.58,13.88-16.48,0-3.79-.7-9.49-9.79-9.49-10.78,0-10.28,7.69-10.28,12.39v1.7H85.7c0-12.19.9-25.27,22.27-25.27,18.78,0,21.58,8.09,21.58,16.88C129.55,735.87,126.75,741.66,113,750.25Z"/><path class="cls-2" d="M188.48,759.74h-6.4v19.08H170.9V759.74h-27a4.89,4.89,0,0,1-5.1-4.89,6.77,6.77,0,0,1,1.1-3.6L167.5,705.8h14.58v44.65h6.4ZM170.9,720.89a.43.43,0,0,0-.4-.4.66.66,0,0,0-.5.4l-16.68,28.16a.6.6,0,0,0-.1.4c0,.4.3.7,1,.7H169.8a1,1,0,0,0,1.1-1.1Z"/></g><path class="cls-2" d="M960.05,373.46c0,5-2.39,8.15-8.27,8.68v4h-3.26v-4c-6.4-.29-7.92-2.68-7.92-10.07h5.3c0,3.2.23,4.48,2.62,4.83V366.82l-.64-.4c-3.73-2.62-7.51-4.78-7.51-10.25,0-4.54,2-8,8.15-8.5v-4.14h3.26v4.14c6.41.29,7.75,2.56,7.75,9.49h-5.24c0-3.32-.82-4.14-2.51-4.31v9.26l2.27,1.45c3.38,2.16,5.53,5.13,5.88,8C960,372.18,960.05,372.82,960.05,373.46Zm-11.53-20.55c-1.92.35-2.5,1.51-2.5,3.2,0,1.22.29,2,2.5,3.73Zm3.26,16.24v7.75c2.1-.35,2.56-1.46,2.56-3.55C954.34,371.83,954.17,371,951.78,369.15Z"/><path class="cls-2" d="M992.7,420.71c-17,0-22.87-5.59-22.87-18.67V364.68c0-14.88,6.49-18.88,22.27-18.88,16.18,0,20.48,5.1,20.48,18.68v4.89h-11.09V368c0-9.39-3.2-11.19-9.39-11.19-7.59,0-10.39,2.2-10.39,10.09v10.28a28.37,28.37,0,0,1,12.09-2.69c14.68,0,20.07,5.49,20.07,21.57C1013.87,413,1009.78,420.71,992.7,420.71Zm-.7-34.85c-8.49,0-10.79,3.89-10.79,11.38s1.4,12.19,10.79,12.19c9,0,11-3.5,11-12.19C1003,389.45,1000.39,385.86,992,385.86Z"/><path class="cls-2" d="M1033.61,385.28a.83.83,0,0,1-.87.88h-5.19a.83.83,0,0,1-.87-.88V380.1a.82.82,0,0,1,.87-.87h5.19a.82.82,0,0,1,.87.87Z"/><path class="cls-2" d="M1067,375.79c0,8.68-3.61,10.95-12.52,10.95-9.14,0-11.53-2.91-11.53-10.83v-2.8H1049v.76c0,5.3,1.69,6.46,4.89,6.46,4.54,0,6.52-1,6.52-5.82v-6.17a14.89,14.89,0,0,1-6.81,1.69c-8.33,0-11.65-3-11.65-12.58,0-9.78,2.51-14.32,12.17-14.32,9.49,0,12.81,3.2,12.81,10.77Zm-12.46-26.32c-5.12,0-6.34,2.16-6.34,7.28,0,4.6,1.51,6.7,6.34,6.7s6.23-2.27,6.23-6.7S1059.87,349.47,1054.51,349.47Z"/><path class="cls-2" d="M1098.3,375.79c0,8.68-3.61,10.95-12.52,10.95-9.14,0-11.53-2.91-11.53-10.83v-2.8h6.12v.76c0,5.3,1.68,6.46,4.89,6.46,4.54,0,6.52-1,6.52-5.82v-6.17A14.92,14.92,0,0,1,1085,370c-8.33,0-11.65-3-11.65-12.58,0-9.78,2.5-14.32,12.17-14.32,9.49,0,12.81,3.2,12.81,10.77Zm-12.46-26.32c-5.13,0-6.35,2.16-6.35,7.28,0,4.6,1.52,6.7,6.35,6.7s6.23-2.27,6.23-6.7S1091.2,349.47,1085.84,349.47Z"/><path class="cls-2" d="M960.05,493.32c0,4.95-2.39,8.15-8.27,8.67v4h-3.26v-4c-6.4-.29-7.92-2.68-7.92-10.07h5.3c0,3.2.23,4.48,2.62,4.83V486.68l-.64-.41c-3.73-2.62-7.51-4.77-7.51-10.25,0-4.54,2-8,8.15-8.5v-4.13h3.26v4.13c6.41.29,7.75,2.56,7.75,9.49h-5.24c0-3.32-.82-4.13-2.51-4.31V482l2.27,1.46c3.38,2.15,5.53,5.12,5.88,8C960,492,960.05,492.68,960.05,493.32Zm-11.53-20.56c-1.92.35-2.5,1.52-2.5,3.2,0,1.23.29,2,2.5,3.73ZM951.78,489v7.74c2.1-.35,2.56-1.45,2.56-3.55C954.34,491.69,954.17,490.81,951.78,489Z"/><path class="cls-2" d="M988.7,539.27H977.32V480.64H971c-1.69,0-2.39-1.6-2.39-3.2a2.7,2.7,0,0,1,2.39-2.79c7.9-1.1,9.59-7.1,9.59-8.29h8.09Z"/><path class="cls-2" d="M1021.86,539.27h-11.38V480.64h-6.3c-1.69,0-2.39-1.6-2.39-3.2a2.7,2.7,0,0,1,2.39-2.79c7.9-1.1,9.59-7.1,9.59-8.29h8.09Z"/><path class="cls-2" d="M1044.59,505.14a.82.82,0,0,1-.87.87h-5.18a.82.82,0,0,1-.87-.87V500a.82.82,0,0,1,.87-.87h5.18a.82.82,0,0,1,.87.87Z"/><path class="cls-2" d="M1078,495.65c0,8.67-3.61,10.94-12.52,10.94-9.14,0-11.53-2.91-11.53-10.83V493H1060v.75c0,5.3,1.69,6.47,4.9,6.47,4.54,0,6.52-1,6.52-5.83v-6.17a14.93,14.93,0,0,1-6.82,1.69c-8.32,0-11.64-3-11.64-12.58,0-9.78,2.5-14.32,12.17-14.32,9.49,0,12.81,3.2,12.81,10.77Zm-12.46-26.32c-5.13,0-6.35,2.15-6.35,7.28,0,4.6,1.52,6.69,6.35,6.69s6.23-2.27,6.23-6.69S1070.86,469.33,1065.5,469.33Z"/><path class="cls-2" d="M1109.29,495.65c0,8.67-3.61,10.94-12.52,10.94-9.15,0-11.53-2.91-11.53-10.83V493h6.11v.75c0,5.3,1.69,6.47,4.89,6.47,4.55,0,6.52-1,6.52-5.83v-6.17a14.86,14.86,0,0,1-6.81,1.69c-8.33,0-11.64-3-11.64-12.58,0-9.78,2.5-14.32,12.17-14.32,9.49,0,12.81,3.2,12.81,10.77Zm-12.46-26.32c-5.13,0-6.35,2.15-6.35,7.28,0,4.6,1.51,6.69,6.35,6.69s6.23-2.27,6.23-6.69S1102.18,469.33,1096.83,469.33Z"/><path class="cls-2" d="M960.05,613.17c0,5-2.39,8.15-8.27,8.68v4h-3.26v-4c-6.4-.29-7.92-2.68-7.92-10.08h5.3c0,3.21.23,4.49,2.62,4.84V606.53l-.64-.4c-3.73-2.62-7.51-4.78-7.51-10.25,0-4.54,2-8,8.15-8.5v-4.14h3.26v4.14c6.41.29,7.75,2.56,7.75,9.49h-5.24c0-3.32-.82-4.14-2.51-4.31v9.26l2.27,1.45c3.38,2.16,5.53,5.13,5.88,8C960,611.89,960.05,612.53,960.05,613.17Zm-11.53-20.55c-1.92.35-2.5,1.51-2.5,3.2,0,1.22.29,2,2.5,3.73Zm3.26,16.24v7.75c2.1-.35,2.56-1.46,2.56-3.56C954.34,611.54,954.17,610.67,951.78,608.86Z"/><path class="cls-2" d="M988.7,659.12H977.32V600.49H971c-1.69,0-2.39-1.6-2.39-3.19a2.71,2.71,0,0,1,2.39-2.8c7.9-1.1,9.59-7.09,9.59-8.29h8.09Z"/><path class="cls-2" d="M1025.86,660.42c-17,0-22.87-5.59-22.87-18.68V604.39c0-14.88,6.49-18.88,22.27-18.88,16.18,0,20.48,5.09,20.48,18.68v4.89h-11.09v-1.4c0-9.38-3.2-11.18-9.39-11.18-7.59,0-10.39,2.19-10.39,10.09v10.28a28.37,28.37,0,0,1,12.09-2.69c14.68,0,20.08,5.49,20.08,21.57C1047,652.73,1042.94,660.42,1025.86,660.42Zm-.7-34.86c-8.49,0-10.79,3.9-10.79,11.39s1.4,12.19,10.79,12.19c9,0,11-3.5,11-12.19C1036.15,629.16,1033.55,625.56,1025.16,625.56Z"/><path class="cls-2" d="M1066.77,625a.82.82,0,0,1-.88.87h-5.18a.82.82,0,0,1-.87-.87v-5.18a.82.82,0,0,1,.87-.87h5.18a.82.82,0,0,1,.88.87Z"/><path class="cls-2" d="M1100.13,615.5c0,8.68-3.61,11-12.52,11-9.14,0-11.53-2.91-11.53-10.83v-2.8h6.12v.76c0,5.3,1.69,6.46,4.89,6.46,4.54,0,6.52-1,6.52-5.82v-6.17a14.89,14.89,0,0,1-6.81,1.69c-8.33,0-11.65-3-11.65-12.58,0-9.78,2.51-14.33,12.17-14.33,9.49,0,12.81,3.21,12.81,10.78Zm-12.46-26.32c-5.12,0-6.34,2.16-6.34,7.28,0,4.6,1.51,6.7,6.34,6.7s6.23-2.27,6.23-6.7S1093,589.18,1087.67,589.18Z"/><path class="cls-2" d="M1131.46,615.5c0,8.68-3.61,11-12.52,11-9.14,0-11.53-2.91-11.53-10.83v-2.8h6.11v.76c0,5.3,1.69,6.46,4.9,6.46,4.54,0,6.52-1,6.52-5.82v-6.17a14.93,14.93,0,0,1-6.82,1.69c-8.32,0-11.64-3-11.64-12.58,0-9.78,2.5-14.33,12.17-14.33,9.49,0,12.81,3.21,12.81,10.78ZM1119,589.18c-5.13,0-6.35,2.16-6.35,7.28,0,4.6,1.52,6.7,6.35,6.7s6.23-2.27,6.23-6.7S1124.36,589.18,1119,589.18Z"/><path class="cls-2" d="M960.05,733c0,5-2.39,8.15-8.27,8.67v4h-3.26v-4c-6.4-.29-7.92-2.68-7.92-10.07h5.3c0,3.2.23,4.48,2.62,4.83V726.39l-.64-.41c-3.73-2.62-7.51-4.77-7.51-10.25,0-4.54,2-8,8.15-8.5V703.1h3.26v4.13c6.41.29,7.75,2.56,7.75,9.49h-5.24c0-3.32-.82-4.13-2.51-4.31v9.26l2.27,1.46c3.38,2.15,5.53,5.12,5.88,8C960,731.74,960.05,732.39,960.05,733Zm-11.53-20.56c-1.92.35-2.5,1.51-2.5,3.2,0,1.23.29,2,2.5,3.73Zm3.26,16.25v7.74c2.1-.35,2.56-1.45,2.56-3.55C954.34,731.4,954.17,730.52,951.78,728.72Z"/><path class="cls-2" d="M998.69,750.41l-10.29,6.4c-3.89,2.39-6.19,5.09-6.19,9.18v3.2h17.08c3,0,4.1-1.6,4.1-4.49v-4h10.48V779H970.62V763.1c0-5.3,3.2-10.89,11.09-16.08l7.19-4.7c12-7.79,13.89-11.59,13.89-16.48,0-3.79-.7-9.49-9.79-9.49-10.79,0-10.29,7.69-10.29,12.39v1.7H971.42c0-12.19.9-25.28,22.28-25.28,18.78,0,21.57,8.1,21.57,16.89C1015.27,736,1012.48,741.82,998.69,750.41Z"/><path class="cls-2" d="M1045.24,779h-11.39V720.35h-6.29c-1.7,0-2.4-1.6-2.4-3.2a2.71,2.71,0,0,1,2.4-2.8c7.89-1.09,9.58-7.09,9.58-8.29h8.1Z"/><path class="cls-2" d="M1068,744.85a.83.83,0,0,1-.88.87h-5.18a.82.82,0,0,1-.87-.87v-5.19a.82.82,0,0,1,.87-.87h5.18a.83.83,0,0,1,.88.87Z"/><path class="cls-2" d="M1101.33,735.36c0,8.67-3.61,10.94-12.52,10.94-9.14,0-11.53-2.91-11.53-10.83v-2.79h6.12v.75c0,5.3,1.68,6.47,4.89,6.47,4.54,0,6.52-1,6.52-5.83V727.9a14.92,14.92,0,0,1-6.81,1.69c-8.33,0-11.65-3-11.65-12.58,0-9.78,2.5-14.32,12.17-14.32,9.49,0,12.81,3.2,12.81,10.77ZM1088.87,709c-5.12,0-6.35,2.15-6.35,7.27,0,4.6,1.52,6.7,6.35,6.7s6.23-2.27,6.23-6.7S1094.23,709,1088.87,709Z"/><path class="cls-2" d="M1132.66,735.36c0,8.67-3.61,10.94-12.52,10.94-9.14,0-11.53-2.91-11.53-10.83v-2.79h6.11v.75c0,5.3,1.69,6.47,4.89,6.47,4.55,0,6.53-1,6.53-5.83V727.9a14.93,14.93,0,0,1-6.82,1.69c-8.32,0-11.64-3-11.64-12.58,0-9.78,2.5-14.32,12.17-14.32,9.49,0,12.81,3.2,12.81,10.77ZM1120.2,709c-5.13,0-6.35,2.15-6.35,7.27,0,4.6,1.51,6.7,6.35,6.7s6.23-2.27,6.23-6.7S1125.55,709,1120.2,709Z"/><g id="Dots"><line class="cls-7" x1="212.89" y1="739.09" x2="384.71" y2="739.09"/><line class="cls-7" x1="212.89" y1="501.65" x2="384.71" y2="501.65"/><line class="cls-7" x1="212.89" y1="620.37" x2="384.71" y2="620.37"/><line class="cls-7" x1="212.89" y1="382.93" x2="410.71" y2="382.93"/><line class="cls-7" x1="709.71" y1="382.93" x2="911.3" y2="382.93"/><line class="cls-7" x1="739.48" y1="739.09" x2="911.3" y2="739.09"/><line class="cls-7" x1="739.48" y1="501.65" x2="911.3" y2="501.65"/><line class="cls-7" x1="739.48" y1="620.37" x2="911.3" y2="620.37"/></g><g id="Flavor_" data-name="Flavor #"><path class="cls-2" d="M454.94,409.25H444.51V355.52h-5.77c-1.56,0-2.2-1.47-2.2-2.93a2.49,2.49,0,0,1,2.2-2.57c7.23-1,8.79-6.5,8.79-7.59h7.41Z"/><g class="cls-6"><path class="cls-2" d="M502.86,480.29H489.45a1.75,1.75,0,0,0-1.63,1.64v12.39a1.58,1.58,0,0,0,1.44,1.58h11.08v7.17h-11a1.63,1.63,0,0,0-1.58,1.7v15h-7.11v-46h22.22ZM529,519.74H505.31V473.81h7.74v37.44a2,2,0,0,0,2.27,2.08H529Z"/><path class="cls-2" d="M568.56,519.74h-7.49l-2.33-10.32a.78.78,0,0,0-.88-.69H547.23a.93.93,0,0,0-.89.57l-2.26,10.51h-7.24l10.57-46h11Zm-15.73-36.87c-.07-.13-.13-.19-.26-.19s-.25.06-.25.19l-4.4,19.57a.52.52,0,0,0,.56.57h8.18a.56.56,0,0,0,.63-.63Z"/><path class="cls-2" d="M602.1,473.81l-12,45.93H582.6l-11.33-45.93h7.36l7.36,30c.07.32.26.44.44.44s.38-.18.51-.5l7.8-29.95Z"/><path class="cls-2" d="M622.75,520.88c-11.14,0-13.41-3.4-13.41-24,0-18.25,2.27-24,13.53-24,11.83,0,13.41,3.65,13.41,24C636.28,518.11,634.07,520.88,622.75,520.88Zm0-40.84c-4.53,0-6.23.75-6.23,16.8,0,15.54,1.63,16.8,6.23,16.8s6.29-1.07,6.29-16.8C629,480.29,627.91,480,622.75,480Z"/><path class="cls-2" d="M673,519.74h-7.68l-9-17.3a.69.69,0,0,0-.7-.5h-1.38a.56.56,0,0,0-.57.56v17.24h-7.05V473.81H659.5c9.94,0,13.53,3.84,13.53,14.28,0,8.5-2.89,12.34-9.44,13.47Zm-15.42-39.32h-3c-.63,0-.95.18-.95.75v13.22a.67.67,0,0,0,.69.75h3.21c6.86,0,8.25-1.89,8.25-7.05C665.86,482.68,665.1,480.42,657.61,480.42Z"/><path class="cls-2" d="M709.34,508.73c0,7.49-4,12.15-13.84,12.15-10.63,0-13.47-3-13.47-13.85h7.43c0,5.16.57,6.86,6,6.86,5,0,6.1-1.89,6.1-5.28,0-2.33-.31-3.72-4.84-6.86l-4.22-3c-5.28-3.71-10.51-6.42-10.51-14.28,0-6.67,3.34-11.65,13.66-11.65,10.7,0,13.21,2.84,13.21,13h-7.3c0-5.66-2.14-6.1-6.1-6.1-4.47,0-5.85,1.76-5.85,4.78,0,2.14.63,3.58,6.42,7.36l4.78,3.15c4.09,2.7,7.86,6.23,8.37,11.07C709.28,507,709.34,507.91,709.34,508.73Z"/></g><path class="cls-2" d="M436.16,501.79l-9.43,5.86c-3.57,2.2-5.67,4.67-5.67,8.42V519h15.65c2.74,0,3.75-1.47,3.75-4.12v-3.66h9.61V528H410.44V513.41c0-4.85,2.93-10,10.16-14.73l6.59-4.31c11-7.14,12.72-10.61,12.72-15.1,0-3.48-.64-8.69-9-8.69-9.88,0-9.43,7-9.43,11.35v1.55H411.17c0-11.16.82-23.16,20.41-23.16,17.21,0,19.77,7.42,19.77,15.47C451.35,488.61,448.79,493.92,436.16,501.79Z"/><g class="cls-6"><path class="cls-2" d="M502.86,599H489.45a1.75,1.75,0,0,0-1.63,1.64V613a1.58,1.58,0,0,0,1.44,1.58h11.08v7.17h-11a1.64,1.64,0,0,0-1.58,1.7v15h-7.11v-46h22.22ZM529,638.47H505.31V592.53h7.74V630a2,2,0,0,0,2.27,2.08H529Z"/><path class="cls-2" d="M568.56,638.47h-7.49l-2.33-10.32a.78.78,0,0,0-.88-.7H547.23a1,1,0,0,0-.89.57l-2.26,10.51h-7.24l10.57-46h11Zm-15.73-36.88c-.07-.12-.13-.19-.26-.19s-.25.07-.25.19l-4.4,19.57a.52.52,0,0,0,.56.57h8.18a.56.56,0,0,0,.63-.63Z"/><path class="cls-2" d="M602.1,592.53l-12,45.94H582.6l-11.33-45.94h7.36l7.36,30c.07.31.26.44.44.44s.38-.19.51-.51l7.8-30Z"/><path class="cls-2" d="M622.75,639.6c-11.14,0-13.41-3.4-13.41-24,0-18.25,2.27-24,13.53-24,11.83,0,13.41,3.64,13.41,24C636.28,636.83,634.07,639.6,622.75,639.6Zm0-40.84c-4.53,0-6.23.75-6.23,16.8,0,15.54,1.63,16.8,6.23,16.8s6.29-1.07,6.29-16.8C629,599,627.91,598.76,622.75,598.76Z"/><path class="cls-2" d="M673,638.47h-7.68l-9-17.31a.69.69,0,0,0-.7-.5h-1.38a.56.56,0,0,0-.57.56v17.25h-7.05V592.53H659.5c9.94,0,13.53,3.84,13.53,14.28,0,8.5-2.89,12.34-9.44,13.47Zm-15.42-39.33h-3c-.63,0-.95.19-.95.75v13.22a.67.67,0,0,0,.69.75h3.21c6.86,0,8.25-1.89,8.25-7.05C665.86,601.4,665.1,599.14,657.61,599.14Z"/><path class="cls-2" d="M709.34,627.45c0,7.49-4,12.15-13.84,12.15-10.63,0-13.47-3-13.47-13.84h7.43c0,5.16.57,6.85,6,6.85,5,0,6.1-1.88,6.1-5.28,0-2.33-.31-3.71-4.84-6.86l-4.22-3c-5.28-3.71-10.51-6.42-10.51-14.28,0-6.67,3.34-11.64,13.66-11.64,10.7,0,13.21,2.83,13.21,13h-7.3c0-5.66-2.14-6.1-6.1-6.1-4.47,0-5.85,1.76-5.85,4.78,0,2.14.63,3.59,6.42,7.36l4.78,3.15c4.09,2.7,7.86,6.23,8.37,11.07C709.28,625.76,709.34,626.64,709.34,627.45Z"/></g><path class="cls-2" d="M429.57,647.88c-20.32,0-20.41-10.62-20.41-22.33h11.16c0,6.86.92,12.44,9.43,12.44,8.15,0,9.34-4.66,9.34-10.25,0-6.5-2.75-9.52-10.35-9.52H424v-10.8h4.49c6.59,0,10.44-1.37,10.44-11.17,0-5.67-3.58-7-9.16-7-7.6,0-9.52,3.57-9.52,12.26H409.34c0-11.35,2.1-22.33,20-22.33,15.11,0,20.24,3.48,20.24,16.47,0,13.74-3.67,15.84-9.53,16.21,6,1.1,10.17,2.56,10.17,17.3C450.26,644.31,442.75,647.88,429.57,647.88Z"/><g class="cls-6"><path class="cls-2" d="M502.86,717.73H489.45a1.75,1.75,0,0,0-1.63,1.64v12.4a1.58,1.58,0,0,0,1.44,1.57h11.08v7.17h-11a1.64,1.64,0,0,0-1.58,1.7v15h-7.11v-46h22.22ZM529,757.19H505.31V711.25h7.74v37.44a2,2,0,0,0,2.27,2.08H529Z"/><path class="cls-2" d="M568.56,757.19h-7.49l-2.33-10.32a.77.77,0,0,0-.88-.69H547.23a.94.94,0,0,0-.89.56l-2.26,10.51h-7.24l10.57-46h11Zm-15.73-36.88c-.07-.12-.13-.19-.26-.19s-.25.07-.25.19l-4.4,19.57a.52.52,0,0,0,.56.57h8.18a.56.56,0,0,0,.63-.63Z"/><path class="cls-2" d="M602.1,711.25l-12,45.94H582.6l-11.33-45.94h7.36l7.36,30c.07.31.26.44.44.44s.38-.19.51-.51l7.8-30Z"/><path class="cls-2" d="M622.75,758.32c-11.14,0-13.41-3.4-13.41-24,0-18.25,2.27-24,13.53-24,11.83,0,13.41,3.65,13.41,24C636.28,755.55,634.07,758.32,622.75,758.32Zm0-40.84c-4.53,0-6.23.76-6.23,16.8,0,15.55,1.63,16.8,6.23,16.8S629,750,629,734.28C629,717.73,627.91,717.48,622.75,717.48Z"/><path class="cls-2" d="M673,757.19h-7.68l-9-17.31a.69.69,0,0,0-.7-.5h-1.38a.56.56,0,0,0-.57.57v17.24h-7.05V711.25H659.5c9.94,0,13.53,3.84,13.53,14.29,0,8.49-2.89,12.33-9.44,13.46Zm-15.42-39.33h-3c-.63,0-.95.19-.95.75v13.22a.67.67,0,0,0,.69.75h3.21c6.86,0,8.25-1.88,8.25-7C665.86,720.12,665.1,717.86,657.61,717.86Z"/><path class="cls-2" d="M709.34,746.18c0,7.48-4,12.14-13.84,12.14-10.63,0-13.47-3-13.47-13.84h7.43c0,5.16.57,6.86,6,6.86,5,0,6.1-1.89,6.1-5.29,0-2.33-.31-3.71-4.84-6.86l-4.22-3C687.26,732.52,682,729.82,682,722c0-6.67,3.34-11.64,13.66-11.64,10.7,0,13.21,2.83,13.21,13h-7.3c0-5.66-2.14-6.1-6.1-6.1-4.47,0-5.85,1.76-5.85,4.78,0,2.14.63,3.59,6.42,7.36l4.78,3.15c4.09,2.71,7.86,6.23,8.37,11.08C709.28,744.48,709.34,745.36,709.34,746.18Z"/></g><path class="cls-2" d="M453.55,747.93h-5.86v17.48H437.44V747.93H412.73a4.48,4.48,0,0,1-4.67-4.49,6.2,6.2,0,0,1,1-3.29l25.27-41.65h13.36v40.92h5.86Zm-16.11-35.61a.4.4,0,0,0-.37-.37c-.18,0-.36.19-.45.37l-15.29,25.81a.58.58,0,0,0-.09.37c0,.37.27.64.91.64h14.28a.92.92,0,0,0,1-1Z"/><g class="cls-6"><path class="cls-2" d="M510.79,361.57h-13.4a1.76,1.76,0,0,0-1.64,1.63v12.4a1.57,1.57,0,0,0,1.45,1.57h11.07v7.18h-11a1.62,1.62,0,0,0-1.57,1.7v15h-7.11V355h22.21ZM536.91,401H513.25V355.09H521v37.44a2,2,0,0,0,2.26,2.07h13.66Z"/><path class="cls-2" d="M576.49,401H569l-2.33-10.32a.79.79,0,0,0-.88-.69H555.16a.91.91,0,0,0-.88.57L552,401.09h-7.24l10.57-46h11Zm-15.73-36.87c-.06-.13-.12-.19-.25-.19s-.25.06-.25.19l-4.41,19.57a.52.52,0,0,0,.57.56h8.18a.56.56,0,0,0,.63-.63Z"/><path class="cls-2" d="M610,355.09l-12,45.93h-7.55l-11.32-45.93h7.36l7.36,30c.06.32.25.44.44.44s.38-.19.5-.5l7.81-30Z"/><path class="cls-2" d="M630.68,402.16c-11.13,0-13.4-3.4-13.4-24,0-18.25,2.27-24,13.53-24,11.83,0,13.4,3.65,13.4,24C644.21,399.39,642,402.16,630.68,402.16Zm0-40.84c-4.53,0-6.23.75-6.23,16.8,0,15.54,1.64,16.8,6.23,16.8s6.3-1.07,6.3-16.8C637,361.57,635.84,361.32,630.68,361.32Z"/><path class="cls-2" d="M681,401h-7.68l-9-17.3a.67.67,0,0,0-.69-.51h-1.39a.57.57,0,0,0-.56.57V401h-7V355.09h12.84c9.94,0,13.53,3.83,13.53,14.28,0,8.5-2.9,12.33-9.44,13.47Zm-15.42-39.33h-3c-.63,0-.94.19-.94.76v13.21a.68.68,0,0,0,.69.76h3.21c6.86,0,8.24-1.89,8.24-7.05C673.79,364,673,361.69,665.55,361.69Z"/></g></g></g></g></g></g></g></g></svg>